<?xml version="1.0" encoding="utf-8"?>
<!-- Generator: Adobe Illustrator 22.0.1, SVG Export Plug-In . SVG Version: 6.00 Build 0)  -->
<svg version="1.1" id="Layer_1" xmlns="http://www.w3.org/2000/svg" xmlns:xlink="http://www.w3.org/1999/xlink" x="600px" y="600pxx"
	 viewBox="0 0 793.3 206.7" enable-background="new 0 0 793.3 206.7" >
<g>
	<path fill="#FFFFFF" d="M260.5,174.7c0.1-1.7,0.1-3.3-0.1-4.9c-1.1-11.9-2.4-15.9-11-24c-4.8-4.5-11-9.9-16.9-11.1
		c-3-0.6-13.2-1.4-15.6,2.9c-0.4-3.6-1.9-7.3-4.6-9.8c-3-2.9-7.7-5-11.9-4.7c-0.4,0-3.4,0.2-3.5,0.6c2-6.7,0.4-14.2-4.1-19.6
		c-4.4-5.3-11.6-8.3-18.5-7.6c-1.1,0.1-2.2,0.3-3.2-0.2c-1.3-0.6-1.9-2.2-2.4-3.6c-3.1-7.9-10.6-14-19-15.3s-17.4,2.2-22.7,8.8
		c-10.8-6.7-26.6-3.1-33.4,7.6c-6.6-1.9-14-0.5-19.4,3.6s-8.8,10.9-8.7,17.7c-16.1,2.5-29.2,17.7-29.3,33.9
		c-14.3,0.7-27,13-28.2,27.1c-0.7,7.4,2.1,15.7,8.6,19.4c4.3,2.4,9.5,2.5,14.4,2.5c65.7-0.1,131.4-0.1,197.1-0.2
		c8.9,0,18.7-0.3,25.3-6.3C258,187.3,260.2,181,260.5,174.7"/>
	<path fill="#FFFFFF" d="M785.5,109.7c0.1-1.7,0.1-3.3-0.1-4.9c-1.1-11.9-2.4-15.9-11-24c-4.8-4.5-11-9.9-16.9-11.1
		c-3-0.6-13.2-1.4-15.6,2.9c-0.4-3.6-1.9-7.3-4.5-9.8c-3-2.9-7.7-5-11.9-4.7c-0.4,0-3.4,0.2-3.5,0.6c2-6.7,0.4-14.2-4.1-19.6
		c-4.4-5.3-11.6-8.3-18.5-7.6c-1.1,0.1-2.2,0.3-3.2-0.2c-1.3-0.6-1.9-2.2-2.4-3.6c-3.1-7.9-10.6-14-19-15.3s-17.4,2.2-22.7,8.8
		c-10.8-6.7-26.6-3.1-33.4,7.6c-6.6-1.9-14-0.5-19.4,3.6s-8.8,10.9-8.7,17.7c-16.1,2.5-29.2,17.7-29.3,33.9
		c-14.2,0.8-26.8,13-28.1,27.1c-0.7,7.4,2.1,15.7,8.6,19.4c4.3,2.4,9.5,2.5,14.4,2.5c65.7-0.1,131.4-0.1,197.1-0.2
		c8.9,0,18.7-0.3,25.3-6.3C783,122.3,785.2,116,785.5,109.7"/>
	<path fill="#DD7535" d="M522.9,69v78.1c0,2.6,1.9,4.7,4.5,5c24.9,2.8,55.7,13.4,72.4,19.8c4.3,1.6,8.3-2.8,6.2-6.9l-18-36
		c-0.8-1.6-0.7-3.5,0.3-5l16.6-24.7c1.8-2.6,0.7-6.2-2.2-7.4C588.5,85.9,549.7,70.5,522.9,69"/>
	<path fill="#BE7345" d="M553.5,136.2c-10.2,0.1-19.9-0.2-30.6,0.9v5.8c11.3-4.6,20-6.2,26.6-6.7 M558.1,135.9L558.1,135.9
		C558.2,135.9,558.2,135.9,558.1,135.9L558.1,135.9z"/>
	<path fill="#DD7535" d="M251.5,166.6V83.8c0-2.5-1.9-4.7-4.4-5c-23.4-2.7-54.4-13.5-71.5-19.9c-4.3-1.6-8.4,3-6.2,7l17.3,32.3
		c0.9,1.7,0.8,3.8-0.4,5.3l-20,27.1c-1.9,2.5-1,6.1,1.9,7.5C182.6,145,222.1,162.7,251.5,166.6"/>
	<path fill="#BE7345" d="M251.5,87.8c-0.7,0.4-2.3,1.4-2.4,1.3c-5,2.5-10.4,3.7-13.8,4.3c5.4-0.1,10.8,0.3,16.2-0.3V87.8z"/>
	<path fill="#ED915A" d="M552.6,131.4c0.5,2.5-1.4,4.7-3.9,4.7c-54.1,0.5-108.2,11.2-162.3,21.9c-53.7,10.7-107.3,21.3-161,21.9
		c-3.2,0-5.6-2.8-5-5.9c4.7-25.6,9.4-51.1,14.1-76.6c0.4-2.4,2.5-4.1,4.9-4.1c98-1.3,196.1-40,294.1-41.3c2.4,0,4.5,1.7,5,4.1
		C542.5,78,550.1,117.8,552.6,131.4z"/>
</g>
<g>
	<g>
		<path fill="#FFFFFF" d="M276.3,144.8c-1,0.7-2.4,0.9-3.6,1c-2.2,0.1-3.2-0.1-4-0.8c-1.9-1.8-8.2-9.5-9.4-11.9
			c0.2,1.1,0.3,2.6,0.3,3.8c0,3,0,6,0,9c-0.7,0.3-2,0.5-3.3,0.5c-2.9,0.1-3.8-0.6-3.9-1.9c-0.2-1.7-0.2-5.5-0.2-9.9
			c0-3.4,0.1-6,0.2-7.8c-0.7,0-1.4,0-2.1,0.1c-0.5-0.8-0.7-1.7-0.7-3.1c0-2.6,1.7-3.5,6.1-3.6c4-0.1,5.2,0.5,7,2.9
			c1.7,2.1,3.3,4.2,5,6.3c0.8,1.1,1.6,2.1,1.8,2.8c0-0.8,0-1.6,0-2.5c0-4.4,0-6.8-0.2-9.2c0.9-0.7,2.2-1,3.7-1.1
			c3.2-0.2,3.7,0.8,3.7,7.6C276.6,135.3,276.5,141.1,276.3,144.8z"/>
		<path fill="#FFFFFF" d="M297.3,129.9c-0.5,0.1-1.6,0.2-2.3,0.1c-0.3,0-0.6,0-1,0c0.2,0,0.5,0,0.7,0c2.2,0.3,3.8,1.3,3.8,3.7
			c0,3.5-2.8,6.7-9.1,7.4c-0.7,0.1-1.1,0.1-1.6,0.1c0,0.1-0.1,0.2-0.1,0.3c0,0.3,0.3,0.3,0.7,0.3c2-0.1,4.9-0.2,6.8-0.2
			c3.3,0,4.3,1.1,4.3,3.2c0,3.7-3,8.4-12.2,9.4c-6.3,0.6-8.6-0.9-8.6-3.7c0-1.6,1.2-3,3.1-3.4c-1.2-0.2-2.1-1.2-2.1-2.5
			c0-1.9,1.5-3.2,3.7-3.5c-2-0.1-4.5-2-4.5-6c0-6,4.1-9.8,10.9-10.6c1.3-0.1,2.4-0.2,3.1-0.1c2-0.2,4.1-0.5,6.1-0.8
			c0.5,0.7,0.8,1.5,0.8,2.4C300.2,128.5,299,129.7,297.3,129.9z M284.5,147.9c-0.2,0.2-0.3,0.4-0.3,0.7c0,1.1,0.9,1.8,4.1,1.5
			c2.3-0.2,4.2-0.9,4.2-1.5C292.4,147.7,287.4,148.3,284.5,147.9z M289.2,131.1c-1.2,0.1-2,1.3-2,3.1c0,1.3,0.5,2.4,1.8,2.2
			c1.3-0.1,1.9-1.5,1.9-2.9C291,132.2,290.6,131,289.2,131.1z"/>
		<path fill="#FFFFFF" d="M317,140.9c-2.9,0.4-4.2,0-4.2-1.9c0-0.4,0-1.1,0.1-1.6c-0.8,2.9-2.8,4.6-6.3,5.1c-4,0.6-5.8-1.5-5.8-4.6
			c0-3.8,2.6-6.3,8.2-7.1c1.3-0.2,2.2-0.1,2.8-0.1c0.1-1.5-0.3-2.2-2-2c-2.3,0.3-3.8,1.4-4.6,2.6c-2.1-0.1-3.1-1.5-3.1-3
			c0-2.8,3-5.4,9.7-6.4c4.7-0.7,8.5,0.4,8.4,5.7c0,1.6-0.1,3.3-0.1,4.9c0,0.9,0.2,1.2,0.7,1.1c0.4-0.1,0.8-0.2,1.3-0.5
			c1.2,0.5,1.7,1.6,1.7,2.8C323.8,138.2,321.3,140.2,317,140.9z M314.8,119.1c-3.1,0.4-6.2,0.8-9.3,1.1c-0.6-0.7-0.8-1.7-0.8-2.7
			c0-1.8,1.2-3.2,3.2-3.4c2.3-0.3,4.6-0.7,6.9-1c1.2-0.2,2.3-0.4,3.5-0.6c0.4,0.5,0.8,1.5,0.8,2.6
			C319.1,117.5,317.4,118.8,314.8,119.1z M310.6,133.8c-1.3,0.2-2.1,1.1-2.1,2c0,0.7,0.5,1.2,1.3,1.1c0.8-0.1,1.5-0.6,2.1-1.5
			c0-0.6,0-1.1,0-1.7C311.5,133.7,311.2,133.7,310.6,133.8z"/>
		<path fill="#FFFFFF" d="M339.7,136.9c-4.5,0.8-5.1,0.4-5.1-4.7c0-2.5,0.1-5.3,0.3-8.1c-0.7,0.2-1.4,0.3-2.2,0.5
			c-0.3-0.6-0.5-1.3-0.5-2.8c0-2.3,2.1-3.7,6-4.5c3-0.6,5-0.6,5,1c0,5.8,0,11.5,0,17.3C342.7,136.1,341,136.7,339.7,136.9z
			 M339,115.7c-2.6,0.5-4.4,0.1-4.4-3c0-2.5,2-4.5,5-5.1c2.8-0.5,4.3,0.7,4.3,3C343.9,113.1,342.3,115,339,115.7z"/>
		<path fill="#FFFFFF" d="M365,131.9c-5.7,1.2-6,0.7-6-4.8c0-1.5,0.1-3.5,0.1-4.9s-0.3-1.8-1.2-1.6c-0.6,0.1-1.3,0.5-1.7,1.2
			c0,3.8,0,7.5,0,11.3c-0.6,0.4-2.1,1-3.5,1.3c-4.5,0.9-5.2,0.5-5.2-4.7c0-2.5,0.1-5.4,0.3-8.2c-0.7,0.2-1.4,0.3-2.2,0.5
			c-0.4-0.8-0.5-1.5-0.5-2.5c0-2.5,1.9-3.9,6.2-4.7c2.3-0.5,3.5-0.6,4.9-0.4c-0.3,1.4-0.7,2.9-1,4.3c1.5-4.1,3.7-5.5,6.8-6.2
			c3.5-0.7,5.7,0.6,5.7,5c0,1.6,0,3.8-0.2,7.8c0.8-0.2,1.5-0.4,2.3-0.6c0.4,0.6,0.5,1.4,0.5,2.4C370.2,129.9,368.5,131.2,365,131.9z
			"/>
		<path fill="#FFFFFF" d="M389,113.1c-0.5,0.1-1.6,0.3-2.3,0.4c-0.3,0-0.6,0-1,0.1c0.2,0,0.5,0,0.7,0c2.2,0.1,3.8,1,3.8,3.3
			c0,3.5-2.8,6.9-9.1,8.2c-0.7,0.1-1.1,0.2-1.6,0.3c0,0.1-0.1,0.2-0.1,0.3c0,0.3,0.3,0.3,0.7,0.3c2-0.3,4.9-0.7,6.8-0.9
			c3.3-0.3,4.3,0.7,4.3,2.8c0,3.7-3,8.6-12.2,10.6c-6.3,1.3-8.6,0.2-8.6-2.7c0-1.6,1.2-3.2,3.1-3.7c-1.2-0.1-2.1-0.9-2.1-2.2
			c0-1.9,1.5-3.4,3.7-4c-2,0.1-4.5-1.5-4.5-5.4c0-6,4.1-10.4,10.9-11.8c1.3-0.3,2.4-0.4,3.1-0.4c2-0.4,4.1-0.9,6.1-1.3
			c0.5,0.6,0.8,1.4,0.8,2.4C391.9,111.5,390.8,112.8,389,113.1z M376.2,132.4c-0.2,0.2-0.3,0.5-0.3,0.8c0,1.1,0.9,1.7,4.1,1.1
			c2.3-0.5,4.2-1.3,4.2-1.9C384.1,131.4,379.1,132.4,376.2,132.4z M380.9,115.1c-1.2,0.3-2,1.5-2,3.3c0,1.3,0.5,2.3,1.8,2
			s1.9-1.7,1.9-3.1C382.7,116,382.3,114.8,380.9,115.1z"/>
		<path fill="#FFFFFF" d="M402.6,124.1c-6.3,1.3-9.7-0.7-9.7-6.8c0-6.3,3.6-11.9,10.8-13.5c6.5-1.4,9.3,1.5,9.3,7.6
			C413,118.2,408.9,122.8,402.6,124.1z M403.4,110.8c-1.4,0.3-2.5,1.8-2.5,3.9s1,2.9,2.3,2.6s2.4-1.6,2.4-3.9
			C405.6,111.2,404.8,110.5,403.4,110.8z"/>
		<path fill="#FFFFFF" d="M430.3,118.3c-2.9,0.5-4.2,0.2-4.2-1.7c0-0.4,0-1.1,0.1-1.6c-0.8,2.9-2.8,4.7-6.3,5.4
			c-4,0.8-5.8-1.1-5.8-4.2c0-3.8,2.6-6.5,8.2-7.6c1.3-0.3,2.2-0.3,2.8-0.3c0.1-1.5-0.3-2.2-2-1.9c-2.3,0.5-3.8,1.6-4.6,2.9
			c-2.1,0-3.1-1.3-3.1-2.8c0-2.8,3-5.6,9.7-7c4.7-0.9,8.5,0.1,8.4,5.4c0,1.6-0.1,3.3-0.1,4.9c0,0.9,0.2,1.2,0.7,1.1
			c0.4-0.1,0.8-0.2,1.3-0.6c1.2,0.5,1.7,1.5,1.7,2.8C437.1,115.5,434.6,117.5,430.3,118.3z M423.9,111.6c-1.3,0.3-2.1,1.2-2.1,2.1
			c0,0.7,0.5,1.1,1.3,1c0.8-0.2,1.5-0.7,2.1-1.6c0-0.6,0-1.1,0-1.7C424.8,111.4,424.5,111.5,423.9,111.6z"/>
		<path fill="#FFFFFF" d="M458.5,113.1c-0.5,0.1-1.7,0.2-2.2,0.1c0,3.2,0,6.5,0,9.7c-0.6,0.4-2,0.9-3.4,1.1c-4.2,0.7-4.9,0.4-5-4.8
			c0-2.5,0-5.3,0-8.1c0-5,0.2-8.8,0.3-9.9c-0.7,0.2-1.4,0.3-2.2,0.5c-0.4-0.8-0.5-1.5-0.5-2.5c0-2.5,1.9-3.8,6.2-4.5
			c2.6-0.4,3.5-0.4,4.9-0.2c-0.4,1.5-0.7,2.9-1.1,4.4c1-3.1,2.7-5.3,5.9-5.8c4.6-0.7,6.9,2.5,6.9,8.2
			C468.3,107.9,464.7,112.1,458.5,113.1z M458.3,100.6c-0.7,0.1-1.3,0.3-1.9,1.1c0,1.8,0,3.5,0,5.3c0.3,0.1,0.6,0.1,1,0.1
			c1.7-0.3,2.9-1.6,2.9-3.8C460.2,101.5,459.4,100.5,458.3,100.6z"/>
		<path fill="#FFFFFF" d="M486.2,101.6c-2.6,0.3-5.2,0.5-7.8,0.8c0.1,1.3,1.2,2,3.1,1.8c1.8-0.2,3.6-0.8,5.1-1.5
			c1.2,0.5,1.7,1.5,1.7,2.9c0,2.5-2.6,4.5-8.7,5.2c-6.7,0.8-9.8-2.2-9.8-7.9c0-6.7,3.9-11.7,11.3-12.6c5.4-0.6,7.8,2.5,7.8,7
			C488.9,100.2,487.7,101.5,486.2,101.6z M483.5,88c-3.1,0.2-6.2,0.5-9.3,0.8c-0.6-0.7-0.8-1.7-0.8-2.8c0-1.8,1.2-3.2,3.2-3.4
			c2.3-0.3,4.6-0.6,6.9-0.8c1.2-0.2,2.3-0.3,3.5-0.5c0.4,0.5,0.8,1.5,0.8,2.6C487.8,86.6,486.1,87.8,483.5,88z M482.3,98.1
			c0-1-0.5-1.6-1.5-1.5c-1.5,0.2-2.3,1.4-2.4,2.5c1.3-0.2,2.5-0.3,3.8-0.4C482.2,98.5,482.3,98.2,482.3,98.1z"/>
		<path fill="#FFFFFF" d="M502.7,108.1c-0.5,0-1.7,0-2.2-0.1c0,3.2,0,6.5,0,9.7c-0.6,0.4-2,0.7-3.4,0.8c-4.2,0.3-4.9,0-5-5.2
			c0-2.5,0-5.3,0-8.1c0-5,0.2-8.8,0.3-9.9c-0.7,0.1-1.4,0.2-2.2,0.3c-0.4-0.8-0.5-1.6-0.5-2.5c0-2.5,1.9-3.7,6.2-4
			c2.6-0.2,3.5-0.1,4.9,0.2c-0.4,1.4-0.7,2.9-1.1,4.3c1-3,2.7-5,5.9-5.2c4.6-0.2,6.9,3.1,6.9,8.9
			C512.5,103.8,508.9,107.7,502.7,108.1z M502.4,95.6c-0.7,0-1.3,0.2-1.9,0.9c0,1.8,0,3.5,0,5.3c0.3,0.2,0.6,0.2,1,0.2
			c1.7-0.1,2.9-1.3,2.9-3.5C504.4,96.6,503.6,95.5,502.4,95.6z"/>
		<path fill="#FFFFFF" d="M520.7,107.7c-4.5,0.1-5.1-0.4-5.1-5.6c0-2.5,0.1-5.3,0.3-8.1c-0.7,0-1.4,0.1-2.2,0.2
			c-0.3-0.7-0.5-1.4-0.5-2.8c0-2.3,2.1-3.4,6-3.5c3-0.1,5,0.3,5,1.9c0,5.8,0,11.5,0,17.3C523.7,107.4,522.1,107.7,520.7,107.7z
			 M520,86.3c-2.6,0-4.4-0.7-4.4-3.8c0-2.5,2-4.2,5-4.3c2.8,0,4.3,1.4,4.3,3.8C524.9,84.7,523.4,86.3,520,86.3z"/>
	</g>
</g>
<g>
	<g>
		<path fill="#414E5C" d="M540,53.9c0.5,0.9,1.1,1.6,1.6,2.2c-1-0.5-4.5-0.1-6.4-0.4C537,55.2,538.7,54.4,540,53.9L540,53.9z"/>
		<path fill="#7C8C99" d="M535.3,55.7c0.7-0.9,2.5-3.3,3.5-4.1h0.1c0,0.2,0.1,0.3,0.1,0.5c0.2,0.4,0.4,0.8,0.6,1.2
			c0.1,0.2,0.2,0.4,0.4,0.6l0,0C538.7,54.4,537,55.2,535.3,55.7"/>
		<path fill="#414E5C" d="M599.3,61.5c1.1-1.8,0.1-2.9-1.7-3.2l0,0l0,0c0.4-0.5,1.1-2-1.7-2.1l0,0l0,0l0,0c1.4-1.3-1.2-1.8-3.4-1.5
			c0.3,0,0.5,0,0.8,0c-0.3,0-0.5,0-0.8,0c-0.1,0-0.3,0-0.4,0.1c-2.1,0.4-6.7,1.5-10.2,0.7c0.4,0.2,0.9,0.3,1.3,0.5
			c0.3,0.1,0.8,0.4,1.2,0.9l0,0l0,0c0.4,0.6,0.6,1.1,0.7,1.6l0,0l0,0c0,0.1-0.1,1.1-0.3,1.7c-0.1,0.6-1,2.1-1.9,3l0,0
			c-0.4,0.4-0.8,0.8-1.2,1.2c-0.2,0.2-0.6,0.5-1.3,1c0.2-0.1,0.3-0.2,0.5-0.3c2.7-1.8,4.7-1.9,6.8-1.9c3,0,8.8,1.5,11.4,0.7
			C600.2,63.6,600.7,62.1,599.3,61.5z"/>
		<path fill="#414E5C" d="M577.7,54.2c-2.9-0.9-5.6-3.6-8.2-5.1c-3.5-2.1-7.1-4.1-11-5.3v0.1c-0.4-0.1-0.9-0.3-1.3-0.4l-0.1-0.1l0,0
			c-5.2-6.8-12.2-5.3-15.9-1.4c-2.5,2.6-3,6.7-2.2,9.6c0,0.2,0.1,0.3,0.1,0.5c0.2,0.4,0.4,0.8,0.6,1.2l0,0l0,0l0,0
			c0.1,0.2,0.2,0.4,0.4,0.6c0.5,0.9,1.1,1.6,1.6,2.2c2.8,2.1,5.4,1.3,7,1.1c4.8-0.7,6.7-3.2,6.8-5.5l0,0c0-0.1,0-0.2,0.1-0.3
			c0.6-0.6,2.1-0.9,3.4-0.9l0,0l0,0c1.5,0,3,0.6,4.6,1.3l0,0l0,0l0,0c0.5,0.2,1,0.5,1.5,0.7c0.6,0.3,1.2,0.6,1.8,1
			c1.1,0.6,2.2,1.1,3.4,1.5c1.6,0.6,3.4,1,5.3,0.8c0.2-0.1,0.4-0.1,0.6-0.3c0.4-0.1,0.7-0.3,0.9-0.5c0.6-0.3,0.8-0.6,1.2-0.9
			C578.1,54.3,577.9,54.2,577.7,54.2z"/>
		<g>
			<path fill="#414E5C" d="M565.1,30.4c-0.2-0.1-0.3-0.1-0.5,0c-0.3,0-0.5,0.3-0.6,1v-0.1c-0.7-4.3-2.8-4.3-3.2-1.5
				c-1-5.7-3.3-5.5-3.2-1.6v0.3c0.3,2.5,0.3,4.4,0.1,6.9c0,0-0.3,2.9-0.5,5l0,0c-0.2,0.9-0.3,1.8-0.3,2.7c0,0.3,0.2,0.4,0.4,0.5
				c0.1,0.2,0.4,0.3,0.6,0.2c0.1,0.3,0.7,0.4,0.9,0.1c0.1,0.2,0.3,0.2,0.5,0.2c0,0.3,0.4,0.5,0.7,0.4c0,0.2,0.2,0.3,0.3,0.4
				c0,0.1,0,0.3,0.1,0.4c0.2,0.6,0.9,0.4,1-0.1c0,0,0,0,0-0.1l0,0c0.2,0.1,0.4,0.1,0.5,0c0,0.1,0,0.3,0,0.4c0,0.4,0.4,0.5,0.7,0.5
				c0.1,0.5,0.8,0.6,1,0c0.1-0.5,0.2-1,0.3-1.5c0.2,0,0.3-0.1,0.3-0.3c0.1-0.6,0.2-1.2,0.3-1.8c0.2,0.5,1,0.4,1-0.2l0,0v-0.1
				c0-0.4,0-0.9,0.1-1.3h0.1c0,0.2,0.1,0.4,0.3,0.4c0.1,0,0.1,0,0.2,0c0.3,0,0.5-0.1,0.6-0.3c0.2-1,0.3-2,0.3-3
				C567.4,35.1,567.2,31.5,565.1,30.4z"/>
			<path fill="#63727B" d="M581.7,41.9c0-0.1-0.1-0.1-0.2-0.2c-0.6-0.6-1.7-0.5-2,0.3c0.8-3.1,1.5-6.5,0.5-9.6
				c-0.2-0.5-0.4-1.1-0.9-1.2c-0.4-0.1-0.9,0.2-1.1,0.5c-0.2,0.4-0.3,0.8-0.4,1.2c0.4-1.7,0.4-3.5,0.1-5.2c-0.2-0.8-0.5-1.7-1.3-2.1
				c-0.7-0.4-1.9,0-1.9,0.9c0-1.7-0.3-3.5-1.4-4.8c-0.2-0.2-0.4-0.4-0.7-0.5c-0.5-0.2-1.1,0.2-1.4,0.6c-0.3,0.5-0.4,1-0.5,1.6
				c-1,5.8-2.7,11.9-6.3,16.7c-1.3,1.7-2.8,3.2-3.9,5.1c-0.2,0.3-0.4,0.7-0.6,1.1c-0.2,0.5-0.3,0.6,0.2,0.9c0.8,0.5,1.6,0.9,2.4,1.5
				c1.6,1.1,3.1,2.3,4.6,3.4c2.5,1.8,5.2,3.4,8.2,3.7c0.6,0.1,1.2,0.1,1.8-0.2c0.5-0.2,0.9-0.6,1.2-1.1c2.4-2.9,4-6.6,4.1-10.5
				C582.2,43.2,582.1,42.5,581.7,41.9z"/>
		</g>
		<path fill="#7C8C99" d="M549.4,47.6c0.7,1.6-0.1,3.4-1.6,4c-1.6,0.7-4,0.6-4.7-0.9c-0.7-1.6,0.7-4.1,2.3-4.7
			C546.9,45.3,548.7,46,549.4,47.6z"/>
		<path fill="#414E5C" d="M548.5,48c0.5,1.3-0.2,2.8-1.7,3c-0.8,0.1-1.6-0.2-2-0.9c-0.8-1.2-0.3-2.7,0.9-3.3
			C546.8,46.4,548.1,46.9,548.5,48"/>
		<path fill="#FFFFFF" d="M545.2,49.1c-0.1-0.4,0-0.9,0.2-1.2c0.4-0.5,1.9-0.8,1.7,0.2c-0.1,0.4-0.3,0.4-0.5,0.6
			c-0.3,0.3-0.3,0.6-0.7,0.8C545.7,49.5,545.3,49.4,545.2,49.1"/>
		<path fill="#FBAE23" d="M585.1,58.6c0-0.4-0.2-0.8-0.3-1.1c-0.1-0.2-0.2-0.3-0.3-0.5c-0.4-0.5-0.9-0.8-1.2-0.9
			c-0.5-0.2-0.9-0.4-1.3-0.5c-1.4-0.6-2.7-1-3.5-1.3l0,0c0.1,0.1-1.7,1.1-1.9,1.2c-1,0.4-2.2,0.5-3.3,0.4c-1.3-0.2-2.6-0.5-3.8-1
			c-2-0.8-3.9-2-5.8-2.9c-1.5-0.7-3-1.3-4.6-1.3c-1.4,0-2.8,0.3-3.4,0.9c0,0.1,0,0.2-0.1,0.3c-0.1,2.2-1.9,4.6-6.4,5.4
			c-2,0.3-4.9,0.2-7.4-1.1c0.6,0.3,1.2,1,1.7,1.4c0.6,0.4,1.3,0.8,1.9,1.3c2.1,1.5,3,4.2,4.7,6.1c5.9,6.5,16,7.5,23.9,4.5
			c2.9-1.1,5.6-2.8,7.9-4.9c0.5-0.4,0.9-0.8,1.2-1.2c0.8-0.9,1.4-1.8,1.7-2.5c0.1-0.2,0.1-0.3,0.2-0.5c0.2-0.5,0.2-0.9,0.2-1.3
			C585.1,58.8,585.1,58.7,585.1,58.6z"/>
	</g>
	<path fill="#FFC116" d="M574.2,57.3c-1.1,0-2.2,0.1-3.4,0c-1.5-0.2-2.9-0.9-4.2-1.6c-2.2-1.1-4.3-2.5-6.7-2.9
		c-0.9-0.1-1.8-0.1-2.5,0.4c-0.9,0.6-1.1,1.8-1.7,2.7c-0.6,0.9-1.6,1.6-2.7,1.7c-0.5,0.1-1,0.1-1.4,0.3c-0.8,0.4-0.7,1.3-0.4,2
		c0.6,1.6,2.1,2.9,3.4,3.9c3.1,2.4,7,3.6,10.9,3.5c3.8-0.1,8.2-1.4,11.2-3.7c0.3-0.2,0.5-0.4,0.8-0.7c0.7-0.7,1.3-1.7,1.2-2.7
		c-0.1-1.6-1.8-2.6-3.2-2.9C575,57.3,574.6,57.3,574.2,57.3z"/>
</g>
</svg>
