<?xml version="1.0" encoding="utf-8"?>
<!-- Generator: Adobe Illustrator 22.0.1, SVG Export Plug-In . SVG Version: 6.00 Build 0)  -->
<svg version="1.1" id="Layer_1" xmlns="http://www.w3.org/2000/svg" xmlns:xlink="http://www.w3.org/1999/xlink" x="0px" y="0px"
	 viewBox="0 0 793.3 206.7" enable-background="new 0 0 793.3 206.7" xml:space="preserve">
<g>
	<path fill="#FFFFFF" d="M260.2,175.8c0.1-1.7,0.1-3.3-0.1-4.9c-1.1-11.9-2.4-15.9-11-24c-4.8-4.5-11-9.9-16.9-11.1
		c-3-0.6-13.2-1.4-15.6,2.9c-0.4-3.6-1.9-7.3-4.6-9.8c-3-2.9-7.7-5-11.9-4.7c-0.4,0-3.4,0.2-3.5,0.6c2-6.7,0.4-14.2-4.1-19.6
		c-4.4-5.3-11.6-8.3-18.5-7.6c-1.1,0.1-2.2,0.3-3.2-0.2c-1.3-0.6-1.9-2.2-2.4-3.6c-3.1-7.9-10.6-14-19-15.3s-17.4,2.2-22.7,8.8
		c-10.8-6.7-26.6-3.1-33.4,7.6c-6.6-1.9-14-0.5-19.4,3.6s-8.8,10.9-8.7,17.7c-16.1,2.5-29.2,17.7-29.3,33.9
		c-14.2,0.8-26.8,13-28.1,27.1c-0.7,7.4,2.1,15.7,8.6,19.4c4.3,2.4,9.5,2.5,14.4,2.5c65.7-0.1,131.4-0.1,197.1-0.2
		c8.9,0,18.7-0.3,25.3-6.3C257.7,188.4,259.8,182.2,260.2,175.8"/>
	<path fill="#FFFFFF" d="M785.2,110.8c0.1-1.7,0.1-3.3-0.1-4.9c-1.1-11.9-2.4-15.9-11-24c-4.8-4.5-11-9.9-16.9-11.1
		c-3-0.6-13.2-1.4-15.6,2.9c-0.4-3.6-1.9-7.3-4.5-9.8c-3-2.9-7.7-5-11.9-4.7c-0.4,0-3.4,0.2-3.5,0.6c2-6.7,0.4-14.2-4.1-19.6
		c-4.4-5.3-11.6-8.3-18.5-7.6c-1.1,0.1-2.2,0.3-3.2-0.2c-1.3-0.6-1.9-2.2-2.4-3.6c-3.1-7.9-10.6-14-19-15.3s-17.4,2.2-22.7,8.8
		c-10.8-6.7-26.6-3.1-33.4,7.6c-6.6-1.9-14-0.5-19.4,3.6s-8.8,10.9-8.7,17.7c-16.1,2.5-29.2,17.7-29.3,33.9
		c-14.2,0.8-26.8,13-28.1,27.1c-0.7,7.4,2.1,15.7,8.6,19.4c4.3,2.4,9.5,2.5,14.4,2.5c65.7-0.1,131.4-0.1,197.1-0.2
		c8.9,0,18.7-0.3,25.3-6.3C782.7,123.4,784.8,117.1,785.2,110.8"/>
	<path fill="#DD7535" d="M522.6,70.1v78.1c0,2.6,1.9,4.7,4.5,5c24.9,2.8,55.7,13.4,72.4,19.8c4.3,1.6,8.3-2.8,6.2-6.9l-18-35.9
		c-0.8-1.6-0.7-3.5,0.3-5l16.6-24.7c1.8-2.6,0.7-6.2-2.2-7.4C588.1,87,549.4,71.6,522.6,70.1"/>
	<path fill="#BE7345" d="M553.2,137.3c-10.2,0.1-19.9-0.2-30.6,0.9v5.8c11.3-4.6,20-6.2,26.6-6.7 M557.8,137.1L557.8,137.1
		L557.8,137.1L557.8,137.1z"/>
	<path fill="#DD7535" d="M251.1,167.7V85c0-2.5-1.9-4.7-4.4-5c-23.4-2.7-54.4-13.5-71.5-19.9c-4.3-1.6-8.4,3-6.2,7l17.3,32.3
		c0.9,1.7,0.8,3.8-0.4,5.3l-20,27.1c-1.9,2.5-1,6.1,1.9,7.5C182.3,146.1,221.7,163.8,251.1,167.7"/>
	<path fill="#BE7345" d="M251.1,88.9c-0.7,0.4-2.3,1.4-2.4,1.3c-5,2.5-10.4,3.7-13.8,4.3c5.4-0.1,10.8,0.3,16.2-0.3V88.9z"/>
	<path fill="#ED915A" d="M552.3,132.6c0.5,2.5-1.4,4.7-3.9,4.7c-54.1,0.5-108.2,11.2-162.3,21.9c-53.7,10.7-107.3,21.3-161,21.9
		c-3.2,0-5.6-2.8-5-5.9c4.7-25.6,9.4-51.1,14.1-76.6c0.4-2.4,2.5-4.1,4.9-4.1c98-1.3,196.1-40,294.1-41.3c2.4,0,4.5,1.7,5,4.1
		C542.2,79.2,549.7,118.9,552.3,132.6z"/>
</g>
<g>
	<g>
		<path fill="#FFFFFF" d="M279.4,146.7c-6.2,0.2-7.9-0.3-8.2-1.9c-0.2-1.2-0.4-5.3-0.4-9.7c0-3.4,0.1-5.9,0.2-7.7
			c-0.7,0-1.4,0.1-2.1,0.1c-0.6-0.7-0.9-1.7-0.9-2.7c0-3.5,2.3-4.1,13.1-4.5c9.5-0.5,11.4,2.3,11.4,5.9c0,2.4-1.5,4.4-3.4,5.2
			c3.2,0.5,4.5,2.5,4.5,5.2C293.7,142.5,289.2,146.3,279.4,146.7z M281.7,126.9c-0.4,0-0.8,0-1.2,0.1c0,1.5,0,3,0,4.5
			c0.6-0.1,1.6-0.1,3.1-0.2c0.5-0.6,0.7-1.3,0.7-2.4C284.3,127.6,283.4,126.8,281.7,126.9z M282,135.8c-0.4,0-1,0.1-1.5,0.2
			c0,1.7,0,3.3,0,5c0.3,0,0.7,0.1,1,0c1.9-0.1,3.3-1.1,3.3-3.1C284.8,136.5,284.2,135.7,282,135.8z"/>
		<path fill="#FFFFFF" d="M312.4,143.8c-3.1,0.4-4.5,0-4.5-1.9c0-0.4,0-1.1,0.1-1.6c-0.9,2.8-3,4.6-6.8,5c-4.3,0.5-6.2-1.6-6.2-4.7
			c0-3.8,2.9-6.2,8.8-6.9c1.4-0.2,2.4-0.1,3-0.1c0.1-1.5-0.3-2.2-2.1-2c-2.5,0.3-4.1,1.3-5,2.5c-2.3-0.2-3.3-1.5-3.3-3.1
			c0-2.8,3.3-5.3,10.5-6.2c5.1-0.6,9.2,0.5,9,5.7c0,1.6-0.1,3.3-0.1,4.9c0,0.9,0.2,1.2,0.7,1.1c0.4-0.1,0.9-0.2,1.4-0.5
			c1.3,0.5,1.8,1.6,1.8,2.8C319.7,141.1,317.1,143.1,312.4,143.8z M305.5,136.7c-1.4,0.2-2.2,1.1-2.2,2c0,0.7,0.6,1.2,1.4,1.1
			c0.9-0.1,1.7-0.6,2.2-1.4c0-0.6,0-1.1,0-1.7C306.5,136.6,306.1,136.6,305.5,136.7z"/>
		<path fill="#FFFFFF" d="M329.9,141c-5.9,1.1-8.3-0.3-8.5-2c-0.3-1.7-0.4-6.6-0.4-11.5c0-3.9,0-7.2,0.1-8.7
			c0.2-4.5,1.3-5.6,4.7-6.2c1.9-0.3,3.2-0.4,4.5-0.2c0,3.7,0,7.5,0,11.2c0.9-1.6,3-3,5.5-3.5c4.3-0.8,6.9,1.4,6.9,7.8
			C342.6,134.2,338.3,139.5,329.9,141z M332,127.7c-0.8,0.1-1.3,0.5-1.8,1c0,1.9,0,3.8,0,5.6c0.4,0,0.9,0,1.2-0.1
			c1.8-0.3,2.7-2,2.7-3.7C334.1,128.2,333.2,127.4,332,127.7z"/>
		<path fill="#FFFFFF" d="M362.6,129.8c-5.2,11.7-9.3,15.6-14.6,16.7c-3,0.6-4.7-0.6-4.7-3c0-1.3,0.2-2.1,0.8-3.1
			c3.3-0.7,6.6-2.4,7.9-4.4c-1.6-0.1-2.6-0.6-3.1-2.3c-1-3.2-2-6.4-3-9.6c-0.6,0.1-1.2,0.3-1.8,0.4c-0.4-0.8-0.5-1.5-0.5-2.5
			c0-1.9,1.8-3.8,5.9-4.7c3.2-0.7,4.7,0,5.2,1.9c0.6,2.8,1.3,5.5,1.9,8.3c1.3-3.9,2.4-7.2,3.8-12.1c0.6-0.5,1.7-0.9,2.6-1.1
			c3-0.7,4,0.2,4,2.2C366.9,118.4,365.4,123.4,362.6,129.8z"/>
		<path fill="#FFFFFF" d="M398,126c-6.1,1.4-6.5,1-6.5-4.5c0-1.5,0.1-3.5,0.1-4.9s-0.3-1.8-1.3-1.5c-0.6,0.1-1.4,0.6-1.8,1.3
			c0,3.8,0,7.5,0,11.3c-0.6,0.5-2.3,1.1-3.8,1.5c-4.8,1.1-5.6,0.8-5.6-4.4c0-2.5,0.1-5.4,0.3-8.2c-0.8,0.2-1.6,0.4-2.3,0.6
			c-0.4-0.8-0.6-1.5-0.6-2.5c0-2.5,2.1-4,6.7-5.1c2.5-0.6,3.8-0.8,5.3-0.7c-0.4,1.5-0.7,2.9-1.1,4.4c1.6-4.2,4-5.7,7.3-6.5
			c3.8-0.9,6.2,0.3,6.2,4.7c0,1.6,0,3.8-0.3,7.8c0.8-0.2,1.6-0.4,2.5-0.7c0.4,0.6,0.5,1.4,0.5,2.4C403.6,123.8,401.8,125.1,398,126z
			"/>
		<path fill="#FFFFFF" d="M421.5,120.7c-3.1,0.7-4.5,0.4-4.5-1.5c0-0.4,0-1.1,0.1-1.6c-0.9,2.9-3,4.8-6.8,5.7
			c-4.3,1-6.2-0.8-6.2-3.9c0-3.8,2.9-6.7,8.8-8c1.4-0.3,2.4-0.4,3-0.4c0.1-1.5-0.3-2.2-2.1-1.8c-2.5,0.6-4.1,1.8-5,3.1
			c-2.3,0.1-3.3-1.1-3.3-2.7c0-2.8,3.3-5.8,10.5-7.4c5.1-1.1,9.2-0.3,9,5c0,1.7-0.1,3.3-0.1,5c0,0.9,0.2,1.2,0.7,1.1
			c0.4-0.1,0.9-0.3,1.4-0.6c1.3,0.4,1.8,1.5,1.8,2.7C428.8,117.5,426.1,119.6,421.5,120.7z M414.6,114.2c-1.4,0.3-2.2,1.3-2.2,2.2
			c0,0.7,0.6,1.1,1.4,0.9s1.7-0.7,2.2-1.7c0-0.6,0-1.1,0-1.7C415.6,114,415.2,114.1,414.6,114.2z"/>
		<path fill="#FFFFFF" d="M462.4,112.9c-6.1,0.9-6.4,0.5-6.4-4.9c0-1.5,0-3.2,0-5.1c0-1.3-0.1-1.8-1.3-1.6c-0.6,0.1-1.3,0.5-1.8,1.2
			c0,3.8,0,7.5,0,11.3c-0.6,0.4-2.3,1-3.8,1.2c-4.8,0.9-5.5,0.5-5.5-4.4c0-2.6,0.1-4.5,0.1-5.6c0-1.3-0.2-1.7-1.4-1.5
			c-0.6,0.1-1.3,0.6-1.7,1.2c0,3.8,0,7.5,0,11.3c-0.6,0.4-2.3,1-3.8,1.3c-4.8,1-5.6,0.7-5.6-4.5c0-2.5,0.1-5.4,0.3-8.2
			c-0.8,0.2-1.6,0.4-2.3,0.6c-0.4-0.8-0.6-1.5-0.6-2.5c0-2.5,2.1-3.9,6.7-4.9c2.3-0.5,3.7-0.7,5.3-0.5c-0.4,1.4-0.7,2.9-1.1,4.3
			c1.5-3.9,3.8-5.5,7.4-6.2c3.4-0.6,5.1,0.6,5.6,2.8c1.6-3.4,4-4.5,6.6-4.9c3.3-0.5,6.2,0.4,6.2,5.2c0,1.6,0,3.8-0.3,7.8
			c0.8-0.2,1.7-0.3,2.5-0.4c0.4,0.7,0.5,1.7,0.5,2.5C468,111.2,466.2,112.3,462.4,112.9z"/>
		<path fill="#FFFFFF" d="M486.5,101.9c-2.8,0.2-5.6,0.5-8.5,0.8c0.1,1.3,1.3,2,3.4,1.8c2-0.2,3.8-0.8,5.5-1.5
			c1.3,0.6,1.9,1.5,1.9,2.9c0,2.5-2.8,4.4-9.4,5.1c-7.3,0.8-10.6-2.1-10.6-7.9c0-6.7,4.3-11.8,12.2-12.6c5.9-0.6,8.4,2.5,8.4,7.1
			C489.4,100.5,488.2,101.8,486.5,101.9z M482.3,98.3c0-1-0.5-1.6-1.6-1.5c-1.6,0.2-2.5,1.4-2.6,2.5c1.4-0.1,2.7-0.3,4.1-0.4
			C482.2,98.7,482.3,98.5,482.3,98.3z"/>
		<path fill="#FFFFFF" d="M499.4,109.4c-5.6,0.2-8.5-0.7-8.5-3.6c0-1.7,0.9-2.8,2.5-3.3c1.2,1,3.6,1.7,5.5,1.6
			c1.7-0.1,2.3-0.4,2.3-0.8c0-0.3-0.2-0.4-0.7-0.5c-1-0.2-2.9-0.2-4.6-0.7c-3.3-0.9-4.1-2.2-4.1-5c0-4,3.9-7.7,10.7-8
			c6.2-0.2,8,2,8,4.1s-1.3,3-3.2,3.3c-1.2-0.8-3.4-1.5-5.7-1.4c-1.9,0.1-2.4,0.5-2.4,0.9c0,0.3,0.1,0.4,0.7,0.6
			c1.2,0.2,3.2,0.3,4.9,0.7c3.9,0.9,5.4,2.2,5.4,4.9C510.2,106.4,506.7,109.1,499.4,109.4z"/>
	</g>
</g>
<g>
	<g>
		<path fill="#414E5C" d="M538.8,53.1c0.5,0.9,1.1,1.6,1.6,2.2c-1-0.5-4.5-0.1-6.4-0.4C535.8,54.4,537.5,53.5,538.8,53.1L538.8,53.1
			z"/>
		<path fill="#7C8C99" d="M534.1,54.9c0.7-0.9,2.5-3.3,3.5-4.1h0.1c0,0.2,0.1,0.3,0.1,0.5c0.2,0.4,0.4,0.8,0.6,1.2
			c0.1,0.2,0.2,0.4,0.4,0.6l0,0C537.5,53.5,535.8,54.4,534.1,54.9"/>
		<path fill="#414E5C" d="M598.1,60.7c1.1-1.8,0.1-2.9-1.7-3.2l0,0l0,0c0.4-0.5,1.1-2-1.7-2.1l0,0l0,0l0,0c1.4-1.3-1.2-1.8-3.4-1.5
			c0.3,0,0.5,0,0.8,0c-0.3,0-0.5,0-0.8,0c-0.1,0-0.3,0-0.4,0.1c-2.1,0.4-6.7,1.5-10.2,0.7c0.4,0.2,0.9,0.3,1.3,0.5
			c0.3,0.1,0.8,0.4,1.2,0.9l0,0l0,0c0.4,0.6,0.6,1.1,0.7,1.6l0,0l0,0c0,0.1-0.1,1.1-0.3,1.7c-0.1,0.6-1,2.1-1.9,3l0,0
			c-0.4,0.4-0.8,0.8-1.2,1.2c-0.2,0.2-0.6,0.5-1.3,1c0.2-0.1,0.3-0.2,0.5-0.3c2.7-1.8,4.7-1.9,6.8-1.9c3,0,8.8,1.5,11.4,0.7
			C599,62.7,599.5,61.3,598.1,60.7z"/>
		<path fill="#414E5C" d="M576.5,53.3c-2.9-0.9-5.6-3.6-8.2-5.1c-3.5-2.1-7.1-4.1-11-5.3V43c-0.4-0.1-0.9-0.3-1.3-0.4l-0.1-0.1l0,0
			c-5.2-6.8-12.2-5.3-15.9-1.4c-2.5,2.6-3,6.7-2.2,9.6c0,0.2,0.1,0.3,0.1,0.5c0.2,0.4,0.4,0.8,0.6,1.2l0,0l0,0l0,0
			c0.1,0.2,0.2,0.4,0.4,0.6c0.5,0.9,1.1,1.6,1.6,2.2c2.8,2.1,5.4,1.3,7,1.1c4.8-0.7,6.7-3.2,6.8-5.5l0,0c0-0.1,0-0.2,0.1-0.3
			c0.6-0.6,2.1-0.9,3.4-0.9l0,0l0,0c1.5,0,3,0.6,4.6,1.3l0,0l0,0l0,0c0.5,0.2,1,0.5,1.5,0.7c0.6,0.3,1.2,0.6,1.8,1
			c1.1,0.6,2.2,1.1,3.4,1.5c1.6,0.6,3.4,1,5.3,0.8c0.2-0.1,0.4-0.1,0.6-0.3c0.4-0.1,0.7-0.3,0.9-0.5c0.6-0.3,0.8-0.6,1.2-0.9
			C576.8,53.4,576.7,53.4,576.5,53.3z"/>
		<g>
			<path fill="#414E5C" d="M563.8,29.5c-0.2-0.1-0.3-0.1-0.5,0c-0.3,0-0.5,0.3-0.6,1v-0.1c-0.7-4.3-2.8-4.3-3.2-1.5
				c-1-5.7-3.3-5.5-3.2-1.6v0.3c0.3,2.5,0.3,4.4,0.1,6.9c0,0-0.3,2.9-0.5,5l0,0c-0.2,0.9-0.3,1.8-0.3,2.7c0,0.3,0.2,0.4,0.4,0.5
				c0.1,0.2,0.4,0.3,0.6,0.2c0.1,0.3,0.7,0.4,0.9,0.1c0.1,0.2,0.3,0.2,0.5,0.2c0,0.3,0.4,0.5,0.7,0.4c0,0.2,0.2,0.3,0.3,0.4
				c0,0.1,0,0.3,0.1,0.4c0.2,0.6,0.9,0.4,1-0.1c0,0,0,0,0-0.1l0,0c0.2,0.1,0.4,0.1,0.5,0c0,0.1,0,0.3,0,0.4c0,0.4,0.4,0.5,0.7,0.5
				c0.1,0.5,0.8,0.6,1,0c0.1-0.5,0.2-1,0.3-1.5c0.2,0,0.3-0.1,0.3-0.3c0.1-0.6,0.2-1.2,0.3-1.8c0.2,0.5,1,0.4,1-0.2l0,0v-0.1
				c0-0.4,0-0.9,0.1-1.3h0.1c0,0.2,0.1,0.4,0.3,0.4c0.1,0,0.1,0,0.2,0c0.3,0,0.5-0.1,0.6-0.3c0.2-1,0.3-2,0.3-3
				C566.2,34.3,566,30.7,563.8,29.5z"/>
			<path fill="#63727B" d="M580.5,41c0-0.1-0.1-0.1-0.2-0.2c-0.6-0.6-1.7-0.5-2,0.3c0.8-3.1,1.5-6.5,0.5-9.6
				c-0.2-0.5-0.4-1.1-0.9-1.2c-0.4-0.1-0.9,0.2-1.1,0.5s-0.3,0.8-0.4,1.2c0.4-1.7,0.4-3.5,0.1-5.2c-0.2-0.8-0.5-1.7-1.3-2.1
				c-0.7-0.4-1.9,0-1.9,0.9c0-1.7-0.3-3.5-1.4-4.8c-0.2-0.2-0.4-0.4-0.7-0.5c-0.5-0.2-1.1,0.2-1.4,0.6c-0.3,0.5-0.4,1-0.5,1.6
				c-1,5.8-2.7,11.9-6.3,16.7c-1.3,1.7-2.8,3.2-3.9,5.1c-0.2,0.3-0.4,0.7-0.6,1.1c-0.2,0.5-0.3,0.6,0.2,0.9c0.8,0.5,1.6,0.9,2.4,1.5
				c1.6,1.1,3.1,2.3,4.6,3.4c2.5,1.8,5.2,3.4,8.2,3.7c0.6,0.1,1.2,0.1,1.8-0.2c0.5-0.2,0.9-0.6,1.2-1.1c2.4-2.9,4-6.6,4.1-10.5
				C581,42.4,580.9,41.6,580.5,41z"/>
		</g>
		<path fill="#7C8C99" d="M548.1,46.8c0.7,1.6-0.1,3.4-1.6,4c-1.6,0.7-4,0.6-4.7-0.9c-0.7-1.6,0.7-4.1,2.3-4.7
			C545.7,44.5,547.5,45.2,548.1,46.8z"/>
		<path fill="#414E5C" d="M547.3,47.1c0.5,1.3-0.2,2.8-1.7,3c-0.8,0.1-1.6-0.2-2-0.9c-0.8-1.2-0.3-2.7,0.9-3.3
			C545.6,45.5,546.8,46,547.3,47.1"/>
		<path fill="#FFFFFF" d="M544,48.2c-0.1-0.4,0-0.9,0.2-1.2c0.4-0.5,1.9-0.8,1.7,0.2c-0.1,0.4-0.3,0.4-0.5,0.6
			c-0.3,0.3-0.3,0.6-0.7,0.8C544.5,48.7,544.1,48.5,544,48.2"/>
		<path fill="#FBAE23" d="M583.8,57.7c0-0.4-0.2-0.8-0.3-1.1c-0.1-0.2-0.2-0.3-0.3-0.5c-0.4-0.5-0.9-0.8-1.2-0.9
			c-0.5-0.2-0.9-0.4-1.3-0.5c-1.4-0.6-2.7-1-3.5-1.3l0,0c0.1,0.1-1.7,1.1-1.9,1.2c-1,0.4-2.2,0.5-3.3,0.4c-1.3-0.2-2.6-0.5-3.8-1
			c-2-0.8-3.9-2-5.8-2.9c-1.5-0.7-3-1.3-4.6-1.3c-1.4,0-2.8,0.3-3.4,0.9c0,0.1,0,0.2-0.1,0.3c-0.1,2.2-1.9,4.6-6.4,5.4
			c-2,0.3-4.9,0.2-7.4-1.1c0.6,0.3,1.2,1,1.7,1.4c0.6,0.4,1.3,0.8,1.9,1.3c2.1,1.5,3,4.2,4.7,6.1c5.9,6.5,16,7.5,23.9,4.5
			c2.9-1.1,5.6-2.8,7.9-4.9c0.5-0.4,0.9-0.8,1.2-1.2c0.8-0.9,1.4-1.8,1.7-2.5c0.1-0.2,0.1-0.3,0.2-0.5c0.2-0.5,0.2-0.9,0.2-1.3
			C583.9,58,583.9,57.9,583.8,57.7z"/>
	</g>
	<path fill="#FFC116" d="M572.9,56.4c-1.1,0-2.2,0.1-3.4,0c-1.5-0.2-2.9-0.9-4.2-1.6c-2.2-1.1-4.3-2.5-6.7-2.9
		c-0.9-0.1-1.8-0.1-2.5,0.4c-0.9,0.6-1.1,1.8-1.7,2.7c-0.6,0.9-1.6,1.6-2.7,1.7c-0.5,0.1-1,0.1-1.4,0.3c-0.8,0.4-0.7,1.3-0.4,2
		c0.6,1.6,2.1,2.9,3.4,3.9c3.1,2.4,7,3.6,10.9,3.5c3.8-0.1,8.2-1.4,11.2-3.7c0.3-0.2,0.5-0.4,0.8-0.7c0.7-0.7,1.3-1.7,1.2-2.7
		c-0.1-1.6-1.8-2.6-3.2-2.9C573.8,56.5,573.4,56.5,572.9,56.4z"/>
</g>
</svg>
