<svg xmlns="http://www.w3.org/2000/svg" xmlns:xlink="http://www.w3.org/1999/xlink" id="bundle_x5F_illustration-4_x5F_v1_xA0_Image_1_" x="0" y="0" enable-background="new 0 0 1200 1200" version="1.1" viewBox="0 0 1200 1200" xml:space="preserve"><g id="wall_1_"><circle id="wall" cx="608.3" cy="611.2" r="523.2" fill="#F28983"/><path id="wall-shadow" fill="#DC7A7B" d="M1131,611.2c0,289-234.3,523.2-523.2,523.2V87.9C896.7,87.9,1131,322.2,1131,611.2z"/></g><g id="undersheet"><path id="undersheet_1_" fill="#E9E9E8" d="M1035.6,901.8c0.2-5.2-0.9-10.4-3.6-14.9c-6.6-10.7-20.4-14-32.9-15.3 c-41.8-4.4-87.7,5-115.9,36.1c-7.8,8.6-14.4,18.9-24.7,24.4c-9.1,4.8-19.8,5.1-29.7,8c-21.5,6.4-37.6,24.8-47.9,44.8 s-15.9,42-24.1,62.9c-4.8,12.1-10.6,25.2-6.8,37.6c2.8,9.3,11.3,16.7,20.9,18.2c9.1,1.5,18.3-2,26.8-5.6 c68.1-28.6,129.7-70.4,182.8-121.6c18.5-17.9,43.3-38.6,52.7-63.4C1034.6,909.5,1035.5,905.7,1035.6,901.8z"/><g id="undersheet-hightlight"><path fill="#FBFBFB" d="M1019,937.2c-0.6-0.4-2.4-1.2-3-1.4c-4.7-2-10.1-1.8-15.1-1.1c-17.5,2.3-34.4,9.6-48.1,20.7 c-14.4,11.7-25.2,27.6-40.5,38.1c-15.6,10.7-35.3,15.2-54,12.2c-4.3-0.7-9.3-1.6-12.6,1.2c-1.8,1.6-2.7,3.9-3.6,6.2 c-7.1,18.9-16,37-26.5,54.2c-3.2,5.3-18,21.4-19.9,32.5C883.7,1066.1,955,1013.6,1019,937.2z"/></g></g><g id="pillows"><path id="pillows_1_" fill="#EDBE8C" d="M1157.7,638.4c-3.7-1.3-7.5-2.5-9.9-5.9c-0.7,0.1-1.2,0.4-1.6,0.8 c5.1-14.9,7.5-30.6,9.5-46.2c5.1-39.8,7.8-79.9,7.5-120c-0.2-19.9-1.1-39.8-3-59.6c-0.9-10.1-2.1-20.1-3.6-30.1 c-1.4-9.9-0.8-16.2-12.4-16.8c-6.1-0.3-12.1,1.3-18,2.7c-14.2,3.3-28.7,5-43.3,5.2c-7.4,0.1-14.8-0.2-22.1-0.9 c-5.9-0.6-11.2-0.5-17.1-0.5c-4.9,0-9.7-0.1-14.6-0.3c-9.7-0.3-19.5-0.9-29.2-1.7c-11.5-1-22.9-2.4-34.3-4.2 c-37.1-11.2-75.3-18.1-113.3-25.3c-44.2-8.4-88.4-16.6-132.7-24.4c-15.4-2.7-30.8-5.4-46.1-8c-9.2-1.5-18.4-3.7-27.8-4.5 c-4.9-0.4-10-0.6-14.9,0.1c-4.3,0.6-8,3-12.4,3.2c-9.2,0.4-18.2-3.3-27-5.3c-12.5-2.9-25-6.1-37.8-7c-7.1-0.5-14.3-0.2-21.4,0.1 c-13.1,0.7-19.4,7.7-27.8,17.2c-49,55.4-85.8,122.2-102.6,194.3c-11.9,51-13.5,104.5-3.7,155.9c4.1,21.4,8.7,53.6,22.6,70.6 c13.7,16.8,39.5,22,59.3,26.9c127.9,31.4,249,85.1,373.6,127.6c19.9,6.8,42.4,13.2,61.4,4.1c15.8-7.6,25.1-24,32.5-39.9 c0-0.1,0.1-0.2,0.1-0.3c8.6,17.9,19.4,34.6,33.1,49.1c-14.7,4.6-28.8,11.3-41.6,19.9c38.3,2.5,76.7,5,115,7.5 c3.1,0.2,6.4,0.4,9.4-0.7c3.2-1.2,5.6-3.7,7.8-6.3c32.2-36.2,50.9-82.6,62.7-129.7c5.1-20.5,9.1-41.3,12.6-62.1 c4.6-26.9,9.4-53.8,13.5-80.8c-2.1-0.3-1.4-0.5,1.1-0.3C1161.8,640.2,1160,639.2,1157.7,638.4z"/><g id="pillows-pattern_x2F_highlight"><path fill="#FEDCB9" d="M1157.7,638.4c-3.7-1.3-7.5-2.5-9.9-5.9c-2.1,0.4-2.6,2.2-3.3,3.8c-1.9,4.7-3.7,9.5-5.8,14.2 c-3.2,7-6.6,13.8-9.1,21c-3.9,11-8.1,21.8-11.9,32.8c-2.5,7.4-4.7,14.9-6.8,22.4c-2,6.9-3.8,13.8-5.6,20.7c-1.3,4.9-2.2,10-4,14.7 c-1.4,3.7-2.8,7.5-4.2,11.2c-0.7,1.9-1.6,3.8-1.6,5.9c0,2.4,1.3,3.4,3.7,2.6c1.5-0.5,3.2-0.6,3.8-2.5c0.9-2.6,2-5,2.8-7.6 c4.1-13.7,8.1-27.5,12.7-41.1c1.8-5.1,4-10.1,5.4-15.3c2.8-10.2,6.5-20,10.3-29.8c3-7.9,6.1-15.7,9.5-23.5c2-4.7,4.3-9.2,7-13.6 c2.6-4.1,5.8-6.2,10.7-5.2C1161.3,639.9,1160.9,639.5,1157.7,638.4z"/><path fill="#FEDCB9" d="M1101.2,619.1c0.7-4.1,1.6-8.1,2.2-12.2c0.6-3.4,1.3-6.9,1.6-10.4c0.4-4.3,1.2-8.5,2-12.7 c0.9-5,1.8-10,2.7-15c2-10.6,3.9-21.3,6.4-31.8c1.6-7,2.8-14,4.2-21c0.8-3.9,1.6-7.8,2.3-11.7c0.9-4.8,1.7-9.7,2.6-14.5 c0.3-1.9,0.7-3.8,1-5.6c1.2-7,2.8-14,3.6-21.1c0.7-5.8,1.6-11.6,2.3-17.5c1-9.3,2.2-18.6,4.3-27.8c0.9-4.3,1.4-8.8,1.4-13.3 c0-11.2,1.9-22.2,5.5-32.8c0.9-2.6,2.2-4.9,3.6-7.3c1.2-1.9,2.6-2.7,4.7-2.5c0.5,0,1,0,1.4,0c0.1-1.6,0-3.1-0.8-4.6 c-1.9-3.5-4.6-4.1-7.8-1.7c-5.2,4-10.9,7-17.3,8.4c-1.3,0.3-2.9,0.4-3.9,1.5c1.6,1.6,2.4,3.2,1.4,5.6c-0.6,1.6-0.6,3.4-1.1,5.1 c-0.6,2.2-2.1,3.3-4,3.7c-3,0.6-5.7,0.2-7.7-2.5c-0.6-0.8-1-1.7-1.8-2.3c-2.5-2.1-2.7-4.6-1.4-7.3c0.1-0.3,0.2-0.6,0.2-0.9 c-2.4-0.2-4.8-0.5-7.1,0.2c-1.9,0.5-3.8,0.6-5.7,0.6c-4.5,0-8.9,0-13.4,0.1c-1.6,0-3.2-0.1-4.8,0.4c0.3,0.9,0.8,1.7,1,2.7 c0.7,3.7-2,6.1-5.7,5c-2.1-0.6-4.2-1.3-5.9-2.9c-1.3-1.3-1.8-2.5-0.9-4.2c0.1-0.3,0.1-0.6,0.2-0.9c-6.4-0.1-12.9-0.2-19.3-0.3 c0,0.9,0.1,1.9,0.1,2.8c-0.1,3.8-2.1,5.9-5.8,6c-4.4,0.1-8.8,0.3-13.1-1.1c-1.5-0.5-3-1-3.9-2.5c-1-1.6-1-2.8-0.1-4.4 c0.7-1.2,2-1.5,2.7-2.6c-6.8-0.4-13.6-0.4-20.5-0.8c-7.3-0.5-14.6-1.4-21.9-1.6c0.5,0.8,1,1.6,1.5,2.4c2.2,3.2,2,6.7,1.1,10.1 c-1.3,4.6-6.2,7.1-11,6c-1.4-0.3-2.7-0.8-4-1.4c-4.1-1.8-3.8-5.5-3.7-9c0.1-3.6,1.5-5.6,4.5-6.5c1.8-0.5,3.8-0.6,5.1-2.2 c-3.1-0.3-6.3-0.8-9.4-0.9c-6.2-0.2-12.3-0.8-18.4-1.9c-2.8-0.5-5.6-1.2-8.4-1.6c-1.8-0.3-3.7-1-5.4,0.6c2.1,3.9,4.2,7.7,5.2,12.1 c0.2,0.8,0.6,1.5,0.9,2.2c1.6,3.3,3.2,6.5,4.7,9.8c0.5,0.3,0.8,0.8,0.6,1.5c-0.1,0.2-0.1,0.3,0.1,0.5c1.4,0.4,1.8,1.7,2.5,2.8 c3.3,5.9,5.8,12.1,8.1,18.4c1.3,3.4,3,6.7,4.1,10.2c2.3,7.5,4.4,14.9,5.8,22.7c1,5.5,2.7,10.8,3.9,16.2c1.1,5.2,3,10.1,4.4,15.1 c1.6,5.7,2.8,11.4,4,17.2c1.2,5.6,2.1,11.3,3.2,16.9c0.8,3.7,1.2,7.5,2.4,11.2c0.4,1.2,0.2,2.5,0.2,3.8c0,1.8,0.1,3.5,0.6,5.2 c0.4,1.5,0.4,3.2,0.4,4.7c0.1,2.9-0.2,5.7,0.8,8.5c0.4,1.2,0.2,2.5,0.2,3.8c0.1,2.9-0.2,5.7,0.8,8.5c0.4,1.2,0.2,2.5,0.2,3.8 c0.1,2.5-0.1,5.1,0.7,7.6c0.4,1.2,0.2,2.5,0.2,3.8c0,6.2,0.1,12.5,0,18.7c0,1.8,0.2,3.2,2.4,3.4c1.5,0.1,2.2,1.2,2.7,2.5 c0.9,2.4,1.9,4.8,2.4,7.3c0.7,3.6-0.5,7-2.2,10.1c-1,1.8-2.1,3.6-3.7,5c-1.2,1-1.6,2.3-1.5,3.9c0.1,3.2,0,6.4,0,9.6 c0,3,0.2,6.1-0.8,9c-0.3,1-0.1,2.2-0.2,3.3c-0.1,2.7,0,5.4-0.7,8.1c-0.5,2.1-0.2,4.5-0.3,6.7c-0.1,2.5,0.2,5.1-0.7,7.6 c-0.3,0.7-0.2,1.6-0.2,2.4c0,1.6,0.4,2,1.8,2.3c0.2,0,0.3,0,0.5,0c4.7,0.1,6.6,3.9,7.1,7.7c0.7,5.2-0.6,10.1-2.6,14.9 c-0.9,2.1-2.5,3.5-4.5,4c-2.9,0.6-3.3,2.4-3.3,4.9c0.1,11.8,0,23.7,0.1,35.5c0,4.3,1.2,8.5,2.1,13c1.3-0.4,2.3-0.9,3.5-1.2 c1.1-0.2,2.2-0.1,3.4-0.1c3.3,0.1,6,2,7.3,5.1c1.5,3.7,1,7.5,0.8,11.4c0,0.2-0.1,0.3-0.1,0.5c-0.3,5.2-2.9,9-7.1,11.8 c-0.8,0.5-0.9,1.2-0.6,2c0.4,0.9,0.8,1.7,1.3,2.6c1.8,3.6,3.5,7.1,4.2,11.2c0.3,1.8,1.1,3.7,2.5,5.1c0.9,1,1.5,1.3,2.3,0.3 c1.9-2.1,4.2-2.1,6.6-2c3,0.1,5.2,1.4,6.2,4.3c1.1,2.9,1.8,5.8,0.6,8.8c-0.5,1.3-0.6,2.8-0.9,4.2c0.8,1.2,2.6,1.1,3.5,2.3 c0.9,1.1,1.7,2.1,1.9,3.7c0.4,3.2,3.1,6,5.6,6.3c3.6,0.5,6.8-1.1,8.1-4.6c3.2-8.4,7.4-16.3,11.2-24.4c2.8-5.9,4.6-12.2,6.7-18.4 c2.3-6.8,4.8-13.5,7.7-20.1c2.3-5.1,4-10.4,5.2-15.9c1.4-6.1,4-11.8,6-17.7c2.4-7.3,5.1-14.4,6.9-21.9c1.5-6.3,2.6-12.8,4.1-19.1 c1.3-5.3,2.9-10.4,4.4-15.6c2.6-9,5.4-18,7.7-27.1C1099.3,631.1,1100.1,625.1,1101.2,619.1z M1098.9,428.3 c0.9-3.2,1.9-6.4,3.5-9.3c0.1-0.3,0.3-0.6,0.4-0.8c1.1-2.3,2.8-4,5.4-3.9c2.5,0.1,4.9,3.1,5.3,6.1c0.1,1.1,0,2.2,0,2.5 c0.3,4.5-1.1,7.7-2,11.1c-0.3,1.3-1.4,2.1-2.2,3c-4.2,4.8-8.1,1.8-10-2.1C1098.3,432.7,1098.2,430.6,1098.9,428.3z M1097.2,473.4 c0,4.3-0.7,8.6-2.8,12.4c-0.7,1.3-1.7,2.2-3.1,2.9c-2.9,1.5-5.8,0.7-7.4-2.1c-1.2-2.1-2.4-4.2-2.1-5.8c0.3-4.9,1.5-8.6,3.4-11.9 c2-3.7,6.8-4.4,9.3-1.6C1096,469.1,1097.2,471.1,1097.2,473.4z M1082.8,389.8c0.6-0.5,1.3-0.9,1.9-1.4c3.1-3.1,8.6-1.8,9.6,3.7 c0.1,0.8,0,1.6,0,2.4c0.1,1.3,0.1,2.5-0.4,3.8c-1.1,3.1-2.2,6.3-3.3,9.5c-0.6,1.5-1.7,2.1-3.3,2.2c-3.7,0.2-6-1.3-7.4-4.7 c-0.6-1.5-1.6-2.9-1.7-4.4C1078,396.5,1079,392.6,1082.8,389.8z M1059.2,436.3c3.4-2.3,7.2-2.1,10.9-0.5c2.1,0.9,3,2.8,3.1,5 c0.2,3.5,0,7-1,10.4c-1.2,3.7-3.7,5.7-7.8,5.8c-1.1,0-2.2-0.1-3.3,0c-1.9,0.1-3.3-0.6-4.7-1.9c-1.6-1.5-2.7-3.1-2.4-5.4 c0.1-0.6,0-1.3,0-1.9l0,0c0-0.6,0.1-1.3,0-1.9C1053.6,441.5,1055.9,438.5,1059.2,436.3z M1055.3,521.9c3.8,1.9,5.7,4.9,5.5,9.2 c-0.4,3.9-0.7,7.9-2.6,11.5c-1.4,2.7-3.5,4.6-6.5,5.1c-7.1,1.2-13.6-4.9-11.8-11.5c0.9-3.3,2.3-6.3,4.1-9.1 c1.8-2.7,4.6-4.4,7.6-5.6C1052.9,521.1,1054.2,521.3,1055.3,521.9z M1046.6,594.2c-1.3,4.4-6.5,7.2-11.6,5.3 c-3.3-1.2-4.3-4.2-4.8-7.1c-0.4-2.6-0.3-5.3,0.8-8c1.3-3.3,2.8-6.4,4.9-9.2c2-2.8,5.9-4,8.9-2.7c2.2,1,3.3,3,3.5,5.3 c0.2,1.7,0,3.5,0,5C1048.7,586.9,1047.7,590.5,1046.6,594.2z M1050.2,487.7c0.1,0.9,0,1.9,0,3c0.6,3.8-1.5,6.9-3.3,10 c-0.4,0.8-1.3,1.4-2,2c-2.9,1.9-9.9,1.8-12.8-0.3c-2.7-1.9-3.9-4.7-3.8-7.8c0.2-5,1.7-9.7,5.6-13.2c3.2-2.9,6.9-3.1,10.7-1.8 C1048.3,480.9,1049.7,484.1,1050.2,487.7z M1019.6,408.1c1.2-4.7,2.9-9.2,8.2-10.9c4.1-1.3,8.1-1.6,11.7,1.5 c2.9,2.4,3.4,5.6,3,9.1c-0.4,2.8-1.2,5.6-3.2,7.8c-2.7,3.2-6,4.6-9.3,3.9c-1.5,0-2.2-0.1-2.8,0c-3.2,0.5-5.1-1.4-6.8-3.6 c-0.5-0.6-0.8-1.4-0.8-2.2C1019.5,411.9,1019.2,409.9,1019.6,408.1z M1012.8,443.2c1.8-1.4,3.9-2.2,6.2-0.9 c2.5,1.3,4.6,2.9,4.4,6.1c0,0.8,0,1.6,0,2.4c0,3.8-0.4,7.6-2.8,10.8c-2.7,3.5-6.6,5-10.9,2.8c-2.1-1.1-3.2-3.1-3.5-5.4 C1005.1,452.4,1007.5,447.2,1012.8,443.2z M981.3,427.5c-1.6-2.4-2.1-4.4-2.2-7.7c0.3-5.4,2.1-10.2,6.4-13.8 c2.1-1.7,4.4-2.4,7.1-1.3c3.1,1.3,4.8,3.6,5.3,6.8c0.1,0.7-0.3,1.5-0.6,2.3c-1,2.5-1.9,5-2,7.8c-0.2,3.1-1.8,5.7-4.3,7.7 C987.2,432.4,983.6,430.8,981.3,427.5z M996.3,516.2c-3.2-0.7-5.4-3.6-5.5-7c-0.2-4.3,1.6-8,3.3-11.8c0.5-1,1.2-1.9,1.8-2.8 c1.2-1.6,2.8-2.6,4.7-3.1c2.1-0.5,3.7,0.3,5.1,1.8c0.2,0.2,0.5,0.4,0.7,0.6c4,3,4.5,3.9,4.4,8.7c0.3,3.9-1.5,7.2-3.8,10 C1004.4,516,1000.5,517.2,996.3,516.2z M1003.4,569.1c-2.1-0.3-4.9-3.7-5-5.9c-0.1-2.1-0.1-4.1,0.6-6.1c0.8-2.4,2-4.7,3.2-7 c1-1.8,6.2-5.9,8.1-6.5c2.1-0.7,5.6,0.9,7,3c1.3,2,1.3,4.2,1.2,6.3c0.3,5.5-2.2,9.7-5.5,13.5 C1010.5,569.6,1007,569.7,1003.4,569.1z M1029.3,700.7c-1,2.9-2.5,5.5-3.8,8.2c-1.5,3-4,4.4-7.3,4.4c-0.5,0-1,0-1.8,0 c-2.8,0.5-4.8-1.2-6.3-3.7c-1.7-2.8-2.5-5.6-1.3-9.1c1.4-4.3,3-8.4,6-11.8c2.2-2.5,5-3.9,8.5-2.6c3.7,1.4,6.2,4,6.8,7.9 C1030.3,696.3,1030.1,698.5,1029.3,700.7z M1017.2,648c-1.6-2.2-2.1-4.8-1.4-7.3c1.5-5.4,3.6-10.6,7.8-14.6c2.4-2.4,5-4,8.6-2.5 s5.6,4.7,5.6,9.6c-0.7,4.8-2.3,10.4-5.7,15.1C1028.4,653.3,1021,653.2,1017.2,648z M1056.8,733.3c-0.6,4.7-1.9,9.3-3.7,13.7 c-1.4,3.3-3.9,5-6.9,6.1c-2,0.7-4.1,0.8-6-0.4c-3.8-2.2-6.5-5.1-6.3-9.9c0.2-1.1,0.1-2.3,0.5-3.3c2-5.5,3.9-11.1,7.4-16 c3.2-4.4,8.1-4.9,11.8-0.9C1056.2,725.7,1057.4,729.4,1056.8,733.3z M1071.8,664.1c-2,3.1-6.5,4.7-9.6,3.7 c-3.7-1.2-6.1-4.6-6.3-8.7c-0.1-1.9,0.2-3.8,0.9-5.6c1.2-3.3,2.4-6.6,4.6-9.4c2.2-2.9,5.3-3.4,8.6-2.8c2.9,0.5,4.8,2.3,5.8,5.1 c0.5,1.4,0.3,2.8,0.4,4.7C1076.1,655.6,1074.4,660,1071.8,664.1z M1090.9,589.4c-0.8,2.5-0.7,5.3-2.2,7.7 c-0.9,1.4-1.9,2.5-3.4,3.2c-2.6,1.2-4.4,1-6.5-0.9c-2.5-2.2-4-4.9-3.6-8.1c-0.3-4.8,1.9-8.6,3.7-12.4c1.2-2.6,3.8-3,6.5-2.8 s4,2,4.7,4.1C1090.9,583.1,1091.9,586,1090.9,589.4z M1092.2,537.1c-1.5-2.5-1.9-5.1-1.5-7.8c0.4-3,1.2-5.9,1.9-8.8 c0.6-2.4,2.2-4.2,4.1-5.7c1.9-1.6,4.2-1.6,6.1,0c2,1.7,3.3,3.8,3.2,6.6c0,1,0,1.9,0,3.3c0.6,2.8-0.8,5.8-1.1,8.9 c-0.1,1.2-0.9,2.3-1.5,3.5c-1.2,2.4-3.2,3.5-5.8,3.4C1095.1,540.4,1093.4,539.2,1092.2,537.1z"/><path fill="#FEDCB9" d="M540.6,281.7c-4-2.2-8.1-5.3-12.7-5c-5.2,0.3-9,4.8-12.1,8.9c-7.7,9.9-15.3,19.8-23,29.7 c-13.2,17.1-26.5,34.2-38.3,52.3c-23.6,36.2-40.9,76.3-51.9,118c-11.1,41.9-15.8,85.3-14.5,128.6c0.4,13.4,1.4,26.8,3,40.1 c0.3,2.7,0.1,5.3,3.2,5.7c2.8,0.4,7.7-2.2,10.5-2.9c1.8-0.5,21.3-4.6,21.5-3.6c-1.7-8.5-1.3-20.4,7.1-22c5.2-1,10.3,3.6,11.3,8.8 s-1.4,10.6-4.7,14.7c35.6,3.5,69.1,24.5,87.6,55c1.3,2.2,2.7,4.5,4.8,6c1.8,1.3,4.1,1.8,6.3,2.1c10.3,1.6,21.1,0.2,30.7-3.9 c-12.7-25.3-21.6-52.6-26.3-80.6c-3.2,3.5-9.5,1.8-12.1-2.2s-2.4-9.1-1.5-13.8c0.6-3.2,1.6-6.6,3.9-8.8c2.4-2.2,6.6-2.8,8.8-0.4 c-3.8-41.9-2.5-84.2,3.8-125.8c0.7-4.3,0.6-10-3.5-11.5c0,4.7-6.5,7.2-10.5,4.8c-4-2.4-5.4-7.7-4.8-12.4c0.6-5.1,5.3-10.9,10-8.7 c-9.1-30-7.5-63.1,4.5-92.1c11.9-29,34.1-53.6,61.7-68.5c-1.1-0.6-2.3-1.2-3.4-1.7C581.7,284.7,558.5,291.4,540.6,281.7z M510,313.2c1.8-5.3,5-10.7,6.8-12.7c1.1-1.2,2.3-2.3,3.9-2.8c2.6-0.7,5.5,0.9,6.8,3.2s1.5,5.2,1.2,7.9c-0.5,3.9-2,7.7-4.3,10.9 c-2,2.8-4.9,5.3-8.4,5.7C507.9,326.2,507.8,319.8,510,313.2z M506.3,384.2C506.3,384.1,506.4,384.1,506.3,384.2 c0.6-0.4,1.1-0.8,1.8-0.8c0.5,0,1,0.2,1.5,0.4c3,1.5,4.8,4.8,5,8.2c0.2,3.4-1.1,6.7-2.9,9.4c-1.2,1.8-2.8,3.5-4.8,4.4 C493.9,411.2,501,388.3,506.3,384.2z M507.7,480.7c0,0.8-0.1,1.6-0.1,2.4c-0.4,4.5-1.6,9.2-4.8,12.4c-8.5,8.2-15.6-1.7-13.2-10.4 c0.8-3,1.9-6,3.2-8.8c1.3-2.8,3.1-5.8,6.1-6.5s6.2,1.4,7.6,4.2C507.5,475.9,507.8,478.3,507.7,480.7z M480.7,360.1 c0.4-1.4,1.1-2.7,1.8-4c2-3.3,4.9-5.9,8.6-6.6c2.1-0.4,4.4-0.1,6,1.2c2,1.8,2.4,4.8,2.2,7.5c-0.4,4-1.9,8-4.8,10.8 C486.7,376.3,477.6,369.9,480.7,360.1z M476.7,432.6c1.7-1.8,3.6-3.5,6-4.2c2.3-0.7,5.2-0.3,6.8,1.5c1.5,1.6,1.8,3.9,1.7,6.1 c0,5.5-1.8,11.2-5.8,14.9c-7.9,7.4-20.2,3-15.1-8.6c1.5-3.4,3.5-6.6,6-9.3C476.4,432.9,476.6,432.8,476.7,432.6z M452.3,401.9 c1.1-2.7,2.9-5.1,5.2-6.9c1.4-1.1,2.9-1.9,4.5-2.5c2.1-0.7,4.6-1,6.3,0.5c1,0.9,1.5,2.2,1.8,3.4c1.2,5.5-1.5,11.2-5.1,15.5 c-1.5,1.7-3.2,3.4-5.3,4.2C450.9,419.6,450.2,407.4,452.3,401.9z M407.7,503.2c0.5-4.9,2.7-9.7,6.5-12.9c2.2-1.8,5.4-3.1,7.9-1.7 c2.7,1.5,3.2,5.2,3,8.3c-0.2,3.2-0.8,6.3-1.8,9.3c-0.9,2.7-2.2,5.5-4.5,7.2c-6.7,4.7-11-3-11.2-8.8 C407.7,504,407.7,503.6,407.7,503.2z M426.8,601.8c-0.1,0.3-0.1,0.6-0.2,0.9c-0.9,4-2.6,8-5.8,10.6s-8.1,3.3-11.4,0.8 c-3.2-2.4-3.9-7-3.6-11c0.8-11.1,9.1-26.4,18.7-12.2C426.9,594.3,427.5,597.8,426.8,601.8z M436.9,546.6c-0.2,3.2-0.8,6.6-2.3,9.3 c-0.5,0.9-1.1,1.7-1.8,2.4c-2.4,2.5-7.2,3.6-10.2,1.3c-3.3-2.6-2.3-8.2-2-12.1c0.3-3.4,1-7,3.2-9.7s6.1-4.2,9.2-2.6 C436.7,537.3,437.3,542.4,436.9,546.6z M443.3,459.9c-0.8,1.3-1.7,2.5-2.9,3.5c-0.5,0.5-1.1,0.9-1.7,1.2 c-12.7,7-7.9-18.9-0.5-23.7c0.8-0.6,1.7-1,2.7-1.2c2.1-0.2,4.1,1.4,5.1,3.3C448.9,448.2,446.6,454.9,443.3,459.9z M450.7,511.7 c-1.8-2.9-2.4-7.2-2-10.9c0.5-4.2,2-8.3,3.6-12.3c1.2-3,2.7-6.2,5.8-7.1c3.7-1.1,7.4,1.9,9.1,5.3c2.7,5.4,2.3,11.9,0.4,17.5 c-1.2,3.5-3.1,6.9-6.2,8.9C456.3,516.5,452.7,515,450.7,511.7z M473.5,599c-0.7,2.7-1.9,5.4-3.7,7.6c-0.8,1-1.7,1.8-2.8,2.5 c-15.6,10.8-11.6-17.7-7.5-24.5c1.1-1.8,2.4-3.6,4.2-4.7c1.8-1.1,4.2-1.5,6.1-0.5c2.6,1.3,3.5,4.5,3.9,7.4 C474.3,590.8,474.5,595,473.5,599z M486.5,533c-0.3,3.7-1.3,7.4-2.8,10.8c-0.5,1.2-1.1,2.4-1.9,3.5c-0.9,1.2-1.9,2.3-3.2,3 c-13,7.2-8.7-18.4-5.9-23.4c1.5-2.7,4-5.4,7.1-5.4c2.5,0,4.7,1.9,5.8,4.2C486.7,527.9,486.8,530.5,486.5,533z M503.8,638.2 c-0.9,3.4-3,6.6-6.1,8.1c-13.9,6.5-10.7-15.9-7-22c1-1.6,2.3-3.2,4.1-3.7c3.1-0.8,6.1,1.8,7.6,4.7c1.3,2.5,2,5.3,2,8.1 C504.4,635.1,504.2,636.7,503.8,638.2z M513.1,590.6c-1.4,0.7-2.6,1.1-3.6,1.2c-10.1,1.4-5.3-19.8-1.9-25c1-1.5,2.2-3,3.9-3.7 c2.5-1,5.4,0.2,7.2,2.3c1.7,2.1,2.4,4.8,2.5,7.5c0.2,3.7-0.5,7.5-2.1,11C517.9,586.6,515.9,589.2,513.1,590.6z M531.9,660.7 c1.3,0.2,2.4,0.7,3.4,1.6c1.1,0.9,1.9,2.2,2.4,3.5c0.9,2.5,0.9,5.3,0.5,7.9c-0.6,4.4-2.1,9-5.6,11.6c-13,9.9-13.2-11.6-9.3-18.7 C525,663.3,528.2,660.2,531.9,660.7z M529.1,510.3c1.6,2.1,2.5,4.8,2.6,7.4c0.1,4.3-2,8.5-5.4,11c-13.5,9.8-12.2-13.6-6.9-20.2 c1-1.3,2.5-2.5,4.1-2.4c0.8,0.1,1.5,0.4,2.2,0.8C527,507.9,528.2,509,529.1,510.3z M528,440c-0.6,1.5-1.5,3.1-2.5,4.4 c-0.9,1.1-2,2.1-3.3,2.8c-8.5,4.6-11.5-5.7-10.4-12c0.6-3.7,2.2-7.2,3.9-10.5c1.6-3,4.1-6.3,7.4-5.9c1.9,0.3,3.4,1.7,4.4,3.4 C530.9,427.5,530.4,434.4,528,440z M538.8,348.7c-1.1,3.5-2.7,7-5.6,9.3c-7.1,5.8-13.9,0.5-12.6-7.9c0.5-3.3,2.1-6.2,4-9 c2.4-3.5,6.2-6.9,10.2-5.7c2.5,0.7,4.2,3.1,4.7,5.6c0.2,0.9,0.2,1.9,0.2,2.9C539.6,345.6,539.2,347.2,538.8,348.7z M565.1,317.9 c-0.5,0.5-1,1-1.5,1.5c-2.2,2.1-5,3.9-8,3.9c-8.5,0.2-7.8-11.5-4.4-16.3c2.2-3.1,5.5-5.4,8.9-7.1c3-1.5,7.1-2.4,9.2,0.2 c0.7,1,1,2.2,1.1,3.4C570.8,308.9,568.6,314,565.1,317.9z"/></g></g><g id="torso_1_"><path fill="#C08466" d="M834,849.7c-5.7-18.2-14.7-35.4-26.4-50.5c-14.1-18.3-32-33.6-52.4-44.3c23.9-35.8,18.3-88.4-12.7-118.3 c-41.7-40.3-115.6-28.2-150.1,15.7c-13.4,13.6-22.3,31.7-36.8,44.5c-4.4,3.9-9.6,7.2-15.3,8.9c-7.4,2.3-15.2,2.1-22.8,2.5 c-12.7,0.6-24.8,3.4-36.1,9.4c-11.2,5.9-20.9,14.5-28.2,24.8c-3.8,5.5-6.8,11.5-9.1,17.7c-2.4,6.6-3,13.4-4.6,20.1 c-1,2.2-2.1,4.4-3.1,6.6l-22.4,48c-6.1,12.9-12.3,26.7-10.1,40.8c2,13,11.2,24,22.3,30.9c9,5.5,19.2,8.7,29.6,10.7 c1.6,0.4,3.2,0.8,5,1c0.7,0.1,1.3,0.1,2,0.2c0.2,0,0.4,0.1,0.7,0.1c4.3,0.7,8.7,1.1,13.1,1.4c18.6,1.8,37.2,3,55.8,4.5 c11.7,0.9,23.5,1.9,35.2,3.2c2.9,0.3,5.9,0.7,8.8,1c0.8,0.1,1.7,0.2,2.5,0.3c0.3,0,0.6,0.1,0.9,0.1c0.1,0,0.3,0,0.4,0.1 c-0.1,0-0.2,0-0.2,0c0.1,0,0.3,0,0.4,0c5.7,0.8,11.4,1.7,17.1,2.7c20.1,3.6,40,8.8,59,16.3c0.6,0.2,1.3,0.5,1.9,0.7 c0.2,0.1,0.5,0.3,0.7,0.3c2.3,1,4.6,2,6.8,3.1c4.8,2.3,9.4,4.7,14,7.3c4.1,2.3,8.1,4.8,12,7.5c2.1,1.4,4.1,2.9,6.1,4.3 c0.2,0.2,0.6,0.4,0.8,0.5c0.9,0.7,1.9,1.6,2.7,2.3c4.3,3.6,8.4,7.4,12.2,11.5c0.8,0.8,1.5,1.7,2.2,2.5s1.4,1.7,2.2,2.6l-1.3-1.7 c1.9,1.2,3.5,5.2,4.6,7c1.1,1.9,2.5,4.1,3.3,6.3c0.1,0.5,0.3,1,0.4,1.3c1.1,2.7,2.3,5.5,3.4,8.2c2.3,5.2,4.9,9.6,8.1,14 c3.7,16.2,8.3,32.2,13.7,48c3.5,10.2,12.6,16.9,23.6,15.4c9.5-1.3,17.8-9.2,18.6-19c15.7-32.9,30.9-66.2,40.2-101.3 C843.1,930,846,888.2,834,849.7z"/><path fill="#D39A7F" d="M785.5,891.5c-2.7-19.4-7.8-39.4-19.9-54.5c-4.1-7.3-9-14.3-14.3-20.6c-7.7-9.2-17.3-15.7-26.1-23.6 c-1.4-1.2-5.1-3.8-5.6-5.7c1.7,2.3,1.9,2.5,0.5,0.5c-0.3-0.5-0.6-0.9-0.8-1.4c-0.4-0.7-0.8-1.4-1.1-2.1c-0.2-0.8-0.3-1.7-0.4-2.2 c0-0.1,0-0.2,0-0.3c0-0.8,0-1.6,0-2.4c0-0.2,0-0.4,0-0.5c0.3-0.8,0.5-1.7,0.8-2.5c0.9-3.2,1-6.5,0.3-9.8c0-1.9-0.3-3.8-0.9-5.8 c-1.7-5.2-5.5-10-10.3-13c0.1-0.1,0.2-0.2,0.3-0.2c-17.3-9.3-37.2,4.3-54.6,13.4c-27,14.1-59.4,17.5-88.8,9.4 c15.1,4.1-73.4,105.7-8.5,64.3c3.9,5.3,2.1,10.3-1.8,16c-10.5,15.2-21.1,30.4-31.6,45.5c54.1-3,109,9.3,156.7,35.2 c2.1-13.6,4.4-27.1,6.8-40.7c8.4,3.1,7.6,14.8,8.1,23.7c2.5,45.8,71.8,61.9,80.2,106.9c8.5-26.7,13.1-54.6,13.8-82.6 C788.6,922.9,787.7,907.1,785.5,891.5z"/><g><path fill="#C08466" d="M578.8,928.7c-0.8-0.1-1.2-0.1,1.1,0.1c-0.1,0-0.1,0-0.2,0C579.4,928.8,579.1,928.8,578.8,928.7z"/></g></g><g id="baby"><path id="body-shadow" fill="#F2A17E" d="M470.1,861.4c-1.4-3.3-3.3-6.4-5.8-9c-7.1-7.3-18.4-10.3-28.2-7.5 c-1.5,0.4-3.2,0.9-4.4-0.1c-0.5-0.4-0.8-1-1-1.6c-16.2-37.2-21-78.5-36.7-115.8c-2.6-6.3-5.7-12.7-10.8-17.2 c-9.6-8.6-25.6-8.6-35.6-0.4c-8.2,6.7-12,17.6-13,28.1c-2.5,25.2,7.8,50.6,15,74.3c6.4,21,11.7,42.8,24.8,61c2.8,3.9,6,7.6,9.5,11 c10.3,9.9,23.4,16.7,37.4,19.3c9.8,1.9,20.2,1.7,29.5-2s17.3-11.2,20.3-20.7C473.1,874.5,472.6,867.6,470.1,861.4z"/><path id="hand" fill="#F5B695" d="M512.8,878c-0.9-5.8-3.7-10.9-9.7-12.9c-3.6-1.2-7.6-0.7-11.4,0c-20,3.6-39.6,9.5-59,15.6 c-3.4,1.1-6.9,2.2-9.7,4.5c-10.7,8.7-0.8,28,7.5,34.6c7.5,6,17.3,8.6,26.9,8.2c9.6-0.3,18.9-3.4,27.5-7.7c10.1-5.1,20-12.9,25-23.5 C512.3,891.6,513.8,884.4,512.8,878z"/><path id="back" fill="#F5B695" d="M394.9,835.6c-3.9-16.1-9.2-31.9-15.8-47.1c-6.2-14.3-13.6-28.2-23.7-40.1 c-10.4-12.3-23.5-22.1-37.9-29.2c-29.8-14.5-65.4-16.5-96.6-5.4c1-0.4,4.6,1.6,5.7,2c2.2,0.8,4.5,1.6,6.7,2.5 c4.2,1.7,8.4,3.5,12.6,5.4c8.3,3.8,16.3,8.1,24.1,12.8c15.4,9.4,29.3,20,41.7,33c0.1,0.1,0.2,0.3,0.4,0.4 c5.7,5.9,11.1,12.1,16.3,18.5c10.5,12.7,20.3,26,30.1,39.3c12.4,16.7,25.4,33.8,43,45C400.1,860.1,397.9,847.8,394.9,835.6z"/><path fill="#F5B695" d="M539.4,760.6c0-8.6-1-17.2-3.1-25.5c-8.9-34.4-36.2-63.2-69.8-74.9c-22.5-7.9-47.7-8.3-70.1-0.2 c-23.2,8.4-41.7,25.6-52.5,47.7c-3,6.2-5.9,11.1-6.7,18c-0.3,2.2,14.2,8,24.1,14.9c8.2,5.8,14,14.4,18.7,23.3 c9,17,15.7,35.1,20,53.8c3.1,13.3,5,27,9.9,39.7c1.4,3.7,3.4,7.6,7,9.2c2.5,1.2,5.4,1,8.1,0.8c11.1-0.9,22.2-3,32.9-6.1 c18.8-5.5,36.9-14.6,51.1-28.2C528.6,814.4,539.2,787.5,539.4,760.6z"/><path id="ear" fill="#F2A17E" d="M412.4,725.7c0.8,0,1.3,0,1.8,0c7.1-0.6,11.6,4.7,13.6,10c0.9,2.3,0.5,4.8,0.2,7.1 c-0.2,1.7-2,2.9-3.8,3.1c-2.1,0.1-4-1-4.5-2.8c-0.2-0.8-0.2-1.6-0.2-2.4c0.1-2.4-1.6-3.7-3.3-4.9c-0.1-0.1-0.3-0.2-0.4-0.2 c-2,0.3-4.1,0.5-6.1,1c-1.3,0.3-2.1,1.4-2.7,2.6c-1,2-1.8,4.1-1.9,6.4c-0.1,1.4,0.5,2.5,1.8,3.1c0.9,0.4,1.7,0.8,2.7,1.1 c1.5,0.4,2.4,1.5,3.3,2.6c1.1,1.3,1.1,3.6,0.3,5c-1.3,2.1-3.4,3.4-5.1,2.8c-4-1.5-8.1-3-11-6.4c-1.9-2.3-3.1-4.8-2-7.9 c0.4-1.2,0.3-2.5,0.5-3.8c0.9-7,4.2-12.2,10.6-15.4C408.3,725.6,410.5,725.8,412.4,725.7z"/><path id="eye-left" fill="#504C4B" d="M458.9,799.8c-1.9,0.1-3.5-0.8-4.6-2.5c-3.1-4.6-6.3-9.1-9.5-13.7c-0.6-0.9-1.2-1.9-1.3-3 c-0.1-1.7,1.5-3.2,3.1-2.7c1.1,0.3,2.2,0.7,3.1,1.3c5.8,3.9,10.2,9,13.2,15.4C464.1,797,462.3,800.2,458.9,799.8z"/><path id="eyebrow-left" fill="#F2A17E" d="M459.3,764.2c0.2,0.1,0.9,0.2,1.4,0.5c2.8,2,6,3.6,8.4,6.2c2.9,3.1,6.2,5.9,8.6,9.5 c0.2,0.3,0.4,0.5,0.6,0.7c1,1.5,0.9,3.4-0.2,4.3c-1.1,0.9-2.8,0.9-4-0.1c-3.5-3-7.4-5.6-10.2-9.2c-1.9-2.6-4.1-4.8-6.3-7.1 c-0.3-0.3-0.7-0.7-0.9-1.1c-0.6-0.8-0.8-1.7-0.2-2.7C457,764.5,457.9,764.2,459.3,764.2z"/><path id="eye-right" fill="#504C4B" d="M480.1,827.2c-0.1,1-0.1,1.3-0.1,1.6c-0.1,1.4-0.6,2.5-1.9,3c-1.2,0.4-2.9-0.1-3.8-1.4 c-0.4-0.6-0.8-1.4-1-2.1c-0.9-2.9-2.1-5.7-4.2-8c-0.7-0.8-1.2-1.9-1.7-2.9c-1-2.2-0.8-3.8,0.5-4.8c1.7-1.2,4.2-1.2,5.8,0 c0.2,0.2,0.5,0.4,0.7,0.6C477.9,817.7,479.3,822.6,480.1,827.2z"/><path id="nose_1_" fill="#F2A17E" d="M451.4,817c1,0,1.7,0.6,2.5,1.2c2.6,2.1,4,4.9,4.7,8c0.4,1.9-0.6,3.3-1.9,4.6 c-0.2,0.2-0.6,0.4-0.9,0.3c-2.2-0.4-4.4-0.6-6.4-1.4c-1.9-0.8-3.4-5.9-2.9-8.1c0.2-0.8,0.5-1.5,0.8-2.2 C448.1,817.4,449.2,816.7,451.4,817z"/><path id="eyebrow-right" fill="#F2A17E" d="M491.5,820.4c0,2.4,0,4.8,0,7.2c0,1,0,1.9-0.6,2.7s-1.1,1.6-2.2,1.6s-1.6-0.9-2-1.7 c-0.3-0.6-0.7-1.2-0.7-1.8c0.1-4.3-1.4-8.5-1.2-12.8c0.1-1.8,0.8-3.4,1.8-4.8c1-1.3,2.3-1.8,3.3-1.3c1.1,0.5,1.6,1.5,1.6,2.7 c0,1.8,0,3.5,0,5.3C491.5,818.5,491.5,819.5,491.5,820.4z"/><path id="mouth_1_" fill="#504C4B" d="M442.4,839.2c0.1,2.9-3,5.1-5.6,3.8c-2.9-1.4-4.5-4-5.2-7.1c-0.4-1.6,0.4-3.2,1.8-4.1 c1.3-0.8,2.8-0.9,4.1,0c2.2,1.6,3.9,3.8,4.8,6.4C442.4,838.6,442.4,838.9,442.4,839.2z"/></g><g id="woman-head"><path fill="#C08466" d="M756.6,750.1c-0.7,1.6-1.1,2.7-1.4,3.2C755.6,752.5,756.3,750.3,756.6,750.1z"/><path id="head" fill="#D39A7F" d="M830,557.2c-0.7-30.6-7.4-61.2-17.5-90.2c-11.2-32.2-26.8-63.3-49.8-88.4 c-22.9-25.2-53.6-44.2-87.4-48.9c-33.7-4.8-70.2,6-93,31.4c-23.2,25.9-29.5,62.5-34,97c-6.5,50.2-11,101.1-6.7,151.7 c3.5,41.4,10.7,99.4,46.9,126.5c3.5,2.6,7.4,4.8,11.6,6.4c14.8,5.6,31.5,2.4,46.6-2.5c38.4-12.5,72.3-35.5,108.4-53.4 c12.4-6.1,25.2-11.8,35.9-20.4c23-18.4,33.9-48.4,37.4-77.6C829.8,578.2,830.3,567.7,830,557.2z"/><path id="nose" fill="#C08466" d="M606.8,633.6c-4.2,0-8.5-3.3-10.1-8.4c-0.9-2.7,0.4-4.8,3.2-5c1.1-0.1,2.3-0.1,3.3,0.2 c3.1,0.9,6.1,1.7,9.3,1.7c2.3,0,3.6,1.8,4.6,3.7c0.4,0.8,0.4,2-0.3,2.7C614.4,631.4,611.7,633.8,606.8,633.6z"/><path id="mouth" fill="#504C4B" d="M606.3,691.3c-4-0.2-7.9-1.1-11.5-2.9c-9-4.4-15-15.5-13.2-25.4c0.8-4.5,4.2-8.9,8.8-9.3 c6.3-0.7,10.9,5.6,16.8,7.8c6.8,2.5,15.2-0.3,21,3.9c5.5,4,5.3,12.9,1.1,18.2s-11.4,7.4-18.1,7.8 C609.5,691.4,607.9,691.4,606.3,691.3z"/><path id="right-eye" fill="#504C4B" d="M666.1,595.1c0.1,1.6-0.4,3.1-1,4.6c-1.1,3.1-3.8,4.9-7,4.9c-3,0-6.1-2-7.2-4.8 c-1.4-3.5-0.9-6.9,0.9-10.1c0.7-1.3,1.9-2.2,3.3-2.7C659.9,585.3,667,589.8,666.1,595.1z"/><path id="right-eyebrow" fill="#C08466" d="M665.7,527.4c-0.6-2.6,0.2-4.5,3.3-5c2.6-0.5,5.1,0.8,7.4,2.2 c9.1,5.5,24.9,17.4,23.1,30c-0.7,4.8-6.3,7.6-10.7,5.2c-3.2-1.7-4.7-5.5-6.3-8.8C680.9,548,667.5,534.8,665.7,527.4z"/><path id="left-eye" fill="#504C4B" d="M574.7,577.1c0-2.1,0.5-4.2,1.6-5.7c2.6-3.5,10.8-3.1,12.9,1.9c1.6,3.8,1.5,9.9-2.7,11.9 c-3.1,1.5-7.7-0.2-9.9-2.7C575.4,581.2,574.8,579.2,574.7,577.1z"/><path id="left-eyebrow" fill="#C08466" d="M561.6,517.8c0.1-0.8,0.2-1.6,0.5-2.3c1.4-3.4,4.6-5.6,7.9-7.2c7.4-3.4,14.7-6.7,23-6.6 c1.9,0,3.8,0.2,5.6,0.9c3.7,1.6,5.6,5.6,2.9,8.9c-2.2,2.7-6.4,3.4-9.6,4.2c-5.9,1.5-11.7,3.5-17,6.4c-2.9,1.6-6.2,3.5-9.4,2.4 C562.8,523.7,561.4,520.7,561.6,517.8z"/><path id="hair" fill="#504C4B" d="M1015.9,844.9c-6.1-9.4-14.9-16.7-22.1-25.3c-33.2-39-30.5-95.9-28.2-147 c2.8-64.8,2.1-129.7-2.2-194.5c-1.8-27-4.3-54-11.3-80.1c-15.1-56.1-53.8-107.3-107.5-129.4c-26.3-10.8-55.1-14.5-83.6-15.3 c-62.4-1.7-128.1,11.4-175.4,52.2c-40.6,35.6-77.1,116.3-40.3,166.7c5.6-8.7,9.1-19.5,13.2-29c10.9-24.8,23.6-51.6,47.9-63.6 c5.4-2.7,11.2-4.4,17.2-5.2c4.2-0.6,12-2.1,16,0.1c3.2,1.8,4.9,5.3,8.7,6.3c4,1,7.7-0.1,11.6,0.3c13,1.3,24.8,20,30.1,30.3 c20.3,40.1,9.7,90,27.8,131.1c10.9,24.8,31.2,44,47,66c6.4,8.9,12.4,19,12.6,30c0.3,14.2-8.9,26.6-17.7,37.8 c-12.8,16.3-25.5,32.6-38.3,49c-14.4,18.4-29.5,42.7-18.5,63.4c9.8,18.4,34,21.7,53.1,29.8c26.9,11.4,46.9,35.5,58.5,62.2 c11.7,26.7,15.8,56.1,17.9,85.2c21.4,4.5,45.6,8.4,63.4-4.3c8.7-6.2,14.5-15.5,21.1-23.9c16.7-20.8,40.1-35.9,65.9-42.6 c13.7-3.5,29.8-6,36.7-18.4C1025.1,866.9,1022,854.3,1015.9,844.9z"/></g><g id="bedding"><g id="sheet"><path fill="#FFF" d="M306.6,948.9c20.9,21,43.1,37.7,72.4,43.7c7.5,1.6,15.2,2.8,22.8,3.9c15.3,2.1,30.7,3.4,46.2,4.2 c30.6,1.7,61.3,1.7,91.8,3.7c24.7,1.6,50.1,4.7,71.7,16.9c21.9,12.4,37.7,32.8,53.7,52.2c4.9,5.9,9.9,11.8,16.5,15.5 c4.7,2.7,10,4.1,15.3,5.3c24.9,5.4,51.1,4.6,75.6-2.4c2.7-0.8,5.5-1.7,7.5-3.7c2.5-2.5,3.3-6.1,3.8-9.6c3.3-23-2.6-45.6-13.7-66.1 c-9.7-17.9-23.4-34.2-38.4-47.8c-38-34.3-86.3-57.2-137-64.8c-38.7-5.8-78.2-2.9-117.1-6.8c-38.9-3.8-79.4-15.8-105.5-44.9 C353.5,827.4,344,800,326.7,778c-23.6-29.9-59.4-47.1-95-60.7c-19.5-7.5-40.9-14.2-61-8.4c-15,4.3-27.2,15.1-38.2,26.2 c-9.1,9.1-18,18.8-23.3,30.6c-0.2,0.4-0.3,0.7-0.5,1.1c5.8,18.8,12.7,37.1,20.6,54.9c14,6.3,31.5,8.5,46.6,12.8 C233.8,851.4,266.5,908.5,306.6,948.9z"/></g><g id="duvet"><path fill="#FBE1C8" d="M633.1,1039.6c-17.9-15-38.7-26.2-61.1-32.5c-24.9-7-51-8.4-76.7-7.9c-16.2-2.2-32.4-3.9-48.6-5.5 c-24.8-2.3-49.6-4.1-74.4-5.7c-3.8-0.8-7.6-1.9-11.4-3.2c-13.1-4.5-25.3-11.4-36.9-19c-10.8-7.1-22.2-14.5-31.4-23.7 c-9.9-9.9-12.9-23.6-19.3-35.5c-6.4-12-16.5-21.6-26.7-30.3c-4.7-4-9.6-7.9-14.6-11.5c-0.5-2-1.8-3.8-4.4-4.6 c-1.3-0.4-2.7-0.9-4-1.3c-4.6-3.1-9.4-6.1-14.2-8.8c-12.8-7.4-27.7-16-42.8-17.1c-12-4.9-24.3-7.8-36.8-9.8 c81.3,183.4,265,311.3,478.5,311.3c25.4,0,50.4-1.8,74.8-5.3C681.6,1094.8,658.9,1061.3,633.1,1039.6z"/></g><g id="duvet-shadow"><path fill="#F3D2AC" d="M231.5,974.2L231.5,974.2L231.5,974.2z"/><path fill="#F3D2AC" d="M681.8,1128.3c0.2-0.9,0.4-1.7,0.7-2.6c0.6-1.8,0.3-3.8-0.6-5.5c-2-40.7-25-80-59.7-101.4 c-25.8-15.9-56.4-22-86.6-24.8c-46.4-4.3-93.4-1.3-139.4-8.5c-26.8-4.2-53.9-12.3-75.4-28.5c-2.5-1.9-4.9-3.8-7.2-5.9 c-22.2-20-34.8-48.4-54.8-70.6c-14.5-16-32.7-28.2-52-37.5c-21.2-10.2-43.8-17.1-66.5-22.9c-4.3-1.1-8.7-2.2-13-3.2 c0.9,2.4,1.9,4.7,2.8,7.1c0.5,1.3,1.1,2.7,2.1,3.6c2.7,2.6,7.4,1.8,10.8,3c7.1,2.5,14.7,3.9,21.9,6.2c14.8,4.8,29.3,10.8,43,18.2 c26.7,14.5,50.7,35.1,65.1,62.3c2.1,3.9,4,8.6,2.3,12.7c-1.2,2.9-3.9,4.8-6.5,6.6c-13.5,9.3-26.9,18.5-40.4,27.8 c-1.3,0.3-2.7,0.6-3.9,1.1c-0.3,0.1-0.5,0.1-0.8,0.2c2.6,2.9,5.3,5.7,8,8.5c18.9,19.6,39.3,37.7,61.1,54.2 c0.8-0.8,1.6-1.7,2.4-2.5c2.4,0,4.6-1.4,6.5-2.7c12.4-8.6,23.9-18.7,38-24.2c19.2-7.4,40.6-5,61.1-2.6 c39.1,4.8,78.2,9.5,117.4,14.3c41.3,5,85.7,11.4,115.9,40c20.6,19.5,31.9,47.7,32.9,76.1c0,0.3-0.1,0.7,0,1c0,0.1,0,0.1,0,0.2 c-0.1,1-0.2,2.1-0.3,3.1c5.1-0.6,10.2-1.2,15.3-1.9c0-0.1,0-0.2,0-0.3C681.7,1128.8,681.7,1128.6,681.8,1128.3z"/></g><g id="sheet-pattern"><path fill="#E9E9E8" d="M351.9,915.5c-0.1,0.3-0.1,0.9-0.3,1.5c-1.6,4.6-3.2,9.3-5,13.9c-1.2,3-2.5,3.4-5.1,1.8 c-2.4-1.5-4.9-3-7.1-4.8c-1.5-1.1-2.9-2.4-4.5-3.6c-2.7-2-2.6-4.8,0.3-6.6c3.2-2,6.5-3.9,10.3-4.8c2-0.5,3.9-1.1,5.9-1.9 C349.8,909.8,351.8,911.2,351.9,915.5z"/><path fill="#E9E9E8" d="M636.5,978.5c0.2,2.8-0.4,6.1,0.7,9.4c0.5,1.3-0.6,2.6-2,2.7c-0.8,0.1-1.6,0.1-2.4,0c-2-0.4-4-1.1-6-1.3 c-3.9-0.4-6.6-2.9-9.5-5c-0.8-0.6-1.1-1.6-0.7-2.6c0.4-1.2,1-2.3,1.9-3.3c3.7-3.7,7.4-7.5,12.6-9.2c0.7-0.2,1.3-0.9,2-1.2 c1.4-0.7,3,0.2,3.3,1.7c0.1,0.8,0.1,1.6,0.1,2.4C636.5,974.1,636.5,976,636.5,978.5z"/><path fill="#E9E9E8" d="M739.2,1025.3c-0.1-2.4,0.9-4,3.1-4.8c3.9-1.4,7.8-2.7,11.7-4.2c1.6-0.6,3-0.7,4.6-0.2 c1.3,0.4,2.8,0.4,4.2,0.6c0.7,0.1,1.1,0.6,1.2,1.3c0.3,1.5,0.1,2.9-1,4c-4.6,4.6-9.2,9.2-13.9,13.8c-1.1,1.1-2.2,1-3.4,0.1 c-3-2.3-4.7-5.5-6.3-8.8C739.1,1026.7,739.2,1026,739.2,1025.3z"/><path fill="#E9E9E8" d="M737.3,988.3c0,0.2,0,0.7-0.1,1.2c-1.1,3.7-2,7.4-3.4,11c-1.7,4.3-5.4,5.6-9.8,3.8c-1.5-0.6-3-1.2-4.4-1.8 c-1.7-0.7-3.5-1.8-3.7-3.5c-0.3-1.8-0.4-3.7-0.3-5.5c0-0.5,0.6-1.1,1.1-1.4c5.5-3,11-5.8,17.2-7 C735.9,984.7,737.2,986,737.3,988.3z"/><path fill="#E9E9E8" d="M713.4,1019.5c0.8,0,1.3,0,1.8,0c2.5-0.1,3.3,0.9,2.7,3.7c-0.2,1.1-0.8,2.1-1.4,3 c-2.1,3.2-4.3,6.3-6.5,9.4c-2.7,3.6-6.5,3.9-9.9,0.9c-1-0.8-1.7-1.9-2.7-2.7c-2.3-1.6-2.2-4.1-2.9-6.3c-0.2-0.7,0.2-1.3,0.7-1.7 c0.6-0.5,1.2-1.1,1.9-1.4c3.7-1.4,7.5-2.7,11.2-4.1C710,1019.7,711.8,1019.4,713.4,1019.5z"/><path fill="#E9E9E8" d="M685.4,995.8c0.1,2-0.1,4-1.1,5.9c-0.7,1.4-1.3,2.9-1.6,4.5c-0.6,2.4-2.1,4.3-3.4,6.3 c-0.9,1.4-3.1,1.9-4.2,0.8c-2.8-2.9-6.7-4.3-9.6-7.1c-1.5-1.4-1.6-3.2,0.1-4.4c4.5-3.3,9-6.5,13.6-9.7c0.8-0.5,1.7-1,2.6-1.1 c2.9-0.5,3.7,0.4,3.6,2.9C685.4,994.4,685.4,995,685.4,995.8z"/><path fill="#E9E9E8" d="M176.2,737.5c0,0.2,0,0.7-0.1,1.2c-1.4,5.5-2.6,11.2-4.8,16.5c-0.7,1.7-1.6,2.1-3.4,1.6 c-0.6-0.2-1.2-0.4-1.8-0.6c-3-1.1-5.8-2.5-9-3.1c-1.6-0.3-2.7-1.6-2.9-3.4c-0.1-1.5,0.7-2.3,1.9-3.1c4.6-3.1,9.4-6.1,13.5-9.9 c0.8-0.7,1.9-1.1,2.9-1.6C174.9,733.9,176.3,734.7,176.2,737.5z"/><path fill="#E9E9E8" d="M280.9,776.4c0,1.3,0.1,2.5-0.5,3.7c-1.3,2.6-2.1,5.3-2.7,8.1c-0.2,0.9-0.5,1.8-0.9,2.7 c-0.9,2.1-2.4,2.7-4.6,2c-4.6-1.4-8.9-3.5-12.1-7.3c-1.6-1.9-1.6-3.5,0.5-4.8c2.9-1.7,5.9-3.2,9-4.5c2.7-1.1,5.4-1.9,8-3.2 c1.9-0.9,3.1-0.2,3.4,1.8C280.9,775.5,280.9,776,280.9,776.4z"/><path fill="#E9E9E8" d="M135.9,771.8c0,1.7,0,3.1,0,4.6c0,1.2-0.7,2.1-1.5,2.9c-0.8,0.7-1.6,1-2.6,0.7c-0.2,0-0.3-0.1-0.4-0.2 c-3.6-2.1-7.4-3.6-11.4-4.5c-2-0.4-2.5-1.9-1.7-3.7c0.4-0.9,0.9-1.7,1.5-2.4c2.3-2.9,4.5-5.8,6.9-8.5c1.1-1.3,2.6-2.3,4-3.4 c1.9-1.5,3.2-1.1,4,1.1c0.1,0.3,0.3,0.6,0.3,0.9C134.6,763.5,136.4,767.7,135.9,771.8z"/><path fill="#E9E9E8" d="M233.8,806.8c-1,1.7-0.8,4-1.4,6.2c-0.7,2.6-1.7,5.2-1.4,8c0,0.5,0,1-0.1,1.4c-0.6,2.6-2.3,3.6-4.6,2.3 c-3.9-2.2-7.6-4.7-11.3-7.1c-0.6-0.4-1.1-1.1-1.5-1.8c-0.8-1.4-0.7-2.3,0.8-3.2c4.6-2.9,9.2-5.6,13.8-8.4c0.7-0.4,1.4-0.7,2.2-0.9 C232.4,802.8,234,804.3,233.8,806.8z"/><path fill="#E9E9E8" d="M424.8,906.2c0,1,0.3,2,0,2.9c-0.9,2.5-0.8,5-0.9,7.6c-0.1,3.2-1.5,4.5-4.8,4.6c-4.2,0.1-7.7-1.7-11.1-3.9 c-0.7-0.4-1.2-1-1.8-1.6c-1.9-1.7-2-2.9-0.3-4.8c0.4-0.5,0.9-1,1.4-1.3c3.7-2.3,7.3-4.5,11-6.7c1.3-0.8,2.7-1,4.1-0.9 c1.7,0.1,2.3,0.6,2.4,2.3C424.9,905,424.9,905.6,424.8,906.2C424.9,906.2,424.9,906.2,424.8,906.2z"/><path fill="#E9E9E8" d="M314.4,877.9c-0.9,1.5-0.6,3.7-1.2,5.7c-0.9,3-2.2,6-2.7,9.1c-0.2,0.9-0.8,1.7-1.3,2.5 c-0.3,0.6-1,1-1.6,0.7c-1.3-0.5-2.9-0.5-3.9-1.6c-2-1.9-4.8-3.1-6.1-5.9c-0.4-0.8-1.3-1.4-1.9-2.1c-1.8-2.2-1.6-4.2,0.8-5.5 c4.5-2.5,9.1-4.5,14-6.1C312.3,874.2,314.4,875.7,314.4,877.9z"/><path fill="#E9E9E8" d="M693.1,957.9c0,1.1-0.1,2.2-0.6,3.2c-1.3,3.1-2.4,6.2-3.7,9.3c-0.7,1.7-1.7,3.1-3.3,3.9 c-1.8,1-3.5,1.3-5.4,0.3c-1.8-0.9-3.8-1.6-5.7-2.5c-1.7-0.8-2.5-2.3-2.5-4.2s0.4-3.3,2.3-4.3c4.2-2.3,8.2-4.8,12.4-7.1 c1.1-0.6,2.2-1.2,3.5-1.3C692.2,955,693.1,955.8,693.1,957.9z"/><path fill="#E9E9E8" d="M403.8,940.8c0,1.4,0.1,2.9,0,4.3c-0.3,3.8-3,6.5-6.7,6.9c-4.1,0.4-8.2-0.4-12.3-1c-1-0.2-1.7-0.9-2.3-1.6 c-0.6-0.7-0.7-1.5-0.1-2.2c1.6-1.7,3.1-3.7,5.1-5c3-2,5.6-4.6,9.1-5.9c1-0.4,1.7-1.4,2.6-2c2-1.2,4.3-0.1,4.5,2.3 C403.9,937.9,403.8,939.4,403.8,940.8L403.8,940.8z"/><path fill="#E9E9E8" d="M186.9,781.2c0,1.1-0.4,2.2-0.7,3.3c-0.6,2.8-1.4,5.5-1.3,8.4c0.1,2.8-1,3.7-3.9,3.5 c-2.7-0.2-5.3-0.7-8-1.2c-1.2-0.3-2.5-0.5-3.7-0.7c-2.4-0.4-3.3-2.7-2-4.7c0.4-0.7,1-1.2,1.6-1.8c2.4-2.3,4.5-4.9,7.5-6.7 c1.1-0.6,1.9-1.7,2.8-2.6c0.6-0.6,1.1-1.2,1.7-1.6c2.4-1.8,5.2-0.7,5.8,2.2C186.8,779.9,186.8,780.6,186.9,781.2z"/><path fill="#E9E9E8" d="M331.8,858.1c0-0.2,0.5-0.9,1.5-1.3c0.6-0.3,1.2-0.5,1.8-0.7c2.6-0.8,5.1-1.7,7.5-3 c0.6-0.3,1.2-0.6,1.8-0.7c3.3-0.8,5.7,1.4,5.1,4.8c-0.3,1.4-0.5,2.9-0.4,4.3c0.3,3.4-1.2,6.6-1.2,9.9c0,1.2-1.2,1.8-2.5,1.6 c-2.6-0.4-4.8-1.3-6.6-3.5c-1.4-1.7-3.1-3.2-4.7-4.8C332.7,863,331.8,861.2,331.8,858.1z"/><path fill="#E9E9E8" d="M386.4,888.9c0,0.3,0,0.7-0.1,0.9c-2.3,4.5-3.5,9.6-6.7,13.6c-0.5,0.6-1,1.2-1.6,1.7 c-0.3,0.3-0.9,0.6-1.3,0.5c-2.2-0.4-4.6-0.5-6.4-1.5c-2.4-1.5-4.5-3.6-5.5-6.4c-0.4-1-0.2-1.9,0.5-2.6c0.4-0.5,0.9-1,1.4-1.3 c4.7-2.3,9.2-5.1,14.2-6.7c1.3-0.4,2.5-0.6,3.7-0.2C385.6,887.1,386.2,887.8,386.4,888.9z"/><path fill="#E9E9E8" d="M317.4,816.9c-1.2,4.4-2.5,9.9-4.1,15.4c-0.4,1.6-2.3,2-3.5,1c-3-2.5-6-5.2-8.9-7.8 c-0.7-0.6-1.2-1.4-1.7-2.3c-1-1.7-0.8-2.3,0.5-3.8c1.6-1.7,3.6-2.6,5.7-3.4c1.9-0.7,3.9-1.4,5.5-2.7c0.5-0.4,1.1-0.6,1.7-0.9 C315.6,811,317.4,812.3,317.4,816.9z"/><path fill="#E9E9E8" d="M468.3,925.1c0.1,2.6-2.4,5.1-4.7,4.5c-3.4-0.9-6.8-1.5-10.2-2.1c-1.3-0.2-2.8-0.6-3.9-1.7 c-1.3-1.4-1.6-3-0.1-4.1c4.3-3.1,7.7-7.1,11.6-10.7c2-1.8,4.3-1.3,5.2,1.3c0.6,1.5,0.9,3,1.1,4.6 C467.8,919.7,467,922.7,468.3,925.1z"/><path fill="#E9E9E8" d="M560.6,921.3c0,1.1,0,2.2,0,3.3c-0.1,3.1-1.7,5.4-4.6,6.5c-0.4,0.2-1,0.4-1.4,0.3c-3.3-1.1-6.6-0.4-10-0.6 c-1.4-0.1-2.4-0.6-3.3-1.6c-1-1.1-1.1-2.3-0.1-3.4c3.9-4.2,7.9-8.3,12.6-11.6c1.6-1.1,3.4-0.8,5.1-0.4c1,0.3,1.5,1.2,1.6,2.2 C560.6,917.8,560.6,919.6,560.6,921.3L560.6,921.3z"/><path fill="#E9E9E8" d="M281.6,841.7c-1.2,3.6-0.4,7.3-0.7,10.9c-0.2,1.7-0.6,3.4-1.1,5.1c-0.4,1.6-1.7,2.3-3.3,2 c-0.3-0.1-0.6-0.1-0.9-0.2c-4.2-1.9-8.1-4.4-11.5-7.5c-1.8-1.7-1.7-3.3,0.3-4.8c1.5-1.1,3.2-2.1,4.9-3c3-1.5,6-2.8,9.1-4.2 c0.4-0.2,0.9-0.2,1.4-0.2C280.6,839.8,281.6,840.8,281.6,841.7z"/><path fill="#E9E9E8" d="M453.6,951.8c0,1.4,0.1,2.9,0,4.3c-0.1,1.5-0.9,2.4-2.4,2.5c-1.9,0.1-3.8,0.3-5.6,0.9 c-0.6,0.2-1.3,0.2-1.9,0c-1.8-0.6-3.7-0.9-5.6-0.9c-1,0-1.8-0.6-2.5-1.3c-1.2-1.2-1.3-2.5-0.1-3.8c2.4-2.5,4.8-5.2,7.5-7.4 c1.9-1.5,3.7-3,5.4-4.6c1.1-1,1.5-0.8,2.7,0.4C453.8,944.7,453.9,948.2,453.6,951.8z"/><path fill="#E9E9E8" d="M593.2,965.9c0,1.3,0.1,2.5-0.5,3.7c-0.7,1.5-1.6,2.6-3.4,2.9c-2.2,0.4-4.3,1.2-6.5,0.9 c-2.3-0.3-4.2-1.2-5.2-3.5c-0.8-1.8-0.7-3.3,0.6-4.8c2.6-3.1,5.1-6.4,7.7-9.6c1.3-1.6,2.8-2.5,5-2c0.6,0.2,1.1,0.5,1.3,1.2 c0.1,0.3,0.1,0.6,0.1,0.9c0.1,2.7-0.1,5.4,0.9,8C593.4,964.3,593.2,965.1,593.2,965.9z"/><path fill="#E9E9E8" d="M232.8,745c-0.1,0.2-0.3,1-0.5,1.7c-1,3.2-2.1,6.3-3.2,9.5c-1.2,3.5-2.6,4.2-6.1,3.2c-2-0.6-4-1-5.9-1.6 c-1.2-0.4-2.5-0.7-3.5-1.4c-2.4-1.6-2.5-4.4,0.2-5.6c4.4-1.9,8.3-4.6,12.4-7.1c1.1-0.7,2.2-1.2,3.4-1.7 C231.7,741.2,233.1,742.3,232.8,745z"/><path fill="#E9E9E8" d="M651.7,946.4c0,1.3,0.1,2.9,0,4.5c-0.1,1.4-1.1,2.3-2.6,2.3c-0.8,0-1.6,0-2.4-0.2c-2.3-0.6-4.6-1.2-6.8-2 c-3.8-1.3-4.7-5.1-2-8.3c2.4-2.8,5.6-4.7,8.3-7.1c1.8-1.5,4-0.4,4.6,2C651.6,940.4,652.1,943.2,651.7,946.4z"/><path fill="#E9E9E8" d="M546.9,961.9c-2.8-0.3-6.1-0.7-9.4-1.2c-1.3-0.2-2-1.7-1.6-3c0.1-0.5,0.3-0.9,0.6-1.3 c3.1-4,5.7-8.4,10.4-11c1.4-0.8,2.4-0.6,3,1c0.5,1.3,0.9,2.7,1.1,4.1c0.2,1.9,0.1,3.8,0.8,5.6c0.2,0.6,0.2,1.3,0.2,1.9 c0,2.8-0.8,3.7-3.6,3.8C548.1,961.9,547.7,961.9,546.9,961.9z"/><path fill="#E9E9E8" d="M515.5,927.1c0.1,3.8-1.2,5.2-4,4.6c-2.3-0.5-4.6-0.8-7-1c-1.1-0.1-2.2-0.5-3.2-0.9 c-2.1-0.8-2.7-2.5-1.2-4.1c1.8-2,3.7-4,5.8-5.7c1.5-1.2,3.1-2.2,4.4-3.6c0.6-0.6,1.3-0.9,2.1-0.9c1-0.1,2,0.5,2.1,1.5 C514.7,920.7,514.3,924.4,515.5,927.1z"/><path fill="#E9E9E8" d="M506.9,956.5c0,0.4,0.1,1.5,0,2.6c-0.1,2.5-0.9,3.2-3.6,3.4c-3.4,0.3-6.5-1.1-9.9-1.2 c-1.5-0.1-2.3-2-1.4-3.3c0.9-1.5,1.9-2.9,3.1-4.2c1.9-2.1,4-4.1,6-6.1c2.3-2.2,3.8-1.8,4.9,1.1 C506.9,951.1,506.9,953.4,506.9,956.5z"/><path fill="#E9E9E8" d="M602.8,927.4c0,1.6,0.1,3.2,0,4.8c-0.2,2.5-1.7,3.5-4.2,3.2c-1.4-0.2-2.8-0.3-4.3-0.3 c-1.3,0-2.5-0.2-3.7-0.8c-2.3-1.2-2.6-2.3-1.2-4.6c1.4-2.2,2.9-4.1,5.2-5.5c1.5-0.9,2.6-2.3,3.9-3.5c0.8-0.7,1.6-1.1,2.6-0.7 c1,0.4,1.5,1.2,1.6,2.2C602.9,923.9,602.8,925.7,602.8,927.4L602.8,927.4z"/></g><g id="sheet-shadow"><path fill="#E9E9E8" d="M787,1069.3c-2.5-11.3-5.8-22.4-9.7-33.2c-16.4,11.3-35.7,18.5-55.5,20.5c-9.7,1-19.6,0.8-28.9-2.2 c-19.7-6.3-33.3-23.6-49.6-36.4c-36.4-28.5-85.4-33.2-131.5-36.8c-45.7-3.6-92.1-5.1-137.4-12c-10-1.5-19.9-3.5-29.4-7.1 c-4.1-1.6-8-3.7-11.8-6.1c-2.5-1.6-5-3.2-7.6-4.6c-2.7-1.5-5.6-2.4-8.5-3.5c-3.2-1.2-6.4-2.4-9.6-3.7c-0.5-0.2-1-0.4-1.5-0.6 c-0.3,1.6,14.3,13.3,15.6,14.4c13.4,11,29.5,17.1,46.3,21.7c31.4,8.5,64.2,10,96.8,10.9c32.5,0.9,65.3,1.3,97.2,7.7 c29.3,5.9,64.2,17.6,85,40.4s34,52.4,32.2,83.7c-0.1,1.9,0.5,3.3,1.4,4.3c0.1,0.9,0.3,1.8,0.6,2.6c40.9-5.7,80.3-16.1,117.6-30.7 c-0.9-3.9-2-7.7-3.5-11.4C792.7,1081.2,789.7,1075.3,787,1069.3z"/></g></g></svg>