<svg xmlns="http://www.w3.org/2000/svg" xmlns:xlink="http://www.w3.org/1999/xlink" id="_x33_40x340_illustration-2.png32_x2C__680x680_illustration-2-highres.png_1_" x="0" y="0" enable-background="new 0 0 1200 1200" version="1.1" viewBox="0 0 1200 1200" xml:space="preserve"><g id="illustration-2_xA0_Image_1_"><circle id="background" cx="623.4" cy="607.5" r="527" fill="#FFBF99"/><path id="background-highlight" fill="#FFB391" d="M1150.4,607.5c0,291.1-236,527-527,527V80.4 C914.5,80.4,1150.4,316.4,1150.4,607.5z"/><path id="woman-2-left-hand" fill="#FEE2D7" d="M505.2,520.2c-7.9-4.2-11.8-12.5-6.7-22c3.2-6.1,9.1-10.3,15.1-13.6 c11.3-6.2,24.1-10.1,36.9-9.2s25.5,7.1,32.7,17.8c-13.5,7.2-25.3,17.5-39.2,24c-10.1,4.8-22,7.5-33,5 C508.9,521.9,507,521.2,505.2,520.2z"/><g id="woman-2-neck"><path fill="#FEE2D7" d="M1012.9,580.6c3.4-10.5,3.3-22.5,1.7-33.6c-2.6-17.5-8.4-34.9-7-52.6c0.4-5.2,1.4-10.5,0.1-15.5 c-1.4-5-6.1-9.7-11.2-8.7c-4.5,0.9-7.1,5.4-10.6,8.4c-8.1,7-20.2,5.3-30.9,3.8c-28.2-3.9-57-3-84.9,2.6 c-8.1,1.6-16.3,3.8-23.1,8.4c-11.8,8.1-17.8,22.8-18.6,37.1c-1.5,27.5,8.9,60.4,34.5,73.9c12.6,6.6,27,9.1,41.2,10.2 c22.3,1.8,44.9,0.5,66.9-3.8c11.6-2.3,23.6-5.7,32-13.9C1007.8,592.3,1010.9,586.7,1012.9,580.6z"/><path fill="#FAD395" d="M1045.8,487.3c-0.3-2.5-0.6-5.2-1.3-7.6c0.1-0.6,0.2-1.1,0.4-1.7c0.9-4.1-2.7-9.4-7.3-8.2 c-0.4-0.3-0.9-0.7-1.4-1c-4.6-2.6-11.2-2.5-16.3-3.3c-9.8-1.5-21.5-4.3-27.9,5.7c-0.7,1.1-1.3,2.3-1.8,3.6c-0.4,0.6-0.8,1.4-1,2.4 s-0.4,2.1-0.6,3.1c-0.2,0.9-0.3,1.7-0.5,2.6c-1,5.6-2,11.1-3,16.7c-1.7,10.2-2.5,21.1,2.7,30.5c4.2,7.6,14.3,16.2,23.1,17.5 c10.9,1.7,18.8-6.5,24.4-14.6c6.4-9.1,10.9-18.2,11.4-29.5C1047.1,498,1046.5,492.7,1045.8,487.3z"/><path fill="#FEC1AC" d="M1009.8,507.1c-0.1-1.4-0.2-2.8-0.2-4.3c-0.2-12.5,2.5-25.8-2.9-37.1c-4.4-9.3-13.6-15.3-23.1-19.5 c-22.7-10-48.9-11.1-72.9-4.4c-23.9,6.6-45.5,20.8-62.2,39.1c-10.2,11.2-22.9,30.2-17.5,46.4c5.1,15.3,24.3,23.6,38.8,25.8 c15,2.3,30.4,0.4,45.6,1s31.3,4,42.1,14.8c6.4,6.4,10.8,15.1,18.9,19.2c11.2,5.6,25.7-0.9,32.4-11.5s7.2-24,5.7-36.5 C1013.3,529.1,1010.5,518.2,1009.8,507.1z"/></g><g id="woman-2-outfit"><g id="skirt"><path fill="#635F5B" d="M910.9,1012.4c-12.5-18.2-44-16.8-65.2-18.6c-34.1-3-69-10.7-103.4-15.2c-30.6-4-76.1-11.7-102.3,9 c-9.6,7.6-15.7,18.8-20.7,30c-10.1,23-16.6,47.4-25.9,70.7c-4.6,11.5-9.8,22.8-16.5,33.3c-2.2,3.4-5.1,7.2-7.1,11 c14.8,1.3,29.9,1.9,45,1.9c111.7,0,215.4-34.8,300.6-94.1c0.6-2.8,0.9-5.7,0.9-8.7C916.3,1023.6,914.3,1017.3,910.9,1012.4z"/></g><g id="shirt"><path fill="#FFBF99" d="M824.3,522.5L824.3,522.5c0.1,0.1,0.1,0.1,0.2,0.1c0.2-0.8,0.4-1.6,0.7-2.4c-0.1,0-0.1,0-0.2,0 C824.8,521.1,824.6,521.8,824.3,522.5z"/><path fill="#BDD37D" d="M1025.2,938.1c-0.5-3.1-1.1-6.1-1.6-9.2c-0.2-1.2-0.6-2.3-1.2-3.3c0-0.3-0.1-0.7-0.1-1 c-4.7-36.7-4.9-74-0.6-110.7c0.3-2.8,0.7-5.7,2.2-8.1c1.6-2.6,4.4-4.3,7-6c36.8-23.2,67.4-56.2,87.5-94.8c-0.4,0-0.8,0.1-1.2,0.2 c2.4-2.7,3.9-6.1,4.3-10c1.5-2.9,2.7-5.9,3.6-9c5.5-17.8,3.8-37.1-1.5-54.9c-5.4-17.8-14.3-34.2-23.5-50.4 c-0.1,0-0.1,0.1-0.2,0.1c-7.4-11.1-20.1-19.3-30.8-26.4c-14.2-9.5-29.4-17-45.3-23c-1.3-0.5-2.7-0.7-4.1-0.5 c-1.8-4-4.9-7.3-9.1-8.5c1.1,3.5,1.2,7.1,0.7,10.5c-0.3,0.1-0.5,0.2-0.7,0.4c0,3.5-0.8,6.9-2.8,10.1c-0.9,1.3-1.9,2.6-2.9,3.7 c0.1,0.2,0.1,0.4,0.2,0.6c-4,5.7-9.3,10.9-14.7,15c-31.4,24.3-73.6,37.2-111.6,26c-9.6-2.8-18.8-7.2-26.1-14.1 c-8-7.6-13-17.7-17.2-27.9c-3.6-8.7-6.6-17.7-9.2-26.8c-0.1-0.3-0.1-0.5-0.2-0.8c-0.1,0-0.3,0-0.4,0v0.1l-0.1-0.1 c-0.1,0-0.3,0-0.4,0c-4.1,0-8.2-0.2-12.3-0.4c-1.2,0-2.4,0-3.6,0.1c-1.3,4-2.3,8.1-3.2,12.2c-2.9,12.6-6.3,25.1-9.3,37.7 c-0.5,2-1,4-1.6,6c-0.1,0.7-0.2,1.4-0.3,2.1c-0.1,0.9-0.3,1.7-0.4,2.6c0,0,0,0,0,0.1c-0.1,0.9-0.2,1.7-0.3,2.6 c-0.2,0.7-0.4,1.4-0.6,2.1c-0.1,0.2-0.1,0.4-0.2,0.6c-0.2,0.1-0.4,0.1-0.6,0.2c-0.1,0-0.1,0.1-0.2,0.1c-0.1,0.1-0.3,0.1-0.4,0.2 c0,0-0.1,0-0.1,0.1c-0.8,2.7-1.7,5.3-2.5,8c-2.5,8-4.3,16.2-7.2,24.1c-0.9,2.3-1.8,4.7-2.7,7c-3.2,22.6-9.2,45.1-14.8,66.7 c-7.7,29.8-15.4,60.1-27.7,88.4c-11.9,27.5-28,52.9-44.1,78.2c-16.1,25.4-33.2,50.2-52.5,73.3c-6.4,7.7-11.3,13.3-16.2,20.6 c0.2,0.8,0.4,1.6,0.7,2.4c1.5,4.9,2.7,8.1,5,12.4c1,1.9,2.2,3.7,3.4,5.5c0.1,0.2,1.2,1.7,1.6,2.3c0.3,0.4,0.7,0.9,0.7,0.9 c5.8,6.9,12.5,12.8,19.5,18.5c6.5,5.3,10,8,17.4,13c6.8,4.6,13.9,8.9,21.2,12.8c7.1,3.8,14.3,7.4,21.6,10.6 c4.8,2.1,4.8,2.1,9.7,4.1c3.5,1.4,7.1,2.7,10.6,4c30.8,11.2,62.6,19.1,94.4,26.9c10.7,2.6,21.5,5.2,32.4,7.7 C925.3,1039.3,980.7,993.3,1025.2,938.1z M824.6,522.7c-0.1-0.1-0.1-0.1-0.2-0.1l0,0c0.2-0.7,0.4-1.5,0.7-2.2c0.1,0,0.1,0,0.2,0 C825,521.1,824.8,521.9,824.6,522.7z"/></g><g id="shirt-highlight"><path fill="#DDED95" d="M952.9,998.9c-2.7-38.7-1.2-77.6,4.7-115.9c3.7-24.4,10.6-50.7,30.7-65c-15,7-33.5,13.7-47,4.2 c-5.5-3.8-9.1-9.8-12.4-15.7c-7.6-13.8-13.9-28.2-19.1-43.1c-6.7-19.5-11.1-41.4-3-60.3c9-20.8,30.8-32.6,51.1-42.8 c4.3-2.2,10.1-4.2,13.5-0.7c-6.8,11.5-16.4,21.2-27.8,28.1c24.9,9.2,46.2,27.7,58.8,51c30.5-15.2,58.4-35.6,82.1-60.1 c8.1-8.4,16-17.7,19-29c2.3-8.9,0.9-19.2-4.8-26.2c-1.5-1.9-3.4-3.5-5.5-4.8c-9.9-5.9-22.3-2.7-33.7-1.5 c-16.9,1.8-34.3-1-49.7-8.1c-4.7-2.2-9.4-4.8-14.5-5.4c-7.9-1-15.5,2.9-22.8,6.2c-33.8,15.3-74.4,20.3-107.6,3.7 c-33.2-16.6-54.3-58.8-39.5-92.8c-20.7-2.9-42.8-5.6-61.5,3.6c-20.7,10.1-32.8,33.8-32.6,56.9s11.3,45.1,26.9,62 c3.7,4-12,42.9-13.9,48.9c-5.4,16.8-11.5,33.4-18.2,49.7c-13.3,32.7-29.1,64.4-47,94.8c-18,30.4-38.1,59.5-60.3,86.9 c-9.6,11.8-24.1,21.5-20,37.4c4,15.5,14.8,30.4,25.3,42c8.5,9.3,18.2,17.5,28.7,24.5c32,21.3,69.7,31.8,106.5,41.3 c26.2,6.7,52.7,12.2,79.4,16c41.2-19.4,79.5-43.9,114-72.8c-0.1-0.4-0.1-0.8-0.2-1.1C953.4,1006.9,953.1,1002.9,952.9,998.9z"/></g></g><g id="woman-2-right-arm"><path id="arm" fill="#FEC1AC" d="M992.7,766.6c-3.3-28-24.1-53.2-51-61.8c-5.8-1.9-12.1-3-17.9-1.4c-5,1.3-9.5,5.1-11.1,9.9 c-0.3,0.3-0.6,0.6-0.8,0.9c-0.7,1-1.2,2-1.4,3c-1.7,1.4-3.4,3-5.5,3.7c-3.2,1.1-6.6,0-9.6-1.5c-9.9-4.9-16.9-14.2-23.5-23.2 c-24.8-33.8-49.7-67.5-74.2-101.6c-1.4-2-2.9-4-3.5-6.3c-0.9-3.2-0.3-6.7,0.3-10c2.6-15.5,3.1-31.4,1.4-47 c-0.8-7.2-2.1-14.5-5.5-20.9c-5.3-9.8-14.9-16.5-24.9-21.4c-22.1-10.8-50.7-13.7-69.8,1.7c-2.7,2.2-5.2,4.8-6.3,8.1 c-1,3.1-0.6,6.4,0.8,9.4c-2.1,4.8-2.9,10.2-2.6,15.5c0.5,11.6,5.2,22.7,11.5,32.4c8.6,13.5,20.3,25,33.7,33.8 c4.8,3.1,10.1,5.9,15.6,7.1c-0.5,0.1-1,0.1-1.6,0.1c0.9,4.1,2.2,8,3.8,11.9c0.6,2.1,1.3,4.1,2.2,6c1.1,2.9,2.2,5.9,3.3,8.8 c0.3,0.8,0.6,1.4,1,2c-0.2,0-0.3,0-0.5-0.1c2,5.4,4.3,10.6,6.7,15.7c6.7,14.1,14.6,27.6,20.8,42.1c8.1,19,15.1,38.4,23.2,57.4 c8,18.7,17,36.9,27,54.5c5.5,9.6,11.3,19.1,18.9,27.1s17.3,14.4,28.2,16.4c15.8,2.9,31.7-3.7,46.4-10.1l32.8-14.3 c9.6-4.2,19.6-8.7,25.8-17.1C992.7,788.7,994,777.2,992.7,766.6z"/><path id="arm-highlight" fill="#FEE2D7" d="M912.8,715.4c8.6-5.6,20.3-4.9,29.7-0.7c10,4.5,17.9,12.4,25.6,20.1 c5.4,5.4,11.3,12,10.6,19.6c-0.7,7.1-6.7,12.3-12.3,16.6c-25.2,19.5-52.6,38.1-84.1,43.8c-4.8,0.9-10,1.4-14.5-0.6 c-3.2-1.4-5.7-3.9-8.1-6.4c-44-46.7-59.1-113.2-92.2-168.2c-8.2-13.6-17.7-27-21-42.5c7.2,0,13.9-4.7,17.9-10.8 c4-6,5.7-13.3,6.9-20.4c1.7-10.6,2.1-21.5,1.3-32.2c-0.5-6.4-2.2-13.9-8.2-16.1c-3.1-1.2-6.6-0.6-9.9,0c-12.6,2.1-25.4,3-38.2,2.6 c-6.7-0.2-13.7-0.8-19.5-4.3s-9.8-10.7-7.7-17c1.1-3.3,3.6-5.9,6.3-8.1c19.1-15.5,47.7-12.5,69.8-1.7c10,4.9,19.7,11.6,24.9,21.4 c3.4,6.4,4.7,13.7,5.5,20.9c1.7,15.6,1.3,31.5-1.4,47c-0.6,3.3-1.2,6.8-0.3,10c0.7,2.3,2.1,4.4,3.5,6.3 c24.5,34.1,49.4,67.8,74.2,101.6c6.6,9,13.5,18.2,23.5,23.2c3,1.5,6.4,2.5,9.6,1.5c2.5-0.8,4.3-2.8,6.4-4.4 C911.8,716.1,912.3,715.7,912.8,715.4z"/></g><g id="woman-2-head"><path id="head" fill="#FEE2D7" d="M1061.9,408.2c-1.4-2.1-3-4-4.8-5.7c-7.3-6.8-17.6-10-27.5-8.7c3.3-38-11-77.3-38-104.3 c-21.7-21.8-50.7-35.3-80.6-42.4c-22.3-5.3-46.8-6.9-67.3,3.4c-17.6,8.9-30.1,25.8-37.2,44.1c-7.1,18.3-9.3,38.2-10.5,57.8 c-2.9,49.5,0.5,100.5,18.3,147.2c2.9,7.7,5.6,16.3,11.4,22.4c5.5,5.8,13,9.7,20.7,11.7c10.9,2.8,22.3,2.3,33.5,1.2 c19.9-1.9,39.7-5.5,59-10.6c24.3-6.5,49.7-17,62.4-38.6c1.5-2.6,2.9-5.4,5.5-6.9c4.4-2.6,9.9-0.4,15,0.4 c9.1,1.4,18.3-2.5,25.1-8.6s11.4-14.3,15.2-22.6c2.7-6,5.1-12.3,5.5-18.9C1068.2,421.9,1066.1,414.4,1061.9,408.2z"/><path id="mouth" fill="#635F5B" d="M850.2,495.8c-5.5-0.1-10.9-1.5-15.6-4.4c-7.5-4.7-12.4-13.6-11.5-22.4 c0.4-3.5,2.6-7.7,6.1-7.3c2,0.2,3.5,1.8,4.9,3.1c5.1,4.9,11.5,8.3,18.4,9.8c5.3,1.2,13.7-0.6,17.4,4.2c2.2,2.9,1.6,7.2-0.6,10.1 s-5.7,4.5-9.1,5.5C856.9,495.3,853.6,495.8,850.2,495.8z"/><path id="eyebrow-right" fill="#FEC1AC" d="M903.4,363.8c-0.4-0.1-0.8-0.1-1.2-0.2c-1.3-0.2-2.6-0.2-3.8,0.5s-1.9,2.2-1.5,3.5 c0.3,0.9,1.2,1.5,2,2c3.9,2.4,8.4,4.6,12.3,7.3c4.1,2.8,7.3,6.8,11.3,9.8c3.5,2.6,8.1,1,6.2-4.5c-0.6-1.7-1.7-3.1-2.9-4.4 c-3.2-3.4-7-6.1-10.9-8.6C911.3,366.8,907.5,364.6,903.4,363.8z"/><path id="eyebrow-left" fill="#FEC1AC" d="M837.2,347.3c0.4,0,0.8,0,1.2,0c1.3,0,2.6,0.2,3.6,1s1.6,2.4,1,3.6 c-0.5,0.9-1.4,1.3-2.3,1.7c-4.2,1.8-9,3.4-13.3,5.5c-4.5,2.2-8.2,5.7-12.6,8.1c-3.8,2-8.1-0.1-5.5-5.3c0.8-1.6,2.1-2.8,3.5-3.9 c3.6-3,7.8-5.1,12-7C828.9,349.2,833,347.5,837.2,347.3z"/><path id="eye-right" fill="#635F5B" d="M895.5,416.4c-0.2,2.6-1.3,4.5-3.6,5.8c-2.1,1.1-4.3,1.3-6.5,0.6c-4.6-1.3-6-7.1-2.6-10.4 c1.8-1.7,4-2.6,6.5-2.6C892.7,409.9,895.6,412.9,895.5,416.4z"/><path id="eye-left" fill="#635F5B" d="M829.1,403.9c-3.7,0-6.6-3-6.6-6.8c0-3.7,3.3-7.1,7-7.1c3.9,0,7.2,3.1,7,6.9 C836.5,401,833.5,403.9,829.1,403.9z"/><path id="nose" fill="#FEC1AC" d="M843.9,430.7c4.4,0.1,9.5,3.2,13.4,4.9c1.5,0.7,3.2,1.5,3.8,3.1c0.6,1.4,0.1,3.1-0.9,4.3 c-1,1.1-2.5,1.8-3.9,2.3c-4.4,1.3-9.4,0.5-13.1-2.1c-2.5-1.7-4.5-4.3-4.6-7.3c0-1.1,0.2-2.2,0.8-3c0.9-1.3,2.5-1.9,4-2 C843.5,430.7,843.7,430.7,843.9,430.7z"/><path id="ear" fill="#FEC1AC" d="M1048,445c0.3,4.4-1.4,8.8-4.6,12.4c-1.9,2.2-4.6,4.1-7.5,4.1c-10.2,0.3-3.4-10.7-0.7-14.6 c1.9-2.7,3.5-8-0.5-9.7c-1.1-0.5-2.7-0.7-2.8-1.9c0-0.5,0.3-1,0.7-1.3c5.2-5.4,11.2-0.3,13.8,5C1047.4,441,1047.9,443,1048,445z"/><path id="ear-shadow" fill="#FEC1AC" d="M1026.8,418.2c0.6-1.9,0.4-4.1-0.9-5.6c-1.4-1.5-3.6-1.8-5.7-1.9 c-5.5-0.3-11.1,0.2-16.1,2.5s-9.3,6.5-10.6,11.8c-0.7,2.5-0.6,5.4,0.7,7.7c1.2,2.1,3.2,3.5,5.3,4.6c2.8,1.5,8,4.4,11.3,4.1 c2.9-0.3,3.7-2.5,4.9-5.1c2.1-4.4,4.7-8.5,7.6-12.4c1.3-1.7,2.6-3.3,3.3-5.3C1026.7,418.4,1026.8,418.3,1026.8,418.2z"/><path id="hair" fill="#FDE4B0" d="M1165,305.9c-10-33.3-23.8-65.8-45-93.3s-50.1-49.9-83.6-59c-20.1-5.5-41.3-6.1-62.1-4.9 c-26.4,1.5-52.6,5.8-78.1,12.8c-18.5,5.1-36.7,11.6-54.2,19.5c-20.3,9.1-40.3,20.4-54.5,37.5c-10.7,12.8-17.8,28.5-21.9,44.7 c-4.9,19.8-5.2,41,0.1,60.7c3.5,13.2,14.8,44.1,30.5,46.6c-0.1-2.4-0.1-4.9-0.2-7.3c-0.4-0.2-0.8-0.4-1.2-0.6c0.5,0,1,0,1.5-0.2 c0.3-17,0.5-34.2,4.7-50.7c3.6-14.3,11.7-29.2,25.8-33.3c1.3-0.4,2.8-0.7,4.1-0.2c2.2,0.7,3.4,3.2,4.3,5.3 c20.8,50.9,54.9,97.8,102.3,125.5c15.3,8.9,31.7,15.8,48,22.6c7.5,3.1,17.3,5.8,22.7-0.3c1.5-1.7,2.5-3.9,4.1-5.5 c2.2-2.2,5.5-2.8,8.5-3.4c10.9-2.1,24-3.5,31.3,4.8c4.7,5.4,5.2,13.3,4.8,20.5c-0.6,10.5-3.6,22.4-13,27.1c-1.1,0.6-2.3,1-3.4,1.7 c-1.5-0.3-3-0.5-4.6-0.8c-1.6-0.2-3.2-0.2-4.7,0.1c-0.1,1.4-0.3,2.8-0.8,4.1c-0.1,0.8-0.3,1.6-0.4,2.4c0,0.1,0,0.2-0.1,0.2l0,0 c-0.2,2.2-0.3,4.4-0.3,6.6c0,2-0.4,3.9-1.1,5.6c0,0.3,0.1,0.6,0.1,0.9c-6.3,32.6-12.7,65.3-19,97.9c-0.4,2-0.8,4.1-0.4,6.1 c1.4,7.2,11,8.8,18.4,8.2c63.1-5.6,116.6-55.6,138.6-115C1188.5,433.2,1183.1,366.6,1165,305.9z"/><path id="hair-shadow" fill="#FAD395" d="M1038.1,479.5c0.2-0.6,0.5-1.1,0.8-1.6c1.2-1.6,3.3-2.3,5-3.2c9.4-4.7,12.4-16.6,13-27.1 c0.4-7.2-0.1-15.1-4.8-20.5c-7.3-8.4-20.4-7-31.3-4.8c-3.1,0.6-6.3,1.3-8.5,3.4c-1.7,1.6-2.6,3.8-4.1,5.5 c-5.4,6-15.2,3.4-22.7,0.3c-16.4-6.8-32.8-13.6-48-22.6c-47.4-27.7-81.6-74.6-102.3-125.5c-0.9-2.2-2-4.6-4.3-5.3 c-1.3-0.4-2.7-0.1-4.1,0.2c-14.1,4.1-22.2,19.1-25.8,33.3c-4.2,16.5-4.4,33.7-4.7,50.7c-2.7,1.2-5.3-2-6.6-4.7 c-4.9-10.4-8.8-21.4-11.5-32.6c-4.3-17.8-5.2-37.9,4.7-53.2c8.4-13,24.3-20.7,39.7-19.3c2,0.2,4.1,0.5,5.7,1.7 c2,1.4,3.1,3.8,4.2,6.1c12.9,28.8,27.1,57.3,46.6,82c32.3,40.9,82.3,68.9,135.3,67.3c11.4-0.3,23.4-1.3,33.4,4 c11.2,5.9,17.5,18.8,18.9,31.4s-1.4,25.3-4.2,37.7c-7.2,32.4-14.5,64.8-21.7,97.2c-1.1,5-2.3,10.1-5.2,14.4s-8,7.4-13,6.5 c-2.5-0.4-5-2.1-5.6-4.6c-0.3-1.3-0.1-2.7,0.2-4c6.7-36.8,13.5-73.5,20.2-110.3C1037.7,481.1,1037.8,480.2,1038.1,479.5z"/></g><g id="onsie_1_"><path id="onsie" fill="#FFF" d="M767,524.3c-1.4-3.5-4.7-6.5-8.4-6.3c-2.6,0.1-4.9,1.7-7.2,3c-13.6,8.1-30.7,10.1-45.8,5.3 c-2.9-0.9-5.8-2.2-7.9-4.4c-1.5-1.6-2.5-3.7-3.4-5.7c-2.1-4.6-4.2-9.2-6.3-13.8c-5-1-10.1-2.1-15.1-3.1c-1.8-0.4-3.6-0.7-5.4-0.3 c-2.9,0.7-4.9,3.4-6.9,5.6c-6.1,6.9-15,11.3-24.1,11.6s-18.5-3.9-24.1-11.1c-2.9-3.7-5.7-8.8-10.4-8.8c-2,0-3.8,0.9-5.5,1.8 c-14.9,7.6-29.8,15.3-44.6,22.9c-9.8,5-20.1,10.2-31.1,10.1s-22.8-7.4-24-18.3c-5.4-1.5-12.5-2.3-15.3,2.5 c-1.1,1.9-1.1,4.2-1.1,6.3c0.1,9.8,0.6,19.5,1.6,29.2c0.9,8.7,0.5,22.3,4.5,30.1c6.7,13.1,35.9,6.6,46,1.6c4.3-2.1,9-4.9,13.6-3.5 c6.8,2.1,7.9,11.1,7.7,18.2c-0.7,24-1.4,48-2.1,72c-0.1,5-0.2,10.2,2.4,14.4c3.1,5.1,9.3,7.3,15,9.3c17.3,6.1,36.1,15.8,40.7,33.5 c1.9,7.2,1.4,15.7,6.7,21c5.5,5.4,14.5,4.5,22.2,3.2c-0.7-1.2-1.4-2.4-2-3.6c2.3,4.3,9.2,3.6,12.4,0c3.3-3.6,3.9-8.8,4.7-13.6 c3.2-20,12.6-41.9,31.9-48.1c5.5-1.8,11.8-2.3,16.2-6c6-5.1,6.3-14,6.1-21.9c-0.4-24.3-0.9-48.5-1.3-72.8 c13.4-2.5,26.9,9.2,40.1,5.6c7.1-1.9,12.5-8.1,15.3-14.9c2.8-6.8,3.5-14.3,4.1-21.6c0.5-5.8,1-11.5,1.5-17.3 c0.3-3.9,0.7-8-0.6-11.7C767.1,524.6,767,524.5,767,524.3z"/><g id="onsie-polka"><path fill="#DBEDFF" d="M689.5,509.9c1.4,1.5,2.4,3.4,2.9,5.4c0.9,4.3-0.7,8.9-3.4,12.4c-3.1,3.9-8,6.6-13,6.3s-9.8-4.3-10.2-9.3 c-0.2-2.1,0.3-4.4-0.8-6.2c-4.6,3.3-9.8,6-15.2,7.8c-2.9,1-6,1.8-8.6,3.5c-1.8,1.1-3.3,2.6-5.1,3.7c-4.4,2.8-10.4,2.9-15.1,0.6 c-5.6-2.8-4.5-6.3-7-11.1c-4.1-8-14.6-12.7-15.3-22.4c-0.1-0.8,0-1.6,0.3-2.3c1.3-2.6,5.2-1.7,7.5,0c4.2,3.2,7,8,10.9,11.6 c5.8,5.2,14,7.4,21.8,6.4s14.9-5,20.4-10.6c2.3-2.4,4.4-5.1,7.4-6.3c3-1.3,7.3-0.2,8.2,2.9c0.2,0.9,0.2,1.9,0.6,2.8 c1.2,2.5,4.9,1.8,7.7,2C685.7,507,687.8,508.1,689.5,509.9z"/><path fill="#DBEDFF" d="M551.7,580.8c0.2-1.8,0.7-3.5,1.7-5c2.8-4.5,8.6-6.2,13.9-6.1c1.9,0.1,3.9,0.3,5.7,1.1 c3.5,1.5,6,4.9,7.2,8.6c1.2,3.7,1.3,7.6,1.1,11.5c-0.1,2.2-0.3,4.6-1.5,6.5c-2.2,3.8-7.1,4.9-11.4,5.6 c-3.6,0.6-10.2,1.9-13.3-0.9c-2.9-2.7-2.4-9.9-3.1-14C551.6,585.7,551.4,583.2,551.7,580.8z"/><path fill="#DBEDFF" d="M552.4,677.7c1-6,4.8-9.3,11.1-9.8c5.8-0.5,10.2,2.1,13.8,6.2c1.3,1.5,1.7,3.4,1.9,5.3 c0.4,4.1,0,8-2.7,11.3c-0.8,1-1.4,2.1-2.1,3.2c-2.1,0.1-4.1-0.3-6.1-1.1c-2.2-0.9-4.4-1.8-6.7-2.6c-3.1-1.1-5.4-3.3-7.5-5.8 C552.6,682.5,552.3,680.1,552.4,677.7z"/><path fill="#DBEDFF" d="M585.1,698.8c1.7-5.5,5-8.5,10.5-9.8c7.5-1.8,13.6,1.1,16.6,8.2c0.5,1.2,0.8,2.4,0.8,3.7 c0,1.4-0.1,2.9,0,4.3c0.3,2.9-1,4.8-3,6.6c-1.8,1.7-3.9,1.2-5.9,1.4c-3.3-1.4-5.8-3.9-8.7-5.8c-2.4-1.6-4.6-3.4-7.1-4.7 C586.8,701.7,585.3,700.8,585.1,698.8z"/><path fill="#DBEDFF" d="M497.7,587.2c-1.5-2.4-1.1-4.5,1.1-6.3c1-0.8,1.9-1.7,2.7-2.7c3.1-3.8,7.4-5.4,12-6.1 c3.5-0.6,7,0.3,10.1,1.8c2.7,1.3,4.3,3.6,4.9,6.7c0.3,1.6,0.4,1.6,2.2,1.3c1.1-0.2,2.2-0.2,3.3-0.3c0.1,1.3-0.5,2.2-1.7,2.5 c-3.3,1-6.6,2.2-10.2,2.1c-4.3-0.1-8.5,0.1-12.7,1.6c-2.7,1-5.7,0.8-8.5,0.1C499.9,587.7,498.8,587.5,497.7,587.2z"/><path fill="#DBEDFF" d="M553.8,620.9c1.1-0.3,2.1-0.7,3.2-0.9c1.2-0.2,2.5-0.2,3.8,0.3c4.7,1.6,9,7.9,9,12.8c0,2.4-0.8,4.3-2.4,6 c-3.5,3.5-7.8,4.7-12.6,3.5c-0.6-0.1-1.2-0.4-1.8-0.6c-0.1-1.1-0.5-2.3-0.3-3.3c1.2-4.4,0.6-8.8,0.8-13.2 C553.5,624,553.7,622.5,553.8,620.9z"/><path fill="#DBEDFF" d="M611.2,727.6c0.4-0.4,0.9-0.7,1.5-0.9c3.6-1.4,7.7-1.3,11.1,0.6s5.6,5.5,5.6,9.4 c-0.1,3.8-2.6,7.5-6.3,8.7c-2,0.6-4.2,0.5-6.2-0.2c-6.6-2.1-5.7-9.6-6.1-15.2c-0.1-0.7-0.1-1.4,0.2-2 C611,727.8,611.1,727.7,611.2,727.6z"/><path fill="#DBEDFF" d="M492,512.4c1.3,3.1,2,6.3,2,9.7c-0.1,3.8-2.4,6.2-5.2,8.1c-1.5,1-3.4,0.5-5.2,0.3 c-1.2-0.1-1.8-1.2-2.4-2.2c-0.2-0.3-0.5-0.4-0.7-0.6c0-2.7,0-5.4-0.1-8c-0.2-5,3.7-8.8,8.7-8.2c0.6,0.1,1.3,0.1,1.9,0.1 C491.3,511.8,491.7,512.1,492,512.4z"/><path fill="#DBEDFF" d="M694.6,682.8c-0.7-0.2-1.3-0.6-1.8-1c-7.9-6.2-7.4-16.9-0.4-23.9c2.3-2.3,5.6-4,8.9-3.6 c1.4,0.2,2.9,0.8,3.7,2c0.6,0.9,1,1.9,1.2,2.9c1,3.7,2.1,7.5,1.2,11.3c-0.6,2.8-2.3,5.2-4.2,7.3c-1.8,2-3.9,3.8-6.5,4.7 c-0.6,0.2-1.3,0.4-1.9,0.3C694.8,682.9,694.7,682.9,694.6,682.8z"/><path fill="#DBEDFF" d="M662.9,704.4c-0.4-0.5-0.9-1-1.6-0.9c-2.8,0.3-4.4-1.5-6-3.3c-1.6-1.7-2.3-3.8-2.1-6.1 c0-0.6,0.1-1.3,0-1.9c-0.9-7.8,8-14.7,14.9-13.7c1.6,0.2,3.1,0.6,4.4,1.6c1.3,1.1,2.5,2.4,3.8,3.6c1.3,1.3,0.9,2.9,1.1,4.5 c-2.5,2-4.6,4.2-6.3,7c-0.7,1.2-1.8,2.3-2.9,3.2C666.1,700.1,664.4,702.2,662.9,704.4z"/><path fill="#DBEDFF" d="M706,584.4c-3.4-0.6-3.8-1.2-3.8-4.2c0.1-2.4,1-4.4,2.9-5.7c2.2-1.5,4.6-2.9,7.5-2.6 c1.1,0.1,2.2-0.1,3.3,0c0.9,0.1,2,0.2,2.7,0.6c3.4,1.8,6.1,4.5,8,7.9c0.9,1.5,0.6,3-0.2,4.5c-0.7,1.4-2,1.4-3.2,1.5 c-2.9-0.5-5.9-0.8-8.8-1.6C711.6,584.2,708.8,584.1,706,584.4z"/><path fill="#DBEDFF" d="M639,750.7c-0.5-1.3-1-2.6-1.5-4c-1.1-2.7-0.8-5.3,0.9-7.6c2.3-3,5.4-4.8,9.2-4.9c1.6-0.1,3.1,0,4.7,0.1 c-0.1,2.2-0.1,4.4-0.2,6.6c-0.3,4.7-2.3,7.3-6.8,8.5C643.3,750,641.2,750.2,639,750.7z"/><path fill="#DBEDFF" d="M662,561.6c-0.5-4.6,1.5-8.3,4.9-11.3c2-1.8,4.1-2.9,7-1.8c1.1,0.4,2.5,0.4,3.8,0.4 c3.2-0.1,5.8,1.4,8.3,3.3c4,3.2,4.8,7.3,3.5,12c-0.6,2-1.3,3.9-2.4,5.7c-4.2,7.2-13.9,9.4-20.8,3 C662.7,569.7,661.6,566,662,561.6z"/><path fill="#DBEDFF" d="M620.9,581.4c-6.9-0.6-12.4-6.4-9.9-14.6c1.4-4.5,4.1-9,8.4-11c6.1-2.8,14,0.7,16.4,6.9s-0.8,13.9-6.7,17 C626.5,581.2,623.6,581.7,620.9,581.4z"/><path fill="#DBEDFF" d="M540.7,557.7c-6.1,0.1-11.5-4.7-11.1-11.1c0.2-2.6,1.1-5,2.2-7.3c1.9-4,4.7-8,8.9-9.3 c5.1-1.6,10.9,1.5,13.2,6.3c2.2,4.8,1.2,10.8-1.9,15.1c-2.3,3.2-5.7,5.6-9.6,6.3C541.9,557.7,541.3,557.7,540.7,557.7z"/><path fill="#DBEDFF" d="M598.2,535.9c0.2,5.4-2.3,10.9-7.5,13.1c-10.5,4.4-21.5-6.6-16.7-17c1.9-4,5.7-7,9.9-8.4 c2.4-0.8,5-1,7.3,0.1C595.7,526,598,530.9,598.2,535.9z"/><path fill="#DBEDFF" d="M620.5,620.2c0,4.6-2.4,9.3-6.5,11.6c-14.6,8.2-27.4-14.5-12.8-22.7c5.9-3.4,14.4-1,17.8,4.9 C620,615.9,620.5,618,620.5,620.2z"/><path fill="#DBEDFF" d="M659.1,647c0,0.5-0.1,1-0.1,1.5c-0.8,5.5-5.2,10.2-10.6,11.3c-12.8,2.6-21.6-14.7-10.4-22.5 c5-3.4,12.1-2.7,16.8,1c1.6,1.3,3,2.9,3.7,4.9C659,644.4,659.1,645.7,659.1,647z"/><path fill="#DBEDFF" d="M593,642.9c2.2,0.1,4.3,0.9,6.2,1.8c4.2,2.1,8.2,5.8,8.3,10.5c0.1,4.1-2.8,7.7-6.2,9.9 c-3,1.9-6.6,3.1-10.2,2.7c-8.9-1-11.3-10.2-8.4-17.6c1.5-3.7,4.8-6.9,8.8-7.3C592.1,642.9,592.6,642.9,593,642.9z"/><path fill="#DBEDFF" d="M498.1,561.6c-7.8-0.2-13.9-7.6-9.8-16.6c1.9-4.3,6.3-7.5,11.1-7.8c4.7-0.3,9.6,2.6,11.5,6.9 c2.4,5.3,0,12.1-5,15.3C503.3,561,500.6,561.6,498.1,561.6z"/><path fill="#DBEDFF" d="M676.3,627.4c-0.6-4.7,1.4-9.6,7-12.1c5.9-2.6,13.7,0.4,16.3,6.3c2.6,5.9-0.4,13.7-6.3,16.3 C684.4,641.8,677.2,634.8,676.3,627.4z"/><path fill="#DBEDFF" d="M653.1,588.2c1.8,0,3.5,0.3,5.2,0.7c3.7,1.1,7.5,3.3,8.8,7c1.1,3,0.3,6.5-1.6,9.1 c-1.9,2.6-4.8,4.3-7.8,5.3c-2.6,0.8-5.5,1.2-8.2,0.5c-8.7-2.2-10.5-15.2-3.6-20.4C648,588.9,650.5,588.2,653.1,588.2z"/><path fill="#DBEDFF" d="M747.6,549.1c0,1.3-0.2,2.7-0.6,3.9c-1.3,4.4-4.3,8.4-8.5,9.9c-10.3,3.6-15.6-9.1-11.5-17 c2-3.8,6-6.6,10.3-7c2.1-0.2,4.2,0.1,6,1.1C746.4,541.9,747.6,545.5,747.6,549.1z"/><path fill="#DBEDFF" d="M638.1,722.8c-0.3,0-0.5,0-0.8-0.1c-9.3-1.1-12.8-14.1-3.8-18.4c4-1.9,9-0.9,12.4,1.9 c1.2,1,2.3,2.2,2.9,3.7c1.1,2.6,0.4,5.8-1.2,8.1C645.7,721.1,641.9,723,638.1,722.8z"/><path fill="#DBEDFF" d="M616,681.7c-0.2-4.3,1.8-8.8,6.1-10.4c3.4-1.3,7.6-0.2,10,2.5c2.5,2.7,3.3,6.8,2.2,10.3 c-1.1,3.7-4.4,6.8-8.3,7.3C619.6,692.2,616.2,687.1,616,681.7z"/><path fill="#DBEDFF" d="M763.1,536.2c-1.4,14.4-2.1,29-7,42.5c-0.3,0.9-0.7,1.8-1.6,2.3c-3,1.7-3-4.8-3.1-6.2 c-0.2-3.5-0.1-7,0.1-10.6c0.8-11.9,2.4-23.7,4.9-35.3c0.3-1.3,0.6-2.7,1.2-3.9c0.4-0.7,0.9-1.4,1.7-1.8c1.6-0.7,3.5,0.5,4.1,2.1 s0.5,3.4,0.3,5.1C763.5,532.4,763.3,534.3,763.1,536.2z"/></g></g><g id="woman-1-neck"><path fill="#ECC18D" d="M409.6,609.8c-0.6-3.1-2-6.1-3.1-9c-2.1-5.5-5.8-9.9-10.5-13.4c-2.2-1.6-4.4-3.2-6.5-4.8 c-0.9-0.7-1.6-1.4-1.9-2.4c0.3-0.7,0.5-1.4,0.7-2.2c0.4-0.3,0.8-0.6,1.3-0.8c-0.3-0.1-0.7-0.2-1-0.2c0.1-0.6,0.2-1.3,0.2-1.9 c0.2-12.6-10-23.1-18-31.9c-8.1-8.9-16.9-14.9-27.9-19.6c-21.2-9.1-44.7-17.5-67.7-11.2c-2.2-0.5-4.4-0.4-6.4,0.1 c-5.3,1.4-10.6,7.2-9.9,13c0.6,5.7,1.2,11.6,2.7,17.2c0.4,1.7,1.2,3.5,1.9,5.3c-1.5,4.1-3.2,8.1-5.7,11.7 c-0.1,0.5-0.3,0.9-0.8,0.9c0.1,0.6,0.1,1.1,0.1,1.6c-0.9,1.2-1.7,2.6-2.3,4.1c-14.2,35,8.6,73,41.2,87.2c7.8,3.4,16,5.7,24.4,7 c11.3,2.7,23.1,3.5,34.6,4c12.2,0.5,24.5-2,34.8-9c7.7-5.3,18.6-16.3,18.3-26.2C410.8,623.1,410.9,616.5,409.6,609.8z"/><path fill="#FBE1C8" d="M420.9,599.5c-5.2,0-9.7,3-11.9,7.4c-0.4-1.4-0.9-2.9-1.5-4.2c-2.9-6.8-7.8-12.6-13.8-17 c-2.6-1.9-5.5-3.7-6.6-6.8c-26.2,0.3-52.5,8-78.1,2.8c-1.4-0.3-2.7-0.6-4.1-0.9c-1.5-0.6-3.1-0.9-4.9-0.9c-0.7,0-1.5,0.1-2.3,0.2 h-0.1c-3.8,0.3-7.8,2.3-9.1,5.9c0,0.1-0.1,0.2-0.1,0.4c-1.4,2.1-2.2,4.5-1.8,7c2.4,18.9,8.5,35.4,23.6,47.8 c6.5,5.3,13.3,10.4,21,13.9c8.4,3.7,16.9,5.6,26,6.6c32.2,3.3,76.1-9.9,77.1-48.6C434.6,605.7,428.1,599.5,420.9,599.5z"/></g><g id="woman-1-outfit"><g><path fill="#D44F4F" d="M555,1129.1c-11-38-22.1-76-33.1-114c-0.6,0.3-1.1,0.5-1.7,0.8c0.2-0.6,0.4-1.2,0.5-1.8 c0.3-1.5,0.6-3,0.8-4.6c-0.4-3.2-0.3-6.5,0-9.5c0.1-0.7,0.2-1.4,0.2-2.2c0.1-2.4,0.4-4.8,0.8-7.2c0.8-6.8,1.8-13.5,3.1-20.3 c2.4-12.4,5.6-24.6,9.7-36.5c2.9-8.3,5.1-17.9,9.3-25.9c-0.1-0.1-0.2-0.1-0.3-0.2c0.4-0.5,0.8-1,1.2-1.5c0.6-1,1.2-2,1.8-2.9 c0.4-0.6,0.9-1.2,1.5-1.6c1.4-2,2.6-4,3.8-6.1c0.6-1.1,1.1-2.2,1.8-3.3c5.9-11.4,9.3-24.2,9.6-37c0-0.7,0-1.3,0-2 c0-28-13.5-54.1-26.7-78.8l-36.1-67.6c13.4-19,15.2-44.8,7.4-66.7s-24.4-40-44-52.5c-15.6-9.9-33.1-16.6-50.6-22.5l-27.3,15.1 c11.1,6.2,19.9,17,22.3,29.5c2.5,12.5-2,26.4-12,34.3c-14.4,11.2-35.1,7.9-52.3,1.9c-22-7.6-42.8-18.6-61.5-32.6 C266,600.5,249.1,580,256,559.6c-13.8,8.1-29.8,10.8-46,12.8c-3.1-1-6.3-1.8-9.5-2.3c-32.8-5.6-66,9.4-82.2,38.9 c-7.7,14.1-9.5,30.1-9.3,45.9c0.1,14.5-1.1,31.8,8.4,43.8c7.5,9.5,19.5,13.2,31,15c4,0.6,39.5,4,39.4,2.1 c4.8,57.2,1.5,115-9.6,171.2c-0.9,4.4-1.8,8.9-0.9,13.3c0.1,0.4,0.2,0.8,0.3,1.3c-0.1,0-0.2,0.1-0.2,0.1 c83.7,124.2,219,210.8,375.1,229.2c-0.1-0.7-0.3-1.4-0.5-2.1C553.1,1128.9,554,1129,555,1129.1z"/></g><g><path fill="#E35F5B" d="M521.5,1015.3c-30.8,14.3-65.1,21.1-99.1,19.5c-2.6-0.1-5.4-0.3-7.6-1.9s-3.3-4.8-1.7-6.9 c0.9-1.2,2.4-1.7,3.8-2.2c40.5-13.1,83.5-26.2,112-57.8c15.7-17.5,25.8-39.6,31.1-62.5c3.6-15.2,5-31.1,4.2-46.8 c-1.8-36.1-15.2-71.5-40.3-97.3c-3.5,12.4-13.7,22.7-26,26.3c-7.6,2.2-15.8,2.1-23.5,4.4c-18.5,5.6-29.5,24-39.5,40.6 c-16.8,27.8-36.3,55-63.3,73s-63,25.4-92.5,11.7c2.6,2.7,5.3,5.3,7.9,8c-6.2-2.5-13.5-2.1-19.5,1c-2.5,1.3-4.8,3.1-7.6,3.7 c-3.5,0.7-7-0.6-10.2-2c-6.9-3.1-13.4-7-19.3-11.6c-3-2.3-5.8-4.8-8.5-7.5c-4.1-4-4.7-0.7-6.2,3.7c-3.7,10.5-7,21.7-7.1,32.9 c84.5,102,206.8,171.6,345.4,187.5c0.4-0.8,0.7-1.7,1-2.6C544,1090.7,532.7,1053,521.5,1015.3z"/></g><path fill="#E35F5B" d="M496.3,710c-5.9,3.6-13.3,4.7-19.4,1.7c4.2-3.6,2.1-11.4-3-13.7c-5-2.4-11.2-0.4-15.5,3 c-4.3,3.5-7.4,8.3-10.8,12.7c-14.8,19-37,27-58.7,35.4c-6.2,2.4-12.5,4.4-18.9,6.2c-12.6,3.4-25.4,5.6-38.4,6.6 c-5.9,0.4-13.2,1.6-14.8,7.3c-1.8,6.4,5.9,11.6,12.6,12s13.7-1.5,19.8,1.3c-8.5,5.6-18.9,8.5-29.1,8.1c-3.8-0.2-7.8-0.8-10.9-2.9 c-5.2-3.5-7.3-10.1-9.1-16.1c-12.8-42.9-31.5-85.1-62.6-117.2c-7.3-7.6-15.7-14.7-25.9-17.4c-11.9-3.1-24.6,0.6-35.6,5.9 c-14.9,7.1-28.3,17.3-39.1,29.7c-6.7-9.4-7.8-21.6-7.9-33.2c-0.2-14.6,1-30.1,9.6-41.9c8.7-11.9,23.5-17.7,37.9-20.6 c13.9-2.8,30.8-2.1,39,9.4c1.9,2.7,3.3,6,5.9,8.1c2.6,2.1,7.2,2.3,8.7-0.7c0.6-1.2,0.6-2.6,0.6-4c0.5-12.4,12-23.4,24.4-23.2 c-2.4,17.8,11.3,33.6,25.4,44.7c20.8,16.5,44.9,28.8,70.4,36.2c12.6,3.7,26.5,6,38.7,0.9c14.2-6,23-22.6,20-37.7 c-2.6-13-12.6-23.3-22.6-32c9.8-2.6,19-7.6,26.7-14.3c32,11.7,65.4,26.1,84.4,54.3c12.7,18.8,17.7,42.8,13.4,65.1 c-1.6,8.4-4.7,17-10.8,23C499.3,708,497.9,709.1,496.3,710z"/></g><g id="woman-1-left-arm"><path id="arm_1_" fill="#ECC18D" d="M523.7,741.5c-0.1-1.3-0.3-2.5-0.6-3.8c-7.3-7-14.9-13.6-25.2-15.8 c-10.8-2.3-22.4-0.1-32.8,3.1c-9.1,2.8-18.4,6.8-27.1,11.8c-13.5,15.5-25.7,32.1-40.4,46.6c-10,9.8-20.8,17.8-32.8,24.9 c-11.7,6.9-24.6,14.3-38.1,16.8c-5.7,1.1-12,1.4-17.1-1.8c-0.7-0.4-1.4-0.9-1.9-1.5c-1-0.1-2-0.2-2.9-0.6 c-5.5-2.1-7.7-8.5-9.3-14.1c-14.8-51.5-36-101.1-63-147.4c-6.1-10.5-13.9-21.8-25.9-24.3c-6.7-1.4-13.6,0.4-20,2.7 c-20.6,7.4-38.9,21-52.1,38.6c-2.3,3.1-4.5,6.4-5.4,10.2c-0.1,0.3-0.1,0.6-0.2,1c3.2,29.8,18.7,57.6,35.3,81.9 c18.8,27.6,38.1,55,57.8,81.9c16.4,22.5,36.3,43.9,61.4,56.7c13.1,6.7,27.6,8.2,42.1,7.5c4.3,1.3,9,1.4,13.5,0.9 c27.4-2.7,50.3-22.2,67.2-44s29.8-46.6,48.5-66.8c5.7-6.1,12-11.9,19.8-14.9c8.4-3.2,17.8-2.9,26.3-6 c10.3-3.7,18.7-12.7,21.6-23.3c0.4-1.4,0.7-2.9,0.9-4.3c0.3-2.3,0.3-4.6-0.1-6.8C523.8,747.8,524,744.6,523.7,741.5z"/><path id="arm-highlight_1_" fill="#FBE1C8" d="M279.7,913.1c-14-7.1-27.1-17.2-38.8-27.6c-27.6-24.5-51-50.6-69-82.8 c-9.1-16.3-17.2-33.2-24-50.6c-2-5.1-20.1-48.4-16.4-51.2c4.5-3.5,7.4-8.6,10.5-13.4c10.3-15.6,25.2-28,42.4-35.2 c8.6-3.6,18.6-5.9,27-1.9c6.3,3,10.6,8.9,14.4,14.8c27.5,42,45.8,89.5,58.9,138c2,7.4,3.5,16.5-2.1,21.8c-2.6,2.5-6.4,3.6-9.2,5.9 c-2.8,2.4-4,7.4-0.9,9.4c2.3,1.4,5.2,0.2,7.6-1c19.9-10.3,39.6-20.8,59.3-31.5c37.4-20.4,75.9-43.1,98.6-79.2 c5.1-8.1,9.4-16.8,15.9-23.8c4.8-5,11.7-9.2,18.4-7.4c6.7,1.8,10.1,12.2,4.2,15.8c14.2-4.7,31.3-0.4,40.6,11.3s9,30.4-1.6,41 c-10.5,10.5-27,11.2-41.9,11.6c-4.2,0.1-8.5,0.3-12.2,2.1c-4.5,2.2-7.5,6.5-10.2,10.6c-15.1,22.3-30.2,44.6-45.3,67 c-9.8,14.5-19.7,29.1-32.3,41.3c-12.6,12.2-28.2,21.9-45.5,24.4C311.1,925.1,294.9,920.8,279.7,913.1z"/></g><g id="woman-1-head"><path fill="#FBE1C8" d="M449.8,407c-1-34.5-6.1-68.8-15-102.2c-6.3-23.7-15.8-48.3-35.8-62.4c-13.5-9.5-30.3-13-46.7-14.1 c-57.7-4-117.5,20.6-152.4,66.7S158.3,408,187,458.2c4.7,8.3,11.4,16.8,20.9,18c7.7,1,15.3-3.1,23.1-2.3 c9.8,1,17.7,11.1,16.2,20.9c-0.5,3.6-2.2,7.3-1.4,10.9c0.5,2.3,1.9,4.3,3.3,6.2c26.6,35,65,60.5,109.3,65.7 c19.8,2.3,41.3-1.9,55.8-15.6c9.6-9.2,15.3-21.7,19.6-34.2c10-28.6,14.5-59,15.7-89.3C450,428,450.1,417.5,449.8,407z"/><path fill="#635F5B" d="M300.9,179.2c18,1.9,35.7,6.4,52.4,13.3c35.2,14.6,65.8,39.9,87.6,71.2c13.1,18.9,23.2,40.1,27.8,62.7 c1.8,8.6,2.7,17.9-0.8,26s-12.7,14.3-21.1,11.8c1.8-6.1-5.8-10.9-12.1-10.9s-12.9,2.3-18.8,0c-9.8-3.9-10.8-17-12.8-27.4 c-3-15.6-12.1-29.9-25-39.2c6.1,18.5,10.9,37.4,14.2,56.6c0.6,3.5,1.1,7.4-0.6,10.6c-2.1,3.8-6.7,5.3-10.9,6.4 c-17.5,4.6-35.2,8.2-53.1,10.8c-3.6,0.5-7.6,0.9-10.7-1c-4.1-2.5-5-8-5.9-12.7c-2.3-13.2-6.9-26.1-13.6-37.8 c-0.9-1.5-1.9-3.2-3.6-3.7c-2.8-1-5.6,1.6-7.4,4c-20.5,28.1-11.6,67.2-18.2,101.4c-3.1,15.9-12.2,33.1-28.2,35.7 c-12.6,2-25.9-7.8-27.7-20.5c-0.9-6,0.1-13.3-4.5-17.2c-5.4-4.5-13.8-0.4-18.2,5.1c-7.2,9.1-9.4,22-5.1,32.7 c4.3,10.7,15.2,18.6,26.8,19c10.4,0.3,22.1-4.7,30.4,1.5c6.7,5,7.1,15.7,2.2,22.4c-4.9,6.8-13.6,9.9-21.9,10 c-11,0.2-26.6-2.5-37-6.4c-11.8-4.4-22.4-12.3-30-22.3c-1.7-2.3-3.5-4.8-6.2-5.8c-3.1-1.2-6.6,0-9.8,1 c-31.8,9.5-69.3-10.9-78.6-42.8s11.5-69.2,43.4-78.2c0-39.7,13.8-79.3,38.4-110.3s60.1-53.5,98.8-62.4 C260.7,178.2,281,177.1,300.9,179.2z"/><path fill="#635F5B" d="M413.4,506.6c-0.5,4.5-2.6,9.4-4.1,11.5c-2.9,3.9-6.9,6.9-11.4,8.8c-6.4,2.7-13.8,3-20.4,1.1 c-5.9-1.6-13.8-5.3-14.1-12.4c-0.1-3.4,1.9-6.9,5-8.2c3.2-1.3,6.7-0.4,10.1-0.1c8.3,0.9,17-1.4,23.8-6.4c2.1-1.6,4.5-3.5,7-2.8 C412.9,499.2,413.8,502.7,413.4,506.6z"/><path fill="#ECC18D" d="M339.5,395.4c2.4-0.1,4.3,0.9,3.8,4.2c-0.2,1.5-1.1,2.7-2,3.9c-4.5,5.5-10.3,10.2-13.3,16.7 c-0.9,2-1.7,4.3-3.5,5.5c-1.7,1.1-4.3,0.9-5.7-0.6c-2.2-2.2-1.7-5.8-0.6-8.7c2.5-7.1,7.2-13.4,13.3-17.9 C332.9,397.1,336.6,395.5,339.5,395.4z"/><path fill="#ECC18D" d="M407.7,385.6c4.7,0,9.4,0.5,13.8,2.2c2.3,0.9,4.5,2.1,6.1,4s2.5,4.4,1.8,6.8c-0.6,2.4-3,4.3-5.4,4 c-1.6-0.2-3-1.2-4.3-2.1c-7.2-4.6-16-3-23-7.6c-0.7-0.5-1.4-1-1.8-1.8c-0.7-1.5,0.2-3.3,1.6-4.2c1.4-0.9,3.1-1,4.7-1.2 C403.4,385.7,405.6,385.6,407.7,385.6z"/><path fill="#ECC18D" d="M192.9,447.4c0-0.2,0-0.4-0.1-0.6c-0.3-3.4,0.9-13.8,6.4-12c1.5,0.5,2.5,1.9,3,3.4s0.6,3.1,0.8,4.6 c0.7,5,3.1,8.7,6.3,12.4c1.2,1.4,2.4,3,2.2,4.8c-0.2,1.2-1,2.2-2.1,2.8C201.5,467,193.7,453.6,192.9,447.4z"/><path fill="#ECC18D" d="M381.5,483.7c-1.7,0.1-3.5-0.2-4.4-1.6c-0.5-0.9-0.4-2.1-0.1-3.2c1.1-3.9,4.8-6.7,8.8-7.5s8.2,0.2,11.8,2 c0.7,0.3,1.3,0.7,1.7,1.3c3.8,5.7-14.5,8.7-17.2,9C382,483.7,381.7,483.7,381.5,483.7z"/><path fill="#635F5B" d="M351.4,438.6c2.6-0.1,5.1,0.9,6.2,3.2c0.9,1.8,0.8,4.1-0.2,5.9s-2.7,3.1-4.6,3.8c-2.8,1-6.2,0.6-8.1-1.6 c-2-2.2-1.9-5.9-0.1-8.2C346.1,439.9,348.8,438.7,351.4,438.6z"/><path fill="#635F5B" d="M406.9,438.6c-3.2,0-5.5-2.1-5.6-5.2c-0.1-4.7,2.1-6.9,6.9-7.1c2.9-0.2,5.7,2,5.5,5.2 C413.5,435.8,410.5,438.7,406.9,438.6z"/></g><g id="woman-1-right-hand"><path id="hand" fill="#ECC18D" d="M582.9,893.5c-0.4-2.6-0.9-5.3-1.6-7.9c-1.4-5.8-3.3-11.6-6.1-16.9c-0.9-1.7-1.8-3.4-3.4-4.5 s-3.7-1.5-5.3-0.4c-1.1,0.8-1.7,2.1-2.2,3.4c-6.2,15.8-12.3,32.3-23.9,44.7c-5,5.3-11,9.8-15.3,15.7c-1.2,1.6-2.3,3.4-2.4,5.4 c-0.4,5.1,5.5,8.8,10.5,8.2c5.1-0.6,9.2-4.1,13-7.5c-5.2,9.5-14.7,15.7-23.6,22c-12.7,8.9-23.8,19.4-23,36.1 c0.2,4.2,1.8,8.4,5.2,10.9c5.2,3.7,12.5,1.9,18.4-0.7c21.6-9.4,39.7-26.6,50.2-47.6C582.8,935.7,586.1,914.1,582.9,893.5z"/><path id="hand-highlight" fill="#FBE1C8" d="M544.6,935.4c-2.6,1.9-5.3,3.5-8.3,4.8c-1.8,0.8-3.7,1.5-5.7,1.5s-4.1-1-5-2.8 c0.6-3.3,1.8-6.4,3.6-9.2c3-4.7,7.5-8.2,11.5-12.1c14.4-13.7,23.9-32.4,26.5-52.1c0.1-0.8,0.2-1.6,0.8-2.1c0.7-0.6,1.8-0.4,2.6,0 c3.1,1.4,4.8,4.8,6.1,8c9.8,24.3,9.7,52.4-0.3,76.6s-29.9,44.2-54.1,54.3c-5.4,2.3-12,3.9-16.7,0.5c3.1-1.7,3.9-5.9,3.8-9.5 c-0.3-6.8-0.5-11.3,3.6-17c3.6-4.9,8.2-9.1,12.8-13.1c9.1-7.8,19.2-15.2,24.9-26.1c0.5-1,1-2,0.9-3.1s-0.9-2.2-2-2.2 c-0.8,0-1.5,0.6-2.2,1.1C546.5,933.9,545.6,934.7,544.6,935.4z"/></g></g></svg>