<?xml version="1.0" encoding="utf-8"?>
<!-- Generator: Adobe Illustrator 22.0.1, SVG Export Plug-In . SVG Version: 6.00 Build 0)  -->
<svg version="1.1" id="bundle_x5F_illustration-6_x5F_v1_xA0_Image_1_"
	 xmlns="http://www.w3.org/2000/svg" xmlns:xlink="http://www.w3.org/1999/xlink" x="0px" y="0px" viewBox="0 0 1200 1200"
	 enable-background="new 0 0 1200 1200" xml:space="preserve">
<g id="background_1_">
	<circle id="wall" fill="#FDE4BB" cx="607.2" cy="604.4" r="525.6"/>
	<path id="wall-shadow" fill="#F8D494" d="M320.1,164.1C176.5,258,81.6,420.1,81.6,604.4s94.9,346.5,238.5,440.3V164.1z"/>
	<path id="tabletop" fill="#F2BD9E" d="M266,1004.2c91.8,78.4,211,125.8,341.2,125.8c225.5,0,417.8-142,492.4-341.4L266,1004.2z"/>
</g>
<g id="man-shirt">
	<g id="shirt">
		<path fill="#DB7A79" d="M467.5,714.2L467.5,714.2L467.5,714.2L467.5,714.2z"/>
		<path fill="#DB7A79" d="M465.6,717.1L465.6,717.1L465.6,717.1L465.6,717.1z"/>
		<path fill="#DB7A79" d="M462.7,721.9L462.7,721.9L462.7,721.9L462.7,721.9z"/>
		<path fill="#DB7A79" d="M1043,547.4c0.9-24.7-4.7-55.1-10.7-77.1c-20.9-77.1-93.8-114.1-165.7-130.9
			c-102.9-24-213.4-35.2-320.7-28.2c-56,3.6-111.7,12-166.2,25.4c-62.6,15.3-121.1,23.1-172.1,66.9c-44.3,38.1-74.2,91.8-82.8,149.5
			c-3.2,21.3-3.4,43.1-0.3,64.5c0.6,4.1,1.4,8.4,4.1,11.6c2.9,3.3,8.2,7.1,12.5,7.9c50.8,9.4,93.8,8.3,162.5-12.7
			c5.1,78.9,1,161.3,13.7,239.3c1.4,8.5,3,17.4,8.3,24.3c6.5,8.4,17.3,12.1,27.5,15c122.5,34.1,255.1,9.2,371.5-41.8
			c15.3-6.7,30.6-14,43-25.2c19.4-17.5,28.8-41.6,33.3-67.6c16.9-52.2,26.4-106.8,28.4-161.6c0.4-10.2,0.5-20.5,0.3-30.7
			c0-0.7,80.3,9.8,89.6,10.7c15.8,1.5,31.7,2.3,47.5,1.5c21.9-1.1,71.8-2,75.4-30.3C1042.6,554.5,1042.8,551,1043,547.4z"/>
	</g>
	<g id="shirt-highlight">
		<path fill="#F28983" d="M734.6,376.4c-1-15.2-6.3-34.6-21.5-35.7c-8.2-0.6-15.7,5.3-19.9,12.4s-5.9,15.3-8.1,23.2
			c-16.9,58.7-74,103.5-135,105.8c-61.1,2.3-121.4-37.9-142.7-95.2c-3.4-9-6.4-19.2-14.6-24.3c-7.1-4.4-16.1-3.8-24.4-2.9
			c-50.8,5.5-106.4,17.3-137.1,58.2c-17.1,22.8-24,51.5-28.6,79.7c-5.4,32.6-8.3,65.5-10.4,98.4c-1.2,18.4,2,36.5,22.9,37.7
			c24.5,1.4,50.7-3.5,74.1-10.1c18.6-5.2,38.5-14.2,45.9-32c4.6-11,3.7-23.8,9-34.4c2.1-4.2,6.5-8.3,10.9-6.8
			c2.1,0.8,3.6,2.7,4.9,4.5c10,14.4,16,31.2,24.6,46.6s20.9,29.9,37.8,34.8c3.6,1,7.8,1.9,9.8,5.1c2.4,4-0.4,9.6-4.6,11.7
			c-4.2,2.1-9.2,1.6-13.9,1c-15.4-2.1-30.5-5.9-45-11.2c2.2,53.8,14.9,107.2,37.4,156.2c3.7,8,8.1,16.4,16,20.3
			c6.4,3.2,14,2.8,21.2,2.2c72.9-5.6,145.3-17.4,216.2-35.1c3.7-0.9,7.6-2,10-4.9c3.8-4.5,2.5-11.3,3.7-17.1
			c2.3-11.4,13.9-18,21.7-26.6c11.7-12.9,15.3-30.9,18.3-48.1c14.7-84.8,24.3-170.7,23.6-256.6C736.4,414.2,735.8,395.3,734.6,376.4
			z"/>
		<path fill="#F28983" d="M1044.2,560c-0.3-44.8-3.4-91.7-26.3-130c-0.4-0.7-0.9-1.5-1.3-2.2C995.1,393.3,959,370,921,355.5
			s-78.5-21.1-118.3-29.4c-4.7-1-9.5-2-14.3-1.2c-11,1.8-18.9,14.4-15.6,25c2.4,7.8,9.3,13.3,15.3,18.8
			c25.6,23.5,40.5,56.8,47.8,90.8c5.6,26.1,7,52.8,7.4,79.4c0.2,11.8-2.8,22.5,6.6,30.7c7.7,6.7,19.7,8.8,29.4,10.7
			c51.2,9.9,105.5,13.5,154.3-4.9c3.4-1.3,7-2.9,8.9-5.9C1044.2,566.8,1044.3,563.3,1044.2,560z"/>
	</g>
</g>
<g id="man-arm">
	<path id="arm_2_" fill="#C08366" d="M652.7,654.4c-1-8.6-3.5-17.3-8.9-24s-14.2-11.2-22.7-10c-9.5,1.4-16.7,9.2-23,16.5
		c-27.1-11.8-59.6-0.8-82,18.5c-22.4,19.3-37.3,45.6-53.5,70.3c-4,6.1-5.6,10.3-13,12.2c-8.9,2.2-24.7,2-33.8,0
		c-14-3.1-28-11.1-40.6-17.7c-19.7-10.3-41.2-26.5-62.1-34.1c-4.7-25.8,6.1-42.2,0.6-64.8c-6.5,1.9-13,3.9-19.6,5.5
		c-21.9,5.3-44.1,9.1-66.5,11.3c-5.3,0.5-66.4,4.3-66.5,1.5c0.2,7.4,1.3,14.8,2.3,22.1c3.2,22.4,6.4,44.8,9.6,67.2
		c0.7,4.7,1.4,9.5,4.2,13.3c3,4,7.7,6.3,11.7,9.4c7.2,5.7,11.3,14.3,16.8,21.6c9.2,12.1,22.3,20.5,35.4,28.2
		c24.5,14.4,50.5,27.2,78.5,31.8c30.4,4.9,61.5-0.2,91.8-5.2c24.5-4.1,49.4-8.3,72.2-18c11.4-4.8,22.2-11,33.6-15.7
		c29.8-12.3,64.2-14.8,89.7-34.4c13.8-10.6,23.8-25.5,31.6-41.1c8.1-16.1,14.2-33.8,14.8-51.7C653.3,662.7,653.2,658.6,652.7,654.4z
		"/>
	<g id="arm-highlight_1_">
		<path fill="#D39A7F" d="M515.6,653.7c-23,22.9-42.2,49.4-56.8,78.4c-2.9,5.7-5.7,11.7-10.3,16.1s-11.7,7.1-17.6,4.6l7.8-5.8
			c-7.3,2.4-16.7,1-23.8-0.1c-7.8-1.1-15-4.1-22-7.8c-7.7-4.1-15.4-8.1-23.2-12.1c-18.7-9.7-37-20.4-57.5-26
			c-6.8-1.9-14.4-3.4-20.7-0.1c-2,1-3.8,2.5-5.8,3.6s-4.4,1.8-6.6,1c-6.9-2.5-0.9-10.7,2.3-13.3c6.2-5.1,13.7-8.9,21.6-11.3
			c-0.4-4.8-0.1-9.7,0.5-14.7c1.1-9.4,1.3-18.8,1.5-28.2c-38.7,10.3-80.5,15.2-120.2,13.4c-1.9-0.1-4-0.1-5.2,1.4
			c-0.9,1-0.9,2.5-1,3.8c-0.1,11,1.1,21.9,3.7,32.6c2.5,10.3,6.4,20.7,4.3,31.1c-1.2,5.7-2.8,13.9,2.8,15.5c2.2,0.6,4.6-0.3,6.8,0.3
			c3.2,0.9,4.6,4.5,5.8,7.7c12.7,33.3,47.1,48.3,78.1,60.2c18.9,7.2,38.1,14.5,58.2,16.9c25.1,3.1,50.5-1.5,75.4-6
			c18.3-3.3,36.6-6.7,54.6-11.5c10.2-2.8,20.5-6.1,28.8-12.7c11.3-9,17.5-22.8,22.6-36.3c8.5-22.4,15-45.5,19.7-69
			c0.6-3.2,1-7-1.4-9.1c-2.5-2.3-6.7-1.4-9.4-3.5c-3.9-3-1.7-9.3,1.1-13.3c6.5-9.3,14.6-17.4,23.9-23.8
			C539.3,633.2,525.9,643.4,515.6,653.7z"/>
		<path fill="#D39A7F" d="M633.7,628.4c-0.8-1-1.7-2.1-2-3.4c-0.2-1.3,0.5-2.9,1.8-3c-6-2.6-13.1-2.3-19.3,0.1s-11.4,6.7-15.6,11.8
			c-0.5,0.6-1.1,1.3-1.1,2.1c-0.1,1.2,0.7,2.3,1.5,3.2c6.5,7.8,9.9,17.7,12.2,27.7c3,13.5,4.2,27.4,3.4,41.3
			c-0.4,7.3-1.4,14.5-2.8,21.7c-1.1,5.5-4.5,17.9,3.2,7.7c8-10.5,13.2-22.7,18.1-34.9c4.7-12,9.2-24.3,10.3-37.2c0-0.1,0-0.1,0-0.2
			C644.3,652.2,641.7,638.6,633.7,628.4z"/>
	</g>
</g>
<g id="towel-hand">
	<path id="towel_1_" fill="#EDEEED" d="M610.1,660.4c-2.8-10-7.3-19.9-15.1-26.6c-0.3-0.2-0.6-0.5-0.9-0.7c-0.1-0.2-0.2-0.4-0.3-0.5
		c0.1,0.1,0.3,0.2,0.4,0.3c-2.1-6-8.9-9-15.2-10.1c-4.9-0.9-10.3-1.1-14.5,1.6c-4.1,2.6-6.4,7.6-10.1,10.6c-0.8,0.7-1.7,1.2-2.7,1.6
		c-1.6,0.6-3.3,0.9-4.8,1.5c-4.5,2-6.1,7-6.8,11.4c-0.9,5.6-0.4,8.1,2,13.3c0.8,1.7,1.5,3.4,2.2,5.1c2.7,7.6,2.8,15.8,2.9,23.9h0.1
		c-0.3,2.9-0.6,5.8-0.9,8.8c-2.4,9.2-4.6,18.4-6.9,27.6c-4.6,18.4-10.4,36.4-17.3,54c-3.5,8.8-7.2,17.5-11.3,26
		c-1.7,3.5-6,8.6,0.3,8.7c3.7,0.1,7.3-1.9,9.8-4.5c2.5-2.7,4.1-6.2,5.5-9.7c4.3-2.2,10.2-1.1,13.3,2.7c0.1-0.1,0.1-0.3,0.2-0.4
		c0.1,0.1,0.2,0.3,0.2,0.4c0,0.1,0,0.1-0.1,0.2c-0.8,2.1-1.1,4.3,0.8,6c2.1,2,5.6,2.3,8.2,0.9c2.6-1.5,4.2-4,5.5-6.7
		c1.2-1.5,2.2-3.2,3-4.9c2.1-0.9,4.3-1.6,6.5-1.5c1.8,0.1,3.6,0.7,4.9,1.9c-0.2,0.9-0.2,1.8-0.1,2.7c0.2,1.6,0.6,2.8,1.3,3.7
		c0.1,0.5,0.2,1,0.5,1.5c1.5,2.6,6,2.8,8.4,1.9c3.2-1.1,5.7-3.6,7.8-6.3c7.5-9.7,11.1-21.7,14.4-33.5c5.1-18.1,9.9-36.5,12.1-55.2
		C615.6,697.8,615.2,678.6,610.1,660.4z"/>
	<g id="towel-highlight_1_">
		<path fill="#FDFEFC" d="M610.1,660.4c-2.8-10-7.3-19.9-15.1-26.6s-19.7-9.5-28.8-4.6c-0.3,0.1-0.5,0.3-0.7,0.5
			c-0.8,0.9,0.1,2.5,1.3,2.9s2.5,0,3.7,0c5.3-0.1,9.1,4.9,11.7,9.5c4.4,7.7,8.3,15.7,10.5,24.2c2.5,9.4,3,19.2,3,28.9
			c0.2,35.5-5.2,71.8-21.9,103.3c-0.7,1.3-1.9,3.3-2.7,5.2c-0.9,2.1-1.4,4.3-0.4,5.8c1.5,2.6,6,2.8,8.4,1.9c3.2-1.1,5.7-3.6,7.8-6.3
			c7.5-9.7,11.1-21.7,14.4-33.5c5.1-18.1,9.9-36.5,12.1-55.2C615.6,697.8,615.2,678.6,610.1,660.4z"/>
		<path fill="#FDFEFC" d="M560.4,697.2c1.3-11.8,2-25.4-1.2-36.9c-1.2-4.2-6.1-15.5-11.9-14.9c-1.2,0.1-1.7,1.7-1.8,2.9
			c-0.3,3-0.6,6.2,0.7,9c0.8,1.7,2.1,3,3.1,4.6c1.8,3.1,2.1,6.8,2.1,10.4c-0.1,6.2-0.8,12.5-2.3,18.5c-0.1,0.6-0.3,1.2-0.4,1.7
			c-3.3,12-6.1,24-9.1,36c-4.6,18.4-10.4,36.4-17.3,54c-3.5,8.8-7.2,17.5-11.3,26c-1.7,3.5-6,8.6,0.3,8.7c3.7,0.1,7.3-1.9,9.8-4.5
			c3.4-3.7,5.1-8.7,6.8-13.4c7.8-21.8,17.4-43,24.4-65C555.9,722.2,558.9,709.8,560.4,697.2z"/>
		<path fill="#FDFEFC" d="M579.6,732.6c0.8-4.8,1.1-9.6,1.4-14.5c1.3-19.7,2.2-39.8-3-58.9c-1.9-7-5.5-14.6-12.5-16.6
			c3.1,4,4,9.2,4.6,14.2c2.1,15.8,3.5,31.8,2.1,47.7c-1.3,15.1-5.6,29.7-10.3,44c-6,18.1-12.7,36-20.1,53.6
			c-0.5,1.2-1.2,2.6-1.7,3.9c-0.8,2.1-1.1,4.3,0.8,6c2.1,2,5.6,2.3,8.2,0.9c3.3-1.9,5.1-5.5,6.6-9c5.8-13.5,10.7-27.3,15.5-41.1
			C574.5,752.8,577.9,742.9,579.6,732.6z"/>
	</g>
</g>
<g id="towel-shoulder">
	<path id="towel" fill="#EDEEED" d="M866.9,507.9c-1.8-39.4-9.6-78.6-26.6-114c-8.6-18-19.6-34.9-31.8-50.7
		c-7.7-10-16-19.8-26.3-27.2c-8.4-6.1-18.1-10.5-28.2-12.9c-6.4-1.5-13.3-2.2-19.7-0.5s-12.3,6.3-14.3,12.6
		c-2.3,7.2,0.8,15.2,5.6,21.1c4.7,5.9,10.9,10.5,16.1,16.1c16.5,17.6,21.3,43.1,23.3,67.2c3.5,43.2,0.2,86.6-3.9,129.7
		c-2.5,26-5.3,51.9-8.4,77.8c-1.6,13.2-3.3,26.3-5,39.4c-1.5,11.3-4,22.5-5.5,33.9c-1.2,8.9-1.3,18.1,1.9,26.5
		c6.6,17.6,24.9,24.1,42.2,26.2c12.2,1.5,26.8,1.4,37.5-5.3c19.3-12,21.2-37.8,24.9-57.9c9.4-50,17.5-101.9,18.6-153.1
		C867.4,527.1,867.3,517.5,866.9,507.9z"/>
	<g id="towel-highlight">
		<path fill="#FDFEFC" d="M788.3,388.6c-1.6-13.9-3.6-28.2-9.4-41c-4.4-9.6-12.9-15.7-19.7-23.5c-2.1-2.4-3.9-4.9-5.6-7.6
			c-1.7-2.8-3.1-5.7-5.1-8.2c-1.5-1.9-3.3-3.7-5.2-5.3c-1.7-1.4-3.6-3.2-5.8-3.5c-1.9-0.3-3.8,0.4-5.4,1.5c-0.8,0.6-1.6,1.3-2.3,2
			c-0.2,0.2-2.1,2.4-2,2.6c16.6,20.8,34.2,41.6,42.1,67c4.1,13.1,5.6,26.9,6.6,40.6c6.6,84.1-1.3,168.5-13.8,252
			c-0.4,0.7-0.7,1.6-0.7,2.5c-0.2,2.4-0.4,4.7-0.7,7.1c-0.5,3.1-1,6.2-1.4,9.3c-1.7,9.1-4,18.2-6.3,27.2c-1.9,7.5,9.5,10.6,11.6,3.2
			c2.3-8.4,4.4-16.8,6.2-25.3c0.5-0.7,0.9-1.5,1.3-2.3c3-5.8,3.8-12.5,4.6-19C788.3,575.1,798.8,481.4,788.3,388.6z"/>
		<path fill="#FDFEFC" d="M853,425.2c-12.3-37-34.3-70.2-59.3-100.1c-4.3-5.2-9.7-10.8-16.5-10.5c13.8,13.7,25.4,29.4,35.7,45.8
			c8.3,13.3,14.4,27.8,22.5,41.2c8.1,13.3,11.6,28.1,14.9,43.4c6.9,31.7,9.1,64.4,8.1,96.8c-1.2,44.6-8.3,88.8-16.7,132.6
			c-2.2,11.7-4.7,23.6-10.8,33.8c0.1,0,0.2,0,0.3,0c8.8-0.6,13-11,15.1-19.6c11.1-46.9,17.6-94.8,19.5-142.9
			C867.5,505,865.7,463.7,853,425.2z"/>
		<path fill="#FDFEFC" d="M835.1,647c2.5-15.1,5.1-30.3,7.6-45.4c1.8-10.7,3.6-21.3,4.9-32c4.3-34.4,4.1-69.3-0.6-103.6
			c-3.9-28.8-11.4-57.9-28.8-81.2c0.3,8.5,2.8,16.7,5,24.9c10.3,37.9,15.3,77.2,14.9,116.5c-0.4,43.4-7.4,86.4-15.1,129.2
			c-1.2,0.7-2,1.9-2.3,3.7c-2.2,14.4-4.7,28.8-7.3,43.2c-1.4,7.5,10.2,10.8,11.6,3.2c2.5-13.2,4.7-26.4,6.8-39.7
			C833,659.6,834,653.3,835.1,647z"/>
		<path fill="#FDFEFC" d="M821.9,506.4c0-0.1,0-0.1,0-0.2c0.3-13.9-0.3-27.8-1.1-41.6c-1.5-27.5-3.6-55.2-11.1-81.7
			c-3.7-13.2-8.9-26-15.7-37.9c-6.9-12-15.7-22.6-25.3-32.6c-0.2-0.2-0.4-0.4-0.6-0.6c-2.1-2.5-2.7-5-4.3-7.7
			c-1.9-3.2-4.9-4.6-8.7-4.5c-2.5,0.1-6.2,0.4-7.4,2.7c5.7,2.3,9.9,7.2,13.8,11.8c3.9,4.6,7.9,9.1,11.5,14c2.6,3.5,5.1,7.1,7.6,10.8
			c2.3,3.4,4.9,6.7,7.2,10.2c2.7,4.1,5.2,8.3,7.1,12.9c4,9.4,5.7,19.6,7.1,29.7c12.1,88,5.6,177.4-4.8,265.7c-0.5,0.6-0.9,1.3-1,2.2
			c-1.4,10-2.7,19.9-4.1,29.9c-0.1,0.2-0.2,0.3-0.2,0.5s0,0.4,0,0.6c0,0.2,0,0.4,0,0.6c-0.3,2.3-0.6,4.5-1,6.8
			c-0.3,1.3-0.8,2.5-1.3,3.7c0,0.3-0.1,0.5-0.1,0.8c0.2,0.1,0.4,0.1,0.6,0.2c-1.1,6.1-2.6,12.1-4.8,17.9c-2.8,7.2,8.8,10.3,11.6,3.2
			c3.5-8.9,6.1-18,7.9-27.3c2.9-4.5,3.6-10.5,4.3-15.8c2.6-19.1,5.3-38.1,7.6-57.2C821.3,584.4,824.3,545.4,821.9,506.4z"/>
	</g>
</g>
<g id="bath">
	<path id="bath_1_" fill="#79A6D0" d="M926.3,843c-3-22.8-15.9-33.2-36-42.1c-14.4-6.4-30.1-9.8-45.8-11
		c-26.6-2.2-53.3,0.7-79.7,4.4c-123.6,17.3-244.5,52.8-368.8,64.4c-71.9,6.7-145.7,5.6-213.8,29.6c-13.7,4.8-27.7,11.1-37.1,22.2
		c-9.4,11.1-13.1,28.3-5,40.4c5.6,8.4,15.4,12.7,23.1,19.3c27.1,23.1,22.8,67.2,44,95.9c12.9,17.5,33.7,27,54,34.7
		c161.9,60.6,345.4,38.4,506.8-23.6c33.6-12.9,67.6-28.2,92.3-54.4c26.3-27.9,39.5-65.4,52.1-101.7c4.9-14.1,9.9-28.8,12.6-43.8
		C927,865.8,927.8,854.4,926.3,843z"/>
	<path id="bath-highlight" fill="#97C9ED" d="M937,825.9c-1.4-3.6-3.4-7-6.1-10.3c-6.5-7.9-15.9-12.8-25.4-16.6
		c-37.2-14.8-78.6-16.2-118.1-13.5c-43.6,3-86.6,12-129.4,20.5h-0.1c-127.8,17.4-255.6,35-383.3,52.8c-30.6,4.3-61.7,8.8-90.7,19.8
		c-5.7,2.2-12.6,4.9-19.4,8.4c-19.3,9.7-37.9,24.9-27,47.2c5.2,10.7,15.2,18,25.1,24.5c40.4,26.2,88.8,47.8,135.7,58.3
		c49.1,10.9,99.5,13.8,149.7,12.3c26.8-0.8,53.5-2.8,80-6.1c26.7-3.3,52.8-9.5,79.3-13.7c12.5-1.9,25-5,37.4-7.8
		c52.3-12.2,105.3-23.9,156.5-40.4c7.9-2.5,15.8-5.2,23.6-8c15.6-5.5,31.1-11.5,45.6-19.5c20-11,40.5-26.1,54.6-44.2
		C937.6,873.5,944.7,845.6,937,825.9z M899.7,858.2c-1.8,4.3-4,8.2-6.2,11.2c-6.4,9.2-15.1,16.5-24.2,22.9
		c-41.2,28.9-91.8,40.3-140.9,51.2c-107.5,23.8-215.1,52.1-326.5,47.9c-5.1-0.2-10.1-0.4-15.2-0.8c-62.1-3.8-125.4-18.2-175.6-54.9
		c-3.9-2.9-8-6.3-8.8-11c-0.6-3.7,1-7.5,3.1-10.7c7.8-11.4,21.9-16.2,35.2-19.8c52.6-14.2,107.4-18.7,161.2-26.5
		c56.1-8.1,112.1-17,168-26.5c23.1-3.9,46.5-6.5,69.7-10.8c42.7-8,85.3-17,128.6-21c36.7-3.4,77.7-0.6,112.7,11.3
		c6,2,11.9,4.5,16.7,8.7C905.7,836.4,904,848.2,899.7,858.2z"/>
</g>
<g id="baby-right-hand">
	<path id="hand" fill="#E89B73" d="M615.5,829.5c0-0.3-0.1-0.7-0.2-1c-0.5-2.6-1.7-5.4-4.2-6.4c-1.3-0.5-2.7-0.5-4.1-0.4
		c-6.2,0.5-12.2,2.4-18.2,4.2c-1.8,1.3-3.5,2.6-5.6,3.3c-3.8,1.4-8.4,1.8-12.5,2.1c-9.7,0.8-19.4-0.8-29.1,0.6
		c-8.6,1.3-17.8,6-23,13.2c-3.5,4.8-3.3,10,1.4,14c1.6,1.3,3.5,2.2,5.2,3.3c0.3,0,0.6,0,1,0c6.4-0.4,12.7-0.5,19.1-1.1
		c3.2-0.3,6.4-0.7,9.5-1.5c1-0.3,8.5-2.2,8.5-3.3c3.5-1.9,6.7-4.6,10.6-5.6c3.9-1.1,8-0.5,12-0.4c6.6,0.1,13.3-1.3,19.3-4
		c3.4-1.6,6.7-3.7,8.6-6.9C615.5,836.5,616,832.9,615.5,829.5z"/>
	<path id="hand-highlight" fill="#F8BD9F" d="M576.4,829.6c-0.9,0-1.8,0.1-2.5,0.2c-3.2,0.2-6.4,0.1-9.6-0.1
		c-6.2-0.4-12.5-1.2-18.8-0.5c-6.2,0.6-12.3,2.6-17.7,5.8c-5,3-11.2,7.4-12.2,13.5c-0.2,1.3-0.2,2.7-0.3,4c0,1.4,0.1,2.7,0.5,4
		c0.4,1.1,1,2.2,1.8,3.1c0.8,0.9,1.8,1.7,2.9,2.4c1,0.6,1.9,0.9,3.1,1c0.8,0,1.9,0,2.5-0.6c-0.3-0.4-1.2-0.6-1.6-0.9
		c-0.6-0.4-1.1-0.9-1.5-1.5c-1.5-2.2-1-4.8-0.2-7.1c0.6-1.8,1.5-3.6,2.6-5.2c2.5-4,6.1-7.2,11-7.5c1.2-0.1,1.9,1.4,1.3,2.3
		c-1.2,2-2.3,4-2.1,6.5c0.1,0.9,0.3,1.8,1,2.4c0.8,0.7,1.9,0.9,3,0.8c3.9-0.2,7.4-2.3,10.4-4.6c2.9-2.1,6-4.2,7.8-7.4
		c1.1-1.9,3.1-3,5.3-3.9c3.9-1.5,7.7-2.9,11.9-3.4c2.3-0.3,4.1-1.9,6.3-2.3C579.8,829.6,578,829.6,576.4,829.6z"/>
</g>
<g id="baby-torso">
	<path id="chest" fill="#F8BD9F" d="M767,844.3c-11.9-9.5-25.3-16.1-38.9-22.8c-13.4-6.7-27.4-12.1-42.5-13.7
		c-12.8-1.3-25.7-0.2-38.3,2.3c-12.1,2.3-24.1,5.5-35.9,9.4c-12,3.9-25.6,7.5-33.7,17.7c-4.4,2-7.8,5.6-9.5,10.6
		c-2.5,7.4-0.2,15.2,4.3,21.3c8.3,11.3,21.1,17.3,33.3,23.5c13.6,6.9,27.2,13.8,40.8,20.6c12.8,6.5,25.8,14.6,39.8,18.5
		c14.7,4.1,29.4,1.3,43.7-2.8c11.9-3.5,27.8-6.4,35.9-16.7c8.8-7.4,16.2-17,18-28.5C786.7,868,779,853.8,767,844.3z"/>
	<path id="neck" fill="#E7996F" d="M781.7,825.4c-0.7-1-1.4-1.9-2.2-2.8c-1.1-2-2.3-3.8-3.7-5.6c-2.6-4.1-6.3-7.6-10.3-10.5
		c-15.5-11-35.8-12.9-54.5-9.9c-7.9,1.3-15.8,3.5-22.6,7.8c-1.6,1-3.2,2.2-4.1,3.8c-2.8,4.7-1.2,14.2,0.2,19.2
		c1.8,6.4,5.6,12.1,10.2,16.9c1.3,1.3,2.6,2.5,4,3.7c0.9,1,1.9,1.9,2.9,2.7c7,5.3,17.4,8,25.9,9.5c9.1,1.6,18,0.1,27-1.7
		c1.7-0.3,3.4-0.7,5.2-1.1c7.1-1.5,14-3.5,20.5-6.7c4.2-1.5,7.2-5.1,7.5-10C787.9,835.6,784.6,829.7,781.7,825.4z"/>
</g>
<path id="water" fill="#E0F8FE" d="M886.8,847c-0.3-0.5-2.5-3.6-2-3.2c-0.5-0.5-0.9-1-1.4-1.4c-1.6-1.5-3-2.4-5.4-3.8
	c-1.9-1.1-3-1.7-4.8-2.3c-6.1,5-12.1,10.1-17.9,15.4c-16.5,11.9-33,23.8-48.7,36.8c-4.6,3.8-9.2,7.7-13.8,11.6
	c-3.4,2.1-6.8,4.4-9.9,6.9c-5.5,4.4-10.2,9.7-15.8,13.9c-0.5,0.3-0.9,0.7-1.4,1c-3.3,1.9-6.6,3.6-10,5.5c-3.9,1.4-8,1.8-11.8,0.3
	c-0.5-0.2-1-0.2-1.4-0.2h-0.1c-0.4,0-0.7,0-1.1,0c-3-2.3-6.8-3.5-10.4-2.4c-4.1-0.7-8.3-1.5-12.3-2.6c-4.1-1.1-8.4-4.7-12.5-7.3
	c-5-3.2-10-6.2-15.2-9.1c-3.1-1.8-6.3-3.6-9.7-4.8c-0.7-0.3-1.5-0.5-2.2-0.6c-0.1-0.1-0.1-0.1-0.2-0.2c-0.2,0-0.5,0-0.7,0
	c-0.6-0.1-1.1-0.2-1.7-0.3c-1.9-1.6-5-2.8-6.8-3.5c-3.4-1.4-7-2-10.7-2.1c-2.3-0.1-4.6,0-6.8,0.3c-7.7-1.1-15.1-4.5-20.8-9.8
	c-3-2.7-5.2-5.8-9-7.2c-3.1-1.2-6.4-1.4-9.6-1.5c-4.4-0.3-8.8-0.4-13-1.9c-4.5-1.6-6.2-4.7-9.5-7.6c-3.6-3.1-8.5-3.8-12-6.3
	c0,0,0,0,0-0.1c-1.3-2-3.1-4.2-3.7-6.7c0-0.1,0-0.1,0-0.2c0-0.2-0.1-0.4-0.1-0.6c0-0.3-0.1-0.5-0.1-0.8c0-4-4.8-5-7.1-2.4
	c-1.8,0.9-3.4,2.3-4.9,3.8c-3.5,2-7.2,3.7-11.2,4.4c-6.2,0.9-11.7-2.4-17.8-2.4c-6.8,0-16.8,4.2-21.5,10.6
	c-3.1,1.1-7.1,0.1-10.2-0.7c-4.8-1.3-9.6-2.7-14.6-2c-9.6,1.4-12.5,11.7-21.3,14.2c-9.6,2.7-18.1-5.6-27.7-5.4
	c-5,0.1-9.7,1.8-14,4.2c-4.1,2.2-7.5,5.5-11.6,7.7c-6.3,3.3-14.1,1.8-20.7,0.8c-5.9-0.8-11.9-1.9-17.8-1.4
	c-6.9,0.6-12.9,3.7-18.1,8.2c-0.9,0.7-1.7,1.5-2.4,2.4c-11.8,6.1-25.9,3.2-39.1,1.6c-6.2-0.7-11.7-0.2-17.1,1.9
	c-0.4,0-0.8,0.1-1.2,0.2c-8.1,2.8-15.8,6.8-23.3,11.2c-13.9,4.4-62.1,21.7-58.2,27c0.5,0.6,0.9,1.3,1.4,1.9
	c23.6,25.2,64.5,34.9,96.9,41.4c55.1,11,111.7,14.8,167.8,11.4c3.3-0.2,6.6-0.4,9.9-0.7c54.3-4.4,107.3-17.1,160.6-27.9
	c53.3-10.8,106.1-20.9,158.3-36.5c18.2-5.5,36.5-11.4,53.1-20.8c0.9-0.5,1.8-1,2.7-1.6c4.5-1.6,8.4-5.2,11.9-8
	c6.4-5.1,12-11.6,15.5-19.1C893,866.1,892.3,856.6,886.8,847z"/>
<g id="baby-leg">
	<path id="leg" fill="#E89B73" d="M558.4,925.3c2.2,1.3,2.1,4.7,4.3,6.1c0.1,0.1,0.3,0.1,0.4,0.2c2.7-0.3,6.5-1.6,8.2-2
		c6.3-1.3,13-2.6,19-5c5.8-2.3,11.8-5.8,16.6-9.7c1.6-1.3,3.5-2.8,5.3-4.5c-0.3-0.5-0.5-1.1-0.8-1.6c-2.5-4.2-6.5-8.3-10.2-11.5
		c-7.4-6.3-17.8-9.6-26.7-13.1c-10.3-4-20.4-7.3-31.6-5.8c-3.9,0.5-7.7,1.4-11.3,2.7c-8.4,6.7-14.7,16.2-21.6,25.1
		c-3.4,4.3-6.7,8.7-10.1,13c-3,3.9-6.5,7.8-8.7,12.3c-0.3,0.5-0.4,1-0.6,1.5c4.1,1.2,8.3,2.1,12.6,2.8c5.8,1,11.8,1.7,17.9,1.9
		c7.4-0.8,14.8-2.3,22.2-3.7c1.7-0.3,3.4-0.7,4.8-1.7c1.9-1.3,2.9-3.5,4.4-5.2C553.9,925.5,556.4,924.2,558.4,925.3z"/>
	<path id="leg-highlight" fill="#F8BD9F" d="M560.3,903.8c2.2,0.5,2.8,3.3,2.9,5.6c2.6,0.5,3.3-4.3,5.9-4.7c1.9-0.3,3.3,2.1,3.1,4.1
		s-1.4,3.7-1.7,5.7c-0.1,0.5-0.1,1.1,0.2,1.6c0.4,0.7,1.2,1,1.9,1.3c3.8,1.4,7.3,3.9,9.9,7.1c0.7,0.9,1.4,1.8,2.4,2.3
		c1.9-0.5,3.7-1.1,5.5-1.9c5.8-2.3,11.8-5.8,16.6-9.7c3.2-2.6,7.2-5.8,9.6-9.6c-0.3-0.5-0.7-1-1-1.4c-14.5-17.2-36.7-26-58.6-30.9
		c-6.8-1.5-14.1-2.7-20.7-0.4c-5.3,1.9-9.5,5.8-13.4,9.9c-8,8.3-15.2,17.2-22.3,26.3c-3.7,4.7-7.3,9.4-11.1,14
		c-1.3,1.6-5.1,5-6.3,7.7c0.8,0.3,1.6,0.7,2.5,1c5.7,2.1,11.6,3.4,17.6,4.4c5,0.8,10.2,1.5,15.4,1.8c0.1,0,0.1-0.1,0.2-0.1
		c0.9-0.5,1.7-1.2,2.5-1.8c12-9.5,23.6-19.5,34.7-30C557.1,904.7,558.6,903.4,560.3,903.8z"/>
</g>
<g id="man-right-arm">
	<path id="arm_1_" fill="#C08366" d="M1011.6,583.1c-4.8,0.8-9.7,1.3-14.6,1.7c-18,1.4-36.3,1.8-54.4,1.5
		c-18.5-0.3-36.9-1.8-55.2-4.9c-7.4-1.3-14.8-2.5-22.2-4.1c0.1,21-3.8,42.2-7.2,62.9c-1.7,10.2-4.4,19.9-7.1,29.9
		c-0.7,2.8-1.6,5.7-2.6,8.5c-0.9,3.5-1.9,7.1-3,10.6c-3.3,11.3-10.1,20.3-16.5,30.2c-4.5,6.9-8.9,13.9-13.1,20.9
		c-0.3,1-0.5,2.1-0.7,3.1c-1.7,7.3-1.8,14.4-1.6,21.9c0.2,8.1,0.3,15.7-1,23.7c-1.2,7.1-2.7,14.3-5.1,21.1
		c-4.2,12.2-11.4,23.6-21.3,32.1c-4.1,3.5-9.1,7.1-14.7,7.6c-0.7,0.2-1.3,0.5-2,0.7c-0.5,0.1-1,0.2-1.4,0.3
		c-0.9,3.5-1.7,7.1-2.4,10.6c-0.2,1-0.3,2-0.4,3c-1.2,0-2.4-0.1-3.6-0.3c-5.9-0.8-11.8-2.2-17.6-3.9c-5-1.4-9.3-3.1-14.6-3.1
		c-4.3,0-8.8,0.4-13,1.6c-0.7,0-1.5,0.2-2.3,0.6c-7.1,3.2-14.7,11.8-13.9,20.2c0.2,2,1,4.3,3,5.2c0.3,0.2,0.7,0.3,1,0.4
		c1.8,3.2,14.2,1.5,16.3,1.1c7.9-1.7,15.9-3.4,23.8-5.2c4.7-1,9.8-2,14.3-0.5c9.8,3.4,12.2,17.3,7.2,26.4s-14.8,14.4-24,19.2
		c2.3,3.5,7.2,4.5,11.2,3.5s7.5-3.7,10.7-6.3c13.5-10.6,26.9-21.3,40.4-31.9c40.2-31.8,80.5-63.5,120.3-95.8
		C943.5,780,963,764,976,743c6.9-11.1,11.8-23.3,15.8-35.7c9.3-29.2,13.6-59.6,17.9-90C1011.6,605.9,1013.2,594.4,1011.6,583.1z"/>
	<path id="arm-highlight" fill="#D39A7F" d="M967.4,604.1c-29.5,1-59.2-1.8-88-8.3c-3.9,19.2-9.2,38.1-12.1,57.5
		c-2.7,17.7-8.1,34.4-15.3,50.8c5.4,7.3,14.6,11.6,18.8,19.7c0.4,0.8,0.8,1.8,0.7,2.7c-0.4,3.7-6.1,2.8-9.1,0.6
		c-5.4-3.9-10.4-8.3-15-13.2c-0.1,0.1-0.1,0.2-0.2,0.4c0.1,2-0.5,4.2-2.1,6.1c-1.2,1.4-2.4,2.9-3.6,4.3c-4,6.7-8.4,13.1-13.2,19.2
		c-1.1,1.7-2.1,3.3-3.2,5c5,26.7,12,54.6-4.5,78.9c-7.1,10.5-17.6,18.1-29.8,21.3c-10.9,2.9-21.3,2.9-31.5-0.1
		c-1.7,0.2-3.3,0.3-5,0.4c-1.8,0.1-3.6,0.2-5.4,0.3c-1.5,0.3-2.9,0.6-4.4,0.9c-9.1,1.4-18.6,1.2-27.2,4.4c-8.5,3.1-13.6,9.2-16,17.7
		c-2.6,8.8,7.9,12.2,15.2,10.3c6.7-1.7,12.3-6.1,19-7.9c11.3-3.1,23.2,2,34.9,2.1c15.1,0.1,28.9-8.1,41.3-16.6
		c31.2-21.4,59.3-47,89.3-70.2c22.8-17.6,47.1-34.5,62.8-58.7c24.6-37.8,23.6-86.2,34.2-130C987.7,603,977.5,603.8,967.4,604.1z"/>
</g>
<g id="baby-head">
	<path id="head_1_" fill="#F8BD9F" d="M793.6,731.6c-6.5-4.1-13.6-7.1-21-8.5c-18.4-3.6-37.8,2.5-53.4,13
		c-17.3,11.7-31.1,29.6-34.6,50.1c-3.5,20.6,4.7,43.5,22.4,54.6c9.7,6.1,21.3,8.3,32.6,8c11.5-0.3,22.2-4.7,33.6-5
		c6.8-0.2,13.9-0.1,20.2-2.8c10.6-4.6,16.4-16,21.2-26.6c4.8-10.7,9.6-21.8,9.7-33.5c0.1-15-7.9-29.2-18.7-39.7
		C802,737.5,797.9,734.3,793.6,731.6z"/>
	<path id="mouth_1_" fill="#504C4B" d="M713.4,799.7c-0.4,0-0.7-0.1-1.1-0.2c-6.6-1.6-13.3-10.7-7.2-16.6c0.8-0.7,1.8-1.3,2.8-1.2
		c1.2,0.1,2.2,1.2,2.7,2.3s0.7,2.4,1.1,3.6c0.7,1.9,2.1,3.6,3.9,4.6c1.1,0.6,2.4,1,3.1,2.1c1,1.5,0.3,3.7-1.2,4.7
		C716.3,799.7,714.8,799.9,713.4,799.7z"/>
	<path id="nose_1_" fill="#D39A7F" d="M730.4,775.7c0.1,1-0.2,1.9-1,2.6c-0.6,0.5-1.2,1-1.9,1.3c-3.1,1.4-4.3,0.9-5.6-2.1
		c-0.6-1.3-1.2-2.6-1.7-4c-0.8-2.2,0.2-3.8,2.5-4.2C726.2,768.9,730.2,772.2,730.4,775.7z"/>
	<path id="eye-right_1_" fill="#504C4B" d="M753.5,778.6c-0.1,2-1.2,3.9-3,5.4c-0.4,0.4-1.2,0.5-1.8,0.5c-2.7-0.2-5.3-3.4-5.1-6
		s3.4-5.2,6.1-4.9C751.9,773.7,753.6,775.7,753.5,778.6z"/>
	<path id="eyebrow-right_1_" fill="#D39A7F" d="M760.4,782.7c0-4.6,1-9.3,1.8-13.8c0.2-1,0.5-2.1,1.4-2.4c1.4-0.5,2.7,0.6,3.3,1.7
		c1.4,2.3,1.1,5.3,0.5,7.9c-0.7,3.2-1.8,6.4-4,8.8c-0.5,0.5-1.1,1.1-1.8,1.1C760.7,786,760.4,784.6,760.4,782.7z"/>
	<path id="eye-left_1_" fill="#504C4B" d="M717.7,753.7c0-3.1,2.2-5.6,5.2-5.7c3.2-0.1,5.9,2.4,5.8,5.5c-0.1,3.2-2.9,5.8-6.3,5.8
		C719.7,759.3,717.7,756.9,717.7,753.7z"/>
	<path id="eyebrow-left_1_" fill="#D39A7F" d="M731.6,735.2c1.7-0.5,4.3,0.4,5.6,1.1c2.1,1.2,4.2,2.5,6,4.2c0.5,0.5,1,1.1,1.1,1.9
		c0.3,1.6-1.4,3-3,3c-2.5,0-4-1.8-5.9-3.1c-1.7-1.1-5.4-2-5.5-4.4C729.8,736.2,730.6,735.5,731.6,735.2z"/>
	<path id="baby-hair" fill="#504C4B" d="M791.5,751.9c1.2,1.7,2.3,3.5,3.3,5.3c3.2,5.5,6,12,4.4,18.2c-1.6,6-6.9,10.1-11.4,14.4
		c-7.4,7.2-13.1,16.1-16.5,25.8c-0.8,2.4-1.5,4.9-0.9,7.4c0.6,2.4,2.9,4.6,5.4,4.2c3.7-0.6,4.4-5.6,7.1-8.2
		c3.6-3.5,10.3-1.3,12.3,3.2c2.1,4.5,0.2,10.1-3.2,13.7c-3.4,3.6-8,6-12.7,7.7c7.1,1,14.2-1.2,20.5-4.6c6.3-3.4,11.8-8.1,16.8-13.2
		c7.6-7.6,14.5-16.1,18.5-26c7.9-19.4,3.5-42.3-7.4-60.2c-2.5-4.1-5.4-8.3-5.9-13.1c-0.1-1-0.1-2.1-0.5-3.1c-1.5-3.5-6.8-2.5-10.3-4
		c-3.3-1.4-4.9-5.2-5.9-8.7c-0.9-3.5-1.6-7.3-4.2-9.9c-0.4-0.5-1-0.9-1.6-1.1c-1.9-0.6-3.6,1.1-5.3,2.2c-3.5,2.1-8.1,1.4-11.6-0.7
		c-3.5-2.1-6.1-5.4-8.5-8.6c-3.6,4.2-8.8,6.8-13.9,9s-10.4,4.2-14.8,7.7c-3.3,2.6-6.2,6.3-7.1,10.5c-1.3,5.6,2.3,5.8,7.2,5.4
		c10.3-1,20.8,2.6,29.2,8.7C781.3,738.7,786.9,745,791.5,751.9z"/>
</g>
<g id="man-head_1_">
	<path id="head" fill="#D39A7F" d="M739.7,145c-1-8.1-3.5-16.1-8.3-22.6c-5.8-7.9-15.6-13.4-25.3-12.3
		c-11.9,1.3-20.9,11.2-32.3,14.7c-18.2,5.6-37-6.2-51-19.1c-9.2-8.4-18.2-17.9-30-21.6c-14.8-4.6-31.4,1.1-43,11.4
		s-19,24.4-24.8,38.8s-10.2,29.3-17.3,43.1c1-1.9-7.2-3-8.4-2.8c-10,1.6-15.2,17-15.6,25.6c-0.4,8.1,3.3,16.8,10.7,20.3
		c8.7,4.1,9.7,2.5,9.7,13.2c0,8.4-0.9,16.8-1.7,25.2c-1.5,15.6-3.1,31.4-0.1,46.9c11.1,57.3,74,91.9,128.7,90.1
		c12.3-0.4,25-2.7,35.2-9.6c7.7-5.3,13.4-12.9,17.9-21.1c17.4-32,15.3-70.8,25-106c10.1-36.8,33.5-71.1,31.3-109.2
		C740.1,148.4,739.9,146.7,739.7,145z"/>
	<path id="beard" fill="#504C4B" d="M444.9,327.7c5.2-13.5,13-26.1,22.8-36.8c13.6-14.8,31.4-26,51.1-30.3c20.3-4.5,41.6-1.5,61.7,4
		c20.1,5.6,39.3,13.7,59.2,19.7c13.7,4.2,28.2,7.4,42.3,4.9c9.5-1.7,19.2-5.9,28.4-3.1c11.7,3.6,17.3,16.6,20,28.5
		c9.5,42.3-0.3,88.6-26.2,123.4s-67.5,57.4-110.8,60.4c-71.7,4.9-153.1-47.9-156.4-124.3C436.4,358.3,439.2,342.4,444.9,327.7z"/>
	<path id="mouth" fill="#D39A7F" d="M621,331.4c6.6,0.2,13.1-1.2,17.7-3.7c2-1.1,3.9-2.5,5-4.5s1.1-4.7-0.5-6.3
		c-2.5-2.5-6.7-1-10,0.3c-8.2,3.2-19.2,3.2-24.1-4.1c-1.4-2.1-2.4-4.8-4.6-6c-4-2-8.6,3.1-8,7.6C598.2,326.1,609.6,331.1,621,331.4z
		"/>
	<path id="nose" fill="#C08366" d="M642.7,273.6c-7.6-0.3-18.4-2.2-16.3-8.8c0.6-1.9,2.2-3.3,3.8-4.4c2.3-1.6,4.8-2.9,7.6-3.3
		c3.8-0.5,7.9,1,10.4,3.9s3.5,7.1,2.5,10.8c-0.1,0.4-0.2,0.8-0.5,1c-0.3,0.3-0.9,0.5-1.4,0.5C647.5,273.6,645.3,273.7,642.7,273.6z"
		/>
	<path id="eye-right" fill="#504C4B" d="M678.7,252.7c-5.3-0.5-10.1-6.2-5.6-11c2.4-2.5,6.6-2.8,9.5-0.9c3.1,2,4.4,6.6,2.2,9.5
		c-1.2,1.6-3.3,2.4-5.3,2.4C679.1,252.8,678.9,252.8,678.7,252.7z"/>
	<path id="eyebrow-right" fill="#C08366" d="M703.4,231.8c-1.4-0.2-2.9-0.8-4.2-1.5c-7.4-3.7-16.5-9.9-20.1-17.6
		c-1.9-4.1-2.1-9.3,0.5-13c0.6-0.9,1.5-1.8,2.5-2.2c1.9-0.7,4,0.1,5.5,1.3c1.5,1.3,2.6,3,3.8,4.6c3.3,4.2,7.6,7.3,11.7,10.6
		c2.8,2.3,5.7,4.8,6.9,8.3c1.2,3.4,0,7.9-3.5,9.2C705.6,231.9,704.5,232,703.4,231.8z"/>
	<path id="eye-left" fill="#504C4B" d="M612,242.3c-4.3-0.4-8.7-4-8.1-8.5c0.4-2.7,2.6-5,5.2-5.9c2.5-0.8,5.4-0.2,7.5,1.4
		c3.1,2.4,3.8,7.4,1.5,10.5C616.7,241.8,614.4,242.5,612,242.3z"/>
	<path id="eyebrow-left" fill="#C08366" d="M579.5,215c-6.8-0.3-14.6-3.7-11.6-11.8c1.4-3.8,5-6.3,8.7-7.6c3.8-1.3,7.8-1.5,11.8-2.1
		c6.5-0.9,12.8-2.6,18.8-5.1c3.3-1.4,6.5-3,10.1-3.1s7.5,1.6,8.4,5c1.3,4.6-3,8.7-7.1,11.2c-10.6,6.6-22.5,11.2-34.9,13.3
		C582.5,215,581,215.1,579.5,215z"/>
	<path id="hair" fill="#504C4B" d="M506.2,175.8c-1.3-8-1.7-16.2-1.7-24.2c0-15.3,1.2-30.8,6.5-45.2c12.3-33.5,46.2-56.1,81.6-61.1
		c35.3-5,71.5,5.7,102.5,23.2c18.6,10.5,36.4,24.3,45.5,43.6c8,17.1,8.3,37,4.4,55.5c-3.9,18.5-11.7,35.9-19.4,53.2
		c-1.4,3-3.1,6.4-6.3,7.3c-2.8-3.2-1.4-8.2,0.1-12.2c5.3-14,10-28.4,11.4-43.2c1.4-14.9-0.8-30.4-8.3-43.3c-0.2-0.4-0.5-0.8-1-1
		c-1-0.4-1.8,0.8-2.3,1.7c-5.1,9.9-14.7,17.2-25.2,20.8s-22.1,3.9-33.1,2.3c-32.3-4.7-61.7-26.2-76-55.5
		c-15.6,10.6-27,26.7-34.4,44.1s-11,36.2-13.6,54.9c-0.6,4.2-1.2,8.5-3.6,12c-9.6,13.4-20.2-9.7-23-17.2
		C508.4,186.4,507.1,181.1,506.2,175.8z"/>
</g>
<g id="baby-right-foot">
	<path id="foot" fill="#E89B73" d="M420.5,887.2L420.5,887.2c-2.4,0.1-4.8,0.4-7.1,0.6c-0.5,0-1.1,0.1-1.6-0.2
		c-0.9-0.4-1-1.6-1.2-2.5c-1.2-8.7-6.2-16.7-13.6-21.5c-3.7-2.4-8.3-4-12.5-2.7c-5.4,1.8-8.2,7.9-8.8,13.6
		c-0.5,4.9-0.1,9.8-0.4,14.7c-0.2,3.6-1.5,8.9,2,11.3c2.7,1.9,6.6,0.4,9.7,1.5c3.9,1.4,6.4,6.7,10.5,6.1c1.5-0.2,2.7-1.2,3.9-2.2
		c5.8-4.9,11.5-9.9,17.1-15C419.6,889.9,420.8,888.6,420.5,887.2z"/>
	<path id="foot-highlight" fill="#F2BD9E" d="M413.2,886.7c-1.5,0.2-2-0.1-2.3-1.5c-1.1-4.7-1.6-9.5-4.3-13.7
		c-1.3-2.1-3.1-3.9-5.1-5.4c-1.9-1.4-4.1-3.1-6.3-3.7c-0.2-0.1-1-0.4-1.2-0.4c-0.1,0,0.2,0.6,0.5,0.9c1.3,1.8,2.8,3.3,4.2,5.1
		c1.4,1.9,2.4,3.9,3.2,6.1c1.4,3.8,2,7.9,2.8,11.9c0.9,4.2,1.6,8.5,1.2,12.7c0,0.2,11.5-9.2,14.8-11.5
		C418,886.9,415.7,886.3,413.2,886.7z"/>
</g>
<g id="baby-left-arm">
	<path id="arm-shadow" fill="#E7996F" d="M759,879.6c-6.2-1.1-12.6-0.3-18.8,1.1c-6,1.3-12.1,2.6-17.1,6.3
		c-3.7,2.8-6.9,5.9-11.5,7.1c-8.3,2.2-16.9,3-25.3,4.6c-5.2,1-10.5,2-15.3,4c-4.2,1.7-7.3,4.9-11.1,7.1c-5.6,3.3-12.8,4.3-17.7,8.6
		c-3.8,3.3-3.6,9.4-2.1,13.9c1.2,3.7,3.8,5.6,6.8,7.3c3.1-0.2,6.1-0.3,9-1c5.6-1.3,10.7-5.2,16.3-6c3-0.4,5.8,0.6,8.6,1.3
		c2.5,0.6,5.2,0.7,7.8,1c6.3,0.6,12.5-0.1,18.7-0.3c5.7-0.2,11.4,1.4,17.1,1.1c4.8-0.2,9.6-1.6,14-3.6c4.5-2.1,7.9-5.1,11.8-8
		c2.8-2,5.3-4.3,7.7-6.8c5.8-6.1,11.7-12.8,12-21.8c0.2-7-2.1-14.1-9.7-15.7C759.7,879.7,759.4,879.7,759,879.6z"/>
	<path id="arm" fill="#F8BD9F" d="M762.2,890.4c-0.9-2.3-2.6-4.3-4.9-5.5c-2.6-1.3-5.7-1.6-8.6-1.5c-11.2,0.5-22.2,7-30.3,14.5
		c-2,1.9-4.1,2.8-6.8,2.7c-7.8-0.4-15.7,1.4-23.3,2.8c-5.4,1-10.8,2-16.2,3.2c-2.4,0.5-5.6,1.9-8,1.8c-2.3-0.1-4.8-1.8-6.9-2.8
		c-5-2.3-11-2.3-16.4-3c-0.8-0.1-1.6-0.2-2.3,0c-1.3,0.4-2.1,1.9-2,3.3c0.1,1.4,0.9,2.7,2,3.5c0.8,0.6,1.8,1.5,1.3,2.4
		c-0.2,0.3-0.6,0.5-0.9,0.6c-0.2,0.1-0.4,0.2-0.7,0.3c-2.7,0.9-6,1.4-7.7,2c-3.1,1.3-6,3-8.3,5.4c-4.6,4.8-6.8,12.7-2.6,18.5
		c4.6,6.4,13.1,5,19.7,3.3c2.7-0.7,5.4-1.4,7.9-2.4c2.3-0.4,4.6-1.2,6.6-2.1c5.7-2.6,11-7.1,17-8.7c5.8-1.5,11.8,0.6,17.5,1
		c7.7,0.6,15.5,0.9,23.2,0c1.6-0.2,3.3-0.4,4.8,0.1c1.1,0.3,2,0.9,3,1.3c4.8,2,10.5-0.8,13.2-5c2.8-4.4,8.1-5.5,12.3-8.1
		c4.5-2.8,8.1-7,11.5-11c2.4-2.8,4.8-5.7,5.9-9.2C763.3,895.3,763.1,892.7,762.2,890.4z"/>
</g>
</svg>
