<svg xmlns="http://www.w3.org/2000/svg" xmlns:xlink="http://www.w3.org/1999/xlink" id="Layer_1" x="0" y="0" enable-background="new 0 0 1200 1200" version="1.1" viewBox="0 0 1200 1200" xml:space="preserve"><g id="bundle_x5F_illustration-5_x5F_v1_xA0_Image_1_"><circle id="background" cx="612.2" cy="600.8" r="529" fill="#E0F9FF"/><path id="man-pants" fill="#7AA6D0" d="M883.4,849.6c-1.5-5.1-5.7-9-10-12.2c-18.2-13.5-41.3-19.2-63.9-20.3s-45.3,2-67.9,4.4 c-80.8,8.7-163.1,10.5-244.4,9.6c-18.3-0.2-36.8-0.7-54.5,3.9c-24.4,6.3-39.4,22-49.9,44.3c-6.8,14.4-11.1,29.8-16.3,44.9 c-1.9,5.6-4.3,11-5.3,16.9c-1,6.4-0.1,12.9-0.8,19.4c-1,9.5-2.3,18.9-4,28.2c-3.4,19.1-8.2,38-14.3,56.4c-1.5,4.5-3,9.6-0.8,13.8 c1.4,2.5,3.9,4.2,6.3,5.7c27.7,17.4,57.9,30.8,89.4,39.7c-0.3-2.9-0.6-5.8-0.9-8.8c2.4,10.1,14,14.7,24.1,17.1 c55.9,13.4,118.9,8.5,165-25.8c30.6-22.8,51.4-56.5,81.1-80.4c38.2-30.8,88.8-43.7,124.9-76.9c19.5-18,33.9-41.4,41.1-66.9 c1.1-3.9,2-8,1.2-11.9C883.5,850.3,883.5,850,883.4,849.6z"/><g id="chair"><path id="chair-body-highlight_1_" fill="#DD8152" d="M1114.3,434.2c-4-11.8-8.6-23.8-17-33c-0.4-0.4-0.7-0.8-1.1-1.2 c-15.9-16.4-40.8-19.3-63.6-21.3c-177.9-15.4-355.9-30.9-533.8-46.3c-9.8-0.9-21-1.3-28.1,5.5c-4.6,4.4-6.4,10.8-8,16.8 c-31.3,115.7-62.6,231.3-93.8,347c-89.3,11-178.7,22.1-268,33.1c4.9,12.3,9.6,24.6,14.3,37c-1.2,0.3-2.5,0.6-3.7,0.9 c0.4,1.4,0.6,2.8,1.1,4.2c3.6,10.2,7.3,20.4,11.6,30.4c1.1,2.6,1.9,5.4,3.6,7.8c1.2-1,2.1-2.2,2.9-3.5 c13.9,34.6,29.6,68.2,51.3,98.9c17.5,24.6,37,47.7,58.4,69c5.9,5.9,67.4,54.2,66.8,56.2c8.1-30.2,16.3-60.5,24.4-90.7 c2.5-9.2,5.1-18.8,11.5-25.9c9.1-10.3,23.7-13.3,37.3-15.4c69.3-10.5,139.7-10.2,209.8-9.8c16,0.1,32.5,0.3,47.2,6.5 s27.5,20,27.4,36c-67.3,21.3-134.5,42.6-201.8,63.9c-7.3,2.3-15.2,5-19.8,11.2c-6.2,8.4-4.4,20-2.3,30.2 c3.4,16.6,6.8,33.1,10.2,49.7c1.1,5.5,2.4,11.2,6,15.5c4.1,4.8,10.5,6.8,16.6,8.4c184.3,50.3,394.2-8.8,525-148 S1175.8,615,1114.3,434.2z"/><path id="chair-right-arm-highlight" fill="#F68E54" d="M888.7,925.6c-5.9-1.4-11.9-2.9-17.8-4.3c-2.9-0.7-5.8-1.4-8.7-1.4 s-5.8,0.7-8.6,1.4c-53.4,13.2-107.5,25-162.4,28c-27.2,1.5-54.7,0.9-81.7,4.7c-24.9,3.5-49.2,10.9-73.3,18.2 c-27.9,8.4-55.7,16.8-83.6,25.3c-3.6,1.1-7.4,2.3-9.9,5.2c-3,3.5-3.2,8.5-3.3,13.1c-0.1,26.9,2,53.9,6.4,80.4c0.5,2.8,1,5.8,3,7.8 c1.6,1.6,3.9,2.4,6.1,3.1c48.5,15.1,99.3,22.9,150.1,23.1c-4-24-5.7-48.3-5.1-72.6c-53.9-11.5-94-20.6-144.1-40.3 c-4.1-1.9,0.7-10.9,10-7.6c39.5,13.8,81.5,19.4,122.2,29.1c5,1.2,10.1,2.4,15.3,2c4.4-0.3,8.7-1.9,12.9-3.4 c40.8-14.6,81-29.8,121.3-45.7c18.4-7.2,36.8-14.4,55.2-21.4c36.9-14.1,74-27.8,111.2-41.1C898.9,928.1,893.8,926.8,888.7,925.6z"/><path id="chair-body-highlight_2_" fill="#F68E54" d="M1035.8,403.5c-12.6-1.6-176.6-20.8-188.6-21.9l-382.5-35L394,563.4 l-23.8,133.7c-51.1,7.1-243.6,31.6-261.4,33.7c-3.3,0.4-6.7,0.5-9.8,1.9c0.3,0.9,0.6,1.8,0.8,2.8c2.9,11.1,6,22.1,9.7,33 c0.5,1.5,0.6,3.2,1.9,4.3l257.5-37.1L930,914l69.8-273.3l43.1-221.4C1043,419.2,1048.4,405.1,1035.8,403.5z"/></g><path id="man-right-arm" fill="#FDE7E1" d="M392.4,596.4c0,0-9.4,23.7-14.7,46.5c-5.3,22.8-14,75.6-14,75.6l66.9,18.9 c0,0,15.4-77.4,28.4-107.2s13-29.8,13-29.8l-72.6-21.9L392.4,596.4z"/><path id="man-neck" fill="#F7CABA" d="M792.9,368.2c-0.3-18.2-4.4-36.4-20.5-45.6c-20.1-11.5-47.3-8-68.8-2.7 c-19.9,4.9-37.6,14.4-51.7,29.4c-10.9,11.6-19.3,25.4-26.3,39.8c-8.3,17.3-14.2,35.2-15.6,54.4c-1.2,16.6-2.4,33.3-0.8,50 c3.1,31.6,16.8,74,53.4,78.9c32,4.3,71.7-15.6,90.1-41.8c20.8-29.7,29.6-64,34.3-99.3c1.6-12.2,3.6-24.4,4.6-36.8 C792.3,386.5,793.1,377.3,792.9,368.2z"/><g id="girl-body"><path id="shirt_1_" fill="#B27FDC" d="M403,790.8c0.3-3.8,0.9-7.6,1.2-11.5c0.9-9.8,0.7-19.7-0.2-29.5c-0.9-9.9-2.6-19.8-3.8-29.6 c-0.8-5.9-1.6-11.5-4.4-16.8c-1.4-2.7-3.2-5.3-4.9-7.8c-1.8-1.5-3.7-2.8-5.8-3.9c-8.1-4.2-15.8-3-24.5-2.9c-0.4,0-0.7-0.1-0.9-0.4 c-0.6,0.2-0.9,0.3-1-0.6c0.2,1.1-1,1.8-1.8,1.4c0,0.1-0.1,0.1-0.1,0.2c0,0-0.1,0-0.1-0.1c-2.8-1.3-5.8-2.3-8.8-3.1 c-6-1.5-12.3-2.3-18.5-3c-13.3-1.5-26.7-1.6-40-0.2c-12.8,1.3-25.5,4-37.6,8.4c-6.2,2.2-12.4,4.9-18.2,8c-2.5,1.3-5.4,2.8-6.9,5 c-4.7,4.2-6.9,11.4-9.9,17.3c-6.4,12.4-18.7,20.4-29.8,28.9c-24,18.4-44.4,41.4-60,67.3c-15.4,25.6-31.5,59.5-27.5,90.2 c1.4,10.6,7.2,21.4,17.1,25.6c5.1,2.2,10.8,2.6,16.4,2.5c17-0.1,34.1-3.2,50-9.1c2.2-0.8,4.5-1.7,6.8-1.1c1.9,0.5,3.3,2,4.6,3.4 c15.9,16.9,31.8,33.7,47.8,50.6c0.2-0.3,0.5-0.6,0.7-1c2.1,2.5,5.4,4.4,9.7,5.1c4.8,0.8,9.5,0,13.9-1.5c1.6-0.1,3.1-0.4,4.6-0.6 c15.7-2.6,30.4-11.3,43.1-20.5c23.6-16.8,43.1-39.3,56.6-65c6.8-13,12.2-26.9,15.6-41.3c4-16.6,5.1-33.4,11.5-49.5 c1.6-4.1,3.4-8.2,5-12.4C402.8,792.7,402.9,791.7,403,790.8z"/><path id="chest-highlight" fill="#BF8EE7" d="M386.9,692c-6.3-2.6-12.8-4.4-19.6-5.3c-2-0.3-4.1-0.4-5.8,0.6c-1.5,1-2.3,2.7-3,4.3 c-3.7,9-6.5,18.5-11.6,26.7s-13.3,15.4-23,16.2c-3.3,0.3-7,0-9.3,2.4c-1.3,1.4-1.7,3.3-2.1,5.1c-2.8,14.1-5.6,28.1-8.4,42.2 c-0.7,3.6-3.2,8.2-6.5,6.9c-1.5-0.6-2.4-2.3-3-3.8c-3-7.6-5.1-16-10.9-21.8c-10.3-10.5-27.4-8.6-41.4-12.9 c-11.7-3.6-22.3-11.9-34.6-11.4c-10.1,0.4-18.9,6.9-26.6,13.5c-33.2,28.4-60,64.8-75,105.9c-3.3,9-6,18.7-5.7,28.2 c1.3-4.4,3.8-8.5,7.6-12c7.6-7.1,17.8-11,27.9-13.6c4.6-4.2,11.8-5.2,17.3-8.5c6.8-4,10.9-11.4,17.4-15.9c5.2-3.6,11.7-5.1,17-8.6 c4.9-3.3,8.4-8.2,11.1-13.4c2.3-4.3,3.5-14.3,10.5-12c4.8,1.6,9.2,11.6,11.2,15.8c1,2.2,2.2,4.6,4.5,5.3c2.7,0.8,5.4-1.2,7.6-2.9 c10.1-7.6,23.8-10.3,36.1-7.2s22.9,12.2,28.1,23.7c0.6,1.4,1.3,2.9,2.6,3.6c2.4,1.3,5.1-0.8,6.7-3c0.8-1.2,1.5-2.4,2-3.7 c0.7-0.6,1.2-1.3,1.5-2.2c4.5-14.9,13.1-27.9,24.7-38.1c1-0.6,1.8-1.6,2.3-2.8c11.6-9.4,23.2-18.8,34.8-28.2 c2.3-1.8,4.6-3.7,5.9-6.3c2.4-4.6,1.2-10.2,0.4-15.4C375.2,726.1,378.4,707.7,386.9,692z"/><path id="sleeve-highlight" fill="#BF8EE7" d="M189.2,843.9c-9.6,3.1-17.9,9.2-26.6,14.2c-7.7,4.4-16.4,8.2-25.2,8.1 c-5.2,2.2-10.4,4.4-15.5,6.8c-8.5,4-15.5,10.5-16.9,20.2c-1.6,10.6,4.5,17.1,10.9,24.2c3.6,2.5,7.7,4.3,12,5.2 c11.4,2.4,23.5-1.1,33.4-7.3s18.1-14.8,26-23.4c-2.4,2.4,2.6,6.1,5.4,4.1c2.7-2,2.9-6,3.1-9.3c1-15.2,9.3-29.8,21.9-38.4 C210.4,841.2,198.8,840.7,189.2,843.9z"/></g><g id="man-shirt"><path id="shirt" fill="#B7D9F2" d="M957.8,557.8c-14.6-54.3-64.2-92.2-115.3-115.7c-3-1.4-6.1-2.8-8.1-5.5 c-2.7-3.7-2.3-8.8-2.3-13.4c-0.2-25-17.8-48.8-41.5-56.4c2.5,12.4-4.8,24.7-12.7,34.6c-39,48.8-101.9,77.6-130.1,133.3 c-10.6-26.6-17.6-54.8-20.5-83.3c-0.4-3.5-0.8-7.4-3.5-9.8c-1.8-1.6-4.3-2.2-6.7-2.7c-54.3-11.1-113.1,1.3-158.3,33.3 s-76.5,83.3-84.2,138.2c24.8-0.2,49.7,5.6,71.8,16.8c8.5,4.3,17.3,10.2,19.7,19.4c2.4,9.2-6.2,20.8-15.1,17.5 c-8.4,68.2-27.5,135-56.3,197.4c-1.5,3.2-3,6.4-3.1,9.9c-1.3,30.2,78.6,32.9,97.4,34.7c27,2.5,54.3,2.9,81.4,1.2 c54.2-3.4,107.9-15.1,158.5-34.9c7.4-2.9,14.9-6.1,20.4-11.8c5.8-6.1,8.7-14.3,11.4-22.2c22.3-64.5,46.4-130.6,92.1-181.4 c27.8-30.9,62.5-54.7,96.9-78c3.4-2.3,6.9-4.8,8.5-8.5C959.8,566.4,958.9,561.9,957.8,557.8L957.8,557.8z"/><g id="shirt-shadow"><path fill="#A5C2DE" d="M638.5,554.5c2.7,0.9,6-0.4,7.9-2.6c2.3-2.7,3-6.5,3.5-10c1.6-11.5,2.1-23.3-0.4-34.6 c-1.9-8.7-5.4-17.2-5.5-26.2c0-8.2,2.8-16.1,5.6-23.8c6.9-19.4,13-39.4,13.8-60c0.1-2.7,0.1-5.5-1-8s-3.5-4.6-6.2-4.4 c-2.9,0.2-5,2.7-6.7,5.1c-10,13.4-19.9,26.9-29.9,40.3c-10.7,14.4-21.5,29-27.3,45.9c-7.7,22.3-6.1,46.7-3.7,70.2 c0.1,1.1,0.3,2.3,1.1,3.1c1.1,1.1,3.2,0.8,4.3-0.3c1.2-1.1,1.7-2.7,2.2-4.2c2.6-7.7,5.1-15.5,7.5-23.3c2-6.7,5.2-13.3,2.1-20.2 c-1.6-3.6-4.1-6.8-5.7-10.5c-0.9-2-1.3-4.9,0.6-6.1c2.2-1.4,4.9,1,6.3,3.2c13.6,19.9,23.7,42.2,29.8,65.5 C637.4,554,637.9,554.3,638.5,554.5z"/><path fill="#A5C2DE" d="M742.9,629.1c-1.4-1.8-3.4-3.3-5.3-4.5c-13.1-8.4-28.9-12.5-44.4-11.3c-0.8,0.1-1.6,0.1-2.2,0.5 c-0.9,0.5-1.4,1.4-1.8,2.3c-3.9,7.6-10.5,18.2-11.2,26.8c-0.8,8.9,13.3,7.5,20,8.5c6.1,0.9,12.2,1.8,17.9,4.1 c4.3,1.7,8.3,4.1,12.6,5.9c0.9,0.4,1.9,0.7,2.8,0.4c0.9-0.3,1.5-1.3,2-2.2c3-5.5,6-11.1,9-16.6c1.6-2.9,3.2-6.1,2.7-9.5 C744.7,631.9,743.9,630.4,742.9,629.1z"/><path fill="#A5C2DE" d="M507.9,535.8c-15.3,32.2-30.5,64.4-45.8,96.6c-25.3-21.4-59.9-31.4-92.7-27c-1.7,0.2-3.5,0.5-5,1.5 c-4.8,3-3.6,10.5-0.6,14.3c3.6,4.6,11.4,6.9,17,7.6c0.5,0.1,3-9.5,4.1-10.5c1.2-1.1,3-1,4.6-0.8c15,1.3,29.8,3,43.5,9.5 c0.8,0.4,1.6,0.8,2.4,1.2c6.2,3.2,12.1,7.1,17.4,11.6c3.8,3.3,9,7.1,13.3,4.5c1.8-1.1,2.9-3.1,3.8-5.1c2.2-4.5,4.4-9.1,6.6-13.6 c11.7-24.4,23-49.1,33.2-74.2c1.1-2.7,2.2-5.5,2.2-8.4C511.9,540.1,510.6,537,507.9,535.8z"/><path fill="#A5C2DE" d="M660.9,546.3c-6.8,0.9-13.2,10.9-10.3,19c0.6,1.5,1.4,3,2.8,4c1.2,0.8,2.6,1.1,4,1.1 c4.4,0.2,8.9-1.9,11.4-5.5s3-8.6,1-12.5C667.4,547.5,664.1,545.9,660.9,546.3z"/><path fill="#A5C2DE" d="M648.6,575.2c-0.4-0.1-0.7-0.2-1.1-0.3c-3.5-0.6-7,1.6-8.7,4.7c-3,5.5-2.5,17.1,5.1,18.5 c3.7,0.7,7.6-1.3,9.7-4.5c2-3.2,2.4-7.2,1.4-10.9C654,579.4,651.8,576.3,648.6,575.2z"/><path fill="#A5C2DE" d="M882.5,459.4c0,0.3,0,0.7,0,1c0,2.3-0.6,4.2-1.5,5.9c3.6,0,7.2-0.5,10.8-1.5 C888.7,463,885.6,461.2,882.5,459.4z"/><path fill="#A5C2DE" d="M876.7,458.7c-0.2-1.1-0.5-2.1-0.9-3.1c-1.3-0.7-2.6-1.5-3.9-2.2c-13.3-7.7-26.6-15.5-39.9-23.2 c4.9-10.4,3.2-23-2-33.3s-13.4-18.7-21.8-26.6c-4.7-4.3-10.3-8.9-16.6-8.1c-1,5.3-0.7,10.9,0.9,16c-0.4-2.2,2.4-4.3,4.6-3.6 c2.4,0.8,3.6,3.7,3.3,6.3c-0.3,2.5-1.7,4.8-3,7c-8.9,15.4-14.2,34.1-8.8,51c1,3.1,2.4,6.3,4.9,8.4s6.2,3.2,9.2,1.8 c2.5-1.2,6.1-3.5,7.2-1c-17.6,31-38.4,60.2-62.1,86.9c-3.2,3.6-7.4,7.5-12.2,6.6c-4.1-0.8-6.5-5-8.5-8.7l-16.9-32.7 c-1.7-3.4-3.5-6.8-6.4-9.3c-2.8-2.5-6.9-4-10.5-2.7c-2.3,0.8-4,2.6-5.6,4.4c-9.9,11.1-17.8,23.9-23.1,37.8 c6.6,1.7,12.8-3.2,19.1-5.5c12.3-4.6,27.5,1.2,33.7,12.8c4.3,8.1,4.3,18.1,9.5,25.8c6.8,9.9,16.8,2.8,22.7-4.4 c23.2-28.1,43.7-58.5,61.1-90.5c1.5-2.7,3-5.5,5.5-7.3c2.1-1.4,4.6-2,7.1-2.4c16.7-2.2,33.7,5.3,50.2,7.1 C875.9,464.5,877.3,462.2,876.7,458.7z"/><path fill="#A5C2DE" d="M906.9,796.9c0.9,0.9,1.8,1.3,2.9,1.6c-0.9-1.2-1.6-2.4-2.3-3.8C907.3,795.4,907.1,796.1,906.9,796.9z"/></g></g><g id="girl-hand"><path id="hand" fill="#FDE7E1" d="M289.9,844.1c-1.1-3.9-3.3-7.5-6.7-9.9c-5.7-3.9-13.1-3.6-20-3.1c0.8-3,1.5-6.4-0.2-9 c-1.2-1.9-3.5-2.9-5.8-3.1c-2.3-0.1-4.5,0.5-6.6,1.4c-9.2,3.8-16.4,11.1-22.8,18.6c-6.5,7.6-12.4,15.9-16.6,25 c-2.1,4.5-3.8,9.3-4.9,14.2c-0.8,3.8-2.8,10.1,0.5,13.1c1.6,1.4,3.8,2,6,2.4c9.6,1.6,19.5-0.4,28.5-4s17.4-8.7,25.8-13.4 c4.8-2.7,9.7-5.3,13.9-8.9C287.7,861.8,292.3,853.2,289.9,844.1z"/><path id="hand-shadow_1_" fill="#F7CABA" d="M263.2,831.2c-0.2,0.2-0.5,0.2-0.8,0.2c-5-0.4-10.2,0.1-15,1.5 c-1,0.3-5.6,0.2-2.8-1.2c1.7-0.9,3.5-1.7,5.3-2.4c2-0.8,4.1-1.5,6.2-1.6s4.4,0.3,6.1,1.6c0.5,0.4,1,0.9,1.1,1.5 C263.3,830.9,263.3,831,263.2,831.2C263.2,831.1,263.2,831.2,263.2,831.2z"/></g><path id="girl-neck" fill="#F7CABA" d="M299.6,675.7c-16.7-14-41.4-11.3-61.8-11.4c-2.8-1.1-7.1,0.3-7.5,4.4 c-0.4,4.7-0.7,9.4-0.8,14.1c-2.7,9.1-5.7,19.4-2.6,28.2c3.1,8.6,11.5,18.6,19.8,22.5c0.3,0.2,0.6,0.3,1,0.3c3.9,2.2,8,4.1,12.3,5.7 c8.2,3.1,16.8,5.3,25.6,6.1c4.3,0.4,9.3,0.8,13.6-0.4c1.5-0.4,2.9-1,4.2-1.8c4.1-5.9,7.1-12.8,8.6-19.7 C315.7,707.7,313.1,686.9,299.6,675.7z"/><g id="girl-hair-lower"><path id="hair_1_" fill="#635E5B" d="M207.1,722.6c-8.2-4.3-13.7-13.6-13.4-23c-5.7-1.6-9.9,5.4-10.8,11.3c-1.2,8.4-2.2,11.7-9,16 c-6.9,4.4-13.3,9.3-18.5,15.7c-10.4,12.6-15.5,28.9-12.9,45.2c0.8,5,2.4,10,5.5,14c7.3,9.2,23.2,9.7,31,0.8 c5-5.7,6.4-13.6,9.3-20.6c6.5-16.1,21.1-28.2,26.5-44.8c1.2-3.7,1.7-8.3-1-11.1c-1.4-1.5-3.5-2.1-5.3-2.9 C208,723.1,207.5,722.8,207.1,722.6z"/><path id="hair-tie" fill="#FDE5BE" d="M209,730.6c-2.9-1.2-6-2.1-8.8-3.5c-8.3-4.3-12.7-11.3-13.1-20.7c-0.1-1.9,0-3.8-0.1-5.7 c-0.2-1.7,0.6-3,1.9-4c0.7-0.6,1.4-1.1,2.2-1.7c0.5,0.1,0.9,0.2,1.4,0.2c2.1-0.1,3.2,1.3,3.7,3.1c0.3,1,0.5,2.2,0.4,3.3 c-0.3,2.7,0.7,5,2,7.2c3,4.8,6.6,9,12.3,10.5c1.9,0.5,3.4,1.7,4.8,3c0,0.6,0.1,1.2,0.1,1.8c-0.2,3.7-1.4,5.2-4.9,6.4 C210.3,730.5,209.6,730.5,209,730.6z"/></g><g id="baby"><path id="body-shadow_1_" fill="#A5C2DE" d="M518.8,654.3c-0.9-1.6-2.2-3.4-4-3.5c-1.7-0.1-3.2,1.5-3.5,3.2s0.1,3.4,0.5,5.1 c5.1,18.9,11,38.8,5.9,57.7c-2.4,9-7.2,17-12.6,24.8c-4.6,1.5-9.5,2.7-13.9,4.6c-2.6,1.1-4.6,2.8-5.4,5.6 c-0.3,1.3-0.6,2.5-0.8,3.8c-5.5,6.7-8.5,16-9.3,24.2c-0.5,5,1.7,8.4,3.7,12.5c-0.4,9.8,2,19.9,3.2,29.7 c-0.5,9.3-2.4,18.5-4.9,27.5c-0.2,0.8-0.2,1.6,0,2.4c-1.4,2.8-2.6,5.6-3.2,8.6c-1.1,6,2.1,10.9,6.8,13.6c1.7-3.5,3.2-7.2,4.7-10.8 c2.6-6.4,5.2-12.8,7-19.5c3.9-14.7,3.6-29.6-0.8-44.1c-2-6.5-2.5-11.8-0.7-18.4c1.6-5.7,3.1-11.6,4.9-17.1c1-3.2,3-4.7,5.9-6.2 c6.3-3.2,12.1-5.8,17.1-11c0.4-0.4,0.9-0.7,1.3-0.8c2.9-4.5,5.2-9.3,7.3-14.2C534.8,706.1,531.8,677.7,518.8,654.3z"/><path id="baby-neck" fill="#F7CABA" d="M472.3,762.3c0-0.7-0.2-1.3-0.6-1.9c-1-1.3-2.9-1.4-4.6-1.3c-13,0.5-25.8,4-38.8,3.7 c-10.3-0.2-20.5-2.7-30.5-5.3c1.4,0.3,1.3,8.4,1.2,9.6c-0.2,3.4-2.1,6.7-0.4,9.5c2.9,4.9,12.1,6.8,17.1,7.8 c11.7,2.3,23.9,2.5,35.6,0.3c4.5-0.8,9.1-2,12.6-5c4.2-3.6,6.1-9.2,7.7-14.5C472.1,764.3,472.3,763.3,472.3,762.3z"/><g id="baby-left-arm"><path id="upperarm" fill="#FDE6E0" d="M386.4,768.4c-1-0.6-2.2-0.9-3.7-0.6c-3.5,0.8-6.9,2-10,3.5c-0.7,0.3-1.1,0.5-1.3,0.6l0,0 c-4.6,2.4-8.9,5.5-13,8.9c-9.6,7.2-18.8,15.5-25.3,25.4c-3.2,4.8-8.7,12-7.5,18.2c1.2,6.4,8.6,8.6,14.2,7.8 c3.3-0.5,6.2-1.7,8.7-3.4c3.6-1.5,6.6-5.4,9.9-8.7c6.2-6.3,12.4-12.6,18.6-18.9c4.8-4.9,11.2-10.1,13.2-16.9 C391.9,779.1,392,771,386.4,768.4z"/><path id="forearm" fill="#F7CABA" d="M334.6,785.1c-0.2-0.9-0.3-1.9-0.4-2.7c-0.4-4,1.7-6.8,3.8-11.2c0.8-1.6,1.6-3.1,2.2-4.7 c1-2.7,1.5-5-2.1-5.5c-2.7-0.4-3.7-0.4-4.7-3.3c-1.1-3.1-1.1-6.3-5.3-6.7c-1-0.1-2,0-2.9,0.2c-0.6,0.6-1.3,1.2-1.8,1.8 c-2.6,2.7-5.2,5.4-6.9,8.7c-2.6,5-2.7,10.9-3.4,16.5c-1.3,10.3-0.6,14.7-2.3,22.9c-1.5,7.1-2.3,14.7-0.4,21.8 c1.6,6.1,4,11.6,10.5,13.9c2.2,0.8,4.7,1.1,7,0.5c2.8-0.7,5.1-2.8,6.6-5.2s2.3-5.2,2.7-8.1c1.5-9.8-0.8-19.6-2-29.4 C334.8,791.5,334.5,788.3,334.6,785.1z"/><path id="forearm-highlight" fill="#FDE6E0" d="M341.6,756.7c-1.3,0.1-2.7,1-3.7,1.9c-0.3,0.2-0.6,0.5-1,0.5 c-0.6,0-0.9-0.7-0.9-1.2s0.3-1,0.5-1.6c0.8-2.2-0.3-4.9-2.3-6.2c-3.7-2.4-7.5-0.8-10,2.4c-2.7,3.5-3.5,8.2-4.3,12.5 c-1.9,10.3,0,17.8-1.5,26.2c-0.9,5.1-1.7,10.3-2,15.5c-0.2,3.3-1.1,14.4,4.8,13.7c1.9-0.2,3.4-1.6,4.6-3c4.4-5,6.5-11.9,7.5-18.4 c1.7-10.7-0.3-22.6,8.4-34c0.9-1.2,2.1-2.4,2.6-3.9s0.3-3.4-1-4.2C342.8,756.8,342.2,756.7,341.6,756.7z"/></g><g id="baby-body"><path id="body" fill="#FFF" d="M485.9,805.7c-3.7-8.9-10.3-18.9-18.4-24.5c-3.1-2.1-6.9-3.4-10.6-3.1c0-0.1,0.1-0.2,0.1-0.3 c-15.4,4.3-32.4,8.4-46.7,1.4c-9.5-4.7-18.7-14.3-28.8-10.9c-4.2,1.4-7.3,4.8-10.2,8c-7.2,8.1-14.4,16.1-21.7,24.2 c-16.9,18.9-34,38-46.6,60c-12.4,21.7-20.1,45.6-30.4,68.3c-10.5,23.4-27.7,43.7-36.2,68c-4.3,12.4-5.9,26-2.1,38.5 c4.7,15.3,17.1,27.2,31.2,34.7c16.9,9,32.7,8.1,50.9,2.4c16.4-5.2,32.8-22.4,44-35.4c22.6-26.2,39.7-47.9,55.8-78.4 c18.1-34.2,37.3-67.8,57.6-100.7c3.1-5,6.2-10.1,8.6-15.5C489.9,832.4,490.8,817.5,485.9,805.7z M401.5,862 c-1.7-0.4-2.8-1.6-3.1-3.3c-0.5-2.8,2-7.7,4.6-8.9c4.1-1.9,7.8,0.4,7.8,4.9C411,859.7,406.4,863.2,401.5,862z"/><path id="body-shadow" fill="#E6E6E6" d="M416.2,951.5c-2.5-3.1-7.3-4.4-11.4-3.6c-4.7,1-8.5,4.2-11.1,7.9s-4.1,8-5.6,12.2 c-8.2,21.6-19.2,42.6-34.3,60.8c-14.3,17.2-33.5,34.7-58.2,36.7c-18,1.4-35.7-5-47.4-17.7c-9.2-10-14.3-22.9-15.2-36 c-1.9,5.8-1.6,13.3-0.4,20.3c1.3,7.2,3.9,14.2,7.8,20.5c5.3,8.7,12.9,16.9,22.6,21.5c11.8,5.6,25.2,7.9,38.2,7.5 c13.9-0.5,35.7-7.6,47-15.6c22.5-15.9,33.5-32.8,48.5-56.1c9.4-14.6,16.9-31,20.7-48.1c0.7-3,1-6.3-0.4-9 C416.8,952.3,416.5,951.9,416.2,951.5z"/><g id="polka"><path fill="#FDE5BE" d="M410.9,854.7c0,5-4.5,8.5-9.4,7.3c-1.7-0.4-2.8-1.6-3.1-3.3c-0.5-2.8,2-7.7,4.6-8.9 C407.2,847.8,410.9,850.2,410.9,854.7z"/><path fill="#FDE5BE" d="M341.7,1024c0,5.3-3.4,9.9-8.5,11.3c-3.3,0.9-6.6-1.3-6.8-4.7c-0.1-1.9,0-3.8,1.1-5.6 c0.9-1.5,1.8-3,2.7-4.5c0.8-1.4,1.8-2.8,3.5-2.9c2.2-0.2,4.5-0.2,6.5,1.1c0.8,0.6,1.4,1.3,1.5,2.3 C341.8,1022.1,341.7,1023.1,341.7,1024z"/><path fill="#FDE5BE" d="M279.7,1011.9c-3.7,0-5.3-1.5-5.1-5.3c0.2-5.2,3-8.9,7.5-11.4c1.2-0.7,2.4-0.6,3.5,0.3 c0.1,0.1,0.2,0.2,0.4,0.3c3.5,3.1,4.4,5.3,3.1,8.6C286.5,1010.4,283.4,1012.2,279.7,1011.9z"/><path fill="#FDE5BE" d="M350.5,825.9c0.4,2.1-0.7,3.8-2.4,5.6c-1.8,1.9-3.9,3.2-6.3,4.2c-4.2,1.7-7.1-1.2-6.8-4.6 c0.2-1.8,0.4-3.4,1.7-4.8c1.6-1.7,3.1-3.6,4.6-5.5s3.3-2,5.5-1.1C349.8,821,350.5,821.8,350.5,825.9z"/><path fill="#FDE5BE" d="M302.4,1049.4c-0.4-3.6,1.4-6.2,3.9-8.4c3.3-2.9,9.3-1,10.3,3.3c0.1,0.5,0.2,1,0.1,1.4 c-0.8,4.4-2.8,8.1-6.9,10.3c-3.3,1.8-6.9-0.2-7.4-3.9C302.3,1051.2,302.4,1050.3,302.4,1049.4z"/><path fill="#FDE5BE" d="M315.8,880.8c0.3,1.9-0.6,3.8-1.3,5.8c-0.4,1.4-1.2,2.6-1.6,4c-0.8,2.4-2.8,3.4-5,4 c-1.9,0.5-4.2-0.8-5.1-2.7c-0.6-1.4-0.7-2.8-0.2-4.2c0.7-2,1.5-3.8,2.3-5.8c1.1-2.8,3.7-4,6-5.1 C313.7,875.4,315.8,877.2,315.8,880.8z"/><path fill="#FDE5BE" d="M248.6,1018.7c-0.2-2,0.6-3.7,1.1-5.6c0.9-3.7,3.8-5.3,7-6.6c0.6-0.3,1.2-0.1,1.8,0.2 c2.7,1.1,4,3.7,3.4,6.6c-0.7,3-2.2,5.6-4.1,8c-1.3,1.6-3.4,2.4-5.4,2.9c-1.3,0.3-3.2-1.1-3.5-2.6 C248.6,1020.6,248.6,1019.6,248.6,1018.7z"/><path fill="#FDE5BE" d="M323.6,1000.7c0.4,4.4-2.7,7.2-6.1,9.6c-2.9,2-7,0-7.9-3.5c-0.1-0.4-0.1-1,0-1.4 c0.9-3.8,2.9-7.1,5.8-9.7c2.2-2,6.1-1.5,7.6,0.9C323.7,997.7,323.5,998.9,323.6,1000.7z"/><path fill="#FDE5BE" d="M355.7,841c1,0.3,2.7,0.8,4.2,1.5c1.3,0.7,1.9,2,2.1,3.5c0.7,4.8-5.6,11-10.2,10.4 c-2.5-0.4-4-1.7-4.3-4.2c-0.1-5,3-8.9,4.7-10.4C352.9,841,354,841,355.7,841z"/><path fill="#FDE5BE" d="M416.5,894.3c1,0.3,2.7,0.8,4.2,1.5c1.3,0.7,1.9,2,2.1,3.5c0.7,4.8-5.6,11-10.2,10.4 c-2.5-0.4-4-1.7-4.3-4.2c-0.1-5,3-8.9,4.7-10.4C413.8,894.3,414.8,894.2,416.5,894.3z"/><path fill="#FDE5BE" d="M296.6,979.7c-0.1-3.5,0.8-6.3,2.4-8.9c1.8-2.8,4.8-2.9,7.3-0.7c4.6,4.2,3.5,12-2.2,14.9 c-3.5,1.8-7.2-0.2-7.6-4.2C296.6,980.4,296.6,979.9,296.6,979.7z"/><path fill="#FDE5BE" d="M321.7,913.8c0.5,3.8-1.6,6.9-5.5,9c-1.6,0.9-3.4,0.9-5.1,0.2c-2-0.8-3.3-2.9-2.8-5 c0.9-4.2,3.3-7.6,6.6-10.2c0.6-0.5,1.5-0.6,2.2-0.9c2.1-0.7,3.9,0.2,4.3,2.3C321.6,910.5,321.6,911.8,321.7,913.8z"/><path fill="#FDE5BE" d="M388.8,839.1c-0.1,5.4-5.8,9.7-10.4,8.4c-1.9-0.5-3.9-2.9-3.9-4.9c-0.1-3.5,3.1-8.7,6.3-10 c1.2-0.5,2.6-0.6,3.7,0.1C387,834.3,388.7,836.5,388.8,839.1z"/><path fill="#FDE5BE" d="M380.5,863.5c-0.1,5.4-5.8,9.7-10.4,8.4c-1.9-0.5-3.9-2.9-3.9-4.9c-0.1-3.5,3.1-8.7,6.3-10 c1.2-0.5,2.6-0.6,3.7,0.1C378.7,858.7,380.4,860.9,380.5,863.5z"/><path fill="#FDE5BE" d="M446.9,850.7c-0.1,5.4-5.8,9.7-10.4,8.4c-1.9-0.5-3.9-2.9-3.9-4.9c-0.1-3.5,3.1-8.7,6.3-10 c1.2-0.5,2.6-0.6,3.7,0.1C445.1,845.9,446.8,848.1,446.9,850.7z"/><path fill="#FDE5BE" d="M410.6,881.7c-0.1,5.4-5.8,9.7-10.4,8.4c-1.9-0.5-3.9-2.9-3.9-4.9c-0.1-3.5,3.1-8.7,6.3-10 c1.2-0.5,2.6-0.6,3.7,0.1C408.8,876.9,410.5,879.1,410.6,881.7z"/><path fill="#FDE5BE" d="M361.9,881.4c-0.1,5.4-5.8,9.7-10.4,8.4c-1.9-0.5-3.9-2.9-3.9-4.9c-0.1-3.5,3.1-8.7,6.3-10 c1.2-0.5,2.6-0.6,3.7,0.1C360.1,876.6,361.8,878.7,361.9,881.4z"/><path fill="#FDE5BE" d="M374.9,921.2c-0.1,5.4-5.8,9.7-10.4,8.4c-1.9-0.5-3.9-2.9-3.9-4.9c-0.1-3.5,3.1-8.7,6.3-10 c1.2-0.5,2.6-0.6,3.7,0.1C373,916.4,374.7,918.6,374.9,921.2z"/><path fill="#FDE5BE" d="M383.9,893.8c-0.1,5.4-5.8,9.7-10.4,8.4c-1.9-0.5-3.9-2.9-3.9-4.9c-0.1-3.5,3.1-8.7,6.3-10 c1.2-0.5,2.6-0.6,3.7,0.1C382,889,383.7,891.2,383.9,893.8z"/><path fill="#FDE5BE" d="M415.6,802.6c0-4.6,2.9-8.3,7.2-9.3c2.2-0.5,5.6,1.3,6.1,3.5c0.5,2.6,0.7,5.4-0.8,7.8 c-1.9,3.1-5.6,4.5-9.1,3.4C416.3,807.1,415.6,806,415.6,802.6z"/><path fill="#FDE5BE" d="M264.9,980c0.5-3.8,2.3-8,6.1-11c3-2.3,6.9-0.3,7.3,3.5c0.1,1.3,0.2,2.6-0.4,3.8 c-0.9,1.7-1.6,3.5-2.6,5.1c-1.4,2.3-3.6,3.6-6.4,3.6C266,985,265,984,264.9,980z"/><path fill="#FDE5BE" d="M327.4,947.1c-0.1,5.7-4,10.1-8.7,10c-3.5,0-5.6-2.7-4.5-6c0.6-1.9,1.5-3.8,3-5.4 c0.9-0.9,1.7-1.9,2.7-2.7c2.8-2.4,5.9-1.6,7.1,1.8C327.3,945.7,327.3,946.7,327.4,947.1z"/><path fill="#FDE5BE" d="M305.3,1026.6c-0.4,3.9-2.5,7.4-6.2,9.7c-2.6,1.7-6.1-0.3-6.3-3.4c-0.4-4.8,1.5-8.7,5.5-11.4 c2.7-1.8,6.2-0.2,6.8,3.1C305.3,1025.2,305.2,1025.7,305.3,1026.6z"/><path fill="#FDE5BE" d="M352.3,933.7c-0.4,2.5-1.2,5.7-4.5,7.5c-0.8,0.5-1.4,1.3-2.2,1.8c-1.5,1-3.1,1-4.6,0.2s-2.4-2.2-2.1-4 c0.7-5.1,3.1-9,8.2-10.7C350.2,927.7,352.4,929.5,352.3,933.7z"/><path fill="#FDE5BE" d="M367.2,802.6c-2.1,0.2-3.8-0.3-4.7-2c-1-1.9-1-4,0.3-5.9c0.6-0.9,1.5-1.7,2-2.7c1.6-3.3,4.4-3.2,7.3-2.8 c1.9,0.3,4.2,3,3.9,4.9c-0.5,2.7-1.3,5.3-3.6,7C370.7,802.2,369,802.9,367.2,802.6z"/><path fill="#FDE5BE" d="M351.4,992.5c-0.3,4.4-2.5,7.8-6.1,10.2c-2.6,1.7-5.9,0.3-6.9-2.6c-0.3-0.8-0.4-1.6,0-2.3 c0.8-1.6,1.5-3.2,2.5-4.6c1.1-1.5,2.4-2.9,3.5-4.5c1.8-2.5,4.6-2.1,6.2,0.5C351.1,990.2,351.4,991.3,351.4,992.5z"/><path fill="#FDE5BE" d="M337.9,874.3c0.6,4.3-5,9.3-7.9,9.8c-3.1,0.5-6.2-2.5-5.3-5.6c0.9-3.3,2.8-6.1,5.7-8.1 c1.7-1.1,3.7-0.9,5.5,0C337.4,871.1,338.1,872.6,337.9,874.3z"/><path fill="#FDE5BE" d="M420.2,928.2c0.6,4.3-5,9.3-7.9,9.8c-3.1,0.5-6.2-2.5-5.3-5.6c0.9-3.3,2.8-6.1,5.7-8.1 c1.7-1.1,3.7-0.9,5.5,0C419.7,925.1,420.4,926.5,420.2,928.2z"/><path fill="#FDE5BE" d="M403,911.3c0.6,4.3-5,9.3-7.9,9.8c-3.1,0.5-6.2-2.5-5.3-5.6c0.9-3.3,2.8-6.1,5.7-8.1 c1.7-1.1,3.7-0.9,5.5,0C402.4,908.2,403.1,909.6,403,911.3z"/><path fill="#FDE5BE" d="M368.7,963.5c0.5,4.2-4.5,8.8-7.3,9.6c-2.3,0.6-5-1.3-5.2-3.6c-0.1-1.3-0.1-2.5,0.5-3.7 c1.1-2.3,2.5-4.4,4.2-6.3c1.5-1.6,3.3-1.9,5.2-1.2c1.8,0.7,2.6,2.2,2.6,4.2C368.7,962.9,368.7,963.2,368.7,963.5z"/><path fill="#FDE5BE" d="M339.3,916.8c-4.2,0-6-2.5-4.7-5.9c0.9-2.2,2.3-4.1,3.6-6.1c0.7-1.1,1.9-1.7,3.1-2.1 c3.1-1,6.4,1.5,6,4.7c-0.4,4.1-3,6.9-6.2,9C340.6,916.8,339.7,916.8,339.3,916.8z"/><path fill="#FDE5BE" d="M346.6,969c0,4.4-2.3,7.1-5.4,8.8c-3.8,2.1-7.5-0.7-7.1-5c0.3-3.4,3.8-7.6,7.2-8.7 c0.8-0.2,1.6-0.2,2.3,0.3C345.3,965.7,346.8,967,346.6,969z"/><path fill="#FDE5BE" d="M297.6,944.6c0,3.9-3.5,8.8-7,9.9c-2.9,0.9-5.7-1-5.3-4.1c0.5-4,2-7.7,5.9-9.7 C294.8,938.8,297.6,940.6,297.6,944.6z"/><path fill="#FDE5BE" d="M360,821.5c-0.1-2.9,3-7.5,5.7-8.2c2.3-0.6,4.4,0.1,6.1,1.8s1.9,3.9,0.8,6.2c-1.4,3.1-4.2,4.3-7.2,5 C363.1,826.9,360.1,824,360,821.5z"/><path fill="#FDE5BE" d="M444.6,871.4c-0.1-2.9,3-7.5,5.7-8.2c2.3-0.6,4.4,0.1,6.1,1.8s1.9,3.9,0.8,6.2c-1.4,3.1-4.2,4.3-7.2,5 C447.6,876.8,444.6,873.9,444.6,871.4z"/><path fill="#FDE5BE" d="M430.7,893.3c-0.1-2.9,3-7.5,5.7-8.2c2.3-0.6,4.4,0.1,6.1,1.8s1.9,3.9,0.8,6.2c-1.4,3.1-4.2,4.3-7.2,5 C433.7,898.7,430.7,895.8,430.7,893.3z"/><path fill="#FDE5BE" d="M392.5,808.4c-2,0.1-3.3-0.9-4.1-2.7c-1.6-3.6,0-8.5,3.5-10.3c1.7-0.9,3.7-1,5.5,0.1 c1.8,1.2,3.2,2.7,2.8,5.1c-0.5,3.4-2.7,5.7-5.4,7.4C394.2,808.4,393.3,808.3,392.5,808.4z"/><path fill="#FDE5BE" d="M406.4,831.4c-3.7,0-5.2-1.6-5.1-5.3c0.1-2.4,1.2-4.3,2.5-6.1c1.1-1.6,3-1.8,5.1-1.4 c1.7,0.4,2.8,1.3,3.9,2.5c0.8,0.9,1.1,1.9,1,3.1C413.6,828.1,410.3,831.4,406.4,831.4z"/><path fill="#FDE5BE" d="M383.7,948.1c-3.7,0-5.2-1.6-5.1-5.3c0.1-2.4,1.2-4.3,2.5-6.1c1.1-1.6,3-1.8,5.1-1.4 c1.7,0.4,2.8,1.3,3.9,2.5c0.8,0.9,1.1,1.9,1,3.1C391,944.8,387.6,948.1,383.7,948.1z"/><path fill="#FDE5BE" d="M425.1,878.6c-3.7,0-5.2-1.6-5.1-5.3c0.1-2.4,1.2-4.3,2.5-6.1c1.1-1.6,3-1.8,5.1-1.4 c1.7,0.4,2.8,1.3,3.9,2.5c0.8,0.9,1.1,1.9,1,3.1C432.4,875.4,429,878.6,425.1,878.6z"/><path fill="#FDE5BE" d="M386.6,784.3c-4,0-6.4-2.3-6.5-5.6c0-1.7,0.5-3.1,1.3-4.5c1.2-2,3.2-2.6,5.2-2.9c1.4-0.2,2.1,1.2,3.1,2 c0.4,0.3,0.7,0.7,1,1c2,2.2,2,4.6,0.8,7.1C390.4,783.7,388.3,784.3,386.6,784.3z"/><path fill="#FDE5BE" d="M295.6,916.4c0,3.2-3.5,7.3-6.6,7.9c-2.4,0.5-5.1-2.3-4.6-4.8c0.6-2.6,1.6-5.2,3.2-7.4 c0.4-0.6,1.1-1.2,1.8-1.6c1-0.6,2.4-0.7,3.1,0.1C294,912.2,295.7,913.9,295.6,916.4z"/><path fill="#FDE5BE" d="M279.4,1029.4c0.2,4.9-1.8,7.8-5.6,9.7c-1.3,0.6-2.4,0.5-3.5-0.4c-2.3-1.9-2.5-2.8-1.5-5.8 c0.8-2.5,2.8-4.2,4.3-6.2c0.4-0.6,1.3-0.8,2.1-1.1c2.4-0.8,4.1,0.4,4.3,2.9C279.4,1029,279.4,1029.4,279.4,1029.4z"/><path fill="#FDE5BE" d="M430.9,823.6c3,0,5.3,2.4,4.8,5.3c-0.4,2.5-1.4,4.9-3.6,6.5s-3.8,1.9-5.2,0.8c-2.5-1.9-3-3.5-1.9-6.2 c0.6-1.5,1.4-2.9,2.1-4.3C427.9,824.1,429.3,823.5,430.9,823.6z"/><path fill="#FDE5BE" d="M325.4,852.9c0,3.4-3.5,7.5-7,8.1c-2.3,0.4-3.5-1.2-4.7-2.7c-1-1.2-0.5-2.4,0.1-3.6 c1.2-2.4,3-4.2,5.2-5.5C322.2,847.3,325.6,849.9,325.4,852.9z"/><path fill="#FDE5BE" d="M443.8,794.9c-1.7,0.1-3-0.8-3.7-2.4c-0.7-1.5-0.8-3.1,0.3-4.5c0.9-1.1,1.9-2.1,3-3 c1.4-1.1,3.5-1,4.9-0.1c1.4,1,2,2.4,1.9,4.1C449.9,792.5,447.3,794.9,443.8,794.9z"/></g></g><g id="baby-head"><path id="head_1_" fill="#FDE6E0" d="M437.3,775.5c13.5-1.8,27.2-7.2,38.8-12.1c8.7-3.7,16.8-9.5,22-17.5 c6.5-9.9,8-22.4,6.5-34.1c-1.7-12.8-7-25.3-15.6-35c-8.7-9.7-20.6-16.5-33.3-19.1c-23.2-4.8-48.8,4.6-63.2,23.4 c-19.3,25.1-17.2,66.5,8.8,86.4C411.9,775.6,424.5,777.2,437.3,775.5z"/><path id="mouth_1_" fill="#635E5B" d="M407.8,742.9c-2.1,0.3-4.6-0.5-6.6-2.7c-1.6-1.8-2-3.9-1.5-6.2c0.3-1.5,1.6-2.4,3.1-2.4 c0.5,0,1,0,1.4,0.2c3.1,0.8,6.3,0.7,9.5,0.3c1.1-0.1,2.2-0.2,3.3-0.1c2.5,0,3.4,0.7,4,2.6c0.6,2.2,0.1,3.8-1.7,5 c-2.7,1.8-5.5,3.2-8.8,3.3C409.8,742.7,409.2,742.8,407.8,742.9z"/><path id="eye_1_" fill="#635E5B" d="M435.1,703.7c-0.1,2.7-1.7,4.7-3.7,4.7c-3.1-0.1-5.3-2.2-5.1-5c0.2-2.5,2.1-4.3,4.3-4.1 C433.5,699.5,435.2,701.2,435.1,703.7z"/><path id="eye" fill="#635E5B" d="M400.1,702.9c0.1-2.5,1.5-4.2,3.7-4.1c2.9,0,4.8,1.8,4.7,4.3c-0.1,2.3-1.8,3.9-4,3.9 C401.7,706.9,400,705.3,400.1,702.9z"/><path id="nose_1_" fill="#F7CABA" d="M413.3,721c-1.9-0.4-3.8-0.8-5.6-1.3c-1.4-0.4-1.6-2-0.6-3c1.7-1.7,3.9-2.2,6.1-2.3 c1.6-0.1,4,2.3,4.3,4c0.1,0.8-0.5,2-1.4,2.3C415.1,720.8,414.2,720.9,413.3,721z"/><path id="ear" fill="#F7CABA" d="M500.5,719.7c-1-3-2.9-5.8-5.7-7.5c-2.7-1.7-5.9-2.4-9-1.9c-1.8,0.3-3.5,0.9-4.9,2.1 c-1.3,1.2-2.1,3-1.9,4.8c0.3,1.8,1.8,3.3,3.6,3.4c1.8,0.1,3.5-1.3,5.3-1.2s3.2,1.5,3.9,3.1c0.8,1.8,0.8,4.2-0.7,5.5 c-2.4,2.1-6.5-0.3-9.3,1.2c-1.6,0.8-2.4,2.9-2,4.6c0.3,1.8,1.7,3.3,3.3,4.1c1.6,0.8,3.5,1,5.3,0.9c4.3-0.4,8.4-2.9,10.7-6.6 C501.5,728.5,501.9,723.8,500.5,719.7z"/></g><g id="baby-hat"><circle cx="494" cy="624.5" r="14.1" fill="#FDE5BE"/><path fill="#E6E6E6" d="M497.5,748.6c8.1-3.2,14-7.9,18.8-15.3c2.5-3.9,4.4-8.2,4.6-12.9c0.1-3.7-0.8-7.4-1.3-11.1 c-1.1-8.1,1.6-15.4,2.5-23.3c0.5-4.4,0.7-8.9,0.4-13.3c-2.9-13.7-8.5-26.5-20.1-34.8c-2.5-1.8-5.4-3-8.2-4.4 c-2.6-1.4-4.8-3.7-7.4-4.9c-2.1-1-4.5-1.4-6.8-2c-4.5-1.2-9.1-1.9-13.7-2.1c-9.2-0.5-18.6,1-27.2,4.3c-9.9,3.9-16.6,8-24.6,13.5 c-5.2,2.1-14.7,4.4-19.1,7.9c-5.9,4.6-9.1,11.9-10.1,19.3c-1,7.4-0.2,14.8,0.7,22.2c3.8-9.3,11.7-16.8,21.2-20.2 c9-3.2,19-2.7,28.3-0.7c11.6,2.5,23,7.4,31.7,15.6c10,9.4,15.9,22.4,21.6,34.9c3.9,8.7,8,18.2,8.3,27.5 C497.1,748.6,497.3,748.6,497.5,748.6z"/><path fill="#FFF" d="M498.1,637.9c2.5,2.6,4.7,5.4,6.4,8.5c3.8,6.7,5.7,14.3,6.3,21.9c0.4,4.9,0.3,9.9-0.3,14.8 c-0.1,0.4-0.1,0.9-0.5,1.2c-0.7,0.7-1.9-0.2-2.5-0.9c-2-2.3-3.9-4.7-5.9-7c-8.8-10.5-17.8-21.3-29.7-28.1 c-8.7-4.9-18.6-7.5-28.6-8.2s-20,0.3-29.8,2.2c2.1-3,5.8-4.4,9.1-5.9c4.9-2.3,9.3-5.5,14.3-7.6c12.7-5.5,27.9-6.2,41.2-2.6 c3.6,1,7.1,2.4,10.4,4.3C492,632.5,495.3,635,498.1,637.9z"/><path fill="#FFF" d="M511.1,707.3c-0.2-0.5-0.2-1-0.1-1.4c-6.6-18.5-18.5-35.1-34.5-46.2c-15.8-10.9-35.6-16.3-54.5-14 c-2.6,0.3-5.2,0.8-7.8,1.4c-6.3,1.5-12.5,3.9-17.1,8.5c-3.3,3.3-5.5,7.7-6.4,12.3c-0.2,1.3-1.2,6.1-0.2,7.1 c1.2,1.2,3.8-1.2,5-2.1c8.9-6.6,20.4-9.4,31.5-8.7s21.9,4.6,31.5,10.3c21.2,12.5,37,33.7,43.1,57.5 C508.2,725.2,514.5,716.6,511.1,707.3z"/></g><g id="baby-right-arm"><path fill="#E6E6E6" d="M481.1,822.5c-2.1,14.9-10.5,25.3-21.4,23.8c-5.4-0.8-11.8-4.1-14.7-9.3c-3-5.4-2.3-12.9-1.3-20.5 c2.1-14.9,12.7-25.7,23.7-24.1C478.2,793.9,483.2,807.6,481.1,822.5z"/><path fill="#F7CABA" d="M489.2,768.4c0.2-0.8,1.1-6.9,1.3-7.7c0.7-5.9,1.3-11.3-2.8-16.1c-1-1.2-2.4-3.1-3.9-3.8 c-1.4-0.6-2.6,0.4-3.9,0.4c-1.1,0-2-0.8-2.9-1.4c-3.1-2-7.2-2.2-10.6-0.9s-6.3,4-8.2,7.1c-2.3,3.7-3.4,8.2-3.1,12.5 c0.2,3.3,1.2,6.5,1.7,9.7c2.1,14.2-4.8,27.5-8.5,40.9c-3,10.7-4.4,26.4,8.3,31.4c4.7,1.8,10.5,1,13.9-2.7c2-2.2,3-5.1,3.9-8 c2.1-6.4,2.5-13,3.6-19.6C480.5,794,484.7,784.2,489.2,768.4z"/><path fill="#FDE6E0" d="M478.4,745.8c1.2-1.4,2.9-2.8,4.8-2.5c1.9,0.4,2.8,2.4,3.1,4c1.1,5.6-0.5,11.4-2.1,17 c-2.7,9.2-5.3,18.3-7.1,27.7c-2.3,11.6-2.2,20.4-6.4,31.5c-1.2,3.1-2.6,6.1-4.8,8.8c-1,1.3-2.3,2.5-3.9,3.1 c-2.7,1.1-6,0.5-8.3-1.2c-5.9-4.4-4.5-14-3.4-19.9c1.4-7.7,3.3-11.9,6.3-19.2c3.8-9,7.8-18.5,5.9-28c-0.9-4.7-3.3-9.2-3.4-14 c0-4.5,2.3-9.2,6.8-11.1C470.4,739.9,476.8,741.7,478.4,745.8C478.3,745.9,478.3,745.9,478.4,745.8z"/></g></g><g id="girl-head"><path fill="#FDE6E0" d="M371.4,595.9c-0.5-9.9-2-20-5.3-29.3c-2.5-7.2-6.2-13.9-11.2-19.6c-9.7-10.9-23.9-17.2-38.4-19.1 c-38.1-4.8-82.4,16.2-99.8,51.1c-7.7,15.4-9.9,33-9.2,50.2c0.3,8.5,1.3,17,4.1,25c0,0.1,0,0.1,0,0.2c-0.6,5.9,1.5,11.9,5.2,16.6 c6.3,7.8,16.3,11.5,24.2,17.7c11.7,9.2,18.3,24.2,31.2,31.9c10.3,6.2,22,10.2,33.9,11.7c10.9,1.4,24.1,2,33.1-5.5 c5.1-4.3,8-10.6,10.5-16.8c3-7.4,5.8-14.9,8.3-22.5c5.3-16.4,8.9-33.3,10.2-50.4c0.1-1.3,0.2-2.6,0.3-3.9c0.9-1.5,1.4-3.4,1.6-5.1 C371.5,617.5,372,606.7,371.4,595.9z M238.3,642.3l-0.1-0.1c0-0.1,0-0.2,0-0.3C238.2,642,238.3,642.1,238.3,642.3z"/><path fill="#635E5B" d="M378.6,605c0-0.4,0-0.8,0-1.2c0.4-15.5-0.9-30.6-5.9-45.4c-4.3-12.8-10.7-25-18.9-35.8 c-16.9-22.4-43-34.2-70.4-37.3c-20.1-2.2-41.6-0.6-60.1,8c-18.8,8.8-34.7,23.8-45,41.8c-16.9,29.8-19.1,66.4-11.2,99.7 c3.7,15.6,9.5,30.7,17.2,44.7c3.1,5.6,6.5,11.1,9.9,16.5c0.7-0.3,1.7,0,1.7,1c0.1,7,1.6,13.6,6.3,19c3.3,3.8,7.4,5.7,11.7,8 c0.3,0.1,0.5,0.3,0.7,0.4c1.5-1.5,2.9-2.8,2.9-2.8s4.3-11.8,8.3-16.8s10.5-14.1,7.7-19.8c-1.5-3.1-6.8-4.8-9.5-7 c-7.4-6.1-13.4-13.4-12.2-22.9s10.9-17.9,20.1-15.4c7,1.9,11.5,9,12.4,16.2c0.1,1,0.2,2.2,1,2.9c2.1,2,4.9-1.7,5.5-4.5 c3.4-16.3,7-32.7,13.8-47.9c6.8-15.2,17.3-29.3,31.7-37.6c14.5-8.3,33.3-10,47.7-1.7c12.7,7.3,20.6,21.3,23.6,35.7 c2.9,14.4,1.5,29.3-0.5,43.8C375.5,634.6,378.1,619.6,378.6,605z"/><path fill="#635E5B" d="M328.2,705.5c-5.1,0.2-9.3-0.9-13.1-2.9c-1.7-0.9-3.2-2.2-4.2-3.8c-1.7-2.6-2.2-5.4-0.4-8.1 c1.7-2.7,4.5-3.4,7.6-3c1.1,0.1,2.2,0.5,3.3,0.7c4.6,1.2,9.2,0.7,13.7-0.7c1.4-0.4,2.7-0.9,4.1-1.2c3.4-0.7,5.2,0.8,5.5,4.1 c0.3,3.6-0.8,6.6-3.5,9c-1.3,1.2-2.6,2.4-4,3.5C334.2,705.3,330.8,705.4,328.2,705.5z"/><path fill="#F7CABA" d="M277.5,639.3c0.1-0.4,0.3-1.2,0.5-1.9c1.6-4.9,4-9.3,6.9-13.5c1.6-2.2,4.1-3.5,6.2-5.1 c2-1.6,4.3-2.7,6.5-3.9c1.5-0.8,2.5-0.4,3.4,0.7c1.4,1.8,1.5,2.9,0.2,4.2c-1.7,1.7-3.2,3.5-4.6,5.4c-0.7,1-1.8,1.8-2.8,2.5 c-2.3,1.4-3.7,3.4-4.8,5.8c-1.2,2.6-2.2,5.3-3.5,7.8c-1.6,3.3-4.7,3.6-7.3,1C277.5,641.6,277.5,640.7,277.5,639.3z"/><path fill="#F7CABA" d="M359,619.3c-0.1,0.2-0.2,1-0.5,1.8c-0.4,1-1.9,1.4-2.9,0.9c-1.3-0.7-2.3-1.7-3-3c-1.5-2.7-3.7-4.3-6.4-5.5 c-1.9-0.9-3.7-1.9-5.5-2.8c-1-0.5-1.9-1.3-2.4-2.2s-0.6-1.9,0-2.7c0.5-0.7,1.4-0.9,2.1-0.7c2.2,0.5,4.3,0.9,6.4,1.6 c4.7,1.5,8,5,11.3,8.5C359.1,616.2,359.1,617.5,359,619.3z"/><path fill="#F7CABA" d="M217.9,657.5c0-3.3,1-5.6,2.2-7.9c0.6-1.2,1.6-2,2.7-2.6c0.7-0.3,1.4-0.9,2.2-0.5s1.6,2.5,1.4,3.4 c-0.1,0.3-0.2,0.7-0.4,0.9c-3.3,2.7-2.3,6.4-2.2,9.8c0,2.2,1.5,3.8,2.9,5.3c1.1,1.3,0.4,2.8-1.3,3.1c-1.8,0.3-3.3-0.1-4.6-1.8 C218.4,664.1,218.5,660.4,217.9,657.5z"/><path fill="#635E5B" d="M314.6,653.8c0,3.3-2.1,5.5-5.2,5.5S304,657,304,654c0-3.4,2.1-5.8,5-5.8 C312.3,648.3,314.6,650.5,314.6,653.8z"/><path fill="#F7CABA" d="M330,672.9c-2.1,0.2-3.8-0.3-5.2-1.3c-0.8-0.6-1.3-1.4-1.1-2.4c0.2-0.8,0.7-1.5,1.5-1.7 c3.1-0.7,6.1-1.4,9.2-2c0.8-0.2,1.5,0.3,2,1c0.7,1,0.7,2.6-0.1,3.6c-1.2,1.6-2.8,2.5-4.8,2.9C331,673,330.3,672.9,330,672.9z"/><path fill="#635E5B" d="M348.5,645.1c-0.1,3.2-2.1,5.1-4.8,4.9c-1.9-0.2-3.2-1.4-3.5-3.3c-0.4-2.4,1.4-5.2,3.7-6 c1.2-0.4,2.2,0,3.1,0.7C348.2,642.5,348.6,643.8,348.5,645.1z"/></g><g id="man-head"><path id="head" fill="#FDE6E0" d="M789.8,261.7c-0.1-0.6-0.3-1.2-0.5-1.8c1-7.4,0.6-14.8-2.4-22c-4.4-10.7-12.9-19.3-20.7-27.5 c-8.7-9.1-18-16.4-29.9-21c-12.4-4.8-25.6-7.9-38.7-10.5c-53.1-10.4-108.2-7.2-160.8,4.3c-13.9,3.1-28.7,7.7-40.5,15.9 c-11.2,18.3-14.2,40.6-11.2,62.5c1.1,3.9,2,6.6,2.1,7.1c18.8,75.6,49.9,160.5,119.5,203.8c0.2,0.1,0.4,0.3,0.7,0.4 c13.1,8.1,28.4,13.4,43.7,12.1c21.5-1.8,40-16,54.7-31.8c15.1-16.1,27.7-34.5,37.4-54.4c2.1-4.3,4.6-9,9.1-10.3 c2.4,5.5,3.4,11.6,2.9,17.6c11.5-8.3,22-18.9,26.3-32.4c2.7-8.6,2.7-17.8,2.5-26.9c3.6-13.4,6-27,7.1-40.8 c0.4-4.7,0.7-9.4,0.9-14.2C794.6,281.9,793,271.4,789.8,261.7z"/><path id="mouth" fill="#635E5B" d="M617.5,452c-2.7,0.1-5.5,0-7.7-1.4c-5.1-3.3-1.8-7.6,2.5-9.3c5.5-2.1,8.7-4.4,12.9-8.6 c2.8-2.9,9.1-8.4,10.7-1c0.5,2.1-0.1,4.2-0.7,6.3c-2.7,8.8-8.1,13.5-17.5,14C617.7,452,617.6,452,617.5,452z"/><path id="nose" fill="#F7CABA" d="M595.8,411.2c6.5,0.2,13.1,2.6,8.5,7.5c-2.2,2.4-5.7,3.2-8.9,2.6c-2.4-0.4-13-4.5-8.7-8.3 C588.2,411.7,592,411.1,595.8,411.2z"/><path id="eye-right" fill="#635E5B" d="M617.8,361.3c0,0.7-0.1,1.3-0.2,1.9c-0.3,1.8-0.9,3.6-2.3,4.8c-1.8,1.6-4.6,1.7-6.7,0.7 c-2.9-1.3-5-4.3-5.1-7.5c-0.2-6.2,7.9-12,12.5-6.1C617.3,356.8,617.8,359.1,617.8,361.3z"/><path id="eye-left" fill="#635E5B" d="M541.8,363.8c0-2.3,0.6-4.5,1.7-6.1c0.5-0.7,1.1-1.3,1.8-1.7c1.2-0.6,2.6-0.5,3.8,0 c3.4,1.3,5.3,5.2,4.8,8.8c-0.3,2.4-1.6,4.7-3.7,5.9C544.5,374,541.8,368.9,541.8,363.8z"/><path id="eyebrow-right" fill="#F7CABA" d="M629.8,340.8c-1,0-2.1-0.2-3-0.8c-2-1.3-2.9-3.8-4.2-5.9c-3-5-8.1-8-13.4-10.2 c-3.4-1.4-11.3-2.6-9.7-8.3c0.6-2,2.4-3.4,4.4-3.9s4.1-0.3,6.1,0.1c10.1,2,19.4,8.6,23.9,17.9c1.2,2.4,2,5.4,0.9,7.8 C633.9,339.6,631.8,340.7,629.8,340.8z"/><path id="eyebrow-left" fill="#F7CABA" d="M523.1,338.2c-2-0.2-3.8-2-4.3-4c-0.7-2.4,0-5,0.9-7.3c2.9-7,18.3-25.2,27.4-17.5 c0.5,0.4,0.9,0.9,1,1.5c0.3,1.3-0.7,2.4-1.6,3.3c-3.4,3.1-7.6,5.3-11.1,8.4c-4.1,3.5-5,7.2-7.2,11.9c-0.8,1.7-2.1,3.2-3.9,3.6 C523.9,338.2,523.5,338.2,523.1,338.2z"/><path id="ear-right" fill="#F7CABA" d="M766.1,276.1c0.2,3.7-0.5,7.4-2.7,10.3c-4.9,6.5-17,4.5-13.3-5.1c0.9-2.5,2.6-4.6,3.8-6.9 s1.9-5.2,0.8-7.5c-1.1-2.4-4.6-3.6-6.5-1.7c-0.8,0.8-1.2,2.1-2.1,2.7c-1.4,1-3.5,0.1-4.3-1.4c-0.7-1.5-0.4-3.4,0.5-4.9 c2.8-5,10.1-5.9,15-3s7.5,8.6,8.5,14.2C765.9,273.9,766,275,766.1,276.1z"/><path id="hair" fill="#635E5B" d="M490.4,282.6c-14.4-3.2-26.8-13-34.9-25.3s-12.3-26.9-13.8-41.5c-3.5-33.4,7.1-67.7,27.7-94.1 c21-27,48-44.5,79.2-57.2c17.6-7.1,35.9-12.4,54.6-15.9c37.1-6.9,75.4-6.8,112.5-0.4c12.7,2.2,27.1,6.6,31.8,18.5 c20.5-4.8,41.3,8.2,54.7,24.4c27.5,32.9,34.7,79.1,29,121.6s-22.9,82.5-40,121.8c-13.4-1-21.8-14.4-27.9-26.3 c-0.7-1.3-1.4-2.8-1.2-4.2c0.2-2,1.9-3.5,3.3-4.9c10.1-9.5,15.4-24.8,10.3-37.7c-5.1-12.9-22-20.5-34-13.5 c-10.2,6-13.4,19.3-12.9,31.1c0.5,11.8,3.9,23.5,2.8,35.3c-1.1,11.8-8.7,24.3-20.4,25.6c-10.9,1.2-20.2-7.5-27.3-15.8 c-12.8-15-24.1-31.2-33.8-48.4c-1-1.8-2.2-3.8-4.2-4.6c-2.2-0.8-4.6,0.1-6.7,0.9c-46.2,18.1-100.3,14.8-144-8.7 c-2.9-1.6-7.3-2.9-9,0c-0.8,1.5-0.4,3.3,0.1,4.9C487.7,272.8,489.1,277.7,490.4,282.6z"/></g><g id="man-arm-right"><path id="sleeve-shadow_1_" fill="#A5C2DE" d="M794.2,736.5c-4.9-5.8-11.7-10-17.3-5.5c-2.9,2.3-4.2,6.1-5.3,9.7 c-4.5,14.5-9,29.1-13.5,43.6c-1.5,5-3.2,10.2-7,13.8c-4.3,4.1-10.5,5.5-16.3,6.7c-52.4,11-104.1,25.5-154.6,43.4 c-19.9,7.1-39.8,14.7-60.7,18.3c-6.3,1.1-12.8,1.8-18.6,4.4c-5.8,2.6-11,7.7-11.9,14c-0.8,5.8,2.2,11.6,6.6,15.4 c4.4,3.8,10.1,5.8,15.7,7.1c24.4,5.6,49.7-0.9,73.7-7.8c57.9-16.7,115.1-36.3,170.9-59c10.6-4.3,21-10.2,28.6-18.9 c8.6-9.8,10.4-21.3,13.1-33.5C801.3,771.9,805.9,750.2,794.2,736.5z M789.7,745.4c-0.2,0.5-0.4,1-0.6,1.5c0.2-0.6,0.3-1.3,0.5-1.9 c0.1,0.1,0.1,0.2,0.2,0.3C789.7,745.3,789.7,745.3,789.7,745.4z"/><path id="sleeve" fill="#B7D9F2" d="M790,628.8c1.4-0.8,2.8-1.4,4.4-2c8.3-3,18.1,0.4,20.3,9.5c2.3,9.4-2.9,19.9-7,28.1 c-5,9.8-11.6,18.7-16.5,28.5c-7.6,15.2-13.9,35-5,50.7c6.6-5,10.6-13.1,19.4-14.5c4.6-0.7,9.3-0.3,13.9-0.8 c5.1-0.5,10.1-1.6,15.3-1.8c9.7-0.5,18.8,1.2,28.2,3.3c8.8,1.9,16.8,4.9,24.3,10c6.6,4.4,12.5,9.8,18.1,15.4 c4.8,4.8,12.4,12,19.9,9.3c8.3-3,11.9-16.3,13.7-24c2-9,2.6-18.2,3.6-27.3c2.1-19.1,7.5-37.7,10.2-56.7 c2.8-19.3,2.8-38.7,1.6-58.2c-2.1-34.5-10.7-68-31.6-96.2c-10.6-14.3-23.1-28.8-38.8-37.5c-9-5.1-17.7-7.1-28-7.1 c-5.3,0-10.7,0.2-15.9-0.7c-6.6,3.1-12.8,7.4-18.5,12.1c-31.8,26.6-52,66.4-54.6,107.8c-0.8,12.5,0.1,25.6,6.1,36.5 C776.8,620.1,782.9,625.8,790,628.8z"/><path id="hand-shadow" fill="#E6E6E6" d="M360.3,925.2c1.5,2.8,3.1,5.5,4.8,8c6.9,10,16.1,18.4,26.9,24.1 c5.9,3.1,12.6,5.5,19.1,4.1c2.6-0.6,5.3-1.9,6.7-4.2c1.4-2.3,1.2-5.7-1-7.3c-2.2-1.5-5.1-0.8-7.7-1c-4.3-0.2-8.2-2.7-11.8-5.1 c-14.8-9.8-30.1-20.7-37.8-36.7c-0.6-1.3-1.3-2.8-2.7-3.4c-6-2.7-0.8,11.1-0.2,12.7C357.6,919.6,358.9,922.4,360.3,925.2z"/><path id="arm" fill="#F7CABA" d="M910.1,778.4c-0.1-1.7-0.3-3.3-0.8-4.9c-1-3.9-3-7.6-5.2-11c-8.1-12.3-20.3-21.7-34.2-26.5 c-18.8-6.4-39.4-4.2-59.1-1.7c-5.1,0.7-10.3,1.4-14.6,4.1c-5.3,3.2-8.5,8.9-11.4,14.4c-7.7,14.8-14.4,30.1-19.9,45.8 c-1.5,4.4-3.2,9.1-7,11.8c-2.7,1.9-6.1,2.4-9.4,2.9c-63.7,10-126.1,28.8-184.7,55.7c-17.4,8-36.7,16.9-54.8,11 c-14.1-4.6-23.9-17-36-25.4c-10.6-7.4-23.3-11.8-36.2-12.6c-0.7,0-1.4,0.3-2,0.6c-1,0.4-1.9,1-2.4,2.1c-0.8,1.6-1.1,3.1-1.1,4.5 c-0.5,1.7-0.3,3.5,0.2,5.4c0.1,0.5,0.3,1,0.5,1.5c1,3.5,2.9,6.7,5.1,9.8c-10,1-20,2-30,3c-8.5,0.8-16.9,2.3-25.3,3.3 c-10.6,1.3-24.4,0.4-29.1,12.2c-3.5,9-0.5,20.2,3.4,28.6c6.3,13.6,17.7,24.8,31,31.7c21.1,10.9,45.9,12.1,69.5,9.6 s46.7-8.4,70.3-10.9c33.4-3.6,67-0.4,100.6-0.4c52.5,0.1,104.8-7.5,156.4-17.6c22.4-4.4,44.7-9.2,66.7-15.5 c5.8-1.6,11.8-3.5,16.1-7.7c3.6-3.5,5.7-8.3,7.6-12.9c13.4-32.2,24.8-65.3,33.9-99C909.3,786.4,910.3,782.4,910.1,778.4z"/><path id="arm-highlight" fill="#FDE7E1" d="M892.9,770.4c-1.1-5.1-4.3-9.5-8-13.1c-20.5-20.5-53.2-21.4-81.9-17.9 c-3.6,0.4-7.4,1-10.5,2.9c-3.7,2.3-5.9,6.2-7.9,10c-7.9,14.9-14.7,30.4-20,46.4c-0.9,2.8-1.9,5.7-4.1,7.7 c-2.3,2.1-5.6,2.6-8.7,3.1c-33.9,5.5-67.2,14-100.1,23.7c-16.1,4.8-31.4,9.3-46.9,15.8c-16.1,6.7-32.1,13.4-48.2,20.1 c-16.8,7-36.3,14-52.5,5.7c-7-3.6-12.4-9.7-18.4-14.9c-12-10.6-26.9-17.8-42.7-20.8c-4.3-0.8-10.8,0.7-9.9,5 c4.9,2.7,9.4,6.1,13.3,10c1.6,1.7,3.2,4.2,1.9,6.1c-0.9,1.3-2.6,1.5-4.1,1.7c-19.5,2-39.1,4-58.6,5.9c-3.1-0.6-7,0.3-9.9,0.8 c-3,0.1-6.1,0.5-8.8,1.7c-0.6,0.1-1.1,0.2-1.6,0.3c-3.2,2-4.8,4.7-6,8.1c-2.1,4.8-3.3,9-2,14.4c0.9,3.8,2.3,7.5,4,11 c6.7,18.1,24,31.4,42.7,36.9c19.9,5.8,41.2,4.1,61.6,0.1s40.2-10.3,60.7-13.5c31.9-4.9,64.3-2.3,96.5-2.4 C693,925,763.1,911.3,828.2,885c8.4-3.4,16.9-7.1,23.5-13.4c6.1-5.9,10.1-13.5,13.7-21.2c9.7-20.2,18.1-41,25.1-62.3 C892.4,782.4,894.2,776.3,892.9,770.4z"/><path id="sleeve-shadow" fill="#A5C2DE" d="M965.7,591.9c-1-13-3.2-25.9-7.1-38.4C943,503,901,463.1,852.3,442.5 c-3.5-1.5-8.2-2.6-10.6,0.4c-6,7.6,10.4,14.7,14.8,16.9c3.5,1.8,6.9,3.6,10.4,5.5c6.8,3.7,13.5,7.8,19.9,12.2 c12.5,8.7,24,19.2,32.1,32.2c0.8,1.3,1.6,2.6,2.3,4c12.5,22.7,13.7,49.7,13,75.6c-0.9,29.6-4,59.1-9,88.3 c-2.8,16-6.1,31.9-10,47.6c-0.8,3.4-2.1,7.2-5.2,8.7c-3,1.4-6.5,0.2-9.7-1c-36-13.5-76.2-15.4-113.4-5.5 c8-24.7,18.1-48.7,30.2-71.6c1.4-2.6,2.6-6.2,0.4-8.1c-1.4-1.2-3.5-1.1-5.3-0.5c-7.2,2.4-11.2,10-14.1,17 c-8.9,21.1-15.8,43.1-20.4,65.6c-0.9,4.2-1.7,8.6-0.5,12.8s4.9,7.9,9.2,7.5c2.8-10.3,15.2-14.1,25.7-15.8 c22.8-3.6,47.3-4.5,68,5.9s35.3,35.4,27.5,57.2c10.6,2.8,21.7-4.2,27.4-13.5s7.2-20.5,9-31.3c5.4-33.2,14.1-65.8,19-99.1 C965.8,633.2,967.3,612.3,965.7,591.9z"/></g></g></svg>