<svg xmlns="http://www.w3.org/2000/svg" xmlns:xlink="http://www.w3.org/1999/xlink" id="bundle_x5F_illustration-1_x5F_v1_xA0_Image_1_" x="0" y="0" enable-background="new 0 0 1200 1200" version="1.1" viewBox="0 0 1200 1200" xml:space="preserve"><g id="scene"><circle id="background-sky" cx="608.1" cy="597.8" r="527.5" fill="#C8F0FF"/><g id="sun"><path fill="#FFE1A0" d="M765.4,366.1c-5.8,0.6-9.6-3.2-9-8.7c0.4-3.4,1.5-6.5,2.9-9.6c5.5-11.4,11-22.7,16.5-34.1 c1.9-3.9,3.2-8,5.4-11.7c0.6-1,1-2,1.7-2.9c2.1-2.8,4.4-3.6,7.5-2.1c2.2,1,3.9,2.5,4.8,5c1.3,3.5,1.6,6.6,0.2,10.2 c-2.4,6.4-4.4,13-6.7,19.5c-2.7,7.3-6.1,14.4-10,21.2c-2.4,4.2-5.4,7.9-9,11.2C768.4,365.3,767,366.1,765.4,366.1z"/><path fill="#FFE1A0" d="M873.9,451c4.1-0.3,8.1-1.2,12.3-0.5c2.3,0.4,4.3,1,6.3,2.1c4.5,2.6,4.9,7.3,0.8,10.5 c-1.6,1.3-3.6,2.2-5.6,2.7c-5.8,1.6-11.7,3-17.5,4.8c-3,0.9-6.2,1.2-9.3,2.1c-4.1,1.2-8.4,1.6-12.6,2.7c-3.2,0.9-6.5,1.5-9.8,1.9 c-8,0.8-11.7-2.8-10.4-11.5c0.4-2.8,1.9-4.3,4.3-5c3.6-1.1,7.3-2.2,11-3.2c5.5-1.6,11.2-2.6,16.7-4 C864.8,452.3,869.3,451.7,873.9,451z"/><path fill="#FFE1A0" d="M869.1,363.9c0.3,1.6-0.3,3-1.5,4.2c-6.8,7-13.9,13.6-22.2,18.8c-1.7,1.1-3.4,2.4-5,3.7 c-5.8,5-12.1,9.4-18.2,13.9c-1.2,0.8-2.3,1.7-3.6,2.4c-2,1.1-4,0.9-5.9-0.2c-2.4-1.4-3.3-3.9-2.4-6.6c1-3,3-5.3,5.2-7.3 c4.5-4.2,9.2-8.3,14.2-12.1c4.4-3.4,8.5-7.3,12.6-11c4.4-3.9,9.1-7.6,13.9-10.9c1.5-1,3-1.7,4.8-1.9 C864.7,356.8,868.7,360,869.1,363.9z"/><path fill="#FFE1A0" d="M821.6,429.9c-0.1-1.1-0.2-2.1-0.2-3c0-3.2,1.2-5.7,4.1-7.6c3.5-2.3,7.3-4,11.2-5.2 c4.9-1.5,9.6-3.2,14.2-5.5c1.7-0.9,3.6-1.2,5.3-2.1c2.4-1.2,4.3-0.2,6.3,0.8c0.4,0.2,0.7,0.6,1,0.9c1.8,2.1,2.3,7.7,0.8,10 c-1.3,2-2.8,3.9-5,5.1c-8.1,4.4-16.4,8.4-25,11.7c-2.3,0.9-4.6,1.2-7,0.8C823.1,435.2,822,434.1,821.6,429.9z"/><path fill="#FFE1A0" d="M724.9,345.9c-0.5-3.7-0.2-6.2,1-8.6c2.8-5.9,5.7-11.8,8.4-17.7c0.8-1.7,1.9-2.4,3.7-2.6 c2.3-0.2,4.4-0.2,6.6,0.6c4,1.6,5.8,4,6,8.3c0,0.5,0.1,1,0,1.4c-1.8,6.8-2.8,13.8-6.2,20.1c-0.5,1-1.2,1.9-1.8,2.8 c-4.3,6.5-14,4-17-2.2C725,347.1,724.9,345.9,724.9,345.9z"/><path fill="#FFE1A0" d="M795.5,376.1c-3.1,0.4-4.7-0.6-5.5-3.8c-0.7-2.5-0.9-5,0.7-7.4c3-4.7,5.7-9.6,9.3-13.9 c2.2-2.7,4.7-5.2,7.1-7.8c1.2-1.3,2.5-2.5,3.6-3.8c1.5-1.8,3.3-3,5.4-3.8c2.7-1.1,5-0.4,6.6,2c1.4,2.1,1.6,4.4,0.8,6.9 c-1.1,3.4-3.1,6.3-5.1,9.2c-4.6,6.5-9.8,12.6-15.4,18.3C800.9,374.2,798.6,375.9,795.5,376.1z"/><path fill="#FFE1A0" d="M853.4,512.3c-3.1-0.1-7.6,0.1-12,0.6c-2.6,0.2-4.7-0.9-6.5-2.6c-2.4-2.3-2.4-7.3,0-9.5 c0.9-0.9,1.9-1.7,2.9-2.5c1.5-1.3,3.4-2,5.3-1.6c2.3,0.4,4.5,0,6.7,0c3.8-0.2,7.6-0.3,11.5-0.4c0.6,0,1.3,0.1,1.9,0.3 c2.9,0.9,5.4,2.5,6,5.6c0.6,2.9-2,6.9-5.2,7.8C860.9,510.8,858,512,853.4,512.3z"/><circle cx="682.4" cy="496.4" r="128.7" fill="#FFE1A0"/></g><g id="hills"><ellipse cx="963.7" cy="654.9" fill="#B5D17A" rx="164.3" ry="124.6" transform="matrix(0.9973 -7.384024e-02 7.384024e-02 0.9973 -45.7283 72.95)"/><ellipse cx="762.4" cy="646.3" fill="#D9ED96" rx="127.5" ry="226.7" transform="matrix(0.3599 -0.933 0.933 0.3599 -115.0179 1125.0332)"/><ellipse cx="903.7" cy="757.9" fill="#B5D17A" rx="164.3" ry="124.6" transform="matrix(0.9973 -7.384024e-02 7.384024e-02 0.9973 -53.4979 68.8006)"/></g></g><g id="interior"><g id="wall"><path id="shadow_1_" fill="#F9D394" d="M273.1,190.3L273.1,190.3c-21.2,17.4-40.9,36.4-59.1,56.9c-83,93.2-133.4,216-133.4,350.6 c0,168.7,79.2,318.9,202.4,415.5c0.4-2.8,0.8-5.5,1.1-8.2h75.1V190.3H273.1z"/><path id="highlight" fill="#FDE4BB" d="M1135.6,597.8c0-152.7-64.9-290.2-168.5-386.5c0,15.4,0.1,30.9,0.1,46.3 c0.3,106.7,1.3,213.4,3.9,320.1c2.6,105.4,7.2,211.1,3.8,316.5c0,1-506.7-68.8-506.7-68.8l-8.9-624.9h-1.5 c0.6-36.3,1.1-72.6,1.5-109c-69,20.2-132.2,54.2-186.3,98.8v9.6c0.1,0.2,0.2,0.4,0.3,0.6H273v695.9l1.1,3 c-0.2,5.8-0.6,11.6-1.1,17.4v88.5c91.1,75,207.8,120,335,120c69.1,0,135.1-13.3,195.6-37.5l0,0c0.2-0.1,0.4-0.1,0.5-0.2 c2.6-1,5.1-2.1,7.6-3.1c0.6-0.3,1.2-0.5,1.8-0.8c2.5-1.1,5-2.1,7.5-3.3c0.2-0.1,0.5-0.2,0.7-0.3c2.8-1.2,5.6-2.5,8.3-3.8 c0.4-0.2,0.9-0.4,1.3-0.6c1.4-0.6,2.7-1.3,4.1-1.9l0,0C1013,988.9,1135.6,807.6,1135.6,597.8z"/></g><g id="window"><path id="highlight_1_" fill="#E2A387" d="M755,810.9c0,0,131,13.5,188.6,19.6c1.2,12.3,4.4,46.2,4.4,46.2L732,854L755,810.9z"/><g id="shadow_2_"><path fill="#D39A7F" d="M934.7,866.8C879.3,859,737.3,844,737.3,844l4.6,43c0,0,86.1,10,106.4,12.7 c40.5,5.4,81.2,10.2,121.8,14.4c9.5,1,20.9,1.1,26.3-6.7c3.1-4.5,3.2-10.3,3.2-15.7c0-199.5-0.1-443-0.1-647.2 c-19.2-21.2-40-40.9-62.4-58.7c-0.4,110-0.8,237.3-1.2,344.6C935.6,642.4,935.1,754.6,934.7,866.8z"/></g></g></g><g id="shirt"><path fill="#FFE2D8" d="M718.3,918.4c-0.1-1.3-0.2-2.7-0.3-4c-2.7-29-7-57.9-12.9-86.4c-8.7,0.8-21-1.8-20.2-10.5 c0.6-6.3,8.1-8.9,12.6-13.3c7.6-7.3,6.7-19.4,5.2-29.8C687.4,668,662.6,563,628.9,461c-3-9-10.3-34.7-19.4-37 c-5.1-1.3-56.3,6.5-70.2,9.8C457,454,450.9,563.7,444.1,599c-23.3,122.4-19.6,248.1-13.7,372.5c0.2,4.2,0.6,8.8,3.6,11.8 c2.3,2.2,5.7,2.9,8.9,3.5c43.6,7.8,88,12.5,132.1,8.6s88-16.7,124.6-41.4c6.7-4.5,13.3-9.7,16.5-17.1 C718.7,931.1,718.8,924.7,718.3,918.4z"/><path fill="#FEC0A9" d="M751.6,886.5C725.2,745.4,697,603.9,647.4,469.3c-2.3-1.4-4.9-2.2-7.8-1.8c-2,0.3-4,1.1-5.5,2.4 c-0.4,1.7-1,3.2-2,4.5c8,29.2,9.5,64.1,14.4,90.2c4.5,23.6,8.9,47.2,11.5,71.1c1.4,12.8,1.9,26.9-5.7,37.3 c-8.4,11.4-23.8,14.8-34.9,23.6c-1.9,1.5-3.8,3.7-3.1,6c0.8,2.7,4.5,3.1,7.3,2.8c14.3-1.4,25.7-7,38.6-12.6 c-1.5,6.3,0.4,12.5,0.8,18.8c0.5,7.4,0.9,14.8,1.3,22.2c0.8,14.8,1.6,29.5,2.3,44.3c1.4,29.6,2.4,59.1,3.2,88.7 c0.9,34.6,1.4,69.2,1.4,103.9c24.2-11.5,46.8-26.4,67-44c7.4-6.4,14.8-14,16.5-23.6c0-0.2,0.1-0.4,0.1-0.6 C753.6,897.2,752.6,891.8,751.6,886.5z"/></g><path id="neck-highlight" fill="#E2A387" d="M615.3,448.3c-1.2-7.4-9.4-16.2-14.3-21.7c-16-18-42.3-26.2-65.9-24.8	c-12.5,0.8-25.1,4.3-35.3,11.5c-24,17-34.7,53.5-30.7,81.7c2.5,17.5,13.1,31.2,28.8,39c15.6,7.7,33.2,11.7,50.7,10.1	c22.9-2.1,45.2-14.4,57.2-34c8-13,11.2-28.5,11.1-43.8C616.8,460.2,616.2,454.2,615.3,448.3z"/><g id="hand-left"><path fill="#FEC0A9" d="M696.1,891.3c-3.8-17.3-32.7-19.8-46.3-18.8c-9.9,0.7-19.6,3.8-29.4,5.2c-11.1,1.6-22.3,2.5-33.5,2.8 c-29.1,0.8-58.6-2.4-86.6-10.5c-1.6-0.5-3.2-0.9-4.8-1.4c0,7.4-0.2,14.9-0.5,22.3c-0.1,2.3-0.5,4.8-0.9,7.3l-1.1-0.1l1.1,21.2 c0,0,35.9,11.7,39.1,13c6.4,2.5,12.9,4.5,19.6,6.2c13.3,3.2,26.8,4.9,40.4,5.9c13,0.9,26.1,1.2,39-0.6c12.9-1.9,25.6-6,36.4-13.3 c6.8-4.6,12.6-11.5,17.5-17.9C689.1,908.7,697.5,897.5,696.1,891.3z"/><path fill="#D39A7F" d="M688.7,883.1c-0.1-11.4-9.6-21-20.4-25c-10.7-3.9-22.5-3.4-33.9-2.8c6.1-5.2,12.8-12.3,10.2-20.2 c-0.9-2.7-2.9-5-5.3-6.5c-5-3.2-11-3.3-16.7-3c-19.1,1-37.7,7.1-54.9,15.3c-6.1,2.9-12.3,5.4-18.7,7.4 c-10.2,3.2-60.2-11.3-65.2-15.8c1.3,16.8-0.1,76.4-0.1,76.4s53.1,15.1,56,16.2c5.8,2.3,11.8,4.1,17.8,5.6c12.1,3,24.5,4.5,36.8,5.4 c11.8,0.9,23.8,1.1,35.5-0.6c11.7-1.7,23.3-5.4,33.1-12.1c6.5-4.4,22.3-21.6,23.7-30.6l0,0C688,889.7,688.8,886.4,688.7,883.1z"/><path fill="#E2A387" d="M482.8,832.3c5,4.5,56,19,66.2,15.9c6.4-2,12.6-4.5,18.7-7.4c17.3-8.2,35.8-14.3,54.9-15.3 c5.7-0.3,11.7-0.1,16.7,3c2.4,1.5,4.4,3.8,5.3,6.5c2.7,7.9-4.1,15-10.2,20.2c11.4-0.6,23.2-1.1,33.9,2.8 c10.7,3.9,20.2,13.6,20.4,25c0.1,4.7-1.5,9.4-3.9,13.5c-4.7,8.2-12.5,14.3-21,18.3s-17.8,6.2-27,8c-27.6,5.3-56.8,7.5-84.2-0.2 c-6.3-1.8-61.2-15.6-66.7-19.3c-6.3-4.2-2.8-13.4-2.4-20.7C484.3,866,484.1,849.1,482.8,832.3z"/></g><g id="gown-right-arm"><path fill="#DC7575" d="M828.7,614.8c-0.2-0.5-0.5-0.9-0.8-1.2h0.1c-6.9-5-14.6-8.8-22.7-11.3c-2.1,0.2-4.2,0.4-6.3,0.7 c-10,1.4-20.6,2-29.7,6.8c-1.1,0.6-2-0.1-2.3-1c-0.5-0.4-0.9-1.1-1.2-2c-1.2-4,0.7-9.6,0.6-13.7c-0.2-5.7-1.3-11.3-2.6-16.8 c-0.2-0.9,0.3-1.6,0.9-1.9c-5.6-38.6-15.2-76.7-33.5-110.9c-22.3-41.7-58.9-77.4-104.4-90.4c1.1,0.3,6.9,19.9,8.2,22.4 c1,2,2.8,4.8,4.8,7.7c0.6,9.2,2.8,23.6,3.5,26c21.6,72,36.9,106.7,48.4,163.2c6.5,31.8,25.7,62,32.2,93.8 c4.4,21.7,13.7,52.9,19.2,77.1c16.4-13.6,51.8-37.3,68.2-50.9c1.3-1.1,13-4.6,12.4-5.5c-0.2-0.4-0.4-0.7-0.5-1.1 c4-2.8,3.7-10.6,4.3-14.8c1.3-8.6,2.4-17.3,3.3-26C832.1,649.2,834.2,630.3,828.7,614.8z"/><path fill="#F28983" d="M826.8,605.3c-0.4-0.6-1-1-1.6-1.1c-1.1-1.2-2.4-2.1-3.9-2.9c-4.5-2.3-9.8-2.5-14.8-2.3 c-13.2,0.4-26.3,2.8-38.8,7.1c-3.6-48.2-12.6-96.8-34.9-139.6c-22.4-42.8-59.4-79.5-105.7-93.5c3.1,10.5,7.3,20.6,12.5,30.2 c0.3-2.5,0.6-5,1-7.5c28.4,22.2,49.5,52.7,64.6,85.5s24.4,67.8,32.5,103c1.2,5.2,2.4,10.6,5.6,14.9c3.2,4.3,8.8,7.3,13.9,5.6 c-3.8,2.2-7.6,4.6-9.9,8.3c-2.3,3.7-2.4,9.2,1,11.9c4,3.2,9.9,1.1,14.3-1.6s9.2-6,14.1-4.7c4.3,1.2,7,5.7,7.7,10.1 c0.7,4.4-0.2,8.9-0.6,13.4c-0.8,9.4,0.7,19,4.3,27.7c1.6,3.8,3.1,7.1,6.3,9.7c1.1,0.9,2.9,2.3,4.7,3c1.4,1.3,3.3,1.7,6.4,1 c12-2.8,18.4-16.6,21.2-27.4c1.2-4.8,2-9.6,2.3-14.5C831.2,630.1,833.4,615.1,826.8,605.3z"/></g><g id="pants"><path fill="#A26FC9" d="M706.4,932.6c-60.5,33.5-131.7,42.4-200.9,42.3c0.4,0-2.9,25.9-3.3,28.2c-1.6,9.6-3.6,19.1-5.7,28.6 c-4.1,18.9-8.6,37.8-10.7,57.1c-0.5,4.8-0.9,9.6-1.1,14.4c-0.1,3.4-0.7,6.5,2.9,7.9c4.3,1.7,9.6,2.2,14.2,3.1 c4.9,1,9.7,1.9,14.6,2.8c19.6,3.4,39.3,5.7,59.1,6.9c39.6,2.4,79.5,0.5,118.8-5.8c9.6-1.5,19.2-3.4,28.7-5.4 C717.5,1052.7,711.9,992.7,706.4,932.6z"/><path fill="#B98CDD" d="M693.8,1104.3c-0.4-21.7-2.8-43.3-4.7-64.9c-1.2-13.4-6.2-48.5-13.7-59.7c-1.3-2-2.9-3.9-5.1-4.7 c-2.7-1-5.6-0.1-8.3,0.8c-51.8,16.3-102.3,21.7-156.6,19.4c-4.2,22.8-7.8,68.7-10.4,91.7c-0.6,5.8-1.2,11.5-1.8,17.3 c-0.1,1.6-1.7,7-0.8,8.3c0,0,6.5,1.4,8.1,1.7c11.2,2.3,22.6,4.3,33.9,5.9c6.1,0.9,74.1,7.3,74.2,5.1c0.4-20.6,2.2-41.2,5.5-61.6 c0.7-4.1,2.1-9.1,6.2-10c2.8-0.7,5.8,1.1,7.4,3.5c1.6,2.4,2.2,5.3,2.7,8.2c3.6,19.5,5.8,39.3,8,59c18.6-0.6,37.1-2.6,55.3-6 C693.8,1113.7,693.9,1109,693.8,1104.3z"/></g><g id="gown-main"><path id="body" fill="#F28983" d="M801.2,1056c-10.2-61.5-20.4-123-30.6-184.5c-7.1-42.5-14.1-85.1-21.2-127.6 c-0.5-3.3-1.1-6.7-0.6-10c-2.5-11.9-5.2-23.7-8.2-35.5c-7.4-29-15-57.9-21.5-87.1c-13.7-61.4-26.9-125.1-56.5-181.5 c-4.8-9.1-11.8-17.1-17.7-25.5c-6.1-8.8-0.1-16.9-4.4-26.7c-20.6-8.9-42.7-14.8-64.9-17.9c-39.5-5.5-79.6-3.1-119.3,1.7 c-6.6,0.8-13.2,1.7-19.8,2.6c-9.9,1.4-27.5,0.9-36.7,4.8c-13.5,5.6-13.2,21.9-7.3,28.3c-1.3,0.4-2.5,1.4-4.4,1.9 c-1.5,0.4-3,0.8-4.6,1.3c-33,10-67.3,33.6-91.3,62.5c-6.7,8-12.6,16.6-17.6,25.8c-4.6,8.3-8.4,16.9-11.4,25.9 c-9,27.1-17.5,54.6-23.9,82.6c-3.4,14.7-6.1,29.4-8.1,44.3c-5.6,42.2-8.5,84.7-9.1,127.2c-0.6,40.6-1.9,83.2,9.5,122.5 c4.1,14.1,11.6,27.6,22.9,36.7c2.3,1.8,4.7,3.5,7.2,4.9c10.1,5.6,23.3,9.1,27,20.1c0.6,1.7,0.8,3.6,0.9,5.4 c0.1,2.5-0.1,5.1-0.5,7.6c-0.8,6-3.2,25.8-6.2,47.6c2.5,2,5,3.9,7.5,5.8c24.7,18.6,51,35.1,78.8,49.3c17.9,9.1,36.4,17.2,55.4,24.3 c17.2,6.4,34.9,11.9,52.9,16.5c0.1,0,0.2,0.1,0.3,0.1c4.8,1.2,9.6,2.4,14.4,3.4c3.2-31.6,6.7-64.1,12.8-94.7 c0.1-0.4,0.2-0.8,0.2-1.2l0,0c2.4-11.9,9.5-18.2,11.6-30.1c0.1-0.5,0.2-0.9,0.2-1.4c0.2-1.2,0.4-2.3,0.6-3.5 c5.5-33,9.4-68.2,7.7-101.4c-1.8-35.1,4.1-89.6-29.9-94.3c-3-16.8,1.4-35.1,3.1-51.9c2-19.6,3.4-39.3,4.4-59 c2.6-52.4,4.7-107.3-6.1-158.9c-4.5-22.3-14.8-43.5-12.9-66.5c1.2-14.3,16.3-23.1,30.1-27.2c29.5-8.9,61.9-8,90.9,2.5 c4.5,1.6,9.1,3.6,12.5,7.1c1.9,2,3.3,4.4,4.4,7c1,2.4,1.8,5,2.6,7.5c3.7,12.1,7.2,24.3,10.6,36.6c27,74.3,39.2,153.6,52,232.1 c1.7,9.7,3.3,19.5,4.8,29.2c0.6,3.8,1.2,7.7,1.8,11.6c6.9,48.1,7.3,99.6,10.7,147.6c0.5,7.6,1.3,17.2,2.2,28.1 c4.5,53.1,13,138.4,16.5,180.7c0.4-0.1,0.8-0.2,1.2-0.3c3.9-0.9,7.8-1.8,11.7-2.8c2-0.5,4-1,6-1.5c4.5-1.2,8.9-2.4,13.4-3.7 c16.5-4.8,32.6-10.3,48.4-16.6C802.8,1074.9,802,1061,801.2,1056z"/><g id="shadow"><path fill="#DC7575" d="M742.4,1062.9c-0.3-32.2-1.7-64.4-4-96.5c-1.6-23.1-4-46.1-6.4-69.2c-4.6-43.5-9.3-86.9-15.1-130.2 c-5.9-44.1-13.4-89-22.5-133c-4.7-22.8-9.8-45.6-15.3-68.2c-9.2-38-17.8-82.2-36.2-117.4c-0.8-1.6-1.6-3.1-2.2-4.8 c-1.7-4.5-3.8-8.8-6.9-12.5c-1.5-0.1-2.8,0.4-3.8,1.5c-1.5,1.6-3.4,2.9-5.1,4.3c-0.9,0.8-2,1.4-2.9,2c-1.1,0.8-2.1,1.6-2.8,2.9 c0.2,0.8,0.2,1.6,0.5,2.3c5.7,12.8,10.8,25.8,15.5,38.9c21.9,61.2,27.6,125.6,38.1,189.6c10.5,63.7,19.6,125.4,22.8,189.9 c1.1,22.6,1.3,45.2,2.1,67.8c1.7,46.1,7.8,91.8,8.1,138c0.1,13-0.6,25.9-0.6,38.9c0,0.6,0.2,8.9-0.2,9c0.4-0.1,18.1-3.7,18.5-3.8 c3.9-0.9,7.8-1.8,11.7-2.8c2-0.5,4-1,6-1.5c-0.1-4-0.1-8.7-0.1-14.3c0-3,0.6-6,0.7-9C742.5,1077.5,742.5,1070.2,742.4,1062.9z"/><path fill="#DC7575" d="M499.7,991.8c-6.6-1.7-13.6-3-19.8-5.8c-2.6-1.2-5-2.7-7.2-4.4c-4.1-1.6-7.7-4.1-10.5-7.9 c-3.9-5.3-5.3-12.1-6-18.7c-2.3-19.3-1.6-41.1-15.3-54.8c0.6,16.4-2.8,33-9.8,47.8c-2.5,5.3-9.1,11-13.2,6.8 c-1.7-1.8-1.8-4.6-1.8-7.1c0.9-48.1,1.8-96.3,2.7-144.4c0-2.3,0.1-4.7,1.2-6.8c1.2-2.2,3.5-3.6,5.7-4.8c13.9-7.2,30.3-9.4,45.5-6 c-3.3-8.9-17.2-8.3-22.9-16c-2.7-3.7-2.9-8.5-3.1-13c-1.9-64.9,3.7-131.6-3-195.6c-0.2-1.8-0.4-3.5-0.6-5.3 c-5-42.4-16.4-84.4-33.4-123.6c-1.2-2.8-16.1-35-15.8-35.1c-1.3,0.4-2.5,1.4-4.4,1.9c-1.5,0.4-3,0.8-4.6,1.3 c-33,10-67.3,33.6-91.3,62.5c-6.7,8-12.6,16.6-17.6,25.8c-4.6,8.3-8.4,16.9-11.4,25.9c-9,27.1-17.5,54.6-23.9,82.6 c-3.4,14.7-6.1,29.4-8.1,44.3c-5.6,42.2-8.5,84.7-9.1,127.2c-0.6,40.6-1.9,83.2,9.5,122.5c4.1,14.1,11.6,27.6,22.9,36.7 c2.3,1.8,4.7,3.5,7.2,4.9c10.1,5.6,23.3,9.1,27,20.1c0.6,1.7,0.8,3.6,0.9,5.4c0.1,2.5-0.1,5.1-0.5,7.6c-0.8,6-3.2,25.8-6.2,47.6 c2.5,2,5,3.9,7.5,5.8c24.7,18.6,51,35.1,78.8,49.3c17.9,9.1,36.4,17.2,55.4,24.3c3.8-29.9,9.1-65.5,9.9-84.3 c0.1-1.8,0.3-3.8,1.6-5c1.5-1.3,3.8-1.1,5.7-0.7c8.7,1.4,21.3,4.7,33.5,7.8c10,2.5,19.8,5,27,6.2c1.1,0.3,6.1,0.1,10.2-2.9 c3.1-2.3,2.8-9.8,3.4-18.6C510.6,994.4,505.1,993.2,499.7,991.8z M385.1,926.5c-14.2-5.1-28.2-10.5-42.1-16.2 c-21.6-8.9-43-18.5-63.9-28.9c-7.4-3.7-16.1-6.4-20.9-13.2c-4.4-6.2-6.4-14.9-7.5-22.3c-5.2-33.7-7.6-70.1-4.8-103.8 c4.2-51.1,9.9-101.6,21.6-151.5c1.7-7.4,3.6-14.7,5.6-22c0.8-3.1,1.7-6.1,2.6-9.2c11.4-37.5,29.9-73.7,58.3-101.1 c8.2-7.9,17.2-14.9,26.8-21c7.1-4.4,16.1-8.3,23.3-4.1c4.7,2.7,7.1,8,9.1,13c14.3,35.8,24,73.2,30.3,111.2 c7,42.7,9.7,86.4,9.6,129.7c0,27.2-1.2,55-10.4,80.6c-11.2-3-22.4-6-33.6-8.9c-2.2-0.6-4.6-1.3-6-3.1c-1.7-2.1-1.6-5.1-1.5-7.9 c0.6-9.5,1-19.1,1.4-28.6c1.4-37.2,1.2-74.6-0.6-111.8c-0.4-7.3-3.7-17.1-10.9-15.8c-4.9,0.9-7,6.6-8,11.5 c-11.6,58.3,12.6,122.2-11.5,176.5c-6.3,14.1-15.6,26.8-20.7,41.4c-0.7,1.9-1.3,4-0.7,6c1,3.6,5.5,5.2,9.1,4.2s6.3-3.8,8.7-6.6 c8.5-10,15.1-21.5,19.5-33.9c2-5.7,4-12.2,9.3-14.9c6.1-3.2,14,0.5,17.8,6.3s4.5,13,4.9,19.8C402.3,843.9,398.4,886.6,385.1,926.5 z"/></g></g><g id="head"><path id="neck-shadow" fill="#D39A7F" d="M437.1,291.1c3.2-11.2,8.4-21.1,16.8-28.2c9.8-8.2,24.7-12.2,37.2-9.5 c11.4,2.4,17,11.2,18.5,22.2c2.1,15.6,1.9,31.1,4.9,46.7c6.3,32.3,17.5,64.9,43.4,86.8c17.7,15,41.5,22.6,63.1,30.1 c-11.4,11.4-27.3,18.1-43.4,18.4c-12.7,0.2-25.6-3.4-38.1-1.2c-10.4,1.8-21.3,8.4-31.4,5c-20-6.6-35.6-18.1-47.2-30.3 c-13.6-14.3-18.5-29.5-25.8-47.8c-4.4-11-4.9-24.6-5.1-36.3C429.6,328.1,431.9,309.2,437.1,291.1z"/><path id="face" fill="#E2A387" d="M723.8,172.2c-7.7-14.8-18.9-27.2-34.8-32.7c-11.8-4.1-25.5-4.4-37.8-3.1 c-25,2.6-49,13.3-68.9,28.3c-31.5,23.8-53.2,56.8-74.5,89.3c-1.3,2-3.4,3.8-5.8,3.7c-2.8-0.2-4.7-2.9-6.4-5.1 c-9.9-12.5-30.6-15.2-42.5-3.9c-8.4,8,2,42.1,3.5,52.2c1.4,9.8,6.3,19.2,14.3,25s19.2,7.3,28,2.9c2.7,29,14,57.2,33,79.3 c9.5,11.1,20.6,20.9,33.5,27.8c6.3,3.4,12.9,6.1,19.8,8.1c8.6,2.5,16,1.7,24.9,1.1c1.3-0.1,2.7-0.2,4-0.6c1.3-0.5,2.4-1.2,3.5-2 c14.1-10.2,26.9-22,37.6-35.7c5.8-7.3,11-15.1,15.6-23.3c12.3-22,25.2-45.8,33.4-69.7c2.2-6.5,4.1-13,5.7-19.7 c3.1-13.1,15.2-21.8,21.2-33.4c6.2-12,7.8-26,6.4-39.3C735.9,205.6,731.7,187.6,723.8,172.2z M494.7,294c-0.1,1-0.5,1.9-1.4,2.3 c-1,0.5-1.9,0.3-2.6-0.4c-1.5-1.4-2.9-2.9-4.4-4.3c-2-1.9-4.6-2.2-7-0.9c-0.7,0.4-1.3,0.9-2,1.3c-4,1.8-5.5,5.1-5.5,9.2 c0,0.8,0.2,1.6-0.4,2.3c-1.2-0.7-1.5-2-1.5-3.2c0-2.2,0-4.5,0-6.7c0-1.5,0.4-2.9,1.3-4c1.4-2,3.1-3.7,5-5c1.2-0.8,2.5-1.3,4-1.2 c0.5,0,1,0.1,1.4,0c5.3-0.9,8.7,2.1,11.7,5.9C494.4,290.5,495,292.2,494.7,294z"/><path id="hair-main" fill="#685A55" d="M424.6,107.6c2.2-2.7,4.4-5.3,6.7-7.9c29.1-32,69.6-52.3,111.8-62 c39.8-9.2,82.4-9.3,120.6,5.2c48.5,18.4,87.6,61.4,98.2,112.2c10.6,50.7-10.3,106.9-51.8,137.9c3.9-18.8,6.3-37.7,4.5-56.8 c-2.8,4.6-5.6,9.2-8.4,13.8c-1.2,1.9-2.9,4.1-5.1,3.7c-1.8-0.3-2.9-2.3-3.5-4.1c-6.3-18.7,2.7-41-7-58.3 c-9.3-16.6-31.7-20.5-50.5-17.9c-27.5,3.8-53.1,17.5-73.9,35.8s-37.2,41.3-51.1,65.4c-0.9,1.6-2,3.4-3.6,4.3 c-4.9,2.7-9.8-3.1-14-6.8c-12.4-11-34.4-2.5-40.2,13c-5.8,15.5,1.7,33.5,14.1,44.6c4,3.6,8.5,6.7,11.5,11.2 c3.6,5.3,4.5,11.9,5.4,18.3c3.9,25.9,9.7,51.6,17.2,76.7c1.7,5.8,13,30.1,8.1,33.3c-5.3,3.4-27.5-7-32.3-9.9 c-11.1-6.9-20.8-16-29.9-25.3c-29.2-29.8-57.2-62.5-70.6-102c-12.9-38-11.2-79.6-3.1-118.8C386,175.1,400.3,137.6,424.6,107.6z"/><path id="hair-right-tuft" fill="#685A55" d="M691.8,365.8c0.6,2.5,1.1,4.9,1.8,7.4c1.4,5.4,3.6,10.5,6.6,15.2 c0.8,1.3,1.6,2.7,2.4,4.1c0.8,1.4,0.6,2.7-0.2,4.1c-1,1.7-2.3,2.2-4,1.4c-2.1-1-4.2-2.1-6.3-3.1c-0.2,0.5-0.5,0.9-0.4,1.1 c1.7,4.6,2.6,9.5,4.8,13.9c0,1.9,1.1,3.6,1,5.6c-0.1,2.4-0.8,3.7-3.2,3.9c-4.6,0.4-9.2,0.8-13.8-0.3c-4.6-1.1-9.2-2.4-13.8-3.7 c-2.5-1.3-5-2.7-7.6-3.9c-1.6-0.8-2.9-1.9-3.7-3.5c0.6-2.7,1.9-5,3.4-7.2c3.2-4.5,6.2-9.2,9.3-13.8c1.1-1.7,2.2-3.5,3.1-5.3 c3.5-6.8,7.1-13.5,11-20c1.2-2,2.2-4.2,3.3-6.3c0.6-1.1,1-2.3,2.2-3c1.2,2,1.4,4.2,1.8,6.4C689.9,361.1,690.6,363.5,691.8,365.8z"/><path id="mouth" fill="#685A55" d="M601.2,378.7c0-0.4,0-1.7,0.3-2.9c0.7-3.5,3.5-5.9,7.1-6.1c1.7-0.1,3.2,0.3,4.4,1.5 c0.8,0.8,1.7,1.5,2.4,2.3c3.2,3.8,7.4,5.4,12.2,5.8c2.4,0.2,4.7,0.6,6.9,1.7c3.4,1.7,4.2,4,2.9,7.5c-1.4,3.6-4.2,5.9-7.3,8 c-2.6,1.8-5.6,2.2-8.6,2.3C607.1,399.4,600.8,388.6,601.2,378.7z"/><path id="eyebrow-left" fill="#D39A7F" d="M577.3,276c0.4-4.2,1.7-8.1,4.6-11.2c2.4-2.6,4.8-5.1,8-6.7c2.5-1.2,4.5-3.5,6.9-5 c3.1-1.9,6.3-3,9.6-4c3.2-1,6.5-1.6,9.7-2.2c1.1-0.2,2.2-0.2,3.3-0.1c1.9,0.1,3.4,1.4,3.7,3.1c0.3,1.7,0.2,3.4-1.7,4.5 c-3.9,2.2-8,3.9-12,5.8c-3.5,1.6-6.9,3.2-10.3,5c-0.8,0.4-1.6,1.1-2.2,1.8c-3.4,3.6-7.4,6.6-10,10.9c-0.4,0.7-1.1,1.2-1.6,1.7 c-2.2,2.1-3.4,2.2-6,0.9C577.4,279.5,577.2,277.9,577.3,276z"/><path id="eyebrow-right" fill="#D39A7F" d="M695.4,275.8c0.3,2.2-0.4,4-1.5,5.6c-1.7,2.4-3.7,2.5-5.4,0.1 c-2.3-3.1-4.4-6.4-5.4-10.1c-1.1-3.8-3.1-6.9-5-10.3c-1.1-2-2.8-3.4-4.7-4.7c-2.1-1.5-4.1-3-6.1-4.6c-1.4-1.1-1.9-2.5-1.6-4.3 c0.3-2.6,2.7-4.2,5.2-3.3c0.3,0.1,0.6,0.2,0.9,0.4c6.3,3.8,12.6,7.7,17.1,13.6c2.7,3.5,4.5,7.7,5.5,12.1 C694.7,272.2,695.8,274,695.4,275.8z"/><path id="eye-left" fill="#685A55" d="M617.8,311.7c0.1,2.6-1,4.8-3,6.6c-3.1,2.8-7.8,2.7-10.8-0.3c-4.2-4.2-3.2-11.6,1.9-14.3 c2.7-1.5,5.5-1.4,8.2,0.1C616.6,305.2,617.9,307.9,617.8,311.7z"/><path id="eye-right" fill="#685A55" d="M660.6,312.3c0-1,0.2-1.9,0.5-2.9c1.2-3.2,4.9-5.4,8.2-4.6c3,0.7,5.1,3.6,5.6,6.7 c0.4,3-0.8,6.3-3.3,8C666,323.3,660.6,317.8,660.6,312.3z"/><path id="nose" fill="#D39A7F" d="M636.5,348.6c2.9-0.7,5.1,1,7,3.3c0.5,0.6,0.9,1.3,1,2.1c0.5,3.7-1.7,6.4-5.4,5.9 c-3.2-0.4-6.6-0.8-9.6-2.6c-2.8-1.7-3.2-5-0.6-7.1c1.4-1.1,3-1.8,4.8-1.8C634.5,348.6,635.3,348.6,636.5,348.6z"/></g><g id="hand-right"><path id="test-base" fill="#FFE2D8" d="M864.7,694.6c-0.8-3.1,1.4-4.8-12.9-17c-14.3-12.2-34.1,1.7-34.1,1.7l-15.5,11.5l0.2,0.2 c-20.3,15.2-39.8,31.4-58.3,48.6c-3.5,3.2-7.1,6.9-7.7,11.5c-0.6,4.5,1.8,9.1,0.8,13.6c-0.9,3.9-4.1,6.8-7.2,9.3 c-11.4,9.5-22.9,19.1-34.3,28.6c-3.6,3-7.4,6.2-9.6,10.4c-5.3,9.9,2.6,19.6,13.3,16.6c4.5-1.3,8.4-4.2,12.1-7.1 c12.1-9.4,24.2-18.9,36.3-28.4c2.1-1.6,4.3-3.3,6.9-3.6c2-0.2,3.9,0.5,5.9,0.9c8,1.8,16.4,0,23.8-3.6c7.4-3.6,13.8-8.7,20.2-13.8 c7.9-6.3,15.8-12.6,23.6-18.9c0.7-0.5,1.4-1.1,2-1.7l0,0l0,0c1-0.9,1.9-1.9,2.6-3c7.7-8.8,29.5-34.1,31.8-38.2 C867.5,707.6,865.5,697.7,864.7,694.6z"/><path id="hand-shadow" fill="#D39A7F" d="M910.4,679.2c-0.4-6-1.6-11.9-4-17.4c-5.2-12.3-15.5-21.8-26.9-28.8 c-13.9-8.5-29.5-13.8-45.2-18.1c-1.5-0.4-3.5-0.9-5.7-1.4c-10.9,2.7-20,8-25.4,18.9c-4.4,8.9-3.8,18.6-1.2,27.9 c2,7.2,4.2,14.6,7.6,21.3c7.9,1.3,15,7.2,22.9,9.6c7.1,2.2,15.1,1.5,21.7-2c1.5-0.8,3-1.7,4.7-1.7c3.5,0.1,5.4,4.2,5.5,7.7 c0.3,7.9-4,15.2-9.1,21.3c-5.1,6-11.2,11.3-15.5,17.9c-4.6,7-6.7,16.9,0.6,22.8c6.9,5.6,16.9,6.4,25.1,3.7 c9.3-3.1,16.9-10.1,23.1-17.7c10.3-12.9,17.4-28.4,20.5-44.7C910.2,692.1,910.8,685.6,910.4,679.2z"/><path id="hand-highlight" fill="#E2A387" d="M910.2,674.9c-2.2-15.9-12.9-29.7-26-38.9c-13.1-9.3-28.5-14.6-43.9-19.4 c-2.9-0.9-5.9-1.8-8.9-2.6c-0.6-0.1-1.3-0.3-2.3-0.5c-9.3,2.2-17.3,6.3-22.9,14c4.3,1,8.3,1.9,10.6,2.3c5,1,10.9,1.5,14.2,5.9 c2.4,3.3,2.3,7.8,1.8,11.9c-0.7,6.4-1.8,12.9-1.3,19.3s3.1,13.1,8.3,16.9c5.2,3.8,13.4,3.8,17.5-1.2c2.9-3.6,3.2-8.6,2.7-13.2 c-0.5-4.6-1.7-9.2-1.2-13.8c0.4-3.6,3.3-3.8,4.9-0.7c5.1,9.9,9.6,20.2,11.3,31.2s0.4,22.8-5.5,32.2c-3.7,5.9-9.1,10.6-13.2,16.3 c-1.8,2.4-3.3,5.5-2.3,8.3c1,2.7,4.1,4.1,7,4.4c6.2,0.8,12.5-1.6,17.5-5.2c5.1-3.7,9.1-8.6,12.8-13.6c5.8-7.8,11.1-16,14.7-25 C909.7,694.3,911.5,684.5,910.2,674.9z"/><path id="test-highlight" fill="#FFF" d="M706.3,794c7.3-6.2,14.7-12.4,22-18.6c3.1-2.6,8.5-6.4,9.5-10.5 c1.2-5-2.4-10.2-0.8-15.3c1.4-4.6,5-8,8.6-11.3c20.7-19,42.6-36.9,65.3-53.5c0.4-0.3,0.8-0.6,1.3-0.7c1.4-0.3,2.5,1.1,3.3,2.3 c4.4,6.5,11.5,11.1,19.2,12.5s16-0.3,22.4-4.8c-0.2,7-4.3,13.3-8.8,18.7c-13.2,15.8-30.9,27.1-47,40c-10.3,8.3-20.4,17.7-33.1,21.4 c-3.9,1.2-8,1.8-11.9,3.2c-5.7,2.1-10.5,6-15.2,9.8c-15.6,12.7-31.3,25.4-46.9,38c-1.5,1.2-3.2,2.5-5.1,2.4 c-2.5-0.2-4.2-2.7-4.7-5.2c-1.4-7.7,5.1-14.3,11.1-19.4C699.1,800.1,702.7,797.1,706.3,794z"/><path id="test-indicator-strip-right" fill="#685A55" d="M804,711.2c4.7,2.2,17.2,8.5,21.5,11.7c-2.1,3.3-5.6,6.2-8.1,8.7 c-0.8,0.8-5.8-2.8-6.6-3.4c0,0-16.1-9.5-15.8-9.8C795.4,718.3,804,711.2,804,711.2z"/><path id="test-indicator-strip-left" fill="#685A55" d="M790.8,720.9c4.7,2.2,16.5,9.1,20.8,12.3c-2.1,3.3-7.4,6.3-9.8,8.8 c-0.8,0.8-20.7-13.2-20.3-13.5C781.8,728.3,790.8,720.9,790.8,720.9z"/><path id="test-indicator-window-shadow" fill="#FFE2D8" d="M825.1,701.1c-3.7-2.5-8.3-3.1-12.6-2.1c-6.7,1.6-11.3,6.3-16.7,10.1 c-6.1,4.4-12.1,9.1-17.9,14c-2.1,1.8-4,3.6-6.1,5.4c-4.6,4-8.3,8.7-6.4,15.2c1,3.4,3.4,6.1,6.5,7.7c4.8,2.4,9.6,2.5,14.3,1.2 c7.7-3.6,14.7-8.8,21.4-14.1c8.1-6.3,21.6-13.5,23.8-24.7c0-0.4,0-0.9,0-1.3C831.2,708,829,703.7,825.1,701.1z M811.6,731.7 c-4,2.8-8,5.5-11.8,8.5c-3.9,3.1-8.8,6-13.7,7.1c-3.7,0.8-9.3,1.8-12.6-0.7c-1.3-0.6-1.8-2-1.5-3.4c0.2-0.8,0.6-1.6,1.1-2.3 c2.3-3.3,5.9-5.6,9.1-8c2.7-2,5-4.6,7.5-6.8c2.5-2.3,5-4.5,7.6-6.7s5.2-4.3,7.9-6.4c2.4-1.9,4.7-4,7.3-5.5c3.4-2,7.7-3.1,11.2-0.9 c3.9,2.5,4.1,7,2.3,10.8c-2,5.7-7.7,9.4-12.4,12.8C812.9,730.8,812.2,731.3,811.6,731.7z"/></g></svg>