<svg xmlns="http://www.w3.org/2000/svg" xmlns:xlink="http://www.w3.org/1999/xlink" id="bundle_x5F_illustration-6_x5F_v1_xA0_Image_1_" x="0" y="0" enable-background="new 0 0 1200 1200" version="1.1" viewBox="0 0 1200 1200" xml:space="preserve"><g><path fill="#B5D17A" d="M83.5,577.2c-0.2,0.3-0.5,0.7-0.7,1V605C82.7,595.6,83,586.4,83.5,577.2z"/><path fill="#E0F8FF" d="M125.7,543.8c29.1-12.1,64-9.6,91,6.7c20.6-27.1,58.5-39.6,91.2-29.9c20.2-27.1,63.2-33.7,90.6-13.8 c26-24.6,71-23.9,97.6-0.7c4.8-14.8,28.6-26.1,57.3-26.1c27.1,0,49.9,10.1,56.3,23.7c10.5-8,28.3-12.1,47.8-9.8 c25.9,3,46.2,16.1,49.8,30.8c0.3,0.1,0.6,0.3,0.9,0.4c10.7-6.9,27.3-10.2,45.4-8.2c24.7,2.8,44.4,14.9,49.2,28.9 c11.8-6.2,30.5-6.9,49.6-0.8c18.2,5.8,32.5,16.5,39,27.7c9.7-13.5,33.3-18.4,57.3-10.8c15,4.8,27,13.5,33.9,23.4 c0.9,0.5,1.9,0.9,2.8,1.4c12.3-8.8,33.9-10.7,56-3.7c30.2,9.6,49.9,32.5,44,51c-0.1,0.3-0.2,0.5-0.3,0.8c0,0.9-0.1,1.9-0.2,2.8 c19.3-2,38.4,9.1,48.5,25.4c2.1-19.2,3.2-38.6,3.2-58.3c0-291-235.9-526.9-526.9-526.9C328,77.8,98,298.8,83.5,576.9 C94.3,562.6,108.9,550.8,125.7,543.8z"/><path fill="#D9ED96" d="M757.4,856c-56.2,0-112.4,0-168.7,0s-112.4,0-168.7,0c-56.2,0-112.4,0-168.7,0c-35.1,0-70.1,0-105.2,0 c89.2,164.3,263.3,275.9,463.4,275.9s374.2-111.5,463.4-275.9c-49,0-98,0-147,0C869.8,856,813.6,856,757.4,856z"/><path fill="#B5D17A" d="M82.7,605L82.7,605L82.7,605L82.7,605z"/><path fill="#B5D17A" d="M1111.1,767.4c10.8-33.4,18.4-68.2,22.3-104.1c-10.1-16.3-29.2-27.5-48.5-25.4c0.1-0.9,0.2-1.9,0.2-2.8 c0.1-0.3,0.2-0.5,0.3-0.8c5.9-18.5-13.8-41.3-44-51c-22.1-7.1-43.6-5.1-56,3.7c-0.9-0.5-1.9-0.9-2.8-1.4 c-6.9-9.9-18.9-18.6-33.9-23.4c-24-7.7-47.6-2.8-57.3,10.8c-6.5-11.3-20.8-21.9-39-27.7c-19.2-6.1-37.8-5.4-49.6,0.8 c-4.9-13.9-24.5-26-49.2-28.9c-18.1-2.1-34.7,1.3-45.4,8.2c-0.3-0.1-0.6-0.3-0.9-0.4c-3.6-14.8-24-27.9-49.8-30.8 c-19.5-2.2-37.3,1.8-47.8,9.8c-6.5-13.6-29.2-23.7-56.3-23.7c-28.6,0-52.4,11.3-57.3,26.1c-26.6-23.2-71.6-23.9-97.6,0.7 c-27.4-19.9-70.3-13.4-90.6,13.8c-32.6-9.7-70.6,2.8-91.2,29.9c-27-16.3-61.9-18.9-91-6.7c-16.8,7-31.4,18.8-42.2,33.3 c-0.5,9.2-0.7,18.5-0.7,27.8l0,0c0,56.7,9,111.3,25.5,162.4h1002.8V767.4z"/><path fill="#B5D17A" d="M108.3,767.6c10,30.8,22.7,60.4,38,88.4c35.1,0,70.1,0,105.2,0c56.2,0,112.4,0,168.7,0 c56.2,0,112.4,0,168.7,0s112.4,0,168.7,0s112.4,0,168.7,0c49,0,98,0,147,0c15.2-28,28-57.6,38-88.4H108.3z"/><path fill="#B5D17A" d="M108.3,767.6H1111c0-0.1,0-0.1,0.1-0.2H108.2C108.3,767.5,108.3,767.5,108.3,767.6z"/></g><path fill="#FFF" d="M1021.8,465.2c0.2-3.5,0.1-6.9-0.2-10.4c-2.2-25-5-33.3-23.1-50.4c-10-9.5-23.1-20.8-35.4-23.2	c-6.3-1.2-27.6-2.9-32.6,6c-0.8-7.6-4-15.3-9.5-20.6c-6.3-6.1-16.1-10.4-24.9-9.8c-0.9,0.1-7.2,0.4-7.4,1.2c4.1-14,0.8-29.8-8.5-41	s-24.3-17.3-38.8-15.8c-2.3,0.2-4.7,0.6-6.8-0.4c-2.8-1.3-4-4.7-5.1-7.6c-6.5-16.6-22.2-29.3-39.8-32s-36.4,4.6-47.6,18.4	c-22.6-14-55.7-6.4-70.1,15.9c-13.7-4-29.3-1.1-40.7,7.5s-18.4,22.8-18.3,37.1c-33.7,5.2-61.2,37-61.5,71.1	c-29.7,1.6-56.2,27.2-58.9,56.8c-1.4,15.6,4.3,32.9,17.9,40.6c9,5,19.8,5.2,30.2,5.2c137.7-0.1,275.3-0.2,413-0.4	c18.7,0,39.2-0.7,53.1-13.1C1016.5,491.5,1021,478.4,1021.8,465.2z"/><path id="woman-hair-lower" fill="#504C4B" d="M508.7,356.2c-0.3-3.2-0.7-6.3-1-9.5c-4.5-43.7-8.3-90.1-48.3-117.1	c-7.6-5.1-16.1-9.6-25.2-11c-9.1-1.3-19.3,0.3-28.4,1c-2,0.1-4.1,0.4-5.5,1.8c-1.3,1.4-1.4,3.5-1.4,5.4	c-1.4,60.4-2.7,181.3-2.7,181.3s0,3.5,0.3,4.6c5.6,20.2,24.3,33.6,44.9,37.3c16.8,3.1,34.7-2.8,47.3-14.2s20.1-28.1,21.6-45.1	c0.9-9.9-0.1-19.9-1.2-29.9C509,359.4,508.9,357.8,508.7,356.2z"/><path id="chest_1_" fill="#FAE0C7" d="M683.3,392.2c-1.9-6.4-4.3-13-7.2-19.5c-7.3-17.4-15.9-33.5-32.2-43.9	c-15.2-9.6-33.8-13.1-51.6-12.4c-19.1,0.8-39.8,4.8-57.5,12c-15.6,6.3-29.5,19-31,35.6c-0.8,1.6-1,3.5-0.6,5.7	c8.2,40.1,22.7,80.1,49.9,111.3c25.9,29.6,71.5,54.6,109,29.6c18.7-12.4,25.3-33.4,27.3-54.8C691.4,434.6,689.5,412.6,683.3,392.2z"/><path id="neck-shadow" fill="#EAC48E" d="M654.3,361.8c-0.2-0.3-0.4-0.5-0.6-0.8c-4.6-5.3-12.4-6.8-19.3-5.9	c-7,0.9-13.5,3.8-20.1,6.1c-10,3.4-20.4,5.6-30.9,7c-9.2,1.2-19.7,3.1-28.3-1.3c-8-4.1-12.5-13.2-20.4-17.4	c-9.1-4.9-21.1-1.9-28.5,5.4c-16.2,15.9-12.5,44.1-1.7,61.8c6,9.8,28.1,34.9,40.6,21.5c4-4.3,3.6-10.9,3-16.7	c19,7.4,40.4,9.5,60.1,4c19.7-5.5,37.3-19.1,46-37.6C658,379.5,659.7,368.9,654.3,361.8z"/><ellipse id="baby-shadow" cx="824.7" cy="966.3" fill="#B5D17A" rx="109" ry="29.8"/><path id="woman-shadow" fill="#B5D17A" d="M483.5,896.8c-46.1-9.7-88.6-13.8-119.1-12.4c-6-0.4-12.1-0.1-17.9-0.4	c-8.6-0.5-17.2-1.8-25.8-2.6c-15.1-1.3-30.4-0.2-44,6.9c-3.9,2-8.4,5.3-12.3,9.2c-3.3,2.8-6.2,6.2-7.1,9.9	c-2.4,5.2-2.8,10.9,0.4,16.2c8.3,13.5,27.7,9.5,39.7,4.8c7-2.8,13.7-6.2,21-8.2c0.3-0.1,0.7-0.2,1-0.2c3.1,0.1,6.3,0.3,9.4,0.5	c22.7,18.1,75.5,38.5,138.7,51.9c87.5,18.5,162.1,16.5,166.5-4.3C638.5,947.2,571.1,915.3,483.5,896.8z"/><g id="shoe"><path id="sole" fill="#FAE0C7" d="M359.1,791.4c-13.2-3.8-32.4,4.3-43.1,12.9c-15.5,12.4-27.5,28.6-38.5,45.1 c-8.5,12.7-16.6,25.8-21.7,40.2c-2.5,7.1-4.5,16.5-0.4,23.5c4,6.9,12.3,10.1,19.8,7c5.7-2.4,9.9-7.5,12.9-12.9s5.2-11.3,8.3-16.6 c6.4-11,16.4-19.3,26.7-26.7c10.3-7.4,21.1-14.3,29.9-23.4c8.8-9.1,24.1-18.6,24.1-31.3C377.3,806.6,370.4,794.6,359.1,791.4z"/><path id="upper" fill="#FFF" d="M383.1,813.3c-1.9-2.2-3.9-4.3-6.1-6.3c-2.5-2.3-5.2-4.4-8.3-5.6c-4.3-1.8-9.2-1.7-13.8-1 c-16.6,2.4-31.2,12.5-43.6,23.8c-21.2,19.4-38,43.6-49,70.2c-2.8,6.7-5.5,16.1-0.5,22.5c4.9,6.2,15.5,6.7,22.3,3.7 c6.9-3,12-10,12.8-17.5c29.7,9,64.4-2,83.6-26.5c10.8-13.9,16.7-32.9,10.7-49.4C389.4,822.1,386.6,817.4,383.1,813.3z"/></g><path id="legs" fill="#81ACD7" d="M752.5,757c-0.2-3.2-0.5-6.6-1.1-9.9c-1.6-8.7-5.2-16.9-13-20.2c-4.1-1.7-8.7-1.7-13.1-1.6	c-94.1,1.8-190.5,23.2-280.9-2.7c-4.8-1.4-9.7-2.9-14.7-2.2c-11.1,1.5-17.8,13-20.9,23.7c-7.3,25-4.1,52.8,8.6,75.5	c2.3,4.1,5,8.4,4.9,13.1c-0.1,4.7-4.7,9.6-9.2,7.9c-1.3-0.5-2.3-1.4-3.4-2.3c-17.4-14.3-54.6-11.1-74.7-0.8	c-20,10.4-24.5,21.1-37.4,39.6c-4.1,5.8-7.4,19.3-2.5,24.4c1.8,1.9,4.4,2.7,6.9,3.5c12.9,4.2,25.9,7.6,38.3,13.1	c12.6,5.5,25.3,10.7,38.2,15.3c25.8,9.3,52.3,16.9,79.1,22.6c25.7,5.5,51.9,9.2,77.9,12.3c8.3,1,16.5,1.8,24.8,2.4	c4.4,0.3,22.3-1.9,25.2,0.7c-13.6-11.9-23.2-28.2-27.1-45.8c40-0.6,80-5,118.6-15.3c16.1-4.3,32.4-9.9,44.9-20.8	c21-18.4,27.4-48.1,29.8-75.9C753.3,794.9,753.6,775.9,752.5,757z"/><path id="calf-highlight" fill="#97C9EE" d="M565,873.6c-32.9-2.2-66.1-5.6-97.9-15.1c-13.5-4.1-27.4-9.1-38-18.8	c-2.3-2.1-4.2-4.5-5.7-7.1c-7-4.8-13.6-10.3-21.5-13.4c-14.1-5.5-30.2-2.2-44.2,3.7c-19.1,8-36.2,20.9-49.3,37	c-2.1,2.6-8.9,9.2-9,12.6c-0.2,5.3,7.5,7,12,9.2c12,6,24.1,12,36.1,18c0.1-0.2,0.2-0.5,0.2-0.7c2,1.2,4.2,2.1,6.3,3.2	c2.8,1.5,5,3.2,7.8,4.3c16.6,8.4,35.1,12.5,53.3,16.5c30.5,6.7,61.1,13.4,92.2,16.4c14.6,1.4,29.5,2,44-0.6	c13.9-2.5,29.1-4.1,41-12.5c12-8.4,19.3-21.7,27.6-33.5c2.5-3.6,10.7-12.5,6.1-17.2C615.4,876,575.2,874.3,565,873.6z"/><path id="thigh-highlight" fill="#97C9EE" d="M701.4,837.9c-2.6-7.6-6.2-14.9-10.6-21.6c-21.8-32.8-60.1-50.5-97.9-61.4	c-37.8-10.9-77.4-16.8-113-33.5c-10.5-4.9-22.1-10.9-33.2-7.4c-7.6,2.4-13,9.8-14.1,17.6c-1.5,10.4,5.6,16.1,12.3,22.9	c14.8,15.2,30.7,29.2,48,41.4c12,8.4,24.7,15.9,37.9,22.3c1.3,1,2.7,2,4,3c12.3,9.1,25.6,16.8,39.5,23.3	c14.3,6.7,28.7,12.1,42.1,20.9c7,4.6,14,9.4,20.8,14.4c1.1,0.8,2.1,1.5,3.2,2.3c1.4,2.4,3,4.7,5,6.8c15.9,16.9,51.8,20.6,59.1-6.8	c-0.1,0-0.1,0-0.2-0.1c0.3-1,0.5-1.9,0.6-3c0.1-0.9,0-1.9-0.2-2.8C707,863.6,705.6,850.4,701.4,837.9z"/><path fill="#E18654" d="M827.9,528.7c-0.6-3.3-1.4-6.6-2.3-10c-10.5-40-21.4-81-45-115s-63.8-56.6-105.4-60.6	c-3.6-0.3-20-2.4-20-2.4s0.1,20.9,1.8,27.3c6.7,25.5,14.8,51.1,15.2,77.4c0.5,26.4-12.7,56.5-38.6,61.9	c-22.2,4.6-43.6-10.8-58.7-27.7c-17.7-19.9-31.5-43.2-40.5-68.3c-5.5-15.4-9.4-31.8-19.2-44.8c-2.4-3.2-5.4-6.3-9.3-7.4	c-4.6-1.3-9.5,0.5-14,2.3c-15,6-30,12.2-44.9,18.7c-19,8.3-38.4,17.2-53,31.9c-14.3,14.6-23,34-31.2,53c-6.4,15-12.7,30.1-18.9,45.2	c-3.4,8.3-6.7,17.1-5.1,25.9c2.2,11.9,12.9,20.2,23.4,26.2c18.1,10.3,38.1,17.4,58.6,20.8c-6,17.9,5.4,36.4,9.2,54.9	c2.9,14,1.3,28.5,2.4,42.8c1,13.1,5,24.2,13.3,34.3c8.1,9.7,18.2,15.6,29.6,21.3c25.3,12.6,53.1,19.8,81,23.1	c4.2,0.5,8.4,0.9,12.7,1.2c42.8,3.4,85.8-1.2,128.5-5.8c20.3-2.2,44.8-7.7,50.6-27.2c2.8-9.2,0.3-19-1.2-28.5	c-6.7-42.1,5.3-84.6,17.3-125.5c12.8,0.3,25.8,0.5,38-3.6c9.5-3.2,18.2-9.6,22.9-18.6C829.2,544.1,829.2,536.5,827.9,528.7z"/><path fill="#EE9159" d="M816.3,475.3c-12.9-35.9-30.2-79.3-60.7-103.9c-24.8-20-57.9-25.6-89.5-29.5	c15.4,47.4,27.1,100.2,11.2,147.5c-3.8,11.3-11.9,20.7-22.3,26.6c-7.2,4-16.2,8.1-24.4,7.7c-24-1.2-43.5-14.2-61-30.7	s-27.2-38.9-39.2-59.7c-3-5.1-6-10.4-10.9-13.8c-3.8-2.6-8.4-3.8-12.8-4.9c-11.1-2.8-22.3-5.7-33.5-8.1c-13.1-2.8-26.7-4.9-39.7-1.6	c-21.4,5.5-36.6,24.8-45.7,45c-4.4,9.7-7.7,19.9-11.1,30c-3.5,10.6-8.7,21-11.8,31.6c6,2.5,14.1,2.1,20.7,4.2	c6.9,2.3,13.5,5.6,19.6,9.7c12.3,8.4,22.3,20.2,27.9,34.1c6.5-13.9,12.9-27.9,19.4-41.8c1.8-3.8,7-8.1,9.2-4.5	c0.8,1.3,0.5,3,0.2,4.5c-2.3,10.7-5.2,21.3-8.8,31.7c8.8,2.2,13.2,11.9,17.2,20c16,32,46.4,56.4,81,65.2v-0.1	c3.4,1.2,7.1,1.6,10.7,1.6c5.9,0,11.4,1.7,17.5,0.8c6.8-0.9,13.3-3.5,19.4-6.6c16.3-8.5,32.6-19.1,46.3-31.4	c4.7-4.3,9.4-8.9,15.5-10.8c5.3-1.6,10.9-1,16.4-0.7c26.5,1.4,55.5-8.2,69.1-31c11-18.6,9.7-42,5.6-63.2c-4.1-21.2-10.7-42.4-9.2-64	c8.4,21,16.7,42.1,25.1,63.1c2.6,6.4,5.2,13.1,10.2,17.9c6.3,6.1,16,8.5,24.4,5.9s15.2-9.9,17-18.5	C820.8,490,818.9,482.5,816.3,475.3z"/><path fill="#FAE0C7" d="M753.4,893.9c0.2-4.5-3.6-9.8-8.4-9.8c-8.2,0-13.7,4.3-20.9,7.4c-6,2.6-12.2,4-18.7,4.7	c-14.2,1.6-28.6-0.6-42.6-3.3c-3.2-0.6-5.4-4.7-6.4-7.5c-1.6-4.5-2.4-9.3-4.2-13.8c-4.1-10.4-11.7-24.7-24.6-23.6	c-4.3,0.4-7.6,1.9-10.3,5.1c0.2,0.2,0.4,0.4,0.5,0.7c-0.7,0.7-1.3,1.5-1.7,2.5c-4.1,9.8-6.7,20.5-6.3,31.2c0.3,8.1,2.7,21.1,10,26.2	c2.3,10.1,6.9,19.5,15.4,26.5c14.5,11.8,34.1,10.2,51.1,6.2c15.8-3.7,31.5-8,45.4-16.4C743.2,923.2,759.3,908.3,753.4,893.9z"/><path fill="#EAC48E" d="M733.1,903.7c-2.7-2.2-6.1-3.7-9.5-4.4c-6.3-1.2-12.8-0.1-19.1,1.3c-23.7,5.4-47.3,15.5-71.3,11.9	c-5.2-0.8-10.6-2.4-14.4-6.1c-2.9-2.8-4.6-6.7-5.5-10.6c-3.4-14.1,2.1-28.6,4-43c-7.4,12.4-10.9,27.1-9.8,41.5	c1.5,21.3,13.3,46.5,35.3,52.8c7.7,2.2,15.8,2.5,23.8,2.2c18.2-0.5,36.6-3.4,53.1-11.1c5.5-2.6,10.9-5.8,14.7-10.5	c3.8-4.8,5.8-11.4,3.8-17.1C737.2,907.9,735.4,905.5,733.1,903.7z"/><path id="leg_1_" fill="#EAC48E" d="M821.3,946.3c-5.9-11.9-16.2-21.8-26.7-29.6c-10.2-7.7-18.1-17.1-29.9-22.3	c-6.2-2.7-12.5-5.2-19-7.1c-4.8-1.4-9.9-3-14.8-2.6c-1.3-0.1-2.6,0.2-3.9,0.7c-0.4,0.1-0.7,0.2-1.1,0.4c-1.3,0.5-2.3,1.4-2.8,2.4	c-1.8,1.9-3,4.5-3.2,7.1c-1.4,0-2.8,0.1-4.2,0.3c-3.6,0.7-6.9,2.3-10.1,4c-14.3,7.1-29.1,13.6-44.7,16.9	c-17.1,3.6-45.6,4.9-58.6-9.8c-5.2-5.9-6.4-14.2-11.2-20.4c-5.1-6.5-13.3-8.3-21-9.6c-2-0.3-4.1-0.6-5.9,0.2	c-0.4,0.2-0.8,0.5-1.2,0.8c-1.3,0.4-2.6,1.1-3.7,2c-11.4,9.8-8.8,27.2-5.4,40c3.7,14.1,9.7,28.1,19.1,39.4	c9.9,11.8,24.9,19.7,38.7,26.2c15.5,7.3,32.4,11,49.3,12.6c23.1,2.2,47.4,1.3,70.4-1.3c21.1-2.4,41.5-6.9,61.1-15.1	c2.8-1.2,5.7-2.5,8-4.3c3.7,1,7.5,1.9,11.2,3.1c0,0,0,0,0.1-0.1c7.2,0.2,12-5.9,13.3-13.1C826.4,959.9,824.5,952.8,821.3,946.3z M752.1,906.9c-0.5-0.3-0.9-0.6-1.4-0.9c0.4,0.2,0.7,0.5,1.1,0.7C751.9,906.7,752,906.8,752.1,906.9z M747.4,904	c-0.6-0.3-1.2-0.7-1.8-1C746.2,903.3,746.8,903.6,747.4,904z M750.3,905.7c-0.9-0.5-1.7-1.1-2.6-1.6	C748.6,904.7,749.5,905.2,750.3,905.7z M783,978.3c-0.5,0-1,0.1-1.5,0.2C782,978.4,782.5,978.3,783,978.3z"/><path id="leg-highlight_1_" fill="#FAE0C7" d="M560.3,886.8c1,32.4,16.8,67.9,46.9,83c12.3,6.2,25.9,9,39.3,11.7	c19.6,4,39.3,8,59.2,9.3c20,1.2,40.4-0.4,59.1-7.4c5.1-1.9,11-4,16.6-5c5.3-0.9,13.3,1,17.5-3.2c2-2,2.5-4.8,2.3-7.7	c-0.1-2-0.6-4-1.1-5.6c-1.9-6-4.8-11.6-8.3-16.9c-6.4-9.6-14.8-17.9-23.5-25.6c-12.9-11.3-27.5-21.8-44.5-23.9	c-2.7-0.3-5.5-0.4-8.3,0.1c-3.6,0.7-6.9,2.3-10.1,4c-14.3,7.1-29.1,13.6-44.7,16.9c-17.1,3.6-45.6,4.9-58.6-9.8	c-5.2-5.9-6.4-14.2-11.2-20.4c-5.1-6.5-13.3-8.3-21-9.6c-2-0.3-4.1-0.6-5.9,0.2c-0.4,0.2-0.8,0.5-1.2,0.8	C560.6,879.7,560.2,883.6,560.3,886.8z"/><path id="baby-neck" fill="#EAC48E" d="M875,709.6c0.2-0.3,0.3-0.5,0.4-0.8c0.4-0.7,0.7-1.4,1-2.1c0.1-1.9,0.1-3.9-0.3-5.9	c-0.4-2.1-0.9-4.2-1.5-6.2c-4.9-6.9-7.8-14.3-8.4-23.5c-0.4-6.2-0.1-13.2-3.8-18.6c-1.9-2.8-5-4.5-7-7.1c-2.2-1-4.4-1.8-6.7-2.4	c-8.6-2.2-17.7-1.5-26.4,0.2c-11.1,2.1-22,5.9-32,11c-5.8,3-11.6,6.6-15.2,12.1c-4,6-5,13.4-5.8,20.5c-1.6,13.2,0,24.3,12.4,31.2	c11.6,6.5,25.6,7,38.6,7.1c12.2,0.1,24.5-0.2,36.2-3.4C863.7,719.6,871.2,716,875,709.6z"/><path id="nappie" fill="#FFF" d="M914.4,894.3c-0.4-2.3-0.9-4.5-1.5-6.7c-2.4-9-6.7-18-14.5-23.1c-9-5.8-20.6-5.3-31.1-2.9	c-28.9,6.6-55.4,25.4-85,24c-17.9-0.8-35.2-9.1-53.1-7.9c-3.3,0.2-6.7,0.8-9.4,2.8c-13.5,9.6,10.9,13.7,16.7,15.1	c17.3,4.3,33.2,13.4,46.8,24.8c13.2,11,27,24.8,30.4,42.3c0.3,1.5,0.9,18.1-1.9,17.5c14.8,3.3,29.9,6.2,45,5.1	c15.1-1.1,30.4-6.5,40.8-17.6c8.9-9.5,13.4-22.3,15.9-35C916,920.1,916.7,907,914.4,894.3z"/><path id="shirt-shadow" fill="#EDEDED" d="M829.5,862.8c-0.1-0.5-0.3-1-0.5-1.5c-2-5-8.2-7.8-13.2-6.1c-3.1,1-5.5,3.4-8.3,5.1	c-4.1,2.5-9,3.5-13.8,4.1c-18.3,2.6-36.9,1.7-55.3,0.7c-2.5-6.7-0.9-14.3,0.7-21.3c1.8-7.7,3.6-15.5,8-22.1	c5.1-7.6,13-12.6,20.7-17.4c11.2-6.9,22.5-13.6,33.1-21.4c1.9-1.4,3.9-2.9,4.9-5.1c1-2.2,0.7-5.1-1.3-6.5c-1.4-0.9-3.1-0.8-4.7-0.7	c-17.3,1.7-33.3,10.4-50.5,12.7c-14.8,2-29.9-0.7-44.4-4.4c-0.9-0.2-5.9-2.4-6.8-2.2c-1.7,0.5,1.8,4.7,2.4,6.4s2.1,2.9,3.6,3.8	c4.3,2.8,9.2,4.4,13.9,6.1c1.7,0.6,15.1,5.5,16.2,4c-11.6,17.2-18.2,37.6-19,58.3c-0.3,7.8,0.5,16.3,5.9,21.9	c3.4,3.5,8.1,5.4,12.8,6.6c10.8,2.9,22.1,3.2,33.2,3.5c16,0.4,32.6,0.7,47.5-5.1c4.4-1.7,8.7-4.1,11.7-7.8	C829,871.3,830.4,866.8,829.5,862.8z"/><path id="shirt_1_" fill="#FFF" d="M838.9,743.3c-0.4-2-0.8-4-1.4-6c-3.8-13.2-11.9-25.3-23.4-32.7c-15.4-9.9-35-10.7-53.2-9	c-15.1,1.4-30.1,4.3-44.6,8.5c-11.8,3.4-22.4,7.9-26.2,20.6c-2.5,8.2-1.9,16.9-0.9,25.4c1.3,11.8,3.8,24.6,13,32	c7.9,6.4,18.8,7.2,28.9,6.9c24.7-0.7,48.9-6.7,72.7-13.5c-8.9,10.1-21.2,16.6-33,23c-11.8,6.5-23.9,13.5-31.9,24.3	c-8.1,10.8-11.2,26.4-4.1,37.8c1.5,2.3,3.3,4.5,3.8,7.2c21,6.5,43.7,6.9,64.9,1.3c-0.7-6.7,7.5-12.4,13.5-9.5	c6.3-7.7,4.6-18.8,5.2-28.8c1.1-18.4,10.7-35.2,15.2-53.1C840.3,766.7,841,754.7,838.9,743.3z"/><g id="polka"><g><path fill="#FAE0C7" d="M825.3,778.7c-4.2,0-7.5,2.7-9.5,6c-2.2,3.6-2.8,7.9-0.9,11.8c2.1,4.3,7.3,6.1,11.8,4.8 c2.4-0.7,4.4-2.2,5.8-4.2c0.4-0.4,0.8-0.9,1.1-1.5C837.3,789.2,833.6,778.8,825.3,778.7z"/><path fill="#FAE0C7" d="M799.5,697.5c-1.6-2.9-4.9-4.4-8.1-4.2c-2.6,0.2-5.9,1.3-7.7,3.3c-0.6,0.7-1.1,1.4-1.4,2.2l0,0v0.1 c-0.3,0.7-0.5,1.5-0.5,2.3c-0.3,1.2-0.5,2.4-0.4,3.7c0.3,3.7,2.5,6.2,5.5,7.8c3.2,1.7,8.1,0.2,10.3-2.7c1.2-1.6,2.3-3.3,2.5-5.3 c0.2-0.5,0.4-1,0.5-1.5C800.7,701.2,800.5,699.2,799.5,697.5z"/><path fill="#FAE0C7" d="M840.5,750.9c-1.4-2.6-4.1-4.2-6.9-4.5c-0.1,0-0.1-0.1-0.2-0.1c-1.3-0.8-2.4-0.6-3.5,0.3l0,0 c-0.8,0.2-1.7,0.5-2.5,1c-1,0.6-1.9,1.6-2.5,2.6c-0.8,1.2-1.4,2.6-1.7,4c-0.7,3.8-0.5,8,2.4,10.9c3.3,3.3,9.2,3.1,12.5-0.2 c1.7-1.7,2.6-3.8,2.9-6.1C841.9,756.3,841.8,753.4,840.5,750.9z"/><path fill="#FAE0C7" d="M769.2,721.7c1.7,0.4,4,0.7,5.6,2.4c1.9,2.1,4.3,3.7,5.2,6.7c0.6,2.3,0.4,4.1-0.8,5.9 c-2.4,3.4-5.9,5.3-10,5.9c-1.7,0.3-3.2-0.4-4.6-1c-4.2-1.6-7.3-6.6-7-11c0.1-1.5,0.6-2.8,1.4-4 C760.6,723.9,765.3,721.6,769.2,721.7z"/><path fill="#FAE0C7" d="M789.1,766.8c-2.1,0.7-4.1,1.5-6.2,2.2c-4.2,1.6-8.5,1.9-13,1.6c-2-2.4-1.7-5-0.9-7.6s2.5-4.4,4.7-5.8 c3.6-2.3,7.5-3.3,11.8-2.9c5,0.5,7.8,5.4,5.3,9.8C790.4,765,789.7,765.9,789.1,766.8z"/><path fill="#FAE0C7" d="M746.2,742.7c3.9,0,5.8,1.6,6.4,5.6c0.1,0.8,0.3,1.6,0.5,2.3c1,2.9,0,5.4-2,7.4c-2.5,2.4-5.3,4.1-8.9,3.8 c-4.6-0.3-7.3-4.2-6.4-8.7c0.7-3.2,1.9-6.1,4.4-8.2C742,743.5,744,742.6,746.2,742.7z"/><path fill="#FAE0C7" d="M767,806.3c-1.4,0-2.9,0-4.3-0.2c-2.9-0.4-5-2.4-5.3-5.3c-0.6-5.9,2-10.8,6.8-14.3 c1.1-0.8,2.5-0.7,3.7-0.4c4.5,1.3,7.1,6.3,6.2,10.9c-0.7,3.5-2.3,6.2-5.3,8.1c-0.4,0.2-0.6,0.8-0.8,1.1 C767.7,806.2,767.4,806.2,767,806.3z"/><path fill="#FAE0C7" d="M801.6,737.7c-0.3-2.7,1-5.1,2.5-7.3c1.2-1.8,3-2.8,5.2-3c4.1-0.4,6.9,1.9,9.4,4.6 c1.3,1.5,1.1,3.4,0.6,5.4c-1.6,5.9-8.4,8.3-13.4,6.9C802.7,743.5,801.5,741.6,801.6,737.7z"/><path fill="#FAE0C7" d="M787.5,823.4c-1.6,0-2.1,0-2.5,0c-4.7-0.3-7.2-3.7-6.1-8.2c0.8-3.2,2.3-5.9,4.8-8c1-0.8,2.1-1.6,3.3-1.8 c2.8-0.6,5.4-0.8,7.1,3.1c0.4,0.9,0.7,1.8,1,2.7C797.3,817.9,793.4,823.4,787.5,823.4z"/><path fill="#FAE0C7" d="M775.6,859.9c-0.8-2.5-1.1-5-0.9-7.6c0.5-0.6,1.1-1.2,1.3-1.9c1-2.5,3.2-3.5,5.4-4.3 c2.6-0.9,7.8,1.4,9.2,3.8c2.9,5.2-0.8,12.7-6.7,13.8c-1.8,0.3-3.5-0.1-5-1.1C777.8,861.7,776.7,860.8,775.6,859.9z"/><path fill="#FAE0C7" d="M729.5,700.7c0.7-0.3,1.5-0.8,2.2-0.8c5.2,0,10.2-1.6,15.3-2.1c0.3,0.1,0.7,0.3,1,0.4 c1,2.5,2.1,4.9,1.8,7.7c-0.5,3.8-2.6,6-6.5,6.3c-2.6,0.2-5.1-0.2-7.3-1.7c-1.9-1.2-3.7-2.4-5.5-3.8c-1.6-1.2-2.3-2.7-1.2-4.6 C729.5,701.7,729.4,701.1,729.5,700.7z"/><path fill="#FAE0C7" d="M811.7,825.3c-2.6-1.6-6.2-1-8.4,1c-0.6,0.4-1.2,0.8-1.7,1.3c-3.5,3.1-5,8.9-2.2,13c1.9,2.7,4.9,4,8.1,3.6 c2.8-0.4,5.1-2,6.7-4.4c0.4-0.6,0.7-1.2,1-1.8c0.9-1.4,1.7-2.9,2.1-4.6C818.4,828.9,816.4,825.7,811.7,825.3z"/><path fill="#FAE0C7" d="M752.1,814.6c-1.6-2.7-4.5-4.1-7.5-4.2c-3.4-0.1-6.1,2.6-6.6,5.7c-0.7,1.4-1.2,2.9-1.6,4.5 c-0.2,1-0.1,2,0.3,3c0,0.1,0,0.2,0.1,0.3c0.8,2.8,3.4,4.6,6.2,5c4.5,0.6,9-2.7,10.1-7.1C753.6,819.4,753.4,816.8,752.1,814.6z"/><path fill="#FAE0C7" d="M816.9,859.9c1.8,3.4,0.7,6.8-0.3,10.2c-0.8,2.5-2.6,4.4-5,5.5c-3.9,1.8-7.3,0.1-8.1-4.2 c-0.1-0.6-0.1-1.3-0.2-1.9c0.4-1.7,0.8-3.4,1.4-5c1.8-4.7,5.2-6.4,10.1-5.2C815.4,859.5,816.2,859.7,816.9,859.9z"/><path fill="#FAE0C7" d="M756.4,847.9c-0.4-1.4-1.2-2.5-2.1-3.5c-0.4-0.5-1-0.9-1.5-1.2c-2.6-1.5-6.1-1.7-8.9-0.1 c-4.1,2.3-6.1,7.3-4.7,11.8c1.6,5.2,8,8.1,12.9,5.3c3.3-1.8,5-5.1,4.6-8.4C756.8,850.5,756.8,849.1,756.4,847.9z"/><path fill="#FAE0C7" d="M761.3,773.5c-0.1,3.6-1.8,6-5,7.4c-1.6,0.7-3.2,1.3-4.9,1.9c-1.5,0.6-3.2,0.6-4.7,0.2 c-2.8-0.8-4.9-2.3-4.9-5.6c0.2-2.5,1.5-4,3.7-5.1c3.7-1.8,7.6-1.9,11.6-1.6C758.9,770.8,760,772.4,761.3,773.5z"/><path fill="#FAE0C7" d="M740.2,866.1c-0.2-2.4-1.3-4.7-3-6.4c-0.3-0.3-0.5-0.5-0.8-0.7c-0.8-0.6-1.7-1.1-2.7-1.4 c-0.5-0.3-1.2-0.6-1.8-0.6c-2.3-0.1-4.1,0.9-5.3,2.3c-2.5,2.2-3.6,5.9-2.9,9.3c1,4.6,5.5,8,10.3,6.7 C738,874.2,740.5,870.1,740.2,866.1z"/><path fill="#FAE0C7" d="M737.4,778.3c-0.1-0.3-0.1-0.6-0.2-0.9c-0.1,0-0.2,0-0.3,0c-0.5-0.8-1.1-1.4-2-1.8 c-3.5-1.7-8.2-1.8-11.6,0.3c-0.7,0.4-1.3,1-1.8,1.5c-3.1,0.9-6,2.9-5.2,6.6c0.8,3.6,4.7,4.8,8,4.5c2-0.2,3.9-0.9,5.7-1.5 c1.2-0.3,2.4-0.5,3.5-1c1.1-0.2,2-0.8,2.7-1.5c0.6-0.4,1.1-1,1.6-1.7C738.8,781.3,738,779.8,737.4,778.3z"/><g><path fill="#FAE0C7" d="M734,723.1c0.1-0.6,0.1-1.1,0-1.7c-0.3-2.1-1.2-4.2-2.8-5.7c-2.3-2-6.2-2.6-8.6-0.2 c-0.8,0.3-1.6,0.9-2.2,1.6c-2.4,3.1-0.7,7.3,0.8,10.4c0.6,1.2,1.5,2.2,2.6,2.8c0,0.6,0,1.3,0,1.9c1.9-0.1,3.7-0.2,5.6-0.7 C733.9,730.2,735.1,726.6,734,723.1z"/><path fill="#FAE0C7" d="M723.8,732.3C723.8,732.3,723.8,732.2,723.8,732.3C723.8,732.2,723.8,732.2,723.8,732.3L723.8,732.3z"/></g><path fill="#FAE0C7" d="M733.3,834c-0.4-1.4-1.1-2.7-2-3.8c0-0.1,0-0.2-0.1-0.3c-0.4-1.4-1.3-2.2-2.3-2.4 c-0.8-0.5-1.7-0.8-2.9-0.8c-1.1,0-2.1,0.4-3,1c-0.7,0.3-1.3,0.7-1.8,1.2c-0.5,0.4-0.9,0.8-1.2,1.3c-1.3,1.7-2.1,3.8-2.4,5.8 c-0.6,5.3,2.6,11.2,8.6,11C732.8,846.7,734.7,839.3,733.3,834z"/><path fill="#FAE0C7" d="M784.1,789.8c-2.9,0-4.7-1.8-4.6-4.5c0-0.3,0-0.6,0.1-0.9c1-5.4,9.1-8.9,13.7-6c1.6,1,2.2,3,1,4.5 c-2.3,3.1-5.3,5.5-9,6.7C784.8,789.8,784.3,789.8,784.1,789.8z"/></g><path fill="#FAE0C7" d="M827.3,707.6c0-0.1-0.1-0.1-0.1-0.2c-0.3-2.6-1.5-5-4.2-6.2c-1.4-0.6-2.9-0.8-4.4-0.7c-1-0.1-2.1,0-3.1,0.3 c-2.4,0.7-4.2,2.6-4.7,5c-1.1,2.4-1.1,5.2-0.1,7.6c1.7,4,5.9,6.1,10.2,5.2C825.6,717.5,828.6,712.4,827.3,707.6z"/></g><path fill="#FAE0C7" d="M635.1,758.1c-5.9-15.1-18.4-25.5-33-31.8c-4.8-2.1-9.6-4.3-14.7-5.8c-6.2-1.8-12.8-2.2-19.2-1.1	c-6.6,1.1-12.4,4.3-18.7,6.1c-11.5,3.3-24,0-34.5-5.8s-19.3-14-28.5-21.7c-20.5-17.2-43-32.1-67-44.1c-3-1.5-6.2-3.2-7.8-6.1	c-1.5-2.8-1.2-6.3-0.8-9.4c3.6-24,15.8-47.4,11.5-71.2c-3.7-20.7-20.9-38.2-41.4-42.5c-11.5-2.4-24.6-0.4-32.9,8	c-5.3,5.4-8.1,12.7-10.4,19.9c-11.6,35.7-16.6,73.5-14.6,110.9c2.9,53,66,77.8,109.1,92.2c37.9,12.7,79,23.2,111.4,46.6	c9.2,6.7,19.4,15.4,29.4,20.8c10,5.4,15,8,25.8,4.2c6.6-2.3,15.9-4.9,20.6-10.1c1.8-2,3.6-4.1,5.2-6.2c5.4-6.8,10.5-14.6,11.7-23	C640.4,779.2,638.3,766.5,635.1,758.1z"/><path fill="#EAC48E" d="M591.3,831.2c-8.4-0.8-16.4-4.6-23.7-8.9c-16.8-9.6-32.2-21.6-49.2-30.9c-27.4-15.1-58.1-22.7-87.8-32.5	c-19.1-6.3-38.1-13.7-55.3-24.3c-18.6-11.5-32-27.1-46.2-43.5c41,24.1,85.9,41,130.8,56.8c35.4,12.4,71.8,24.7,101.2,48	c8.4,6.6,16.2,14.2,25.7,19c9.5,4.9,26,4.7,35.2-0.6c-2.6,9.3-17.4,16.9-27.2,17C593.7,831.4,592.5,831.3,591.3,831.2z"/><path fill="#EAC48E" d="M348.5,542.2c2.4-0.8,4.5-2.9,6.9-4c2.5-1.1,5.1-1.7,7.7-2.1c11.3-1.7,21.9,1.3,31.8,6.5	c10.2,5.4,16,15.9,20.2,26.2c1.8,4.4,4.9,8.7,8.3,8.8c0-3.5-0.3-7.1-0.9-10.6c-3.7-20.7-20.9-38.2-41.4-42.5	c-11.5-2.4-24.6-0.4-32.9,8c-2.6,2.6-4.5,5.7-6.2,9C344.2,542.6,346.6,542.9,348.5,542.2z"/><path id="face" fill="#FAE0C7" d="M694.3,233.8c2.1-9.1,0.6-18-8-23.1c-3.8-2.3-8.9-2.8-12.8-0.4c0.6-10.3-3-27.3-9.3-35.4	c-6.4-8.1-14.7-14.4-23.2-20.1c-19.1-12.7-39.8-23.1-61.4-30.8c-11.3-4-23.1-7.3-35.1-7c-5.2,0.1-10.7,1-14.9,4.1	c-8.7,6.3-9.3,18.7-9.7,29.4c-1.8,46.8-15.9,93.1-40.4,133c-12.4-6.5-29.2-1.3-36.9,10.5c-7.7,11.8-6.3,28.2,2.1,39.5	s22.7,17.3,36.7,17.1c5.2-0.1,10.4-0.9,15.4,0.4c7.5,1.9,8.6,7.7,13.9,13.3c14.5,15.3,36.5,28.5,56.6,34.6	c20.2,6.1,42.9,5.2,61.4-4.9c20.8-11.3,34.5-32.8,41.1-55.5s7-46.7,6.8-70.3c0-2.5,0-5,0.9-7.3c1.2-3,3.8-5.1,6.1-7.3	C688.9,248.2,692.6,241.2,694.3,233.8z"/><path id="hair-shadow" fill="#EAC48E" d="M672.4,219.5c-5.6-19.5-19-36.3-35.1-48.7c-16.7-12.8-36.4-21.2-56.4-27.7	c-6.7-2.2-13.5-4.2-20.4-5.6c-3.7-0.7-7.6-1.2-11.1,0.3s-6,5.3-6.1,9.1c-0.1,6,5.2,9.1,9.2,12.5c5.2,4.5,10.5,9,15.9,13.3	c10.7,8.6,22.1,16.6,34.5,22.5c11.2,5.4,21.1,7,28.9,7.3c8,6.3,18.2,24.7,27.2,29.5c0.9,0.5,2.5,0.6,2.6-0.5	c2.2,1.5,4.7,3.1,7.3,2.6c2.5-0.5,4.2-2.8,4.7-5.3s0-5-0.6-7.4C672.8,220.8,672.6,220.2,672.4,219.5z"/><path id="mouth_4_" fill="#504C4B" d="M622.8,337.6c0,0.9-0.1,1.8-0.2,2.6c-1.4,8-7.4,15-15,17.5c-5.6,1.9-12,1.3-17.3-1.3	c-4.1-2-11.7-7.9-8.4-13.2c1.9-3,6.2-3,9.7-3.1c5.1-0.3,10-1.8,14.3-4.5c2.3-1.5,4.5-3.2,7.1-4.2s5.8-1,7.8,0.8	C622.2,333.6,622.8,335.6,622.8,337.6z"/><path id="eyebrow-left_4_" fill="#EAC48E" d="M536,237.8c-0.6,0.4-1.3,0.8-1.9,1.2c-6,4.3-10.4,10.4-14,16.9c-1.5,2.6-2.8,6-1.1,8.5	c0.6,0.9,1.6,1.6,2.8,1.7c1.9,0.1,3.4-1.5,4.6-3c4-4.6,8.5-8.7,13.5-12.2c3.5-2.5,11.4-8,6.5-13c-1.6-1.6-4-2.1-6.3-1.7	C538.7,236.4,537.3,237,536,237.8z"/><path id="right-eyebrow" fill="#EAC48E" d="M604.7,213.6c0.7,0.1,1.5,0.2,2.2,0.3c7.3,1.2,14,4.7,20,8.9c2.5,1.7,5.2,4.1,4.8,7.2	c-0.1,1.1-0.8,2.2-1.7,2.7c-1.7,0.9-3.7,0.1-5.5-0.6c-5.6-2.4-11.5-4-17.6-5c-4.3-0.7-13.8-2.1-11.6-8.8c0.7-2.1,2.7-3.7,4.8-4.3	C601.7,213.6,603.2,213.5,604.7,213.6z"/><path id="nose_3_" fill="#EAC48E" d="M594.8,301.9c0.1,0,0.2,0,0.2,0c2.5,0.1,5.2,0.8,6.9,2.7c0.4,0.5,0.8,1.1,0.8,1.7	c0.1,1.1-0.8,2.1-1.7,2.9c-3.3,2.8-7.2,4.9-11.4,5.9c-4.5,1.1-7.9-1.7-6.2-6.4c0.8-2.3,2.5-4.1,4.6-5.3	C590.1,302.4,592.4,301.9,594.8,301.9z"/><path id="left-eye" fill="#504C4B" d="M551,290.5c0,1-0.2,2-0.5,3c-0.4,1-1,2-1.8,2.8c-4.9,4.1-10.5-1.4-10.3-6.5	c0.1-1.9,0.6-3.8,1.9-5.1c2.2-2.3,6.2-2,8.5,0.2C550.4,286.2,551.1,288.4,551,290.5z"/><path id="right-eye" fill="#504C4B" d="M607.7,263c0-1,0.2-1.9,0.6-2.9c1.2-2.6,4.1-4.3,7-4.1c1,0.1,2.1,0.4,2.9,1	c1.1,0.8,1.7,2.1,1.9,3.5c0.6,2.8-0.3,6.1-2.5,7.9C613,272,607.7,267.8,607.7,263z"/><path id="hair-main" fill="#504C4B" d="M641.4,83.6c-25.9-22.8-60.7-34.7-95.2-34.5c-28.9,0.2-57.9,8.8-81.2,25.9	c-34.5,25.3-53.8,67-62.1,109c-5.1,25.8-6.5,52.6-1.8,78.5c4,22.4,13.6,53.8,31.9,68.9c18.9,15.7,48.2,27.5,72.8,26.7	c-6.2-9.1-15.7-20.7-21.9-29.9c-14.3,4.2-31.2-3.5-37.4-17.1c4.3-8.6,15.9-12.7,24.6-8.6c4.5,2.1,8,5.8,12.5,7.8	c7.4,3.2,16.3,0.9,22.8-3.9c6.4-4.9,10.8-11.9,14.7-19c22-41.1,29.4-89.2,24.8-135.6c49.3,38.2,91.7,39.9,91.7,39.9s0.4,3.4,2,6.7	c6.1,12.8,13.8,24.8,22.8,35.8c1.9,2.3,4.8,4.7,7.4,3.3c1.4-0.8,2-2.4,2.5-4c5.7-17.6,10.9-35.7,11.6-54.2	c1.3-35.3-14.6-70.4-40.7-94.2C642.5,84.6,641.9,84.1,641.4,83.6z"/><path id="cape_1_" fill="#D66364" d="M986.3,892.9c-0.1-0.2-0.1-0.5-0.2-0.7c-2.4-7.9-9.2-13.7-16.3-17.7c-7.2-4.1-15-6.9-21.9-11.3	c-6.4-4.1-11.8-9.5-17.1-14.8c-5.9-5.8-11.7-11.7-17.6-17.5c-2.2-3.1-4.4-5.8-6.4-8.7c-3.5-5-6.5-10.4-9.2-15.8	c-5.3-10.5-8.9-19.9-11.6-32.4c-2.8-12.8-3.6-25.7-4.4-38.7c-0.5-7-0.6-13.9-0.8-20.9c0-2-0.1-4.1-0.4-6.1	c0.7-9.1-0.2-18.2-2.7-26.9c-1.4-1.8-3.7-3-5.8-2.6c-0.4,0.1-0.9,0.3-1.4,0.5c-4.5,7.9-13.1,13.8-22.2,16.1	c-12.2,3.2-25.1,1.3-37.5-0.9c-8.5-1.5-17.1-3.2-25.7-3.6c-4.1-0.2-8.2-0.4-12.2,0.5c-2.8,0.6-5.9,1-8.8,1.7	c-0.5,0.5-0.9,1.2-0.9,1.9s0.6,1.6,1.3,2.3c0.1,0.1,0.3,0.2,0.5,0.3c12.2-0.2,24.3,1.6,35.5,6.2c14.9,6.2,27.9,18,33.4,33.3	c8.5,23.8-2.3,49.5-8.1,74.1c-11.6,49.3-1.9,103.3,26.1,145.5c3.5,5.3,7.4,10.5,12.6,14.2c15.3,10.9,38.1,4.8,50.5-9.4	c4.9-5.6,9.2-12.6,16.4-14.2c4.2-0.9,8.6,0.3,12.9,0.7c4.3,0.4,9.3-0.3,11.8-3.9c3.8-5.4,0.1-14.6,5.5-18.3c3.1-2,7.5-0.9,10.5-3.1	c3.6-2.6,3.1-8.4,6.2-11.6c1.3-1.4,3-2.1,4.5-3.3C986.6,904.3,987.6,898.1,986.3,892.9z"/><path id="cape-highlight" fill="#D35151" d="M967,902.5c-0.3-0.5-0.7-0.9-1.1-1.3c-3.8-4-8.3-7.3-12.5-10.8	c-44.8-36.8-73-93-75.8-150.9c-0.4-7.7-0.4-16-4.8-22.4c-4.3-6.4-14.8-9.3-19.7-3.3c-3,3.6-2.8,8.8-2.8,13.5	c0.2,37.6-19.7,73.1-19.7,110.6c0,20.5,6.1,40.4,15.3,58.6c9,17.8,20.8,36.1,35.2,50c2.3,2.2,4.7,4.3,7.2,6.3c2.4,1.9,5,3.7,8,3.8	s6.3-2.3,5.9-5.3c-0.2-1.7-1.4-3-2.6-4.3c-18.1-19.5-31.8-43.1-39.9-68.5c7.3,2.4,12.1,9.2,16.7,15.4c12.9,17.5,28,33.5,44.7,47.5	c1.6,1.3,3.3,2.7,5.4,3s4.5-1.1,4.6-3.1c0.1-1.7-1.3-3-2.5-4.1c-16.5-15.2-31.3-32.2-44.2-50.5c-2.3-3.2-4.9-7-5.6-10.9	c-1.1-6.5,4.6-7,8.3-2.5c13.3,16.1,28.7,30.5,45.8,42.6c3.8,2.7,8,5.4,12.6,5.6c0.9,0,1.8,0,2.5-0.6c2-1.6,0.1-4.7-1.8-6.3	c-9.2-8-19.5-14.7-28.1-23.3c-7.9-7.9-16.6-20-15.8-31.8c9.8,6.1,18.8,14.7,27.9,21.9c9.6,7.6,19.2,15.2,28.8,22.8	c1.4,1.1,2.9,2.2,4.6,2.4c1.8,0.1,3.7-1.3,3.5-3C967.3,903.1,967.2,902.8,967,902.5z"/><path id="hand_1_" fill="#FAE0C7" d="M912.3,762.4c-1.8-24.8-14.4-50-32.1-67.5c0.9,15.7-1,37.9-15.7,55.8	c-6.2,7.5-14.7,13.2-19.4,21.7c-2.7,4.9-3.6,11.9,0.8,15.4c2.6,2.1,6.2,2.3,9.6,2.4c-0.4,4.2-3.5,7.7-6.1,11.1	c-5.5,7.1-9.6,15.3-11.1,24.1c-1.3,7.4-1.4,18.6,3.3,25c4.5,6.2,13,6.8,19.8,5.2c12.7-2.9,24.2-10.8,31.5-21.6	c3.4-5,5.9-10.6,8.3-16.2C908.6,799.9,913.7,781.9,912.3,762.4z"/><g id="hand-shadow"><path fill="#EAC48E" d="M879.8,706.1c0.8,2.5-0.7,9.2-1.3,12c-0.9,4-1.9,7.8-2.9,11.7c-2,7.4-5.9,15.4-11.1,21 c1.6,0.2,2.5-1.7,3.9-2.6c5.8-4.1,11.9-8.4,14.8-14.9C887.1,724.3,882.8,715.3,879.8,706.1z"/><path fill="#EAC48E" d="M843,809.2c-3,6.8-4.8,14.2-5.4,21.6c-0.4,6.6,0.1,14.4,4.3,19.9c2.1,2.8,6.3,4.5,9.6,5.2 c1,0.2,11-0.4,10.7-0.8l-0.1-0.1c-2.3-2.9-7-2.3-10.4-3.8c-5.5-2.4-6.8-9.6-6.4-15.5c1.4-18.6,11.9-35.2,23.6-49.6 c1.4-1.8,3-3.7,2.9-6c-4.5,4.8-10.2,8.3-16.4,10.2C850.3,795.8,846.1,802.3,843,809.2z"/></g><g><path fill="#EAC48E" d="M723.8,732.2L723.8,732.2C723.8,732.3,723.8,732.3,723.8,732.2L723.8,732.2z"/><path fill="#EAC48E" d="M728.7,753.4c0-3.6-0.6-7.3-1.6-10.8c-2-7.2-5.4-13.9-10-19.8c-1.5-1.9-3.2-3.8-5.3-5.1 c-6.6-3.8-14.8-0.6-22.4-1.1c-5.8-0.3-11.2-2.9-16.4-5.3c-13.8-6.5-27.6-13.1-41.5-19.6c-3.9-1.9-7.9-3.8-11.1-6.7 c-7.1-6.6-8.9-16.8-11.4-26.1c-2.9-10.4-7.1-20.5-12.6-29.8c-5.7-9.6-13.3-18.9-23.9-22.7c-2.3-0.8-4.8-1.4-7.2-0.7 c-2.1,0.6-3.9,2.3-5.3,4c-7.7,9-10.6,21.9-7.2,33.3c0.4,1.2,0.8,2.7,0,3.7c-0.8,1.1-2.5,1-3.9,1.4c-3,1-4,5.1-2.7,8.1 c1.2,2.9,4,4.9,6.5,6.8c11.6,8.5,22.7,17.6,33.4,27.3c6.7,6.1,7.7,13,12.2,20.4c1.7,2.8,4.1,5.1,6.5,7.4 c12.8,12.2,25.9,24.1,39.3,35.6c11.7,10,25.3,18.6,40.3,22.7c11.7,3.1,25,3,34.8-4c2.6-1.9,4.9-4.2,6.5-6.9 C727.7,761.9,728.6,757.7,728.7,753.4z"/></g><path fill="#FAE0C7" d="M598,631.4c5.3,9.9,8.9,20.9,11.6,30.8c4,14.4,9.6,23.9,23.4,30.3c13.7,6.4,27.5,12.9,41.2,19.3	c4.8,2.3,9.9,4.6,15.2,4.8c4.5,0.1,9.1-1.2,13.3,0.2c5.1,1.7,8,6.8,10.5,11.5c4.9,9.4,9.8,19.6,8.5,30.1c-2.2,17.6-30.2,14-41.4,9.6	c-11.7-4.6-21.7-12.6-31.5-20.5c-11.7-9.4-23.5-19-32-31.3c-5.9-8.6-10-18.2-12.9-28.2c-2.9-9.8-4-20.1-7.6-29.7	c-1.4-3.8-3.3-9.7-5-13.3c-3.6-7.7-5.3-13.4-9.9-20.8c-4.6-7.4-11.5-13.7-19.9-15.6c2.1-4,8.1-3.6,12.2-1.7	C584.7,611.8,592.4,620.9,598,631.4z"/><path id="ball-purple" fill="#B98CDC" d="M624.8,715.1c-8.4-5-16.8-8.5-26.8-7.2c-11.2,1.4-22.5,9.1-27.9,19.1	c-5.5,10.2-6.6,25.2-1.2,35.8c2.1,5.3,5.7,10.3,9.5,14.6c8.3,9.5,22,13.4,34.2,14.3c7.5,0.5,14.5-0.9,20.2-6.1	c7.7-7,13.2-17.6,15.1-27.8C651.2,740.2,639.4,723.8,624.8,715.1z"/><path id="ball-purple_1_" fill="#B98CDC" d="M624.8,715.1c-8.4-5-16.8-8.5-26.8-7.2c-11.2,1.4-22.5,9.1-27.9,19.1	c-5.5,10.2-6.6,25.2-1.2,35.8c2.1,5.3,5.7,10.3,9.5,14.6c8.3,9.5,22,13.4,34.2,14.3c7.5,0.5,14.4,0.2,20.1-5	c7.7-7,13.3-18.7,15.2-28.9C651.2,740.2,639.4,723.8,624.8,715.1z"/><path id="hat-brim-behind" fill="#97C9EE" d="M930.1,640.1c-1.8-24.4-52.1-165-184.7-159.9c-9.7,0.4-25.2,0.2-32.7,7.5	c-11.8,11.5,0.3,28.2,6.7,39c12.4,21.1,26.6,41.5,44.7,58c7.2,6.6,15.1,12.4,23.3,17.6c1.7,2.2,3.7,4.2,5.6,5.8	c7.3,6.4,15.3,12.2,23.3,17.6c15.9,10.9,33,20.3,50.3,28.7c8.7,4.2,17.6,8.1,26.5,11.9c9.7,4.1,21,6.7,30-0.5	c4.8-3.9,6.7-9,6.5-14.3C930.4,648,930.4,643.9,930.1,640.1z"/><path id="head_2_" fill="#FAE0C7" d="M912.8,583.9c-0.2-0.9-0.4-1.7-0.6-2.5c-3.6-15.4-13.3-28.8-23.7-40.3	c-23.9-26.5-56.7-47-92.3-48c-12.1-0.3-25.1,2-33.9,10.3c-5.5,5.3-8.8,12.4-12,19.3c-6.6,14.4-13.1,28.9-16.8,44.3	c-4.5,18.8-4.4,38.7,0,57.6c4.1,17.5,11.4,36.4,24.8,48.6c5.8,5.3,11.1,9.7,18.9,11.7c6.7,1.7,13.7,1.6,20.6,1.4	c22.3-0.6,48.7-1.7,64.9-19.8c1.3-1.4,2.5-3,4.4-3.5c1.1-0.3,2.3-0.2,3.5-0.1c8.9,0.5,17.6-3.7,24-9.9s10.6-14.4,13.7-22.7	C913.8,615.7,915.9,599.2,912.8,583.9z"/><path id="ear-lobe" fill="#EAC48E" d="M888,644.3c0.5,7.6-6.5,10.5-12.9,9.8c-1.6-0.2-2.6-1.2-3.2-2.6c-2.4-5.5,9.3-2.8,9.4-8.3	c0.1-2.5-0.2-4.6-2.8-6c-1.6-0.9-1.3-2.8,0.3-3.9c2.8-1.8,5.6-1.1,7.2,1.9C887.6,638,888.3,641.1,888,644.3z"/><path id="eyebrow-left_3_" fill="#EAC48E" d="M769.6,550.5c0.2,0,0.4,0,0.6,0c2.6,0.1,9.7,0,10.3,3.6c0.2,1.6-1.2,3-2.7,3.5	c-2.7,1-5.8,0.5-8.7,1c-2.4,0.4-4.6,1.6-6.9,2.2c-3,0.7-9.2-0.3-7.2-4.8c0.5-1.1,1.5-2,2.5-2.7C761,551,765.4,550.5,769.6,550.5z"/><path id="eyebrow-right_2_" fill="#EAC48E" d="M822.3,566.1c1.1-0.1,2.1,0.3,2.9,1.1c5.6,5.6,9.7,12.7,10.7,20.8	c0.3,2.6-1.5,4.4-4,3.9c-1-0.2-1.9-0.7-2.2-1.6c-0.5-1.5-0.9-3-1.3-4.6c-1.5-5.5-4.5-9.4-8.5-13.5c-0.8-0.9-1.1-1.9-1-3.1	C818.9,567.1,820,566.1,822.3,566.1z"/><path id="mouth_3_" fill="#504C4B" d="M774.4,642.2c-5.4-0.1-9.5-6-6.3-10.9c1.7-2.5,5.1-3.7,7.9-2.8c2.9,0.9,5,3.7,5.2,6.7	c0.1,1.3-0.2,2.7-0.9,3.8c-1.1,1.9-3.4,3.1-5.6,3.2C774.6,642.2,774.5,642.2,774.4,642.2z"/><path fill="#EAC48E" d="M787.2,610.8c0.4,2.1-0.3,4.1-2.9,4.5c-1.2,0.2-2.3-0.2-3.4-0.6c-3-1.2-5.8-3.1-8.1-5.4	c-0.4-0.4-0.9-0.9-1-1.6c-0.2-1.3,1.1-2.3,2.2-2.8c3-1.3,6.6-1.6,9.4,0C785.1,605.7,786.8,608.4,787.2,610.8z"/><path id="eye-left_2_" fill="#504C4B" d="M758.4,582c0-0.3,0-0.5,0-0.8c0.5-5.9,8.8-7.5,11-1.7c0.8,2.1,0.3,4.5-1.1,6.3	c-0.7,0.8-1.5,1.6-2.5,1.9c-0.9,0.3-1.9,0.3-2.8,0C760.4,587,758.5,584.6,758.4,582z"/><path id="eye-right_2_" fill="#504C4B" d="M811.9,593.8c2.6-0.3,5.5,3.2,5.4,5.6c-0.2,3.5-2.5,5.9-6.1,5.9c-2.8,0-4.9-2.5-4.9-5.8	C806.3,595.9,808.5,593.7,811.9,593.8z"/><path fill="#504C4B" d="M936.8,567.1c-0.7-12.3-3.3-24.6-7.2-36.3c-6.9-20.4-18.3-39.6-34.6-53.7s-37.7-22.8-59.2-21.8	c-6.7,0.3-13.4,1.6-20,3.2c-16.4,4.1-32.5,10.7-45.3,21.9c-7.7,6.7-13.9,15.1-17.8,24.6c-2,4.9-3.3,10-3.8,15.3	c-0.2,2-1.1,4.6,1.2,5c1.9,0.4,4.3-3.3,5-4.6c2.9-5,7.1-9.2,12.2-12c6.3,12,17.2,21.3,29.8,26.3s26.6,5.9,39.9,3.3	c2-0.4,4-0.8,6-0.3c2.2,0.6,3.9,2.2,5.5,3.9c7.7,7.7,15.5,15.6,20.6,25.3c5.1,9.6,7.3,21.5,3.1,31.6c-3.9,9.4-12.7,16.3-15.8,26	c-0.9,2.9-1.2,6.1,0,8.8s4.3,4.8,7.2,4c3.1-0.8,4.7-4.2,6.7-6.7c4.3-5.2,12.5-6.6,18.4-3.2s8.6,11.3,6.2,17.6	c-0.6,1.5-1.4,3-1.1,4.5c0.4,2.3,3.1,3.6,5.4,3.3c2.3-0.3,4.2-1.8,6-3.4c16.1-14.1,26.4-34.2,30.2-55.3	C936.8,585.1,937.3,576.1,936.8,567.1z"/><path id="hat-main" fill="#AFD7FF" d="M944.6,522c-14-33.3-43.5-59-77.4-71.3c-11.4-4.2-23.5-7-35.7-6.5c-9.2,0.4-18.3,2.7-26.9,5.9	c-8.4,3.1-17.1,6.8-24.7,11.5c-1,0.6-2,1.3-2.9,2c-0.1,0.1-0.1,0.1-0.2,0.2c-1.9,1.2-3.7,2.4-5.6,3.6c-1.6-0.1-3.2-0.2-4.8-0.2	c-10.8,0-21.5,2.4-31.8,5.4c-9.9,2.8-21,7.4-24.8,16.8c-1.6,3.6-2.3,7.2-2.4,10.8c3.3-7.6,9.5-13.8,17.6-14.6	c4.3-1.2,8.9-1.1,13.4-0.9c28.8,1.5,57.8,7.1,83.3,20.4c34.2,17.9,60.2,48.6,79.2,82.1c11.3,19.9,20.6,41.4,23.6,64	c0.4,0.9,0.6,1.9,0.7,3.1c0,3.5,0.2,7.2-1,10.6c-0.1,0.2-0.2,0.4-0.2,0.6c4.2-1.8,7.8-5.2,10.1-9.3c4.4-7.9,4.2-17.4,2.8-26.4	c0.2-0.7,0.4-1.4,0.5-2.2c0.8-8.6,1.6-17.1,2.3-25.7c0-0.1,0-0.2,0-0.3c3.1-14,9.9-27.3,11.5-41.5	C952.7,547.2,949.6,534.1,944.6,522z"/><path id="hat-stripe" fill="#97C9EE" d="M938,624.7c-3.8-2.7-4.8-8-5.6-12.6c-7.2-38-32.1-70.5-60.8-96.5	c-13.4-12.2-27.9-23.3-44.2-31.1c-9.8-4.7-20.2-8.1-30.6-11c-5.2-1.5-25.2-6.3-25.2-6.3s2.4-1.3,4.5-2.9c2.9-2.1,1.4-1.5,2.9-2.1	c2.3-0.9,5-0.4,7.5,0.1c7.9,1.7,15.8,3.4,23.6,5.7c33.2,10.1,61.9,31.9,85.1,57.7c12.4,13.8,23.5,28.9,31.4,45.7	s12.7,35.2,12.1,53.8C938.4,625,938.2,624.9,938,624.7z"/><path id="body" fill="#504C4B" d="M323.4,384.3c-0.9-0.9-1.9-1.7-3-2.4c-2.5-1.6-5.2-2.5-8.1-2.7c-7-0.5-14-0.7-20.7,2.2	c-1.6,0.7-2.3,0-2.1-1.9c0.3-2.5,1.4-4.6,2.9-6.5c3-3.9,6.9-6.6,11.4-8.4c1.3-0.5,2.6-1.1,3.9-1.7c0.8-0.4,0.7-1.4-0.1-1.9	c-2.3-1.5-4.8-1.7-7.4-0.9c-7.7,2.3-12.9,7.4-15.9,14.8c-0.5,1.2-0.6,2.5-0.8,3.7c-0.1,0.8-0.1,1.6,0,2.4c0.1,1.5-0.5,2.4-2,2.8	c-2.7,0.8-4.7,2.6-6.6,4.6c-1.5,1.6-3,3.3-4.6,4.9c-0.7,1.1-1.4,2.1-2,3.2c-0.8,1.5-1.6,3.1-2.4,4.7c-0.3,0.5-0.6,1-0.8,1.5	c-2.8,5.3-4.7,10.9-6.3,16.7c-2.8,10.3-4.6,24.2-0.2,34.2c0.2,0.4,0.4,0.8,0.7,1.1c0.2,0.5,0.4,1,0.7,1.4c1.4,1,2.9,1.3,4.5,1h0.1	c6.4-0.5,8.3-5.6,10.2-11.1c2-5.9,3.6-12,5.4-18c3.1-10.3,7.1-20.3,10.5-30.5c0.3-0.2,0.5-0.4,0.8-0.6c0.3-2.2,1.6-4.2,1.7-6.5	c0.1-2.8,0.2-2.7,2.7-3.5c4.6-1.5,16-1.5,20.8,0c1.4,0.4,2.7,0.9,4.1,1.3c1.1,0.3,2.2,0.6,3.2-0.2	C324.9,387.5,324.6,385.6,323.4,384.3z"/><g id="wing-left"><path fill="#B98CDC" d="M260,456.2c-4.3,1.2-8.9,2.1-13.3,1.5c-6.4-0.9-12.3-5.1-15.1-10.9c-2-4.1-2.5-9-1.4-13.4 c1.2-5,4-7.5,0.9-12.5c-3.4-5.4-5.3-12-4.6-18.4s4-12.6,9.3-16.2c5.1-3.5,11.7-4.4,17.7-3.1c6,1.3,11.5,4.7,15.8,9.1 c0.3,0.3,0.7,0.7,0.8,1.2c0.2,0.7-0.2,1.5-0.6,2.1C258.3,413.4,254.8,435.8,260,456.2z"/><path fill="#FAE0C7" d="M247,394.3c1.4,0,2.8,0.3,4,0.8c2.9,1.2,5.4,3.7,5.9,6.8c0.5,3.1-1,6.2-3.2,8.4c-1.6,1.5-3.6,2.6-5.7,3 c-5.6,0.9-9.8-4.2-10-9.5c-0.1-3,1.3-6.1,3.7-7.8C243.3,394.8,245.1,394.3,247,394.3z"/><path fill="#FAE0C7" d="M254.2,436.6c0,3.1-1.8,6.1-4.4,7.5c-5,2.8-10.7-0.4-11.7-5.7c-0.5-2.6-0.2-5.4,1.2-7.6s3.9-3.8,6.5-3.7 c1.5,0.1,2.9,0.6,4.1,1.5c2.6,1.8,4.3,4.8,4.3,7.9C254.2,436.5,254.2,436.5,254.2,436.6z"/></g><g id="wing-right"><path fill="#B98CDC" d="M291.7,397.5c3.3-0.8,7-0.5,10.2,0.6c9.8,3.2,17.2,12.7,18.1,23c1,10.3-4.3,20.8-13,26.5 c-1,0.7-2.1,1.3-2.5,2.4c-0.4,1,0,2.2,0.2,3.2c1.7,7.6-3,16-10.1,19.2c-11.1,5-25.2-1.6-28.6-13.2c-0.2-0.7-0.4-1.4-0.1-2 s0.9-1,1.4-1.5c3.1-2.6,3.8-6.9,4.3-10.9c1.7-12.1,3.9-24.3,8.8-35.5c1.7-4,3.9-8,7.6-10.3C289.3,398.3,290.5,397.8,291.7,397.5z"/><path fill="#FAE0C7" d="M298.8,432.9c-0.6,0-1.2,0-1.8-0.1c-7.2-1.1-12.6-8-9.7-15.2c1.8-4.3,6.5-7.1,11.1-6.6s8.6,4.3,9.3,8.9 c0.4,2.4-0.1,4.8-1,7c-0.7,1.7-1.6,3.3-3,4.5C302.4,432.4,300.6,432.9,298.8,432.9z"/><path fill="#FAE0C7" d="M288.5,447.9c0.3,0,0.6,0,0.9,0c1.6,0.1,3.2,0.3,4.5,1.2c1.5,1,2.4,2.8,2.8,4.6c0.6,3.6-1.2,7.6-4.3,9.4 c-5.5,3.2-13.5-0.5-13.4-7.2c0-2.4,1.3-4.8,3.3-6.2C283.9,448.4,286.2,447.9,288.5,447.9z"/></g><path id="shadow" fill="#B5D17A" d="M718.7,1014.2c-10-8.9-28-10.4-41.2-8.1c-9.4,1.6-18.6,5.1-22.6,13.4c-4,8.4-0.7,17.8,7.6,23	c11.3,7.1,28.2,9.5,41.6,7c13.3-2.5,25.5-13.8,20.7-26.6C723.4,1019.4,721.3,1016.5,718.7,1014.2z"/><path id="ball" fill="#F38985" d="M740.3,993.4c-1.5,23.9-21.5,46.1-45.5,48.2c-17.7,1.6-35.9-7.4-45.4-22.4s-9.8-35.3-0.7-50.6	c14.9-25.2,56.5-33.3,78.1-11.9c8.7,8.6,13.3,20.8,13.5,33C740.4,990.9,740.3,992.1,740.3,993.4z"/><path fill="#B07DD9" d="M637.9,782.5c0.5-0.9,1.1-1.9,0.7-2.9c-0.1-0.4-0.5-0.7-0.9-0.7s-0.9,0.3-1.4,0.4c-1.5,0.4-3.1,0.6-4.7,0.9	c-1.6,0.2-3.2,0.4-4.8,0.4c-3.2,0.1-6.3-0.2-9.5-0.7c-3.1-0.5-6.2-1.4-9.2-2.4c-5-2.1-9.9-4.5-14.3-8.2c-6.9-6-11.9-14.2-12.7-23.4	c-0.1-0.8-0.5-1.3-1-1.6c-0.6-7.2-1.2-14.5-2-21.7c-0.2-1.6-1.8-2.4-3-1.7c-0.2,0-0.4,0.1-0.5,0.2c-1.4,0.8-2.1,1.8-2.8,3.1	c-0.6,1.2-1.4,2.4-1.7,3.7l0,0c-5.5,10.2-6.7,25.2-1.3,35.8c2.1,5.3,5.7,10.3,9.5,14.7c8.3,9.5,22,13.5,34.2,14.4c3,0.2,6,0.1,9-0.5	s5.8-1.8,8.5-3.1c2.1-1.1,4.2-2.4,5.9-4C636.7,784.3,637.3,783.5,637.9,782.5C637.8,782.5,637.9,782.5,637.9,782.5z"/><path fill="#DC7A7A" d="M734.1,997.6c-0.3-1-0.6-2.1-1.5-2.6c-0.4-0.2-0.8-0.2-1.2,0.1s-0.4,0.9-0.7,1.3c-0.8,1.3-1.8,2.6-2.8,3.9	c-1,1.3-2.1,2.5-3.2,3.6c-2.2,2.3-4.7,4.3-7.3,6c-2.6,1.8-5.4,3.3-8.3,4.6c-5.1,1.9-10.3,3.6-16,3.9c-9.1,0.5-18.4-2.1-25.3-8.1	c-0.6-0.5-1.2-0.6-1.8-0.5c-5.5-4.8-10.9-9.6-16.4-14.3c-1.2-1.1-3-0.4-3.4,0.8c-0.1,0.1-0.2,0.3-0.3,0.5c-0.5,1.5-0.3,2.8,0.1,4.2	c0.4,1.3,0.6,2.7,1.3,3.9l0,0c3.1,11.2,12.6,22.9,23.8,26.8c5.2,2.4,11.3,3.5,17,4.1c12.6,1.2,25.2-5.4,34.7-13.3	c2.3-1.9,4.4-4.1,6.2-6.6s2.9-5.3,4-8.1c0.8-2.2,1.4-4.6,1.5-7C734.5,999.7,734.4,998.6,734.1,997.6L734.1,997.6z"/><path id="face_1_" fill="#FAE0C7" d="M694.3,233.8c2.1-9.1,0.6-18-8-23.1c-3.8-2.3-8.9-2.8-12.8-0.4c0.6-10.3-3-27.3-9.3-35.4	c-6.4-8.1-14.7-14.4-23.2-20.1c-19.1-12.7-39.8-23.1-61.4-30.8c-11.3-4-23.1-7.3-35.1-7c-5.2,0.1-10.7,1-14.9,4.1	c-8.7,6.3-9.3,18.7-9.7,29.4c-1.8,46.8-15.9,93.1-40.4,133c-12.4-6.5-29.2-1.3-36.9,10.5c-7.7,11.8-6.3,28.2,2.1,39.5	s22.7,17.3,36.7,17.1c5.2-0.1,10.4-0.9,15.4,0.4c7.5,1.9,8.6,7.7,13.9,13.3c14.5,15.3,36.5,28.5,56.6,34.6	c20.2,6.1,42.9,5.2,61.4-4.9c20.8-11.3,34.5-32.8,41.1-55.5s7-46.7,6.8-70.3c0-2.5,0-5,0.9-7.3c1.2-3,3.8-5.1,6.1-7.3	C688.9,248.2,692.6,241.2,694.3,233.8z"/><path id="hair-shadow_1_" fill="#EAC48E" d="M672.4,219.5c-5.6-19.5-19-36.3-35.1-48.7c-16.7-12.8-36.4-21.2-56.4-27.7	c-6.7-2.2-13.5-4.2-20.4-5.6c-3.7-0.7-7.6-1.2-11.1,0.3s-6,5.3-6.1,9.1c-0.1,6,5.2,9.1,9.2,12.5c5.2,4.5,10.5,9,15.9,13.3	c10.7,8.6,22.1,16.6,34.5,22.5c11.2,5.4,21.1,7,28.9,7.3c8,6.3,18.2,24.7,27.2,29.5c0.9,0.5,2.5,0.6,2.6-0.5	c2.2,1.5,4.7,3.1,7.3,2.6c2.5-0.5,4.2-2.8,4.7-5.3s0-5-0.6-7.4C672.8,220.8,672.6,220.2,672.4,219.5z"/><path id="mouth_2_" fill="#504C4B" d="M622.8,337.6c0,0.9-0.1,1.8-0.2,2.6c-1.4,8-7.4,15-15,17.5c-5.6,1.9-12,1.3-17.3-1.3	c-4.1-2-11.7-7.9-8.4-13.2c1.9-3,6.2-3,9.7-3.1c5.1-0.3,10-1.8,14.3-4.5c2.3-1.5,4.5-3.2,7.1-4.2s5.8-1,7.8,0.8	C622.2,333.6,622.8,335.6,622.8,337.6z"/><path id="eyebrow-left_2_" fill="#EAC48E" d="M536,237.8c-0.6,0.4-1.3,0.8-1.9,1.2c-6,4.3-10.4,10.4-14,16.9c-1.5,2.6-2.8,6-1.1,8.5	c0.6,0.9,1.6,1.6,2.8,1.7c1.9,0.1,3.4-1.5,4.6-3c4-4.6,8.5-8.7,13.5-12.2c3.5-2.5,11.4-8,6.5-13c-1.6-1.6-4-2.1-6.3-1.7	C538.7,236.4,537.3,237,536,237.8z"/><path id="right-eyebrow_1_" fill="#EAC48E" d="M604.7,213.6c0.7,0.1,1.5,0.2,2.2,0.3c7.3,1.2,14,4.7,20,8.9c2.5,1.7,5.2,4.1,4.8,7.2	c-0.1,1.1-0.8,2.2-1.7,2.7c-1.7,0.9-3.7,0.1-5.5-0.6c-5.6-2.4-11.5-4-17.6-5c-4.3-0.7-13.8-2.1-11.6-8.8c0.7-2.1,2.7-3.7,4.8-4.3	C601.7,213.6,603.2,213.5,604.7,213.6z"/><path id="nose_2_" fill="#EAC48E" d="M594.8,301.9c0.1,0,0.2,0,0.2,0c2.5,0.1,5.2,0.8,6.9,2.7c0.4,0.5,0.8,1.1,0.8,1.7	c0.1,1.1-0.8,2.1-1.7,2.9c-3.3,2.8-7.2,4.9-11.4,5.9c-4.5,1.1-7.9-1.7-6.2-6.4c0.8-2.3,2.5-4.1,4.6-5.3	C590.1,302.4,592.4,301.9,594.8,301.9z"/><path id="left-eye_1_" fill="#504C4B" d="M551,290.5c0,1-0.2,2-0.5,3c-0.4,1-1,2-1.8,2.8c-4.9,4.1-10.5-1.4-10.3-6.5	c0.1-1.9,0.6-3.8,1.9-5.1c2.2-2.3,6.2-2,8.5,0.2C550.4,286.2,551.1,288.4,551,290.5z"/><path id="right-eye_1_" fill="#504C4B" d="M607.7,263c0-1,0.2-1.9,0.6-2.9c1.2-2.6,4.1-4.3,7-4.1c1,0.1,2.1,0.4,2.9,1	c1.1,0.8,1.7,2.1,1.9,3.5c0.6,2.8-0.3,6.1-2.5,7.9C613,272,607.7,267.8,607.7,263z"/><path id="hair-main_1_" fill="#504C4B" d="M643.3,83.6c-25.9-22.8-60.7-34.7-95.2-34.5c-28.9,0.2-57.9,8.8-81.2,25.9	c-34.5,25.3-53.8,67-62.1,109c-5.1,25.8-6.5,52.6-1.8,78.5c4,22.4,13.6,53.8,31.9,68.9c18.9,15.7,48.2,27.5,72.8,26.7	c-6.2-9.1-15.7-20.7-21.9-29.9c-14.3,4.2-31.2-3.5-37.4-17.1c4.3-8.6,15.9-12.7,24.6-8.6c4.5,2.1,8,5.8,12.5,7.8	c7.4,3.2,16.3,0.9,22.8-3.9c6.4-4.9,10.8-11.9,14.7-19c22-41.1,29.4-89.2,24.8-135.6c49.3,38.2,91.7,39.9,91.7,39.9s0.4,3.4,2,6.7	c6.1,12.8,13.8,24.8,22.8,35.8c1.9,2.3,4.8,4.7,7.4,3.3c1.4-0.8,2-2.4,2.5-4c5.7-17.6,10.9-35.7,11.6-54.2	c1.3-35.3-14.6-70.4-40.7-94.2C644.5,84.6,643.9,84.1,643.3,83.6z"/></svg>