<?xml version="1.0" encoding="utf-8"?>
<!-- Generator: Adobe Illustrator 22.0.1, SVG Export Plug-In . SVG Version: 6.00 Build 0)  -->
<svg version="1.1" id="bundle_x5F_illustration-3_x5F_v1_xA0_Image_1_"
	 xmlns="http://www.w3.org/2000/svg" xmlns:xlink="http://www.w3.org/1999/xlink" x="0px" y="0px" viewBox="0 0 1200 1200"
	 enable-background="new 0 0 1200 1200" xml:space="preserve">
<g id="background">
	<path id="wall" fill="#FDE4BB" d="M191,751.5c83.3,10.6,165.1,30.2,245.6,53.5c41.1,11.9,82,24.7,122.8,37.7
		c36.2,11.6,72.6,22.6,108.1,36.2c34.8,13.4,68.9,28.9,100.8,48.3c33.4,20.4,63.6,45.5,92.6,71.8c14.2,12.9,27.9,26.2,41.4,39.8
		c141.8-94.4,235.3-255.8,235.3-439c0-291.1-236-527-527-527s-527,236-527,527c0,50.5,7.1,99.4,20.4,145.6
		C133.1,745.6,162.2,747.8,191,751.5z"/>
	<path id="sheet" fill="#FFFFFF" d="M824.7,999.5c-28.2-24.4-57.9-46.1-90.8-63.9c-31.5-17-64.7-30.6-98.4-42.5
		c-36.5-12.9-73.7-24.1-110.6-35.8c-40.2-12.7-80.6-25-121.2-36.3c-76.7-21.3-155.4-39.7-234.5-47.6c-19.1-1.9-38.3-3.1-57.6-3.4
		c70.7,207.6,267.4,357,499,357c98.9,0,191.5-27.3,270.6-74.7C863,1034.1,844.2,1016.4,824.7,999.5z"/>
</g>
<g id="man-neck">
	<path id="neck_1_" fill="#D39A7E" d="M601.9,374.6c-1.4-3.7-4-6.7-8.5-8.3c-3.9-1.4-8.5-1.2-12.6-1.7c-7.3-0.8-17.1-5-21.5,3.7
		c-8.7,17.5-28.8,27.9-47.6,30.4c-24.2,3.2-45.9-8.9-63.7-24c-1.5-1.3-3-2.5-4.7-3.6c-2.6-1.7-5.6-3.1-7.3-5.8
		c-1-1.6-2.9-2.1-4.6-1.2c-2.5,1.3-6,2.7-8.3,4.9c-4.6,1.9-9.1,4-13.1,6.9c-1.7,2.2-3.6,4.3-4.9,6.8c-1,1.9-1.5,4-2,6.1
		c0,2.7,0.2,5.4,0.7,7.5c1.9,9.8,7.2,19,14,26.2c13.3,13.9,32.6,20.5,50.4,26.2c14.9,4.8,30.5,8.7,46.2,9.7
		c26.6,1.8,57.1-3.6,73.1-27.3c7.6-11.2,11.8-24.4,14.4-37.8C603.2,387.5,604,380.3,601.9,374.6z"/>
	<g id="neck-shadow">
		<path fill="#D39A7E" d="M594.1,377L594.1,377C593.7,375.3,595.2,375.9,594.1,377z"/>
		<g>
			<path fill="#C68A6D" d="M569.3,361.9L569.3,361.9C569.4,361.9,569.4,361.9,569.3,361.9L569.3,361.9z"/>
			<path fill="#C68A6D" d="M570.2,363c-0.2-0.3-0.5-0.6-1.1-1.5c-4.3-7-10.2-10.6-18.1-12.5c-24.6-5.8-49.6-11.6-74.8-9.7
				c-10.5,0.8-21.5,3.2-30.1,9.5c-4.1,3-5.9,6.9-9.4,10.4s-7.8,6.1-11.5,9.4c-0.3,0.2-0.5,0.5-0.5,0.9c0,0.3,0.2,0.5,0.4,0.7
				c16,16.8,36.2,29.6,58.4,36.1c13.8,4,27.6,5.2,41.2,0.3c12.1-4.3,22.6-12.3,31.1-21.8c4.4-4.9,8.3-10.1,11.7-15.6
				c0.7-1.1,2.2-2.8,2.5-4.1C570.4,363.6,570.5,363.3,570.2,363z"/>
		</g>
	</g>
</g>
<g id="man-shirt">
	<path id="shirt_2_" fill="#E18654" d="M736.8,432.7c-0.3-2.5-1.2-4.7-2.5-6.6c-7.6-16.1-25.6-24.4-42.4-30.3
		c-27.3-9.7-55.4-17-84-21.9c-2.5-9.6-15.8-14.4-23.8-8.5c5.5,18.2-3.3,38.7-18.3,50.5c-14.9,11.8-34.8,15.8-53.8,15
		c-28.2-1.2-57.1-13.5-72.5-37.2c-6.5-10-13.6-23.5-25.4-22.1c-3.5,0.4-6.7,2.2-9.8,3.9c-41.5,22.1-94,27-125,62.4
		c30.7,3.3,56.8,23.7,78.4,45.7c27.6,28.1,51.1,59.9,77.1,89.4c25.5,29.1,54.9,58,90.6,74.3c2-4,3.2-8.3,3.8-12.7
		c0.6-4.8,0.3-11.1,4.3-14.5c1.6-1.4,3.7-2,5.7-2.5c7.7-2.2,15.4-4.3,23.1-6.7c8.9,0.2,17.7-1.6,26.2-4.1c8.1-2.4,16.4-4.8,23.9-8.7
		c7.3-3.8,13.5-9.8,19.5-15.4c6.1-5.7,12-11.5,17.9-17.5c12.1-12.4,23.6-25.3,34.9-38.4c11.4-13.3,23.1-26.5,33.7-40.5
		C730,470.9,738.9,452.2,736.8,432.7z"/>
	<path id="shirt-highlight" fill="#ED9059" d="M404.1,534.8c-4.2-4.6-8.6-9-12.4-13.9c-3-3.8-6.3-7.2-9.4-10.9
		c-3.2-4-6.9-7.6-10.9-10.7c-0.7-0.6-1.6-1.1-2.1-1.9c-2.1-3.3-5.2-5.7-7.8-8.5c-4.6-4.9-8.8-10.1-13.7-14.7
		c-4.9-4.5-9.5-9.4-14.7-13.6c-4.3-3.5-9.1-6.4-13.8-9.4c-9-5.7-19-9-29.3-11.4c-3.6-0.8-7.2-1.4-10.8-2.1
		c6.2-6.5,12.6-12.6,20.3-17.4c5.1-3.2,10.4-6.2,15.8-9c6.6-3.4,13.1-7.2,20.2-9.8c1.3-0.5,2.7-0.9,4.1-1.3
		c5.8-1.7,11.6-3.4,17.4-5.2c4.6-1.4,9-3.3,13.2-5.5c2.8-1.5,5.8-2.5,8.8-3.7c7.9-2.9,15.9-5.5,24.1-7.5c2.1,1.2,3.3,3.2,3.7,5.4
		c3.2,17.1,13.3,29.4,26.7,39.5c17.8,13.3,36.8,24.3,58.3,30.4c10.8,3.1,22,3.9,33.2,2.5c4.6-0.6,9.2-0.2,13.8-1.3
		c15.8-3.8,30.9-9.3,43.7-19.7c5.9-4.8,10.8-10.5,13.2-17.9c3.4-10.5,8.7-20.3,10.3-31.3c0.6-3.9-1-8,1.6-11.6
		c6-0.3,11.7,1.5,17.5,2.5c5.8,0.9,11.5,2.3,17.3,3.8c5.4,1.4,10.8,2.8,16.1,4.7c8,2.8,16.1,5.1,24.3,7.3
		c9.3,2.5,18.1,6.1,26.7,10.3c3.4,1.7,6.8,3.6,10.6,4.3c4.5,6.5,9,12.9,14.2,18.8c-2.7,5.2-6.3,9.8-9.3,14.8c-0.6,0.9-1.5,1.7-2.8,1
		c-3.1-2.5-6-5.3-7.5-9.2c-0.6-1.5-1.5-3-3.3-3c-2.1,0-2.9,1.7-3.6,3.4c-1.7,4.1-2.2,8.4-1.9,12.7c0.8,9-1.4,17.1-6.4,24.6
		c-1.2,1.9-2.5,3.8-3.3,5.8c-4.3,10.4-12.4,17.3-21.7,22.9c-4,2.4-8,4.7-12,7c-1.8,1.1-3.7,2.2-5.8,2.2c-5.3-0.1-9.9,2.1-14.6,4
		c-13.6,5.7-27.5,10.2-42.5,11c-7.8,0.4-15.4,2.9-23.3,2.8c-11.3-0.1-22.7,0.4-33.5-4c-6.4-2.6-12.3-2.7-19-0.6
		c-16.6,5.1-32.6,12.4-49.8,15.6c-12.8,2.4-25.5,4.1-38.6,2.6c-10-1.1-20-2.4-29.9-3.8C404.9,535.4,404.5,535.1,404.1,534.8z"/>
</g>
<g id="man-head">
	<path id="head_1_" fill="#D39A7E" d="M622.7,228.7c-0.6-2.3-1.5-4.4-2.9-6.3c-2.8-3.7-7.9-6.1-12.4-4.6c0.1-17.8-0.2-35.6-1.4-53.6
		c-1.8-28.9-8.5-56.8-30.7-75.4c-16.8-14.1-38.4-23-60.4-23c-16.3,0-32.3,4.6-47.3,10.9c-18.3,7.7-35.8,18.2-49.4,32.7
		c-21.8,23.5-31.7,56.6-30.6,88.6c0.1,1.8,0.1,3.6,0,5.3c0.5,3.1,0.8,6.3,0.2,9.5c-0.4,2.1-3.1,1.2-4.6,1.5
		c-2.7,0.6-5.4,2.5-7.5,4.3c-11.4,9.6-17.3,24.9-12.2,39.3c5.1,14.2,20.4,24.1,35.4,22.9c1-0.1,2.1-0.2,3,0.3c1,0.5,1.5,1.7,2,2.7
		c11.5,27.5,28,52.8,48.5,74.4c18.7,19.8,52.1,39.1,80.3,29.8c11.6-3.9,21.1-12.6,28-22.7c7-10.1,11.7-21.5,16.3-32.8
		c6.8-16.5,13.5-32.9,20.3-49.4c1.5-3.6,3-7.3,5.6-10.3c2-2.3,4.4-4,6.7-6c8.8-7.8,14-19.4,13.9-31.1
		C623.5,233.4,623.2,231,622.7,228.7z"/>
	<path id="mouth_2_" fill="#605C5A" d="M509.9,338.5c-10.6-0.9-21.5-5.8-25.8-15.7c-1.8-4.1-1.3-9.5,2.3-12.1
		c2.4-1.7,5.7-1.9,8.6-1.2c2.9,0.7,5.5,2.1,8.3,3.3c8.5,3.6,18.1,4.8,27.2,3.3c2.5-0.4,5.4-0.9,7.4,0.6c2.1,1.6,2.2,4.8,1.5,7.3
		c-2.4,8.1-11.1,12.8-19.4,14.1C516.7,338.7,513.3,338.8,509.9,338.5z"/>
	<path id="left-eyebrow_1_" fill="#C4886A" d="M477.1,192.7c2.2-0.1,4.3,0.1,6.4,0.7c2.9,0.8,6,2.9,5.9,5.9c-0.1,2-1.6,3.7-3.4,4.6
		c-1.8,0.9-3.8,1.2-5.8,1.7c-13,3.1-22.8,13.9-30,25.1c-3.9,6.1-10.1,4.8-8.6-3.1c0.5-2.6,1.8-4.9,3.1-7.1
		c4.3-7.3,8.7-14.8,15.2-20.4C464.7,196,470.9,193,477.1,192.7z"/>
	<path id="right-eyebrow_1_" fill="#C4886A" d="M547.9,194c10.4,0.2,20.8,3.8,29.5,9.6c3.5,2.3,7.1,5.9,6.3,9.9
		c-0.1,0.7-0.4,1.4-1,1.8c-0.8,0.6-1.9,0.6-2.9,0.4c-8-1.1-15.2-5.7-23-7.8c-3.5-1-28.6-2.9-22.1-10.9c1.5-1.8,3.9-2.4,6.2-2.7
		C543.2,194.1,545.6,194,547.9,194z"/>
	<path id="nose_2_" fill="#BD8061" d="M519.8,285.9c2.2,0,4.4,0.4,6.5,1c2.7,0.9,5.7,2.9,5.5,5.8c-0.2,2.7-3,4.4-5.6,5.1
		c-4.6,1.3-24,0.7-16.4-8.5c1.7-2.1,4.4-3,7.1-3.3C517.8,286,518.8,285.9,519.8,285.9z"/>
	<path id="left-eye_2_" fill="#605C5A" d="M489.9,257.3c0,1.1-0.2,2.3-0.8,3.2c-4.2,7.6-16,1.1-11.8-6.5c1.7-3.1,6.1-4.4,9.2-2.7
		C488.6,252.5,489.8,254.9,489.9,257.3z"/>
	<path id="right-eye_2_" fill="#605C5A" d="M557.8,255.2c0,1.2-0.3,2.3-0.9,3.3c-4.6,7.3-13.3-0.8-10.2-7.4c0.6-1.3,1.6-2.4,2.8-2.9
		c2.2-0.9,4.8,0.1,6.4,1.8C557.1,251.4,557.8,253.4,557.8,255.2z"/>
	<path id="hair_2_" fill="#605C5A" d="M590.1,73.5c1.9,1.6,3.7,3.3,5.4,5c11.1,10.9,22.5,23.6,26.8,38.8c4.3,15.3,3.9,31.6,1,47.1
		c-1.4,7.5-3.2,31.1-5.4,38.3c-1.7,5.6-3.1,12.5-7.9,16.3c-0.3,0.3-0.7,0.5-1,0.8c-4,0-3.9-3.1-4-5.7c-0.5-7.5-1.8-31.4-2.6-38.9
		c-3.3-30.4-32.5-52.7-60.9-58.2c-18.7-3.7-36.5,1.7-53.4,9.6c-12,5.6-22.3,12-32.2,20.8c-4.7,4.1-6.1,4.3-10.1-0.6
		c-5-6.1-12.4-8.9-17.2-12.8c4.1,3.2,8.9,7.6,12.7,12.9c4.5,6.2,3.7,13.8-3.1,18.7c-11.1,8.1-12.4,19.9-13.5,31.8
		c-1.2,12.6,1.2,25.2,0.9,37.8c-0.2,7.2-1.8,10.1-6.9,11.6c-7.8,2.4-15.3,0.3-18.6-7.6c-2.9-7-5.8-14.1-10-20.5
		c-2-3.1-4.2-5.7-5.8-9.1c-1.9-3.8-3.3-7.8-5.1-11.6c-2.8-6-5.6-12-7.9-18.1c-4.5-12.1-7-25.5-1.5-37.7
		c5.1-11.5,15.7-17.6,27.6-20.3c2-0.5,4-0.9,6.5-0.6c-0.5-1.6-0.9-3-1.2-4.3c-1.4-7.1-1.1-14,2.6-20.4c4.6-8,12.3-14.3,19.4-20
		c7.4-5.9,15.3-11.2,23.8-15.4C464,53.6,481,49.6,498.1,48c20.3-1.9,41.2-0.2,60.5,6.6C570.4,58.9,580.8,65.4,590.1,73.5z"/>
	<path id="ear_2_" fill="#C4886A" d="M384.7,228.2c0,0-8,1.3-11,9s-3,18.5,1.3,22.4c4.3,3.9,10.3,7.9,13,3.9s1-8.1-3-10.7
		s-4.3-10.3-1.7-13.3C386,236.5,390,230.5,384.7,228.2z"/>
</g>
<g id="midwife-neck">
	<path id="chest" fill="#FFE4DE" d="M913.4,430.1c0.1-6.9,0-13.9-0.3-20.8c-0.4-9.1-1.1-18.5-5.8-26.3c-3.7-6.2-9.5-10.9-16-14.1
		s-13.6-4.8-20.7-5.9c-10.3-1.6-20.9-2-31.2-0.1c-18.6,3.3-34.5,14.9-44.5,30.9c-8.5,13.5-9.4,28.6-8.7,44.2c1.1,25,4,54,18.6,75.1
		c4.6,6.6,10.4,12.2,17.1,16.6c8.5,5.5,18.9,6.9,28.8,7.9c9.5,1.1,22.1,2.8,30.6-2.3c4.5-2.7,6.8-6.9,9.2-11.3c1.1-2,4.2-5,6.4-7.8
		c10.6-13.2,12.2-32,14-48.2C912.5,455.3,913.3,442.7,913.4,430.1z"/>
	<path id="hair-behind-neck" fill="#57534F" d="M957.8,382.1c0.1-1.4,0-2.9-0.4-4.4c-4.3-15.5-14.4-29.3-13.7-45.7
		c0.1-3.2-0.9-5.8-2.7-7.8c-1.7-2.4-4.2-4.2-6.9-5c-7.1-1.9-13.1,2.4-15.5,8.8c-0.5,1.2-0.9,2.4-1.3,3.6c-3.8,8.5-7.5,17-10.1,25.9
		c-3,10-7.1,23.8,0.6,32.6c6.6,7.5,17.4,12.8,27.1,14.6c0.3,0.1,0.7,0.1,1,0.2c1.1,0.6,2.4,1,3.8,0.8c11.4-1.5,16.3-10.2,18.1-20.8
		C957.9,384,957.9,383,957.8,382.1z"/>
	<path id="neck-shadow_1_" fill="#FFC8B4" d="M913.8,380.5c-7-8.8-16.4-15.8-27.8-20.8c-20.7-9.1-45.9-12.3-67.4-4.2
		c-13.2,5-24,14.6-29.7,27.6c-7.4,16.7-4.2,39,11.2,50.2c6.2,4.6,13.9,6.7,21.5,8c12.3,2.1,25.2,2.3,37.2-1.3
		c4.1-1.2,10.3-5.8,14.7-4.4c7.7,2.4,9,18.4,10.7,24.8c2.6,9.7,9.2,23.8,21.7,21c8.2-1.8,13.1-10,16.1-17.2
		c5.6-13.7,6.1-29.2,5.8-43.8C927.3,404.8,922.4,391.3,913.8,380.5z"/>
</g>
<g id="midwife-singlet">
	<path id="shirt_1_" fill="#8871D6" d="M1012,855.3c-0.8-7.7-4.8-15.7-8.6-22.7c-27.1-49.5-46.2-103.3-56.6-158.7
		c-15.8-84.6-11.1-171.4-7.6-257.4c0.2-4.9,0.4-10-1.8-14.5c-3.8-8.1-13.6-11.1-22.3-13.3c-2.2-0.6-5.2-0.8-6.1,1.3
		c-0.4,0.8-0.3,1.7-0.2,2.6c2.9,32.1-1.5,64.8-12.9,94.9c-5.1,13.5-12.6,27.5-25.8,33.4c-17.9,8-39.8-3-50-19.7
		c-16.6-27.5-9-63.1-7.7-93.3c0.2-5.7-4.6-10.6-10-11.3c-15.1-1.8-15.8,20-15.8,30.1c0,19.6-2,39.8-3.1,59.5
		c-1.1,21-1.9,41.9-2.3,62.9c-0.4,20.7-0.5,41.4-0.2,62c0.1,7.9-1.6,18.6,1.7,25.9c4.1,9.1,13.8,14.9,20.8,21.5
		c10.6,10,19.6,21.3,28,33.2c15.3,21.6,27.5,45.3,36,70.3c6.8,19.8,11.3,40.3,18.9,59.7c7.6,19.5,18.8,38.3,35.9,50.3
		c21.6,15.2,51.6,17.5,75.2,5.8c4.5-2.2,8.8-5,11.5-9.2C1011.8,864.5,1012.5,859.9,1012,855.3z"/>
	<path id="shirt-shadow_1_" fill="#7364C3" d="M934.8,855.1c-0.7-0.9-1.4-1.7-2.1-2.6c-0.2-0.5-0.4-1-0.7-1.6
		c-15-24.6-30.9-48.5-44-74.2c-11.6-22.7-22.6-45.7-33-69c-7.5-16.9-17.5-32.6-23.6-50.1c-6-17.3-9.4-35.4-12.4-53.4
		c-7.9-47.2-12.3-94.6-17.2-142.1c-1.1-10.9-3.3-21.2-0.6-32.1c1.5-6.2,5.5-13.9,4.9-20.3c-0.5-5.9-6.7-9.3-11.3-11.9
		c-5-2.8-12.9-1.4-15.4,4.2c-10.2,22.8-9.1,48.8-10.2,73.3c-0.8,17.5-1.1,35,0.3,52.4c1.5,19.2,5.9,38.4,8.4,57.7
		c2,15.6,3.6,31.2,4.8,46.9c1,14,0.4,28.8,4.8,42.3c3.8,12,11,22.8,18.3,33c13.5,18.9,26.6,38.1,38.8,57.9
		c12.4,20.2,22.6,41.6,33.1,62.8c9.4,19,17.4,43.2,38.7,51.8c9.1,3.7,26,4.6,26.7-9.1C943.2,864.5,938.7,859.9,934.8,855.1z"/>
</g>
<g id="midwife-cardigan">
	<path fill="#FDE4BB" d="M1061.3,873.2c-1.5,2.5-3,4.9-4.6,7.4C1058.3,878.2,1059.8,875.7,1061.3,873.2z"/>
	<path fill="#FDE4BB" d="M1055.7,882.2c-1.2,1.9-2.4,3.7-3.6,5.6C1053.3,886,1054.5,884.1,1055.7,882.2z"/>
	<path fill="#FDE4BB" d="M1070.1,858.2c-1,1.8-2,3.6-3.1,5.3C1068.1,861.7,1069.1,860,1070.1,858.2z"/>
	<path fill="#FDE4BB" d="M1065.8,865.8c-1.2,2-2.4,4-3.6,6C1063.4,869.8,1064.6,867.8,1065.8,865.8z"/>
	<path fill="#9CA7DB" d="M1085.4,812.6c-0.5-3.8-1.2-7.6-2.1-11.4c0,0.2,0,0.3,0.1,0.5C1083.7,805.5,1084.6,809,1085.4,812.6z"/>
	<path fill="#9CA7DB" d="M953.2,743.3c1.4-4,3.7-7.6,7-10.7c0.7-0.7,1.5-1.2,2.3-1.6c2.6-1.6,5.5-2.6,8.1-2.5
		c20.1,1,41.2,15.4,45.7,36c0.4,2,0,5.2,2.8,5.5c2.5,0.3,3.2-2.7,4.6-4.3c3.6-3.9,3.1-8.1,1.1-12.4c-5.5-11.9-12.5-22.6-24-29.8
		c-1.9-1.2-3.3-3-4.8-4.7c-1.6-1.8-2.5-3.9-0.9-6.1c1.7-2.2,4-1.8,6.1-0.7c8.4,4.6,16.9,9.2,23.7,16.1c4.4,4.4,9,8.5,10.5,15.1
		c0.7,3.1,3.4,3.4,6.1,1.7c5-3.1,8.5-7.7,11.9-12.4c2.3-3.1,4.1-6.5,6.1-9.7c0.9-1.4,1.5-3.4,3.8-3.1c0.4,0.8,0.8,1.7,1.1,2.6
		c0.4-4.1,2.2-8,4-11.7c10.6-22.6,20.6-48.1,19.7-73.4c-0.7-19-9.3-35.3-13.7-53.3c-4.7-19.1-10.6-38.3-17-56.8
		c-8-23-17-45.6-26.9-67.8c-6.1-13.6-12.8-27.4-23.9-37.3c-20.1-18-49.6-19.4-74.5-29.9c-8-5.2-15.3-11.7-22.3-18.2
		c-4-3.7-10.6-0.1-9.2,5.4c0.2,0.7,0.4,1.4,0.7,2.1c0.1,0.7,0.4,1.4,0.9,2.2c2.4,3.5,4.5,7.1,6.3,10.9c0.1,0.3,0.3,0.5,0.4,0.8
		c4.7,11.1,3.8,23.7,3.1,35.8c-6.6,106.4,5.5,213.8,34.5,316.3c0.7,2.5,2.2,5.5,4.3,6.6c0.1-0.2,0.1-0.4,0.2-0.5
		C949.6,749.7,950.1,745.9,953.2,743.3z M952,646.9c0-7.9-0.7-26.5,4.6-32.7c3.6,23.2,7.4,46.8,17.9,67.7c0.3,0.5,0.5,1.1,1,1.4
		c1.9,1.3,3.8-1.8,4.1-4.1c2.3-21.3-2.6-41.2-6.1-62c-2-11.9-1.9-23.8-3.5-35.6c-3-22.6-7.4-45.6-3.2-68.3c0.3-1.7,1.4-3.8,3-3.2
		c1,0.3,1.3,1.5,1.5,2.5c2.6,12.1,5.2,24.1,8.3,36.1c3.5,13.4,7.7,26.7,10.9,40.2c4.6,19.8,6.9,40.1,9.2,60.4
		c0.1,1.3,0.3,2.6,0.1,3.9c-0.3,1.7-1.2,3.1-2.1,4.5c-10.1,15.8-20.3,31.6-30.4,47.5c-4.7,7.4-9.6,15.1-10.1,23.8
		c-0.2,3,0,6.4-2.1,8.5c-4.8-6.3-5.5-15.3-1.9-22.3c1.6-3,3.9-5.6,5.1-8.8C964.8,690.2,952.1,664.2,952,646.9z"/>
	<path fill="#9CA7DB" d="M1082.9,834c-1,2.1-2.1,4.2-3.2,6.3C1080.8,838.2,1081.9,836.1,1082.9,834z"/>
	<path fill="#9CA7DB" d="M1074.4,850.4c-1,1.8-1.9,3.5-2.9,5.3C1072.5,854,1073.4,852.2,1074.4,850.4z"/>
	<path fill="#9CA7DB" d="M1083.7,832.5c0.9-1.7,1.7-3.5,2.5-5.2l0,0C1085.3,829,1084.5,830.8,1083.7,832.5z"/>
	<path fill="#9CA7DB" d="M1078.6,842.5c-1,1.9-1.9,3.7-2.9,5.6C1076.7,846.2,1077.7,844.3,1078.6,842.5z"/>
	<path fill="#8B95CD" d="M1056.8,880.6c-0.3,0.5-0.7,1.1-1,1.6C1056.1,881.7,1056.4,881.2,1056.8,880.6z"/>
	<path fill="#8B95CD" d="M1062.2,871.8c-0.3,0.5-0.6,1-0.9,1.4C1061.6,872.8,1061.9,872.3,1062.2,871.8z"/>
	<path fill="#8B95CD" d="M1051.7,888.5c0.1-0.2,0.3-0.4,0.4-0.6C1052,888.1,1051.8,888.3,1051.7,888.5L1051.7,888.5z"/>
	<path fill="#8B95CD" d="M1070.1,858.2C1070.1,858.2,1070.1,858.1,1070.1,858.2L1070.1,858.2
		C1070.2,858.1,1070.2,858.1,1070.1,858.2z"/>
	<path fill="#8B95CD" d="M1067.1,863.5c-0.4,0.8-0.9,1.5-1.3,2.3C1066.2,865,1066.6,864.3,1067.1,863.5z"/>
	<path fill="#8B95CD" d="M1062.6,856.7c-20.4,0.9-40.8,1.8-61.2,2.7c-2.5,0.1-5.3,0.2-7.3-1.4c-1.5-1.2-2.4-3-3.1-4.8
		c-5.3-12.4-10.7-24.8-16-37.2c-0.6-1.5-1.3-3.1-1-4.7c0.4-2.1,2.2-3.5,3.9-4.8c8.5-6.4,17-12.8,25.4-19.2c2.3-1.7,4.8-3.7,5.6-6.4
		c1-3.1-0.2-6.4-1.4-9.4c-4.3-10.7-9.7-21.7-19.5-27.9c-9.8-6.1-24.9-4.9-30.4,5.2c-1.1,2-2,4.5-4.2,5.2c-1,0.3-1.9,0.2-2.8-0.3
		c0,0.1-0.1,0.2-0.1,0.3c-1.5,4.3,0.3,8.2,1.7,12.3c1.4,4.2,2.9,8.3,4.4,12.5c3,8.3,6.2,16.5,9.5,24.7c6.8,16.6,14.1,33.1,22,49.2
		c6.7,13.6,15.3,27.9,29.6,34.6c9.9,4.7,20.8,5.5,30.2,1.7c1.2-0.2,2.3-0.4,3.4-0.7c0.1-0.2,0.3-0.4,0.4-0.7
		c1.2-1.9,2.4-3.7,3.6-5.6c0.3-0.5,0.7-1.1,1-1.6c1.5-2.4,3.1-4.9,4.6-7.4c0.3-0.5,0.6-1,0.9-1.4c1.2-2,2.4-4,3.6-6
		c0.4-0.7,0.9-1.5,1.3-2.3c1-1.8,2-3.6,3.1-5.3c0,0,0-0.1,0.1-0.1C1068.2,856.8,1065.2,856.6,1062.6,856.7z"/>
	<path fill="#8B95CD" d="M1065.9,733.5c4.7,18.1,9.4,36.2,14.1,54.3c1.2,4.5,2.3,9,3.3,13.5c-0.4-3.9-1-7.9-2-11.7
		c-2.4-9.4-5.1-18.7-7.6-28.1c-2.5-9.2-5-18.4-6.7-27.8c-0.7-3.8-1.3-7.6-2.6-11.2c0,0.3-0.1,0.5-0.1,0.8
		C1064.1,726.6,1065,730.1,1065.9,733.5z"/>
	<path fill="#8B95CD" d="M1086.2,825.8c0,0.5,0,1,0,1.5c0.4-0.9,0.9-1.8,1.3-2.7c-1-2.9-1-5.9-1.5-8.8c-0.2-1.1-0.4-2.1-0.6-3.2
		C1086,817,1086.3,821.4,1086.2,825.8z"/>
	<path fill="#8B95CD" d="M1075.7,848c-0.4,0.8-0.9,1.6-1.3,2.4C1074.8,849.6,1075.3,848.8,1075.7,848z"/>
	<path fill="#8B95CD" d="M1079.7,840.3c-0.4,0.7-0.7,1.4-1.1,2.1C1079,841.7,1079.4,841,1079.7,840.3z"/>
	<path fill="#8B95CD" d="M1070.2,858L1070.2,858c0.4-0.8,0.9-1.5,1.3-2.3C1071.1,856.5,1070.6,857.3,1070.2,858z"/>
	<path fill="#8B95CD" d="M1083.7,832.5c-0.2,0.5-0.5,1-0.8,1.5C1083.1,833.5,1083.4,833,1083.7,832.5z"/>
	<path fill="#8B95CD" d="M1086.2,825.8c0.1-4.4-0.3-8.8-0.9-13.1c-0.8-3.6-1.7-7.2-2-10.9c0-0.2,0-0.3-0.1-0.5
		c-1-4.5-2.2-9-3.3-13.5c-4.7-18.1-9.4-36.2-14.1-54.3c-0.9-3.4-1.8-6.8-1.6-10.3c0-0.3,0.1-0.5,0.1-0.8c-0.3-0.9-0.7-1.7-1.1-2.6
		c-2.3-0.3-2.9,1.7-3.8,3.1c-2.1,3.2-3.9,6.6-6.1,9.7c-3.4,4.6-6.8,9.3-11.9,12.4c-2.7,1.7-5.4,1.4-6.1-1.7
		c-1.5-6.6-6.1-10.7-10.5-15.1c-6.8-6.9-15.3-11.5-23.7-16.1c-2.1-1.1-4.4-1.5-6.1,0.7c-1.6,2.2-0.7,4.2,0.9,6.1
		c1.5,1.7,2.9,3.5,4.8,4.7c11.4,7.2,18.5,17.8,24,29.8c2,4.4,2.6,8.5-1.1,12.4c-1.5,1.6-2.1,4.7-4.6,4.3c-2.7-0.4-2.3-3.5-2.8-5.5
		c-4.5-20.7-25.6-35.1-45.7-36c-2.6-0.1-5.5,0.9-8.1,2.5c-0.8,0.4-1.6,0.9-2.3,1.6c-3.3,3.1-5.6,6.7-7,10.7
		c-3.1,2.7-3.6,6.4-2.1,10.1c-0.1,0.2-0.1,0.3-0.2,0.5c0.8,0.4,1.8,0.6,2.8,0.3c2.2-0.7,3.1-3.2,4.2-5.2
		c5.4-10.2,20.6-11.4,30.4-5.2c9.8,6.1,15.2,17.2,19.5,27.9c1.2,3,2.4,6.3,1.4,9.4c-0.9,2.8-3.3,4.7-5.6,6.4
		c-8.5,6.4-17,12.8-25.4,19.2c-1.7,1.3-3.5,2.7-3.9,4.8c-0.3,1.6,0.4,3.2,1,4.7c5.3,12.4,10.7,24.8,16,37.2c0.8,1.8,1.6,3.6,3.1,4.8
		c2,1.5,4.8,1.5,7.3,1.4c20.4-0.9,40.8-1.8,61.2-2.7c2.5-0.1,5.5,0.1,7.6,1.3c0.4-0.8,0.9-1.5,1.3-2.3c1-1.8,2-3.5,2.9-5.3
		c0.4-0.8,0.9-1.6,1.3-2.4c1-1.9,2-3.7,2.9-5.6c0.4-0.7,0.7-1.4,1.1-2.1c1.1-2.1,2.1-4.2,3.2-6.3c0.3-0.5,0.5-1,0.8-1.5
		c0.9-1.7,1.7-3.5,2.5-5.2C1086.2,826.8,1086.2,826.3,1086.2,825.8z"/>
	<path fill="#8B95CD" d="M953.2,715.1c-3.7,7-2.9,16,1.9,22.3c2.1-2.2,1.9-5.5,2.1-8.5c0.5-8.7,5.4-16.5,10.1-23.8
		c10.1-15.8,20.3-31.6,30.4-47.5c0.9-1.4,1.8-2.9,2.1-4.5c0.2-1.3,0.1-2.6-0.1-3.9c-2.3-20.2-4.6-40.5-9.2-60.4
		c-3.1-13.5-7.3-26.8-10.9-40.2c-3.1-11.9-5.7-24-8.3-36.1c-0.2-1-0.6-2.1-1.5-2.5c-1.6-0.6-2.7,1.6-3,3.2
		c-4.2,22.7,0.1,45.7,3.2,68.3c1.6,11.8,1.5,23.7,3.5,35.6c3.5,20.8,8.4,40.7,6.1,62c-0.3,2.3-2.1,5.4-4.1,4.1
		c-0.5-0.3-0.8-0.9-1-1.4c-10.5-21-14.2-44.6-17.9-67.7c-5.2,6.2-4.6,24.9-4.6,32.7c0,17.3,12.7,43.3,6.3,59.4
		C957.1,709.5,954.8,712.1,953.2,715.1z"/>
	<path fill="#9CA7DB" d="M619.8,680.7c0.3,0,0.6,0.1,0.9,0.1c-0.2-0.2-0.4-0.5-0.6-0.7C620,680.3,619.9,680.5,619.8,680.7z"/>
	<path fill="#9CA7DB" d="M733.5,720.3c-0.1-4.8,1-29.5,2.6-54.7c-2.4,16.8-4.5,33.7-4.1,50.6c0.1,4.1,0.2,8.3,2.1,11.9
		c2.6,4.9,7.9,7.6,13.3,9C740.1,733.8,733.7,728.8,733.5,720.3z"/>
	<path fill="#9CA7DB" d="M775.9,746.2c3.6,1.9,7.3,3.2,11,2c1.9-0.6,3.3-1.8,4.4-3.2C787.4,748,781.7,747.6,775.9,746.2z"/>
	<path fill="#9CA7DB" d="M742,605.5c1.6,0.2,3.2,0.9,4.3,2.1c8.5,5.1,17,10.1,25.4,15.2c2.2,1.3,5.1,2.6,7.2,1.2
		c1.7-1.2,1.9-3.6,2-5.8c0.5-20.9,1.4-41.7,2.8-62.6c1.4-22.3,3.3-44.5,5.7-66.7c1.2-11.1,2.5-22.2,3.9-33.3
		c0.7-5.3,0.9-10.6,1.5-15.9c1.2-11.4,4.5-21.9,8.8-31.5c0-0.1,0-0.2-0.1-0.3c0-3.7-1.1-7.2-4.1-10.2c-7.2-7.2-19.8-2.7-27.9,0.5
		c-14.2,5.6-29.2,15.2-36.4,29.2c-9,9.6-15.8,21-23.1,32c-33,49.3-76.8,90.1-116.1,134.4c-6.5,7.3-12.9,14.9-16.9,23.8
		c-2.6,5.9-3.9,12.3-4,18.7c4.9-4.2,13.3-5.6,18.6-7.9c10.3-4.5,20.2-9.8,30.5-14.2c20.4-8.8,41.8-15.9,64.1-17.9
		c3.7-0.3,7.6-0.6,10.8-2.5c2.7-1.6,4.6-4.2,6.4-6.7c12.5-17.6,23.6-36.2,35.3-54.4c1.7-2.7,2.2,15.1,2.1,16.7
		c-0.2,3.8,0,7.6,0.2,11.4c0.4,8.6-0.9,15.5-3.6,22.3c1.4,7.8,2.1,15.6,2.2,23.4C741.6,605.9,741.8,605.5,742,605.5z"/>
	<path fill="#8B95CD" d="M741.4,606.6c-1.5,5.7-3.6,32.6-5.3,59c0.7-5.1,1.5-10.1,2.2-15.2C740.3,635.9,741.7,621.3,741.4,606.6z"/>
	<path fill="#8B95CD" d="M749.6,737.6c-0.7-0.2-1.5-0.3-2.2-0.5c4.4,2,9.3,3.3,13.3,4.4c4.2,1.1,9.7,3.4,15.2,4.7
		c-2.7-1.4-5.4-3.2-8.1-4.4C762.2,739.2,755.7,738.9,749.6,737.6z"/>
	<path fill="#8B95CD" d="M808.7,406.2c-1.3-1.1-4-0.4-4.9,1.6c-0.1,0.1-0.1,0.3-0.2,0.4c0.5,1.9,0.6,4,0.1,6.1
		c-0.6,2.5-1.2,5.1-1.9,7.6c0.3,0.5,0.6,1.1,0.9,1.6c-12.4,100.9-15.2,203.1-8.3,304.5c0.4,5.7,0.1,12.7-3.2,16.9
		c1.5-1.2,2.8-2.8,3.7-5.2c2.2-5.7,1.5-12,0.9-18c-9.8-94.1-2.4-189,5.7-283.2c0.7-3.5,1.2-7.2,2.1-10.7c0.9-3.5,1.8-7.1,2.9-10.5
		c1-2.1,2.2-4.1,3.4-6.2C811,409.4,810.3,406.7,808.7,406.2z"/>
	<path fill="#8B95CD" d="M794.5,728.1c-6.9-101.5-4.1-203.6,8.3-304.5c-0.3-0.6-0.6-1.1-0.9-1.6c0.7-2.5,1.3-5,1.9-7.6
		c0.4-2.1,0.4-4.2-0.1-6.1c-4.3,9.6-7.7,20.1-8.8,31.5c-0.5,5.3-0.8,10.6-1.5,15.9c-1.4,11.1-2.7,22.2-3.9,33.3
		c-2.4,22.2-4.3,44.5-5.7,66.7c-1.3,20.8-2.3,41.7-2.8,62.6c-0.1,2.1-0.3,4.5-2,5.8c-2.1,1.5-5,0.2-7.2-1.2
		c-8.5-5.1-17-10.1-25.4-15.2c-1.1-1.2-2.7-1.9-4.3-2.1c-0.2,0-0.4,0.4-0.6,1.1c0.3,14.7-1.1,29.3-3.1,43.8
		c-0.7,5.1-1.4,10.1-2.2,15.2c-1.6,25.2-2.7,49.9-2.6,54.7c0.2,8.5,6.6,13.5,13.9,16.8c0.7,0.2,1.5,0.4,2.2,0.5
		c6.1,1.3,12.6,1.6,18.3,4.2c2.7,1.2,5.4,3,8.1,4.4c5.8,1.4,11.5,1.8,15.4-1.2C794.6,740.8,794.9,733.9,794.5,728.1z"/>
	<path fill="#8B95CD" d="M732.4,594.4c-2.3,4.3-4.5,8.6-6.8,12.8c-4.1,7.7-8.3,15.3-12.9,22.6c-8.8,14.2-19,27.8-32,38.5
		c-24.6,20.4-64.6,29.9-90.2,5.9c-10.3-9.6-15.8-23.9-15.6-37.9c-1.4,1.2-2.5,2.6-3.2,4.3c-4.6,12,6.8,31.6,15,39.8
		c3.7,3.7,8.2,6.6,12.9,8.8c27.9,13,66.7-0.1,87.2-21.3c7.2-7.5,13.2-16,19-24.5c4.9-7.1,10.3-13,13.7-20.9
		c3.9-9,7.8-17.8,12.8-26.2c2.8-4.6,5-8.9,6.7-13.2c0-0.3-0.1-0.6-0.1-0.8C739.4,584.6,733.6,592.2,732.4,594.4z"/>
	<path fill="#8B95CD" d="M742.8,560.9c-0.2-3.8-0.4-7.6-0.2-11.4c0.1-1.6-0.3-19.4-2.1-16.7c-11.7,18.2-22.7,36.7-35.3,54.4
		c-1.8,2.5-3.7,5.1-6.4,6.7c-3.2,1.9-7.1,2.2-10.8,2.5c-22.2,2-43.6,9.2-64.1,17.9c-10.3,4.4-20.2,9.7-30.5,14.2
		c-5.2,2.3-13.6,3.7-18.6,7.9c-0.2,14.1,5.3,28.3,15.6,37.9c25.7,24,65.7,14.5,90.2-5.9c12.9-10.7,23.2-24.3,32-38.5
		c4.6-7.4,8.8-15,12.9-22.6c2.3-4.3,4.5-8.6,6.8-12.8c1.2-2.2,7-9.8,6.6-12.1c0.1,0.3,0.1,0.6,0.1,0.8
		C741.8,576.4,743.1,569.5,742.8,560.9z M619.8,680.7c0.1-0.2,0.2-0.4,0.3-0.7c0.2,0.3,0.4,0.5,0.6,0.7
		C620.4,680.8,620.1,680.7,619.8,680.7z"/>
</g>
<g id="midwife-face">
	<path id="face" fill="#FFE6DE" d="M938.4,252.4c-5-12.2-10.5-24.2-18.4-34.7c-10.9-14.4-24.6-23.8-41.9-29.1
		c-17.9-5.5-36.8-10.2-55.6-7.8c-17.3,2.2-36.2,4.7-50.8,15c-13.4,9.4-23.2,22.7-29.7,37.6c-13.4,30.8-16.2,65.7-8.5,98.3
		c4,16.9,10.8,33.3,20.5,47.7c10.6,15.7,25.4,26.7,41.5,36.4c3.3,2,6.7,3.9,10.3,5.4c18.2,7.2,41.4,4.8,59.3-2.1
		c8.9-3.4,17.3-8.3,24.5-14.5c7.8-6.6,12.4-14.6,18.5-22.6c0.5-0.6,0.9-1.2,1.3-1.9c5.4-10.7,9.4-22,12.4-33.5
		c1.3-5,3-10.1,2.8-15.5c-0.2-2-1.6-3.4-2.5-5.1c-3.7-6.8-0.4-15.1,6.9-17.6c1.5-0.5,3.2-0.6,4-2.2c1.5-0.9,3-1.8,4.4-2.8
		c2.4-1.6,4.2-3.9,5.3-6.6c1.6-3.7,2.7-7.5,2.9-11.6C947.1,274,943.9,262.6,938.4,252.4z"/>
	<path id="mouth" fill="#716D69" d="M819.5,389.1c-5.7,0.2-12.6-0.7-15.1-4.9c-1-1.7-0.8-4.3,0.8-5.5c2-1.4,4.6-0.4,6.9,0.4
		c4,1.4,8.7,1.9,12.8,0.6c2.2-0.7,4.3-1.9,5.9-3.5c1.3-1.4,2.2-3.7,4.4-3.8c3.8-0.1,2.9,4.7,2,6.9c-2,4.9-7.1,8.1-12.3,9.1
		C823.5,388.7,821.6,389,819.5,389.1z"/>
	<path id="ear" fill="#FFC9B5" d="M935.9,283.8c0.1,2.1,0,4.1-0.7,6.1c-0.5,1.4-1.2,2.6-2.3,3.5c-0.7,0.6-1.4,1.3-2.5,0.8
		c-1.5-0.8-2.3-2.2-1.9-3.5c0.3-0.9,0.7-1.8,1.1-2.6c0.7-1.4,0.7-2.8,0.5-4.2c-0.6-3.1-1.8-4.9-5-4.6c-1.5,0.1-3.5,0.5-4.1-1.5
		c-0.5-1.6,1.3-2.4,2.2-3.4c1.4-1.6,3.2-2.6,5.4-2.7c3.2-0.2,5.4,1.4,6.3,4.6c0.3,1.2,0.7,2.4,0.9,3.7
		C936.1,281.2,935.9,282.5,935.9,283.8z"/>
	<path id="nose" fill="#FFC8B5" d="M811.2,360c-3,0-6-1-8.1-3.1c-0.9-0.8-1.7-2-1.5-3.2c0.2-1.1,1.2-2,2.4-2.2
		c2.7-0.7,17.7-1.8,16.5,3.4c-0.2,1.1-1.1,2-2,2.7C816.4,359.2,813.8,360,811.2,360z"/>
</g>
<g id="midwife-hair">
	<path id="hair" fill="#635F5B" d="M1030.6,345.2c-0.3-3.8-1.5-7.5-3-11.1c-1.4-3.2-3-6.4-4.5-9.6c-13.2-27.9-16.4-59.4-25.4-88.9
		c-10-32.7-27.7-63.4-52.3-87c-7.9-7.7-25.6-14.2-35.7-18.6c-38.7-16.9-85.1-17.8-124.9-3.7c-25.1,9-48.1,25.6-61.3,48.7
		c-10.9,19.1-14.5,41-17.2,62.6c-2.8,21.3-7.1,42.6-9.1,63.9c-0.8,8.5-1.2,17.1-0.8,25.6c2,11.8,4.4,23.5,7.6,35
		c3.7,13.4,7.8,26.4,16.5,37.5c8.5,10.8,19.1,19.6,29.1,29c7.1,6.7,13.9,13.6,20.7,20.5c0.1,0,0.1-0.1,0.2-0.1
		c6.8-5.2,0.2-17.3,5-24.5c3.6-5.4,12.9-6.5,14.4-12.6c-0.2-0.2-0.4-0.4-0.7-0.6c-12.6-11.6-22.4-25.3-29.6-40.9
		c-11.1-24-16.6-50.6-15.9-77c0.7-22.5,5.3-60.1,22.5-76.4c2.5,2.1,3.2,4.6,4.5,7.6c1.8,4.1,4,8,6.4,11.7
		c4.1,6.3,8.2,12.6,12.4,18.8c6.3,9.4,14.6,16.4,25.1,20.8c2.5,1,5.2,1.6,7.9,1.5c1.5-1,3.2-0.5,4.6-0.1c6.8,2,14,1.2,20.9,2.4
		c0.1,0,0.3,0,0.4,0.1c1-0.2,2-0.5,3-0.8l0,0c0.7-1.7-1.1-2.5-2.2-3.2c-6.4-3.9-11.3-9.4-15.9-15.1c-4.3-5.4-8.7-12.5-8.1-19.4
		c7.7,2.3,16.4,16.3,23.8,21.8c10.6,7.8,22.6,13.6,35.3,16.9c5.6,1.4,11.7,2.3,16.8-0.3c7.2-3.8,11.3-10.9,18.9-14.5
		c11.4-5.4,22.9,2.3,25,14.3c2.2,12.9-4.4,18.7-11.9,26.6c-0.3,0.4-0.7,0.7-1,1.1c7.4,2.2,11.1,12.3,6.8,18.7
		c-1.3,2-3.2,3.6-4.2,5.7c-1,2.3-0.8,4.9-0.6,7.4c2.7,29.7,8.5,59.1,17.4,87.6c1,3.3,2.5,7,5.7,8.3c4.7,2,9.6-2.5,12-7
		c5.8-10.9,7.4-26.1,19-30.4c4.1-1.5,8.7-1.2,12.8-2.6c8.2-2.9,12.4-13.7,8.4-21.4c-1-1.9-2.5-3.9-2.2-6c0.7-4.8,7.7-4.2,12.5-5.2
		C1027.3,360.9,1031.1,352.5,1030.6,345.2z"/>
	<path id="hair-highlight" fill="#726E6B" d="M956.7,162.5c1.3,2.1,2.5,4.2,3.7,6.3c2.1,3.8,4.3,7.6,6.4,11.4
		c1.6,2.8,2.3,7.5-0.8,8.1c-1.3,0.2-2.5-0.5-3.6-1.3c-19.3-13.8-33.1-36.2-55.8-43.1c-0.4,4.4-7.1,3.8-11.1,1.8
		c-7.2-3.7-14.4-7.3-21.6-11c3,3-0.5,8.5-4.7,9.1s-8.2-1.4-12.2-2.7s-9.2-1.3-11.6,2.2c2.6,1.7,5.3,3.5,6.5,6.3
		c5,11.1-13.3,7.7-18.1,6.3c-5.5,8.9-3.3,20.3-0.2,30.3c7.4,24.2,18.9,47.2,33.8,67.6c8.1,11.2,18.1,22.1,31.5,25.5
		c-0.9,3.2-5.3,3.5-8.5,2.9c-28.8-4.9-53.4-24.7-70.3-48.6c-16.9-23.9-27.1-51.7-36.8-79.3c-5.8,28.2,0.2,58.6,16.2,82.6
		c8.7,13,20.5,25,22.6,40.5c-11.3,1.4-21.2-7.3-28.5-16.1c-22.9-27.4-37.6-61.6-41.8-97c-0.2-1.9-0.9-4.3-2.8-4.5
		c-1.3-0.1-2.4,0.9-3.3,2c-23.2,27.1-27.7,64.9-34.2,100c-4.9,26.5-11.6,53.6-6.6,80.1c7.2,37.7,36.3,66.7,61.5,95.7
		c2.9,3.4,5.9,8.3,3.2,11.8c-3.2,4.1-9.7,1.1-13.7-2.3c-33.3-28.3-59.7-66.1-68.6-108.9c-7.3-35.3-2.4-72.1,6-107.2
		c7.9-32.9,19.5-66.3,43.3-90.3c22-22.2,52.9-34.3,84.1-36.9c42.8-3.5,86.8,11,119.2,39.1c4.4,3.8,8.6,7.8,12.1,12.4
		C953.7,157.8,955.3,160.1,956.7,162.5z"/>
	<circle id="earring" fill="#99A2D8" cx="931.1" cy="319.8" r="12.4"/>
</g>
<g id="midwife-glasses">
	<path id="glasses" fill="#7F7F7F" d="M914.3,264.6c-3.5,1.7-5.9,5.6-8.6,8.2c-0.5,0.5-1.1,0.9-1.6,1.1c-0.6,0.2-1.3,1.6-1.7,2.2
		c-0.9,1-1.8,2.1-2.7,3.1c-3.1,3.7-6.1,7.4-9.6,10.8c-3.1,3-7.1,6.7-11.7,6.7c-4.8,0-9.6,0.1-14.4,0.1c-33.7,0-67.5,0-101.2,0
		c-5.2,0-10.4,0-15.6-0.3c-0.4,0-0.9-0.1-1.3-0.3c-0.5-0.4-0.7-1.1-0.8-1.7c-0.4-2.5-0.8-5.1-0.8-7.7c0-2.5,0.6-4.8,0.6-7.3
		c-1.4,1.1-7.8,13.5-11.3,16.1c-3,2.3-6.5,1.1-10.3,1.7c-0.9,0.1-1.8,0.2-2.6,0.5c-2.1,0.9-1.8,3.6-1.7,5.5
		c0.1,3.8-0.1,7.8,0.7,11.6c2.2,9.5,9.3,17.4,16.8,23.2c9.2,7.3,20.8,11.8,32.7,12.1c9.4,0.2,18.1-1.1,24.7-8.4
		c3.9-4.4,6.6-9.9,7.6-15.7c0.6-3.7-1.7-12.9,3.7-13.7c5.7-0.9,5.8,8.5,7.1,12c4.7,12.9,14.9,24.3,29.2,25.8
		c7.2,0.7,14.5-0.9,21.1-3.9c17.7-8,30.6-26,31.2-45.6c0.1-2.4,1.9-3.9,3.6-5.4c5.4-4.6,11-9.6,14.8-15.7c1.2-2,1.8-4.3,2.6-6.4
		c2.4-3.5,4.6-6.6,5.8-7.8c0.4-0.4,0.8-0.8,1.3-1.1C919.3,263.4,916.7,263.4,914.3,264.6z"/>
	<path id="left-lense" fill="#FFFFFF" d="M726.3,305.6c0.6-0.1,1.2-0.3,1.8-0.4c20.8-0.8,42-0.9,62.8,0.3c4.3,0.2,3.7,7.8,3.7,10.7
		c0.2,9.7-3.7,21.5-13.9,24.7c-3.5,1.1-7.3,1-10.9,0.6c-9.2-0.9-18.3-3.7-26-8.8C734.4,326.7,726.8,317,726.3,305.6z"/>
	<path id="right-lense" fill="#FFFFFF" d="M855.9,305.1c7,0,14.1,0,21.1,0c1.3,0,2.6,0.1,3.8,0.2c0.9,0.1,1.5,0.7,1.5,1.6
		c0.6,9.4-5.9,18.9-12.8,24.7c-11.4,9.8-31.5,14.3-42.9,2c-6-6.4-7.5-15-9.3-23.2c-0.5-2.3,0.9-3.8,3.6-4
		C832.5,305.5,844.2,305.2,855.9,305.1z"/>
	<path id="left-eye" fill="#7F7F7F" d="M779.5,323.6c-0.1,3.6-2.3,5.9-5.6,5.7c-3.4-0.2-5.4-2.4-5.2-6c0.1-3.6,2.3-5.7,5.8-5.5
		C777.4,318,779.5,320.4,779.5,323.6z"/>
	<path id="right-eye" fill="#808080" d="M837.4,330.2c-3.5-0.1-5.8-2.7-5.7-6.3c0.1-3.2,2.4-5.4,5.4-5.4c3.6,0.1,6.3,2.5,6.3,5.7
		C843.5,327.7,840.8,330.3,837.4,330.2z"/>
</g>
<g id="woman-skirt">
	<g id="skirt">
		<polygon fill="#79A6D0" points="941.8,1014.7 941.8,1014.7 941.8,1014.8 		"/>
		<g>
			<path fill="#79A6D0" d="M1072.4,854c-1-2.7-3-3.5-7.1-3.3c-30.8,1.2-61.6,3.4-92.4,4.3c-15.4,0.5-30.8,0.6-46.2,0.2
				c-4.9-0.1-18.6-3.1-22.3-4.8c-0.2-0.1-2.3,2.4-2.7,0.9c-0.5-1.9-1.4-3.4-2.5-4.6c-2.1-2.9-5.5-4.8-9.1-4.7
				c-81.5,3.7-144.3,63.2-200.4,116c-8.4,7.9-16.6,15.9-24.5,24.2c-7.4,7.7-16.1,16-18,27c-3.5,20.7,42.5,36.7,57,42.9
				c28.3,12,58.1,19.1,87,29.5c7,2.5,14.1,4.5,21.3,5.3C923.2,1041,1015,958.3,1072.4,854z"/>
		</g>
	</g>
	<g>
		<path fill="#95C9ED" d="M1077.9,843.9c-1.8-1.7-4.3-2.7-7.5-2.7c-25.9,0.1-52.8,1.1-79,2.9c-24.9,1.7-47.4,11.3-72.3,9
			c-17.6,5.6-33.2,18.2-46,32c-34.3,36.8-71.2,80.6-79.4,131.4c-0.6,3.6-1,7.2-0.3,10.8c0.7,3.6,2.6,7,5.8,8.7
			c1.7,0.9,3.7,1.2,5.4,0.3c0.7-0.4,1.3-1.1,1.9-1.7c4.2-5,7.3-10.9,12.4-15c6-4.8,12.9-5,20.2-5.2c30.3-0.9,60.5,2.2,90.5,5.3
			C990.9,972.8,1041.8,912.9,1077.9,843.9z"/>
	</g>
</g>
<g id="woman-belly">
	<path id="belly" fill="#FFE2D9" d="M867.4,774.3c-0.6-1.6-1.2-3.1-1.8-4.6c-10-25.8-20.7-51.5-35.4-74.9s-33.7-44.6-57.6-58.6
		c-38.2-22.3-85.7-24.1-128.8-14.3c-38.1,8.7-74.2,26.1-104.7,50.4c-10.4,8.3-20.3,17.5-26.9,29c-36.3,63,14.7,145.7,56.3,191.5
		c14.9,16.4,31.4,32.2,51.6,41.4c22.4,10.2,48,11.6,72.2,7.7c24.3-3.9,47.4-13,69.8-23.1c28.9-13.1,57.3-28.2,81-49.3
		c16.3-14.5,30.9-33.2,32.5-55C876.6,800.7,872.3,787.3,867.4,774.3z M768.6,691c0.2-0.4,0.4-0.8,0.6-1.1c0.1,0.1,0.2,0.2,0.3,0.3
		C769.2,690.4,768.9,690.7,768.6,691z"/>
	<path id="belly-shadow" fill="#F8BFAB" d="M612.2,950.8c9.1,2.1,18.8,1.6,28.2,0.7c56.7-5.3,112.1-23,161.9-50.5
		c24.9-13.8,49.2-30.7,64.6-54.6c7.9-12.3,13.3-26.5,13.6-41.1c0.2-7.7-1.4-15.9-6.8-21.3c-5.4-5.4-15.7-6.3-20.3-0.2
		c-6.4,8.4,1.3,22.4-5.7,30.2c-0.8,0.9-1.7,1.6-2.8,1.9c-4.1,1.3-7.7-3.1-9.8-7c-15.8-28.6-34.6-55.6-55.9-80.4
		c-17.1-19.9-36.1-38.6-58.3-52.6s-48.1-23.1-74.3-22.8c-38,0.4-73.7,20-111.6,21.1c0.3,4.2,5.9,5.5,10.1,5.3
		c38.4-1.8,75.1-21.4,113.4-18.1c36.5,3.2,68,26.7,94.3,52.2c29.2,28.4,55.1,60.6,73.2,97.1c2.6,5.2,5,11.1,3.1,16.5
		c-1.4,4-4.9,6.9-6.8,10.6c-4.1,8-0.6,18-3.3,26.6c-2.8,8.8-11.3,14.3-19.7,18c-2.3,1-4.8,2-7.3,1.7c-3.4-0.4-6.2-2.9-9.1-4.6
		c-10.1-5.9-22.8-2.9-33.7,1.2c-2.8,1.1-5.9,2.2-8.8,1.3c-5.3-1.7-6.1-8.6-9-13.3c-5.1-8.1-17.8-8.8-25.5-3
		c-7.7,5.7-11,15.8-11.5,25.4c-0.4,7.9-0.2,17.8-7.4,21.2c-3.1,1.4-6.6,1.1-10,0.6c-35.2-4.5-71-12.9-99.7-33.7
		c-7.4-5.3-14.7-11.6-23.6-13.1c-6.8-1.1-15.5,2.3-18.3,9c-3.7,8.9,2,16.2,8.3,22c12.4,11.4,24.8,22.7,37.3,34
		c7.7,7,15.8,14.2,25.5,17.8C608.2,949.7,610.2,950.3,612.2,950.8z"/>
</g>
<g id="pillow">
	<g id="base">
		<path fill="#FFFFFF" d="M292,829c-3-10.3-6.4-20.4-10.5-30.3c-17.6-43.4-43.3-83.1-76.5-116.3c-18.3-18.3-38.8-34.6-60.7-48.3
			c-13.5-8.5-28.2-18.3-44.9-16.1c-0.2,0-0.3,0.1-0.5,0.1c-0.8,0.1-2.2,1.5-2.9,1.9c-1.1,0.6-2.2,1.2-3.4,1.7
			c-2.2,1.1-4.7,1.7-7.1,2.5c-15.4,4.7-31.2,5.5-46.6,9.5c-10.1,2.6-20.4,11.2-18.8,21.5c0.9,5.5,4.9,9.9,8.4,14.3
			c12.9,15.9,17.5,35.3,25.8,53.6c11.5,25.3,25,49.7,37.4,74.5c16.2,32.4,30.7,68,54.7,95.6c10.5,12,25.8,21.5,41.6,19.4
			c6.2-0.8,11.9-3.4,17.6-5.9c22.1-9.8,43.9-19.6,64.5-32.3c6.6-4,13.8-8,18.6-14.2C296.4,850.6,295.1,840,292,829z"/>
		<path fill="#FFFFFF" d="M227.9,815.6C230.5,819.7,228.9,817.9,227.9,815.6L227.9,815.6z"/>
		<path fill="#FFFFFF" d="M135.6,732.3c-0.2-0.2-0.4-0.3-0.7-0.5c0.3,0.2,0.6,0.5,0.9,0.7C135.8,732.4,135.7,732.3,135.6,732.3z"/>
	</g>
	<path id="shadow_1_" fill="#E5E5E5" d="M291.7,805.9c-3.6-8.1-7.4-16.2-11.4-24.1c-0.9-2.7-1.9-5.5-2.9-8.2
		c-9.2-24.4-22.1-45.9-37-67.2c-16.3-23.2-32.2-46.8-49.1-69.7c-9.7-13.1-20.6-24.3-37-28.6c-15.6-4.1-34.5-5.8-49.1,2.4
		c-5.2,0.6-9.9,2.6-13.4,6.4c-0.9,0.2-1.8,0.5-2.6,0.7c-10.6,3.3-21.8,5.2-32.7,7.6c-11.8,2.6-23.5,5.2-35.3,7.8
		c-6.3,1.4-11.5,3.7-15.3,9.3c-0.8,1.2-1.5,2.5-1.5,3.9c0,1.6,0.9,3,1.7,4.4c4.3,6.6,9.5,12.7,13.1,19.7c5.6,10.8,7.1,23.3,8.8,35.3
		c5.5,37.1,14.9,73.9,31.1,107.8c3.3,6.9,6.9,13.8,10.8,20.4c18,30.7,48.7,54.1,78.1,73.2c16.2,10.5,34.2,24.1,54.8,19.8
		c0.7-0.1,1.4-0.3,2.1-0.5c2.2-0.6,4.3-1.3,6.5-2c11.6-4,21.9-8.9,32.2-15.6c-0.1-0.1-0.1-0.2-0.2-0.3c-0.1-0.2-0.2-0.4-0.3-0.6
		c4.8-0.1,9.6-1.8,12.4-5.4l0.3-0.4c1.4-0.6,2.8-1.2,4.2-2c5.5-3.1,10.4-8.5,15.2-13c1.7-0.7,3.3-1.5,5-2.3
		c13.8-7.1,22.9-20.5,23.7-36.1C304.8,833.6,297.6,819.3,291.7,805.9z M211.3,900.2c-3.9,2.1-7.1,5.1-10.6,7.7
		c-3,2.2-4.4,1.5-5.8-1.5c-1.7-3.6-3.2-7.3-4.9-10.9c-9.4-19.2-19.1-38.3-29.1-57.3c-10.3-19.7-20.5-39.4-34.1-57.1
		c-3.2-4.2-6.6-8.2-9.7-12.5c-13.3-17.8-26.7-35.5-39.9-53.4C63,695.9,48.4,677,34.5,657.4c-4.1-5.8-2.7-10.4,3.8-13.4
		c4.3-1.9,8.8-2.8,13.4-3.6c6.6-1.2,13.3-1.8,19.8-3.8c4.9-1.5,9.8-3,14.8-4.1c0.4,6.9,4.2,13.4,10.4,17.4
		c28.7,18.3,54.8,44.7,71.3,74.9c11.1,20.3,17.7,42.7,24.1,64.9c4.7,16,9.7,31.9,13.4,48.2c3.5,15.7,3.7,31.5,6.1,47.3
		C212.3,890.4,212.4,895.3,211.3,900.2z"/>
</g>
<g id="woman-neck">
	<path id="neck" fill="#FFC0AA" d="M369.1,683.6c-11.1-10.8-25.3-18.8-39.4-22.7c-33.1-9-76.6,0.5-95.2,31.4
		c-8.7,14.5-10.4,32.2-6.5,48.4c3.4,14.4,10.8,27.6,19.6,39.5c6.8,9.1,14.5,17.6,23.8,24.1c15.4,10.8,36.9,16.5,53.6,5.3
		c8.1-5.4,13.4-13.9,19-21.8c8.7-12.3,18.5-23.7,29-34.5c6.4-6.6,13.4-13.5,15.6-22.5c1.4-5.6,0.8-11.5-0.8-17.1
		C384.7,702.5,377.9,692.2,369.1,683.6z"/>
	<path id="neck-highlight" fill="#FFE7E0" d="M410.2,718.6c-3.8-5.2-12.6-7.8-18.7-5.8c-5.7,1.8-10.6,7.1-15.4,10.6
		c-6.1,4.5-12.2,9.1-18.1,13.8c-10.1,8-19.8,17.4-27.7,27.9c-7.1,9.5-14.8,19.8-16.9,31.7c-0.8,4.5-0.6,9.7,2.6,13.1
		c2.5,2.6,6.3,3.6,9.9,3.3c7.9-0.5,16-3.8,23.6-6.2c8-2.5,16-5.3,23.7-8.9c14.8-6.9,29-17.1,36.7-31.8c4.4-8.3,6.6-17.8,6.1-27.2
		C415.6,733.2,414.2,724.1,410.2,718.6z"/>
</g>
<g id="woman-shirt">
	<g id="shirt">
		<path fill="#D66263" d="M675.7,943.1c-31.6-0.9-58.5-9-82.6-30.4c-16.8-14.9-30-33.4-42.1-52.3c-13.1-20.6-24.9-42-33.7-64.7
			c-8.7-22.2-17.1-47.8-11.4-71.7c4.2-17.4,17.3-30.9,29-43.7c0.1-0.1,0.2-0.2,0.3-0.3c0.2-0.2,0.4-0.5,0.6-0.8
			c0.1-0.2,0.1-0.3,0.2-0.5c0-0.2,0-0.3,0-0.5c-0.1-0.2-0.1-0.3-0.1-0.5c-0.2-0.3-0.4-0.5-0.7-0.7c-0.1,0-0.2-0.1-0.3-0.1
			c0.3-0.5,0.4-1.1,0.3-1.7c-2.5-2.9-2.9-7.2-6.5-9.3c-2.6,0.4-4.1,2.4-5.5,4.3c-5.9,7.9-18.8,28.6-30.5,26.4
			c-2.2-0.4-4.1-1.5-6.1-2.5c-13.9-7-31.4-9.1-44.7-1.1c-7.5,4.5-12.7,11.5-19,17.4c-6.6,6.2-14.5,10.9-21.9,16.2
			c-3.2,22.3-26.1,41.7-45.1,50.5c-13.7,6.3-28.3,10.2-42.3,15.9c-6.9,2.8-14.8,2.2-15.1,10.2c-0.6,17.2-6,33.8-6.9,51
			c-0.1,2.5,0.8,5.4,3.2,6.1c-1-0.3,4.5-5.7,4.9-6.1c3.3-2.9,6.6-4.5,10.8-5.9c9.3-2.9,19.4-3,28.9-0.7c13,3.1,24.8,10.3,34.7,19.4
			c4.5,4.1,8.6,8.7,13.4,12.5c5.4,4.3,11.5,7.5,17.5,10.9c12.4,6.9,24.6,14.4,36.3,22.5c10.6,7.3,20.5,16.1,32,22
			c23.1,11.8,49.8,13.9,75.2,15.6c42.3,2.8,89.1,7.6,129.8-7C677.5,943.1,676.6,943.1,675.7,943.1z"/>
		<path fill="#D25151" d="M455,922.6L455,922.6L455,922.6L455,922.6z"/>
		<path fill="#D25151" d="M451.2,919.8L451.2,919.8C451.1,919.7,451.1,919.7,451.2,919.8L451.2,919.8z"/>
		<path fill="#D25151" d="M458.8,925.5L458.8,925.5L458.8,925.5L458.8,925.5z"/>
		<path fill="#D25151" d="M428.1,903.5C428.1,903.4,428.1,903.4,428.1,903.5C428.1,903.4,428.1,903.4,428.1,903.5L428.1,903.5z"/>
		<path fill="#D25151" d="M447.3,916.9L447.3,916.9L447.3,916.9L447.3,916.9z"/>
	</g>
	<g id="shirt-shadow">
		<path fill="#D25151" d="M675.9,944c-22.6,2.8-45.8-4.9-64.7-17.7c-26.6-18-46.7-45.6-63.5-72.6c-17.3-27.7-30.8-57.9-39.2-89.6
			c-2.8-10.4-5-21.1-4.3-31.9c1.1-19.2,15.3-38.5,28.2-52c1.3-1.4,2.6-2.7,4-4c-21.9,16-37.2,39.7-47.4,64.8
			c-10.2,25.1-15.7,51.8-21.2,78.4c-4.1-40.6,4.7-82.4,24.8-117.9c-4-2.8-9,1.7-11.7,5.7c-25.4,38.3-35.5,86.5-27.9,131.8
			c0.4,2.1,0.7,4.4-0.3,6.3c-1.1,2-3.4,3-5.6,3.8c-19.9,6.5-41.6,2.4-61.8-3.3S345,833,324.1,833.2c-8,0.1-16.4,1.5-22.8,6.2
			c-6.4,4.8-10.3,13.7-7.3,21.1c13.8-29,54.6-10.5,73.6,1.1c21.9,13.3,41.5,29.9,62.1,45c41.9,30.6,87.7,45.2,139.6,46.4
			c36.6,0.9,73-4,109.2-9.4C677.6,943.8,676.7,943.9,675.9,944z"/>
		<path fill="#D25151" d="M455,922.6L455,922.6L455,922.6L455,922.6z"/>
		<path fill="#D25151" d="M451.2,919.8L451.2,919.8C451.1,919.7,451.1,919.7,451.2,919.8L451.2,919.8z"/>
		<path fill="#D25151" d="M458.8,925.5L458.8,925.5L458.8,925.5L458.8,925.5z"/>
		<path fill="#D25151" d="M428.1,903.5C428.1,903.4,428.1,903.4,428.1,903.5C428.1,903.4,428.1,903.4,428.1,903.5L428.1,903.5z"/>
		<path fill="#D25151" d="M447.3,916.9L447.3,916.9L447.3,916.9L447.3,916.9z"/>
	</g>
</g>
<g id="woman-head">
	<path id="head" fill="#FFE7DF" d="M385.9,632.8c-0.4-6.5-0.8-13-2.7-19.4c-9.2-31.4-22.1-61-42.6-86.8
		c-9.7-12.2-21.3-21.6-35.3-26.8c-3.8-2-7.8-3.9-12-5.4c-24.4-9-49.2-3.5-72.5,6.1c-11.4,4.7-20.2,12.4-29,20.9
		c-8.2,7.9-15.5,16.9-20.6,27.2c-2.6,5.3-4.8,10.7-6.5,16.3c-6.5,13.7-10.7,28.7-10.3,43.9c0.5,17.4,7.6,34.1,18,47.8
		c10.5,13.8,26.1,20.3,43.2,19.3c0.1,0.3,0.3,0.5,0.4,0.8c1.7,3.9,3.3,7.9,5.2,11.8c3.6,7.8,6.9,15.8,12,22.8
		c5,7.8,12.6,11.7,20.9,15.2c11.4,4.8,23.1,8.2,35.2,10.7c15.1,3,30.3,4.8,45.6,2.2c19.6-3.4,34.3-13.3,41.5-32.6
		c4.5-8.9,6.9-18.5,9-28.2C388.6,663.4,386.8,648.1,385.9,632.8z"/>
	<path id="mouth_1_" fill="#716D69" d="M331.5,691.5c-3.4-0.1-6.7-0.1-9.9-1.4c-1.8-0.7-3.5-1.6-4.7-3.1c-0.9-1-1.2-2.2-1.1-3.6
		c0.2-1.3,1.1-2.4,2.4-2.6c1.1-0.1,2.3-0.3,3.3,0c7.2,1.9,14.3,0.6,21.3-1.3c0.8-0.2,1.5-0.6,2.3-0.7c0.8-0.2,1.6-0.3,2.4-0.2
		c3.5,0.2,5.3,3.3,3.7,6.5c-1.1,2.2-2.9,3.3-5,4.1C342.5,690.6,336.4,691.5,331.5,691.5z"/>
	<path id="nose_1_" fill="#FFCDBB" d="M353.7,636.5c2,0.2,3.9,0.7,5.5,1.8c2.7,1.8,2.1,5.1-0.5,6c-1.3,0.5-2.7,1-4,1.6
		c-4.4,1.8-9,3.2-13.1,5.5c-1.1,0.6-2.4,0.9-3.6,1.2c-0.8,0.2-1.6,0.3-2.3-0.2c-0.8-0.7-0.2-1.4,0.1-2.1c2.8-7.6,8.8-11.3,16.1-13.5
		C352.6,636.6,353.2,636.5,353.7,636.5z"/>
	<path id="ear_1_" fill="#FFCEBC" d="M198.5,658.6c-5.6,0.1-9.1-2.5-10.9-8.2c-0.9-2.7-1.3-5.5-1.4-8.4c-0.2-3.7,1.4-6.5,3.5-9.1
		c1.7-2.1,5.2-1.4,6.2,1.1c0.8,2,1.2,4,0.9,6.1c-0.6,4.7,1.7,7.9,5.3,10.5c0.6,0.5,1.3,0.9,1.9,1.4c0.3,0.3,0.5,0.9,0.4,1.3
		c-0.4,1.7-1.6,3.1-2.7,4.4C200.9,658.7,199.6,658.5,198.5,658.6z"/>
	<path id="left-eye_1_" fill="#736F6B" d="M311.8,618.1c0,3.6-2.7,6.3-6.4,6.2c-3.2-0.1-5.8-2.5-5.9-5.6c-0.1-3.5,2.7-6.8,5.9-6.9
		C308.8,611.6,311.8,614.6,311.8,618.1z"/>
	<path id="right-eye_1_" fill="#736F6B" d="M359.4,612.5c-3.5,0.1-6.1-2.1-6.2-5.2c-0.1-3.4,1.9-5.6,5.1-5.6c3.6,0,6.3,2.2,6.3,5.1
		C364.6,610,362.3,612.4,359.4,612.5z"/>
	<path id="left-eyebrow" fill="#FFCEBC" d="M264.9,582.3c-0.2-2.5,0.5-4.7,1.9-6.7c2.2-3.1,4.1-6.4,6.3-9.5c2.1-2.8,4.8-4.7,7.5-6.4
		c3.5-2.2,7.4-3.7,11.3-5c3-1,5.6-0.7,8.4,0.4c2.2,0.9,2.7,3.3,1.1,5.1c-1,1.1-2.2,1.9-3.6,2.3c-5.4,1.4-9.5,5-13.7,8.4
		c-2.1,1.7-3.8,3.8-4.9,6.4c-1.7,4.1-5.4,6.6-8.4,9.6c-0.9,0.9-2,0.8-3.2,0.7c-1.5-0.1-2.4-0.9-2.6-2.3
		C264.9,584.2,265,583.2,264.9,582.3z"/>
	<path id="right-eyebrow" fill="#FFCEBC" d="M339.2,551.1c2.9,0.7,6.7,1.2,10.2,2.5c3,1.2,5.7,3.4,7.9,5.9c2,2.4,1.8,3.6-0.5,5.6
		c-1.2,1.1-2.4,1.4-3.9,0.6c-4.4-2.3-9-3.9-13.7-5.2c-1.4-0.4-2.8-0.8-4-1.4c-2.4-1.3-2.8-3.9-0.9-6
		C335.9,551.5,336.7,551,339.2,551.1z"/>
</g>
<g id="woman-hair">
	<path id="hair-shadow-on-skin" fill="#FFCDBB" d="M280.4,509c0.3-7-1.1-13.6-7.4-17.5c-13.8-8.6-31.7-0.8-44.2,6.6
		c-14,8.2-25.9,20.2-33.5,34.6c-8.6,16.2-11.7,35.1-9.2,53.2c2.1,15.1,10.6,41.6,30.5,27C249.3,588.9,278.4,550.8,280.4,509z"/>
	<path id="hair_1_" fill="#A87341" d="M527.3,659.4c-0.7,0.2-1.4,0.3-2.2,0.4c1.2-0.9,2.1-2,2.6-3.6c2.1-6.4-5.1-11.7-11-14.9
		c-35.2-19.1-63.8-48.3-89.9-78.7c-26-30.4-50.2-62.7-79.4-90.1c-13.6-12.8-28.6-24.7-46.2-31.1c-29.6-10.7-64.1-11.1-93.9-1.2
		c-30.1,9.9-53.8,34.6-71.8,59.9c-16.7,23.6-30.2,52.6-36.3,80.9c-4.5,21-6.5,60.9,16.2,73c14,7.5,24.8,22.5,34.6,34.7
		c17,21.3,31.4,44.4,43,69.1c10.2,21.6,16.3,44.7,22.7,67.7c7.3,26.6,13,54.4,26.4,78.8c16.7,30.3,42.7,55.9,76.5,65
		c4.6,1.2,14.1,6,11.8-2.4c-0.1-0.4-0.3-0.9-0.5-1.3c-0.2-0.4-0.4-0.8-0.7-1.2c-0.1-0.2-0.3-0.4-0.4-0.6c-0.3-0.4-0.6-0.8-0.9-1.1
		c-0.4-0.3-0.7-0.6-1.2-0.8c-1.8-2.9-4.3-5.2-6.6-7.7c0.5,0.1,1,0.1,1.5,0.2c8.2,0.7,12.1-7.9,11.1-14.6
		c-4.2-27.6-9.7-54.9-15.5-82.2c-2.8-12.9-4.7-26.5-9.2-39c-2.1-5.8-4.8-11.3-7.9-16.6c0-1.5,0-3-0.2-4.5c-2-13.4-5.5-26.2-15.3-36
		c-7.2-7.2-14.7-14.3-22.8-20.5c-11.1-8.5-22.1-17-27.8-30.4c-5.5-9.2-10.2-18.8-14.2-28.7c-4.3-10.3-5.3-9.5-13.1-8.6
		c-16.5,1.9-32.2-17.6-30.8-33.2c1.2-12.7,9.4-21.7,21.9-21.7c1.6,0,3.2,0,4.8,0c2.9,0.1,5.1-1.3,7.2-3.3
		c26.4-25.9,55.7-61.5,58.9-100c0.5-6,0.2-12.5,4-17.9c0.1,0,0.2,0,0.2,0c0.7,0.5,1.5,0.6,2.3,0.5c62-8.8,97.8,74,107.8,122.4
		c3.7,18.1,4.7,36.9,1.6,55.1c-1.6,9.6-4,19.1-8.1,28c-0.5,1-0.8,2.1-1.2,3.1c-2.3,6.4,0.1,11.1,5.6,14.6c0.7,0.4,1.2,1.1,1.8,1.5
		c5.6,3.9,11.4,7,18.5,4.2c3.1-0.7,5.4-2.7,7.8-4.5c2.7-2,5.4-4,8.1-6c5.7-4.1,11.2-8.5,15.3-14.3c0.6-0.8,1.3-1.5,2-2
		c3.8-2.7,7.5-5.4,11.4-7.9c2.4-1.5,5.1-2.9,8-3c6.5-0.1,13.2-0.9,19.5,1c5.4,1.6,11.3,2.4,15.8,6.3c0.8,0.7,2,1,3,1.5
		c1.1,0.6,2.1,0.5,3.2,0.2c9.4-2.8,15.8-10.8,21.6-18.2c3-3.9,5.9-7.8,9.1-11.4C526.6,668.2,533.2,657.7,527.3,659.4z"/>
	<g id="hair-shadow">
		<path fill="#99673A" d="M263,935L263,935L263,935z"/>
		<path fill="#99673A" d="M259.1,930.4L259.1,930.4L259.1,930.4L259.1,930.4z"/>
		<path fill="#99673A" d="M264,936.1C264,936.1,263.9,936.1,264,936.1C263.9,936.1,263.9,936,264,936.1L264,936.1z"/>
		<path fill="#99673A" d="M264.9,937.1L264.9,937.1C264.8,937,264.8,937,264.9,937.1L264.9,937.1z"/>
		<path fill="#99673A" d="M258.1,929.4L258.1,929.4L258.1,929.4L258.1,929.4z"/>
		<path fill="#99673A" d="M252.4,921.8L252.4,921.8C252.4,921.7,252.3,921.7,252.4,921.8L252.4,921.8z"/>
		<path fill="#99673A" d="M254.3,924.6L254.3,924.6C254.3,924.5,254.3,924.5,254.3,924.6L254.3,924.6z"/>
		<path fill="#99673A" d="M280.3,952.4L280.3,952.4L280.3,952.4L280.3,952.4z"/>
		<path fill="#99673A" d="M279.3,951.5L279.3,951.5C279.3,951.4,279.2,951.4,279.3,951.5L279.3,951.5z"/>
		<path fill="#99673A" d="M265.8,938.1L265.8,938.1C265.8,938,265.8,938,265.8,938.1L265.8,938.1z"/>
		<path fill="#99673A" d="M315.8,968.7L315.8,968.7L315.8,968.7L315.8,968.7z"/>
		<path fill="#99673A" d="M266.8,939.1C266.8,939,266.8,939,266.8,939.1C266.7,939,266.7,939,266.8,939.1L266.8,939.1z"/>
		<path fill="#99673A" d="M278.3,950.6C278.3,950.5,278.3,950.5,278.3,950.6C278.2,950.5,278.2,950.5,278.3,950.6L278.3,950.6z"/>
		<path fill="#99673A" d="M310,966.9L310,966.9C309.9,966.8,309.9,966.8,310,966.9L310,966.9z"/>
		<path fill="#99673A" d="M242.8,908.2L242.8,908.2L242.8,908.2L242.8,908.2z"/>
		<path fill="#99673A" d="M329.5,965.8c-4.7-8.7-8.2-11.9-18.1-12.7c-18.5-1.5-31.1-18.4-42.9-30.8c-4-4.2-8-8.4-10.7-13.5
			c-2.8-5.3-4.1-11.2-5.3-17c-17.6-82.6-41.3-179.8-108.7-237.1c-3.1-2.6-6.4-6-10-7.9c-13.8-10.2-15.9-19.4-16.5-36.2
			c-0.7-18,1.7-36.1,6-53.5c5.3-21.3,13.1-47.1,25.6-65.3c1.4-2.1,1.7-4.7,0.2-6.9c-10.1,2.8-19.7,21.7-24.7,30.2
			c-12.3,20.8-19.7,44.5-24.7,68c-4.3,20.5-3.6,39.1,4.3,58.5c3.6,8.2,12,12.7,18.7,18c7.3,5.8,13.3,12.9,19.3,19.9
			c13.4,15.7,25.4,32.6,35.8,50.4c12,20.6,22,42.4,29.6,65c10.1,29.9,14.6,61.7,25.8,91.2c6.1,16,14.9,30.9,25.9,43.9
			c10.5,12.5,28.4,28.8,43.9,34.7c1.8,0.7,3.7,1.2,5.5,1.7c6.5,1.8,12.9,3.5,19.4,5.3c0.6,0.2,1.3,0.3,1.9,0.1
			c1.7-0.6,1.3-3,0.5-4.6C330,966.9,329.8,966.4,329.5,965.8z"/>
		<path fill="#99673A" d="M250.5,919.8C250.5,919.7,250.5,919.7,250.5,919.8C250.5,919.7,250.5,919.7,250.5,919.8L250.5,919.8z"/>
		<path fill="#99673A" d="M251.5,920.8C251.5,920.8,251.4,920.7,251.5,920.8C251.4,920.7,251.4,920.7,251.5,920.8L251.5,920.8z"/>
		<path fill="#99673A" d="M144.9,488.6L144.9,488.6L144.9,488.6L144.9,488.6z"/>
		<path fill="#99673A" d="M134.4,501.1L134.4,501.1L134.4,501.1L134.4,501.1z"/>
		<path fill="#99673A" d="M148.7,483.7C148.7,483.7,148.7,483.8,148.7,483.7C148.7,483.8,148.7,483.8,148.7,483.7L148.7,483.7z"/>
		<path fill="#99673A" d="M131.5,504.9L131.5,504.9L131.5,504.9L131.5,504.9z"/>
		<path fill="#99673A" d="M147.8,484.8L147.8,484.8L147.8,484.8z"/>
		<path fill="#99673A" d="M139.1,495.3L139.1,495.3C139.2,495.3,139.2,495.3,139.1,495.3L139.1,495.3z"/>
		<path fill="#99673A" d="M135.3,500.1L135.3,500.1L135.3,500.1L135.3,500.1z"/>
		<path fill="#99673A" d="M136.2,499.1L136.2,499.1L136.2,499.1L136.2,499.1z"/>
		<path fill="#99673A" d="M527.3,659.6c-0.8-0.1-1.7,0.1-2.6,0.2c-13.4,2.4-26.3-5.4-37.2-13.5c-27-19.9-51.1-43.5-72.6-69.1
			c-21.2-25.3-40-52.7-64.3-75c-13.8-12.7-30.5-24-49.2-24.5c-7.3-0.2-14.5,1.3-21.5,3.4c-2.1,0.6-4.5,1.3-6.5,0.3
			c-2.4-1.2-3-4.3-3.5-6.9c-1.2-5.8-4.7-12.8-10.6-12.2c1.9,12.2,3.8,24.4,5.7,36.6c21-6.1,44.3,1.3,61.3,15
			c17,13.7,28.6,33,37.9,52.8c10.1,21.5,18,44.3,20.9,67.9c2.3,18.7,1.3,37.9-4,56c-2.1,7.2-7.8,15.7-5.6,23.4
			c4,13.4,20,15.1,31,9.9c7.9-3.7,14.2-10.1,20.4-16.2c14.7-14.6,33.4-25.1,54-14.8c4.3,2.2,8.5,5.2,13.3,5.2
			c6.4,0,11.3-5.2,15.5-10c5.8-6.8,11.7-13.5,17.5-20.3c2-2.3,3.7-6.6,0.9-7.9C527.8,659.8,527.6,659.7,527.3,659.6z"/>
	</g>
</g>
<g id="tape-measure">
	<path fill="#FFFFFF" d="M610.6,658.7c0,0,84.1-28.6,167.8,69.6s68.3,129.2,68.3,129.2l28.2-24.4c0,0-55.6-105.5-91.3-135.5
		s-59.5-50.7-90.2-57.7c-38.9-8.8-90.2-1.5-90.2-1.5L610.6,658.7z"/>
	<path fill="#8F8A86" d="M828.6,758.4c-0.8,1.7-2.6,3.3-3.6,4.6c-1.6,2-3.4,3.9-5.1,5.8c-0.4,0.4-0.8,0.9-1.4,1.1
		c-3.6,1.4,1.3-6.1,1.9-6.9c1.6-2,3.1-4,4.7-6c0.7-0.8,1.8-2.1,3-1.6c0.7,0.3,1,1.3,0.8,2.1C828.9,757.8,828.8,758.1,828.6,758.4z"
		/>
	<path fill="#8F8A86" d="M843.5,786.3c0.1,0.3,0.1,0.5,0,0.8c-0.1,0.5-0.5,0.9-0.8,1.3c-2.2,2.5-4.6,4.8-7.4,6.7
		c-0.5,0.3-1.1,0.7-1.7,0.7c-2.8,0.1-0.4-3.5,0.4-4.3c2.2-2.3,4.6-4.6,7.5-5.8c0.5-0.2,1-0.3,1.4-0.1
		C843.3,785.8,843.4,786.1,843.5,786.3z"/>
	<path fill="#918C88" d="M739.2,666.2c-0.1,0.4-0.3,0.7-0.4,1c-1.4,3-3,5.9-4.7,8.7c-0.3,0.5-0.6,0.9-1.1,1.2
		c-2.5,1.2-1.1-3.3-0.7-4.1c1.3-2.6,2.5-5.1,3.8-7.7c0.4-0.9,1.1-1.9,2.1-1.8c0.7,0.1,1.2,0.9,1.3,1.6
		C739.3,665.5,739.3,665.9,739.2,666.2z"/>
	<path fill="#8E8985" d="M676.8,641.3c0,0.1,0,0.1-0.1,0.2c-0.6,1.5-1.9,2.9-2.8,4.2c-0.6,0.9-1.1,1.8-1.6,2.8
		c-0.5,0.9-0.8,1.8-1.3,2.7c-0.3,0.6-0.8,1.1-1.5,1.2c-0.3,0-0.6,0-0.8-0.2c-0.3-0.3-0.4-0.7-0.4-1.1c0-1.3,0.5-2.5,1.1-3.7
		c1.3-2.6,3.1-4.9,4.8-7.2c0.3-0.4,0.5-0.7,0.9-1c0.4-0.2,0.9-0.3,1.3-0.1c0.3,0.2,0.5,0.6,0.6,1C677,640.5,676.9,640.9,676.8,641.3
		z"/>
	<path fill="#928D89" d="M711.6,649.9c-1.8,2.8-3.6,5.6-5.4,8.4c-0.3,0.5-0.7,1-1.2,1.4c-0.3,0.3-0.9,0.5-1.3,0.2
		c-0.3-0.3-0.8-0.8-0.8-1.1c0.1-0.8,0.3-1.5,0.7-2.2c1.6-3.1,3.7-5.9,5.9-8.6C710.8,647.9,711.4,648.7,711.6,649.9z"/>
	<path fill="#918C88" d="M807.4,728.6c-0.1,0.4-0.5,0.9-0.8,1.3c-0.6,0.8-1.2,1.5-1.8,2.3c-1.2,1.5-2.5,3-3.8,4.4
		c-0.4,0.5-0.9,1-1.5,1.1c-0.7,0.1-1.2-0.3-1.4-1c-0.2-0.9,0.3-1.7,0.9-2.4c1.1-1.3,2.3-2.7,3.4-4c0.6-0.7,1.2-1.4,1.8-2.1
		c0.4-0.5,0.9-1.4,1.6-1.6c0.4-0.1,0.9,0.2,1.2,0.5C807.4,727.7,807.5,728.2,807.4,728.6z"/>
	<path fill="#928D8A" d="M789.2,706.5L789.2,706.5c-0.2,0.7-0.7,1.1-1.1,1.6c-1.9,2-3.9,4-5.8,6c-0.3,0.3-0.6,0.6-1,0.8
		c-2.2,0.9-0.4-2.7,0-3.3c1.3-2,2.9-3.8,4.4-5.6c0.4-0.5,0.8-0.9,1.4-1.2c0.6-0.3,1.3-0.3,1.7,0.2
		C789.3,705.3,789.4,705.9,789.2,706.5z"/>
	<path fill="#8F8A87" d="M765.4,686.5c-0.6,0.9-1.6,1.8-2,2.4c-1.3,1.7-2.7,3.4-4.2,4.9c-0.2,0.2-0.4,0.4-0.6,0.4
		c-1.6,0.5,0.7-4.8,1-5.3c0.6-1,4.9-7.7,6.2-4.2C766,685.3,765.8,685.9,765.4,686.5z"/>
	<path fill="#96928E" d="M816,739.2c0.2,0.8-0.7,1.7-1.1,2.4c-0.7,1-1.4,1.9-2.4,2.7c-0.4,0.4-0.9,0.7-1.5,0.8
		c-2.4,0.2-0.8-2.9-0.1-3.8c0.7-0.9,1.4-1.9,2.4-2.5c0.7-0.5,1.9-0.7,2.5,0.1C815.9,738.9,815.9,739.1,816,739.2z"/>
	<path fill="#95908D" d="M663.1,637.9L663.1,637.9c0.3,0.2,0.4,0.5,0.4,0.8c0,0.5-0.1,1-0.3,1.5c-0.5,1.6-1.3,3.1-2.4,4.4
		c-0.2,0.2-0.4,0.4-0.6,0.6c-1,0.4-1.7-0.9-1.7-1.7c0-1.3,0.6-2.5,1.3-3.6c0.6-0.9,1.4-2,2.6-2.1
		C662.6,637.7,662.9,637.7,663.1,637.9z"/>
	<path fill="#8E8A86" d="M748.7,672.9c0,0.1,0,0.1-0.1,0.2c-0.5,1.3-1.4,2.6-2.5,3.4c-0.4,0.3-0.7,0.5-1.2,0.6
		c-3.1,0.3,0.7-5.5,1.3-6.2c0.2-0.3,0.5-0.6,0.8-0.8c0.7-0.3,1.5,0.2,1.7,0.9C749,671.6,748.9,672.3,748.7,672.9z"/>
	<path fill="#948F8C" d="M650,639.5c0,0.1,0,0.2-0.1,0.3c-0.1,0.5-0.4,1-0.7,1.5c-0.4,0.7-0.9,1.4-1.3,2.2c-0.3,0.4-0.5,0.9-0.9,1.2
		c-0.4,0.4-0.8,0.6-1.3,0.6c-1.6,0-1.4-1.8-0.9-2.7c0.7-1.5,1.7-2.9,2.8-4.2c0.2-0.3,0.5-0.6,0.8-0.7c0.5-0.2,1.1,0.1,1.4,0.6
		C650,638.6,650.1,639,650,639.5z"/>
	<path fill="#94908C" d="M800.5,721.8c-0.5,1.1-1.8,1.9-2.7,2.6c-0.4,0.3-0.8,0.7-1.3,0.8c-1.3,0.2-2-1.5-1.4-2.5
		c0.2-0.4,0.5-0.7,0.9-1c1.1-1,4.8-4.8,4.8-0.9C800.7,721.2,800.6,721.5,800.5,721.8z"/>
	<path fill="#999490" d="M835.3,769.9c-0.1,0.2-0.2,0.4-0.4,0.6c-0.5,0.7-1,1.3-1.6,1.8c-0.5,0.4-1,0.9-1.6,0.9
		c-3.5,0.2,0.9-5,1.9-5.6c0.3-0.2,0.6-0.3,1-0.3c0.7,0,1.1,0.7,1.1,1.4C835.7,769.1,835.6,769.5,835.3,769.9z"/>
	<path fill="#918C89" d="M729.5,658.5c-0.1,0.4-0.2,0.9-0.4,1.3c-0.3,0.7-0.7,1.4-1.2,2.1c-0.4,0.6-0.8,1.1-1.4,1.4
		c-3.5,1.5-0.4-4.7,0.2-5.6c0.4-0.6,1-1.2,1.7-1.1c0.6,0.1,1.1,0.7,1.1,1.4C729.6,658.2,729.6,658.4,729.5,658.5z"/>
	<path fill="#989491" d="M757.4,677.8c0.1,0.4-0.1,0.8-0.2,1.2c-0.4,1.1-1,2.1-1.7,3c-0.4,0.5-0.8,0.9-1.3,1.1
		c-2.4,0.7-1.4-2.6-0.7-3.6c0.6-0.9,1.4-1.6,2.3-2.2c0.3-0.2,0.5-0.4,0.9-0.4C757,677,757.3,677.4,757.4,677.8z"/>
	<path fill="#928E8A" d="M720.9,655.6c-0.1,0.3-0.2,0.5-0.4,0.8c-0.4,0.7-0.9,1.2-1.5,1.7c-0.4,0.3-0.8,0.6-1.3,0.6
		c-2.7,0.3-0.4-4,0.3-4.9c0.3-0.4,0.8-0.9,1.3-1c0.8-0.1,1.5,0.5,1.7,1.3C721.1,654.6,721.1,655.1,720.9,655.6z"/>
	<path fill="#928D89" d="M782.5,699.9c0,0.1-0.1,0.2-0.1,0.3c-0.4,0.8-1,1.5-1.7,2.1c-0.4,0.4-1,0.8-1.6,0.9
		c-1.5,0.1-1.6-1.8-1.2-2.7c0.2-0.5,0.6-1,1-1.5c0.3-0.4,0.6-0.7,1-1c0.4-0.2,0.9-0.3,1.4-0.3c0.2,0,0.4,0,0.5,0.1s0.2,0.3,0.3,0.5
		c0.1,0.3,0.2,0.6,0.3,0.9c0.1,0.2,0.1,0.4,0.1,0.6C782.5,699.7,782.5,699.8,782.5,699.9z"/>
	<path fill="#8F8B87" d="M690.3,642.3c0,0.3-0.1,0.5-0.2,0.8c-0.3,0.5-0.6,1-1,1.5c-0.3,0.4-0.5,0.7-0.8,1s-0.7,0.5-1.2,0.5
		c-1.6,0-1.1-2.1-0.6-2.9c0.3-0.7,0.8-1.3,1.3-1.9c0.3-0.4,0.7-0.8,1.2-0.8c0.6-0.1,1.2,0.4,1.4,0.9
		C690.4,641.6,690.4,641.9,690.3,642.3z"/>
	<path fill="#9D9895" d="M774.7,692.2c-0.1,0.3-0.2,0.5-0.4,0.8c-0.5,0.6-0.9,1.3-1.4,1.9c-0.2,0.3-0.4,0.6-0.7,0.8s-0.7,0.4-1,0.3
		c-1.4-0.3-0.6-2.5-0.1-3.2c0.6-1,1.4-1.8,2.4-2.5c0.6-0.4,1,0.4,1.2,0.8C774.7,691.5,774.7,691.8,774.7,692.2z"/>
	<path fill="#918C88" d="M795.1,715.2c-0.6,0.8-1.2,1.5-1.9,2.2c-0.3,0.3-0.7,0.6-1.1,0.6c-2.1,0.2-0.4-3.2,0.2-3.8
		c0.8-0.9,2.1-1.3,3.2-0.4c0.1,0.1,0.2,0.2,0.3,0.4C795.8,714.4,795.3,714.9,795.1,715.2z"/>
	<path fill="#989491" d="M701.1,646c-0.5,1-1,1.9-1.6,2.9c-0.2,0.3-0.4,0.6-0.7,0.8c-1.7,1-0.9-2.5-0.7-3.1c0.3-1,0.9-2,1.9-2.4
		c0.3-0.1,0.7-0.2,1-0.1c0.3,0.1,0.6,0.4,0.6,0.7c0,0.2-0.1,0.3-0.1,0.5C701.3,645.5,701.2,645.8,701.1,646z"/>
	<path fill="#908C88" d="M848.6,799.6c-1.3,1.1-2.6,2.3-3.9,3.4c-0.6,0.5-1.5,0.6-2.2,0s-0.6-1.5-0.2-2.1c1.1-1.7,2.8-3,4.4-4.2
		c0.6-0.4,1.3-0.4,1.9,0.1l0.1,0.1C849.2,797.7,849.4,798.7,848.6,799.6z"/>
	<path fill="#989390" d="M822.5,748C822.5,748,822.6,748,822.5,748c0.1,0.2,0.1,0.3,0.1,0.4c-0.2,2.2-1.6,4-3.2,5.4
		c-0.4,0.4-0.9,0.8-1.5,0.8c-3.5,0.6,0.8-5.3,1.7-6c0.8-0.6,1.7-1.1,2.7-0.9C822.3,747.9,822.5,747.9,822.5,748z"/>
	<path fill="#95918D" d="M839.5,777.9c0,0.4-0.2,0.8-0.4,1.2c-0.8,1.3-1.9,2.4-3.3,3c-0.4,0.2-0.9,0.4-1.4,0.3
		c-3.3-0.3,1.5-4.7,2.6-5.2c0.4-0.2,0.8-0.4,1.3-0.4c0.4,0,0.9,0.2,1.1,0.6C839.5,777.5,839.5,777.7,839.5,777.9z"/>
	<g>
		<path fill="#FFFFFF" d="M891.1,859.6c-8.8,0.5-36.8,8-36.8,8s-6.5,4.7-9.3,7.1c-21.7,18.9-41.4,40.8-54.1,66.6
			c-9.8,20-15.2,41.8-23.8,62.3c-2.4,5.7-5.1,11.3-8.1,16.7c-0.8,1.3-1.6,2.7-2.4,4c-0.6,1-2.1,2.4-2.3,3.5c-0.6,2.5,3,3.7,4.9,4
			c4.6,0.5,9.4,0.6,14,0c1.3-0.1,2.6-0.3,3.7-1c1.6-1,2.3-2.9,3-4.7c11.1-29.8,22-59.9,37.6-87.7c12.2-21.7,27.5-42,46.7-57.9
			c5-4.1,10.3-7.7,15.5-11.5c2.5-1.8,4.7-3.6,7-5.6C887.4,862.9,890.1,859.7,891.1,859.6z"/>
		<g>
			<path fill="#BCB6B1" d="M789.3,999.2L789.3,999.2C789.4,999.1,789.3,999.1,789.3,999.2L789.3,999.2L789.3,999.2
				C789.4,999.2,789.4,999.2,789.3,999.2C789.4,999.2,789.4,999.1,789.3,999.2L789.3,999.2z"/>
		</g>
		<path fill="#908C88" d="M855.4,883.3c-0.7-1.5-2.7-1.6-4.1-2.1c-1.9-0.6-3.8-1.2-5.7-1.6c-1-0.3-1.7,1.2-0.7,1.8
			c1.8,1,3.5,1.7,5.4,2.5c1.5,0.6,3.3,1.7,4.8,0.8C855.5,884.3,855.6,883.7,855.4,883.3z"/>
		<path fill="#908C88" d="M859,874.2c-1.7-0.7-4.1-1.1-6-0.8c-0.7,0.1-1.3,1.2-0.4,1.6c1.7,0.8,3.8,1.4,5.7,1.9
			C860,877.3,860.6,874.8,859,874.2z"/>
		<path fill="#908C88" d="M846,888.7c-1.3-0.5-2.7-0.6-4-1.3c-0.9-0.5-1.8,0.7-1.1,1.4c1.2,1.2,3,2.3,4.7,2.3
			C847.1,891,847.3,889.1,846,888.7z"/>
		<path fill="#908C88" d="M840.9,895.7c-0.6-0.3-1.2-0.4-1.8-0.6c-0.5-0.2-1.1-0.4-1.6-0.7c-0.7-0.3-1.3,0.7-1,1.3
			c0.6,1.2,2.3,2.5,3.7,2.3C841.4,897.9,842,896.4,840.9,895.7z"/>
		<path fill="#908C88" d="M836.7,902.6c0-0.1,0-0.2,0-0.3c-0.1-0.5-0.6-0.8-1-1c-2.6-1-5-2.4-7.6-3.6c-0.7-0.3-1.4,0.5-0.9,1.1
			c2,2.3,4.7,3.8,7.4,5.1c0.6,0.3,1.2,0.2,1.7-0.2c0.1,0,0.1-0.1,0.2-0.1C836.7,903.3,836.7,902.9,836.7,902.6z"/>
		<path fill="#908C88" d="M830.5,906.9c-0.8-0.6-1.8-0.8-2.5-1.3c-0.3-0.3-0.9-0.1-1.1,0.2c-0.3,0.4-0.2,0.8,0.1,1.1
			c0.7,0.9,1.5,1.9,2.7,2.1C830.9,909.2,831.5,907.6,830.5,906.9z"/>
		<path fill="#908C88" d="M827.6,915c-0.4-0.6-1.2-0.7-1.9-1c-0.6-0.3-1.3-0.6-1.9-0.9c-0.6-0.4-1.1-0.7-1.9-0.8
			c-0.5,0-0.9,0.5-0.8,1c0.2,1,1.2,1.6,2,2.2c0.9,0.6,1.9,1.2,2.9,1.5c0.5,0.1,1,0,1.3-0.3C827.8,916.2,827.9,915.5,827.6,915z"/>
		<path fill="#908C88" d="M822.5,921c-1.4-1.1-3.2-1.7-4.8-2.4c-1.7-0.8-3.4-1.6-5.1-2.2c-0.7-0.2-1.2,0.7-0.7,1.2
			c1.5,1.3,3.1,2.4,4.8,3.5c1.5,1,3.1,2.1,4.9,2.2C822.6,923.3,823.3,921.7,822.5,921z"/>
		<path fill="#908C88" d="M817.5,928.1c-0.2-1.1-1.4-1.4-2.3-1.8c-1-0.5-2.1-1-3.1-1.4c-0.9-0.4-1.6,0.8-0.8,1.3
			c0.9,0.7,1.9,1.3,2.8,2c0.8,0.6,1.7,1.4,2.8,1.1C817.4,929.1,817.7,928.6,817.5,928.1z"/>
		<path fill="#908C88" d="M812.6,934.5c-0.8-0.1-1.6-0.2-2.3-0.5s-1.4-1-2.2-0.9c-0.5,0-0.9,0.4-0.9,0.9c-0.1,1,1.1,1.9,1.9,2.3
			c1,0.6,2,1,3.1,1C813.8,937.3,814.2,934.7,812.6,934.5z"/>
		<path fill="#908C88" d="M810.6,941.7c-4-1.6-8.1-3.8-12.2-5.1c-0.7-0.2-1.3,0.7-0.7,1.2c3.4,2.9,8.1,4.8,12.2,6.3
			C811.5,944.8,812.1,942.3,810.6,941.7z"/>
		<path fill="#908C88" d="M804.2,948.2c-0.6-0.2-1.2-0.1-1.8-0.5c-0.3-0.2-0.5-0.3-0.8-0.5s-0.6-0.3-1-0.4c-0.4-0.1-0.9,0.2-1,0.5
			c-0.2,1.1,0.2,1.9,1.1,2.7c0.8,0.7,2,1.4,3,1.3c0.8-0.1,1.4-0.5,1.5-1.3C805.4,949.2,804.9,948.4,804.2,948.2z"/>
		<path fill="#908C88" d="M803.8,957.3c-0.4-1.3-1.6-1.7-2.7-2.2c-1.1-0.6-2.2-1.1-3.4-1.6c-0.8-0.3-1.4,0.9-0.8,1.4
			c0.9,0.8,1.8,1.5,2.7,2.3c0.9,0.7,1.9,1.7,3.1,1.6C803.4,958.7,804.1,958.1,803.8,957.3z"/>
		<path fill="#908C88" d="M799.2,961.2c-1.7-0.6-3.4-1-5.1-1.6c-1.6-0.6-3.3-1.3-5-1.7c-0.7-0.1-1.2,0.6-0.7,1.2
			c2.5,2.5,6.5,4.1,9.9,5.1C800.3,964.7,801,961.8,799.2,961.2z"/>
		<path fill="#908C88" d="M796,971.1c-1.2-0.9-3-1.6-4.5-1.6c-1.1,0-1.3,1.3-0.5,1.9c0.5,0.4,1.1,0.6,1.7,1c0.6,0.3,1.1,0.7,1.7,1
			c0.6,0.3,1.4,0.2,1.8-0.4C796.5,972.5,796.6,971.5,796,971.1z"/>
		<path fill="#908C88" d="M792.8,978.6c-0.7-0.4-1.5-0.7-2.3-0.9c-0.7-0.2-1.7-0.4-2.4,0c-0.4,0.2-0.6,0.8-0.3,1.2
			c0.4,0.6,1.1,0.8,1.7,1.1c0.6,0.3,1.2,0.7,1.8,1.1C792.9,982.2,794.5,979.5,792.8,978.6z"/>
		<path fill="#908C88" d="M790.8,985.3c-2.8-1.4-6-2.3-9-3c-1.1-0.2-2,1.4-0.8,2c2.8,1.3,5.7,2.8,8.6,4
			C791.3,989,792.5,986.1,790.8,985.3z"/>
		<path fill="#908C88" d="M786.1,993.8c-1.2-0.4-2.3-0.7-3.4-1.1c-0.9-0.3-1.4,0.9-0.8,1.4c0.9,1.1,2.2,1.9,3.6,2.3
			C787.1,996.8,787.8,994.3,786.1,993.8z"/>
		<path fill="#908C88" d="M783.5,1001.2c-1-0.2-1.9-0.5-2.9-0.9c-1.1-0.5-2.2,0.8-1.3,1.7c1.1,1.2,2.8,2.3,4.5,2.2
			c0.5,0,1-0.2,1.2-0.7C785.5,1002.3,784.6,1001.5,783.5,1001.2z"/>
		<path fill="#908C88" d="M781.6,1008.8c-1.4-0.5-2.9-0.9-4.4-1.4c-1.4-0.5-2.8-1.2-4.3-1.4c-0.8-0.1-1.5,0.8-0.8,1.4
			c2,2.3,5.8,3.7,8.7,4.5C782.8,1012.4,783.5,1009.5,781.6,1008.8z"/>
		<path fill="#908C88" d="M777.9,1017.9c-0.5-0.8-1.4-1-2.2-1.3c-0.9-0.3-1.8-0.5-2.7-0.7c-1-0.2-1.7,1.2-0.7,1.7
			c0.8,0.4,1.6,0.8,2.5,1.2c0.8,0.3,1.7,0.8,2.6,0.5C777.9,1019.2,778.2,1018.5,777.9,1017.9z"/>
		<path fill="#908C88" d="M779.2,1023.9c-3.9-1.4-9.2-0.6-13.2-0.3c-1.1,0.1-1.6,1.9-0.3,2.1c4.2,0.8,9.7,1.6,13.7-0.3
			C780.1,1025.1,779.8,1024.1,779.2,1023.9z"/>
		<path fill="#908C88" d="M868,872c-1.4-0.6-3-0.9-4.5-1.1c-1.4-0.2-2,1.7-0.6,2.2s3,1.1,4.5,1.1C868.5,874.3,869.1,872.6,868,872z"
			/>
		<path fill="#908C88" d="M875,868.4c-0.4-1.5-2.2-1.7-3.6-2c-1.7-0.4-3.4-0.8-5.2-1c-0.8-0.1-1.1,1.1-0.4,1.5
			c1.5,0.9,3.2,1.5,4.9,2.1c1.3,0.5,2.9,1.3,4.1,0.2C875,869,875,868.7,875,868.4z"/>
	</g>
	<g>
		<path fill="#FFFFFF" d="M577.1,610.6c-1.4-4.1-7.7-1.7-11.7-1.9c-4.3-0.3-8.5-1.1-12.6-2.3c-15.4-4.5-40.2-15.3-40.9-34.1
			c-0.2-7.3,4.9-14.3,12.3-15.6c5-0.9,10.4,1,13.7,4.8c3.9,4.5,4.7,10.8,6.3,16.6c0.1,0.5,0.3,1,0.7,1.2s0.9,0,1.3-0.2
			c4.1-2,19.9-8.6,18.3-13.9c-3.4-10.9-7.6-24.2-20.3-26.6c-10.7-2-22.8,2.8-30.9,9.6c-10.4,8.7-15.7,22.4-14.6,35.9
			c1.7,20.6,18.3,36.2,36.9,43c0,0,19.7,6.4,23.6,5.9C563.2,632.2,582.8,626.6,577.1,610.6z"/>
		<path fill="#BCB6B0" d="M530.2,597.7c0.5,0,0.8,0.3,1,0.8c0.4,1.9,0,3.4-1.9,4.4c-3.1,1.6-6.3,3.2-9.6,4.1c-2,0.5-3.6,0-3.7-1.1
			c-0.1-1.6,1-2.3,2.2-2.7c3.3-1.3,6.5-2.5,9.8-3.7C529,599,529.8,598.6,530.2,597.7z"/>
		<path fill="#BCB6B1" d="M510.4,584c-1,0-2-0.2-3-0.4c-1.8-0.4-4.5-1.5-4-3.8c0.1-0.7,0.7-1.3,1.4-1.5c0.6-0.1,1.2,0.1,1.8,0.4
			c1.7,0.7,3.5,1.5,5.2,2.2c0.4,0.2,0.9,0.4,1.3,0.7c0.4,0.3,0.6,0.9,0.4,1.3c-0.2,0.7-1.2,0.9-2,1C511.1,584,510.8,584,510.4,584z"
			/>
		<path fill="#BCB6B1" d="M513.1,590.8c0.1-0.2,0.2-0.3,0.3-0.4c0.2-0.2,0.6-0.3,0.9-0.3c1.4-0.3,2.8-0.3,4.2,0
			c0.5,0.1,1,0.2,1.4,0.5s0.7,0.7,0.7,1.2s-0.3,0.9-0.6,1.2c-0.4,0.3-0.8,0.4-1.2,0.6c-1.2,0.3-2.5,0.4-3.8,0.1
			c-1.2-0.2-1.9-0.8-2-2.1C512.9,591.3,512.9,591,513.1,590.8z"/>
		<path fill="#BEB7B2" d="M557.1,610.1c0.5,0,0.8,0.2,0.9,0.7c0.3,1.9-0.3,3.5-2,4.4c-1.2,0.7-2.5,1.3-3.8,1.9
			c-0.8,0.4-1.6,0.1-2.1-0.6c-0.6-0.7-0.3-1.5,0.2-2.1c0.7-0.9,1.7-1.4,2.7-1.9C554.4,611.7,556.1,611.4,557.1,610.1z"/>
		<path fill="#BEB8B4" d="M537.1,610.6L537.1,610.6c-0.9,0.1-1.9-1-1.7-1.8c0.1-0.3,0.3-0.6,0.5-0.9c1.4-1.6,3.2-2.8,5.2-3.4
			c0.7-0.2,1.5-0.3,2,0.2c0.2,0.3,0.3,0.7,0.2,1.1s-0.3,0.7-0.6,1c-1.3,1.6-3.1,2.6-4.8,3.6C537.6,610.4,537.4,610.5,537.1,610.6z"
			/>
	</g>
</g>
<path id="midwife-right-hand" fill="#FFE4DE" d="M928.2,836c-1.9,1.3-3.8,2.6-5.8,3.9c-19.4,13.3-39.9,28.3-63.4,28
	c-6.6-0.1-13.3-1.5-18.9-5c-13.8-8.8-11.9-25.4-1.8-36.4c5.1-5.5,11.6-9.5,18.3-13c2.1-1.1,4.5-2.4,5.1-4.7
	c1.4-4.9-5.4-7.9-7.5-12.5c-1.8-3.9,0.4-8.8,4-11.2s8.1-2.8,12.4-2.4c14.5,1.1,29.3,9.2,42.9,4c4.8-1.9,8.8-5.2,12.6-8.6
	c11.4-10.2,21.8-21.3,31.2-33.3c2.4-3.1,4.8-6.3,8.2-8.3c4.6-2.8,10.4-3,15.6-1.4c5.1,1.6,9.6,4.9,13.5,8.6
	c6.9,6.7,12.2,15.2,15,24.4c0.9,2.8,1.5,5.8,0.7,8.6c-1,3.4-3.9,5.8-6.6,7.9C979.7,803.2,953.5,818.9,928.2,836z"/>
<g id="woman-right-hand">
	<path id="hand" fill="#F8BFAB" d="M620.1,638.6c-0.9-4.1-2.7-8-5.4-11.3c-6-7.4-15.5-11.5-25-12c-9.5-0.6-19,2.1-27.5,6.4
		c-13.6,6.9-25,17.9-32.6,31.1c-5.2,9-12.9,31.7,4.3,32.6c3.8,0.2,7.5-0.9,11.1-2c12.4-3.6,24.8-7.1,37.4-9.9
		c6.9-1.5,13.9-2.9,20.4-5.7s12.5-7.4,15.6-13.7C620.8,649.3,621.2,643.8,620.1,638.6z"/>
	<path id="hand-highlight" fill="#FFE4DE" d="M524.9,646c0-16.5,7.2-33.4,23.6-39.5c8.1-3,17.2-2.6,25.8-1.4
		c10.1,1.5,20.3,4.1,28.5,10.3c8.1,6.1,13.8,16.4,12.2,26.4c-4.7,29.4-49.7,29.4-71.8,32.9c-13.3,2.1-15.9-9.1-17.6-20.1
		C525.1,651.8,524.9,648.9,524.9,646z"/>
</g>
<g id="woman-left-arm">
	<path id="arm" fill="#FFE2D9" d="M780.3,886.4c-3.1-1.9-6.4-2.8-10.1-2.2c-2.8,0.5-5.7,1-8.5,1.6c-9.7,1.9-18.4,6.2-27.1,10.7
		c-1.7,0.9-3.5,2.4-5.3,1.3c-2.1-1.2-0.8-3.5-0.6-5.3c0.5-5.5,0.3-10.9-1.3-16.1c-2.5-8.6-10.8-11.1-17.6-5.3c-3.6,3-5.5,7-6.6,11.5
		c-2.2,9.3-3.8,18.8-3.8,28.4c0,5.5-0.7,10.8-2,16.1c-0.8,3.3-2,6.5-5.2,8.3c-4.8,2.5-9.5,5.3-14.6,7.1c-28.9,7.7-58.5,9-88.2,8.6
		c-25.1-0.4-50-3.4-74.9-6c-11.1-1.1-22.1-2.9-33-5.6c-7.4-1.8-14.4-8.3-20.2-12.9c-7.2-5.6-14.5-11.1-22-16.3
		c-16.4-11.4-34-20.2-50.8-30.8c-0.3-0.2-0.7-0.4-1-0.6c-0.3-0.2-0.7-0.4-1-0.6c0.2-0.6,0.2-1.2,0.1-1.8c-0.5-3.3-2.2-5.9-4.9-7.9
		c-9.2-7-19-12.9-29.6-17.5c-0.4-0.2-0.9-0.4-1.3-0.5c-0.6-0.3-1.3-0.6-1.9-0.9c-0.7-0.3-1.4-0.5-2.1-0.8
		c-10.6-3.9-21.5-5.2-32.8-4.4c-3.4,0.3-6.8,0.7-9.5,2.7c-4.8,3.5-7.9,5.6-9.8,11.3c-2.3,6.8-3.7,13.8-3.7,21.1
		c-0.1,11.6,0.4,23.4,3.4,34.7c4.2,15.8,16.9,30.4,27,43.1c22.9,28.7,55.5,49,90.6,59.1c68.2,19.7,140.2,14.2,209.8,6.4
		c6.4-0.7,12.8-1.4,19.2-2.2c2.6-0.3,5.3-0.6,7.7-1.9c3.8-2.1,3.2-6.6,7.2-8.1c0.9-0.3,1.8-0.6,2.7-1c25.8-12.2,51.2-26.5,76-40.8
		c10.9-6.3,21.8-12.8,31.5-20.9c8.6-7.2,19.6-17.4,21.3-29.1c0.1-0.4,0.5-0.8,0.7-1.2c0-0.3,0-0.6,0.2-0.9c0.4-0.6,0.3-1.4,0.8-2
		c0.1-0.6,0.1-1.2,0.2-1.8c0.4-0.7,0.3-1.4,0.7-2.1c0-0.9,0.1-1.8,0.1-2.7C792.1,902.3,786.7,890.4,780.3,886.4z"/>
	<path id="arm-shadow" fill="#FFC0AA" d="M585.7,1016.5c-35.8,1.4-71.8,0.2-107.4-3.6c-33.1-3.5-67.9-6.6-97.3-23.7
		c-15.4-9-30-18.8-41.9-32.4c-7.5-8.6-14.3-17.7-20.5-27.2c-11.5-17.8-17.5-39.1-17.7-60.3c0-3.7,0.2-7.7,2.4-10.7
		c3.5-4.7,10.3-5.1,16.1-4.7c24.1,1.7,47.8,10.3,66.5,25.6c1.1-2.3,0.5-5.2-0.9-7.4s-3.5-3.8-5.6-5.4c-12.6-9.3-26.6-16.8-41.6-20.9
		c-7.5-2.1-15.4-3.4-23.1-2.1c-19.9,3.4-25.3,23.3-24.4,40.9c2.3,46,32.2,83.1,69.6,107.2c30.6,19.7,66.3,30.3,102.2,34.7
		c35.7,4.3,71.9,3.2,107.8,1.4c25.5-1.3,51.1-2.9,76-8.8c1.7-0.4,3.5-0.9,4.7-2.2c1-1.1,1.4-2.5,2.2-3.7c3.7-5.5,13.6-4.8,16.3-10.6
		c0.1-0.2,0.2-0.4,0.3-0.7C642.3,1012.2,614.6,1015.4,585.7,1016.5z"/>
</g>
</svg>
