<?xml version="1.0" encoding="utf-8"?>
<!-- Generator: Adobe Illustrator 22.0.1, SVG Export Plug-In . SVG Version: 6.00 Build 0)  -->
<svg version="1.1" id="Layer_1" xmlns="http://www.w3.org/2000/svg" xmlns:xlink="http://www.w3.org/1999/xlink" x="0px" y="0px"
	 viewBox="0 0 800 600" enable-background="new 0 0 800 600" xml:space="preserve">
<path fill="#695B55" d="M626.1,379.8c-11.1,24.6-13.4,56-8.3,82.4c7.3,38.2,42.2,48.6,76.1,36.1c9.6-3.5,18.7-9.2,24.7-17.5
	c9.2-12.8,9.7-29.7,8.6-45.5c-1.5-20.6-5.3-41.2-13.1-60.3c-6.6-16-18.4-32.5-35.6-34.3C653.7,338.3,635.9,357.9,626.1,379.8z"/>
<path fill="#695B55" d="M84.5,379.8c-11.1,24.6-13.4,56-8.3,82.4c7.3,38.2,42.2,48.6,76.1,36.1c9.6-3.5,18.7-9.2,24.7-17.5
	c9.2-12.8,9.7-29.7,8.6-45.5c-1.5-20.6-5.3-41.2-13.1-60.3c-6.6-16-18.4-32.5-35.6-34.3C112.2,338.3,94.4,357.9,84.5,379.8z"/>
<ellipse fill="#FCE3BB" cx="400.8" cy="501.7" rx="389" ry="49.9"/>
<path fill="#F28A83" d="M459.7,342.4c-2.1-5.8-4.5-11.4-7.4-16.7c-2.7-5-5.7-10.9-10.2-14.5c-12.2-9.9-35.8,2-31.5,18.4
	c0.4,1.4,0.2,2.5-0.6,3.7c-4.2,6.1-8.4,12.2-13.1,17.9c-1.5,1.8-8,16.6-9.2,9.1c-0.8-5-1.4-9.9-3.2-14.7c-0.5-1.4-4.9-13.7-6.1-13.7
	c-3.5-7.9-7.4-15.5-11.8-23c-8.6-14.9-18.8-28.9-30.3-41.7c-18.1-20.2-50.3-26.7-76.2-26.6c-27,0.1-54.4,4.5-79.5,14.6
	c-19.9,8-38.7,19.5-49.2,38.8c-4.6,8.5-5.4,19-6.9,28.4c-1.7,10.9-3,21.8-3.8,32.8c-1.6,20.9-0.9,41.7-0.5,62.6
	c0.1,8.3,1.1,16.9,5.2,24.2c6.6,11.9,17.8,14.7,28.8,20.7c16.3,9,32.8,18,50.6,23.7c8.5,2.7,17.3,3.8,26,5.5
	c8.6,1.6,16.9,3.5,25.2,6.1c5.6,1.8,11.5,3,17.2,4.3c0.1,0,0.3-0.1,0.4-0.1c3.7-1.4,7.1-3.5,8.9-7.2c1.9-4,3.3-8.3,5.4-12.3
	c1.9-3.8,3.9-7.8,6.9-10.9c3.1-3.2,7.1-5.2,11.2-6.8c7.6-3,15.3-4.7,23.2-6c0.4,0,0.8,0.1,1.2,0c16.9-1.5,33.9-2.9,50.8-4.2
	c0.7,0,1.4,0,2.1,0.1c0.8,0.3,1.8,0.5,2.7,0.6c2.8,0,5.6,0,8.4-0.2c2.6-1.8,5.5-2.6,8.5-3c1.2-0.6,2.4-1.2,3.6-1.9
	c7.6-4.5,12.1-12.3,16.3-19.9c5.1-9.3,9.9-18.8,14.9-28.2c1.2-2.3,2.5-4.5,3.9-6.7v-0.1c2.3-6.1,6.2-11.1,9.9-16.3
	c3.8-5.3,6.7-10.7,8.3-17c1.1-4.3,1.7-8.6,1.9-13C461.2,346.7,460.5,344.5,459.7,342.4z"/>
<path fill="#DD7676" d="M419.6,454.3c2.6-6.8,5.7-13.4,9-19.9c3-6.5,6.3-12.9,9.6-19.4c1.5-4.5,2.8-9,4.1-13.6
	c0.1-0.5,0.3-0.9,0.6-1.3c-0.1-1.3-0.1-2.7-0.2-4c0-0.6-0.3-1.1-0.6-1.5c0.7-2.1,1.3-4.2,2-6.4c2.6-5.8,5-11.7,5.9-18.1
	c0.1-0.4,0.1-0.8,0-1.2c0.3-0.9,0.5-1.8,0.7-2.7c0.2-0.5,0.3-0.9,0.3-1.4c0.4-2.2,0.7-4.5,0.7-6.8c0-4.2-5.4-4.3-6.8-0.9
	c-0.1,0.2-0.1,0.3-0.2,0.5c-0.1,0.1-0.2,0.2-0.3,0.3c-7,10.9-15.1,20.9-24.1,30.2c-4.1,4.3-7.9,8.5-9.6,14.3
	c-1.5,5.1-1.6,10.5-1.3,15.8c-0.7,1.5-1.8,2.8-3.8,3.4c-5.6,1.5-11.1,1.4-16.8,0.8c-0.9-0.1-1.3-0.6-1.6-1.4
	c-0.8-2.2-1.6-4.4-2.6-6.5c-1.3-2.7-2.7-5.4-5.3-7c-2.3-1.3-3-2.8-2.6-5.6c1.1-7.5,2.7-14.8,6.4-21.4c1-1.8,0.9-3.7,0.6-5.6
	c-0.1-0.7-0.2-1.6-1.2-1.7c-0.8-0.1-1.1,0.6-1.6,1.2c-5.9,7.8-10.4,16.5-15.5,24.7c-0.3,0.5-0.7,1.1-1.2,1.4
	c-0.6,0.4-1.4,0.5-2.2,0.5c-5.6-0.4-8.8-10.1-10.8-14.4c-1.2-2.5-2-5.3-3.6-7.7c-1.6-2.5-5-3.7-3.4-6.9c4.3-8.8,5.4-18.9,4.1-28.5
	c-1.6-12.2-7-22.7-12.5-33.5c-1.1-2.1-2.4-4.3-4.5-5.7c-0.4,0.4-0.3,0.7-0.2,0.9c4.3,9.8,7,20.8,7.5,31.7c0.4,9.5,0.4,23-7,30.2
	c-5.2,5.1-11.6,8.3-18.6,10.2c-3.7,1-7.5,1.7-11.3,2.5c-0.6,0.1-1.5,0.2-0.7,1.1c1.3,1.4,2.5,3,4.3,3.8c6.2,2.9,12.5,2.7,18.9,0.7
	c2.4-0.7,4.7-1.7,6.8-3c1.2-0.7,1.8-0.7,2.1,0.9c1.3,8.1,3,16.2,4,24.4c1,8,0.8,16.1,0.8,24.2c0,4.2-0.2,8.4-0.5,12.5
	c-0.3,4.4-1.3,11.4,4.2,12.9c1.7,0.5,3.2,0.1,4.9-0.1c2-0.2,4.1-0.5,6.1-0.8c4-0.5,8.1-0.7,12.1-0.8c8.6-0.2,17.1-0.2,25.7-0.4
	c0.8,0,1.5-0.2,2.2-0.4c0.9,0,1.9,0,2.8-0.1c4.1-0.3,8.1-0.6,12.2-0.4c0.8,0.1,1.5,0.2,2.3,0.2c0.7,0.1,1.4,0.1,2.1,0.3
	c1,0.3,1.6-0.2,2.2-0.7c1.5-0.1,2.9-0.2,4.4-0.5C418.6,454.1,419.1,454.2,419.6,454.3z"/>
<path fill="#DD7676" d="M288.6,308c-2.2-1.8-2.5-2.4-1.7-5.2c5.4-18.2,7.7-38,4.4-57c-3.1-18.3-10.1-36.4-28.5-43.5
	c-3.5-1.4-7.2-2.4-10.9-3.1c-10.5-2.2-21.5-2.8-32-0.5c-24.6,5.3-41.2,26.5-35.5,51.8c7.7,34.4,37.8,55.7,63.2,77
	c2.1,1.8,4,3.7,6.5,4.9c2.5,1.2,3.7,3.9,2.9,6.7c-1.3,5-0.9,10.1-1.8,15.1c-0.9,5.3-2.8,10.4-3.5,15.7c-0.5,4,0.7,7.4,4,9.8
	c2.9,2.1,6,2.8,9.3,1.5c3.4-1.4,6.5-0.8,9.3,1.5c1.2,0.9,2.4,0.1,3.6,0.1c1.1-0.5,0.9-2.2,2-2.5c2.3-0.5,2.2-2.2,2.1-3.9
	c-0.4-8.3-1.2-16.7-0.9-25c0.1-2.1,0.5-4.2,0.8-6.4c0.2-1.3,0.8-1.8,2.2-1.9c7.6-0.7,11.5-6.2,12.5-11.6c0.7-3.6,0.3-7.1-0.5-10.7
	C294.9,315.8,292.7,311.3,288.6,308z M265,261.1c-0.9,7.1-2.3,14.2-4.3,21.1c-0.5,1.7-1,3.4-2,4.7c-3,3.9-7.2,1.4-10-1.2
	c-15-13.2-34.2-28.4-36.9-49.7c-0.7-5.3,2.4-9.5,6.9-12c2.5-1.4,5.4-2.4,8.2-3c9.7-2.2,21.4-2.4,29.9,3.6c0.3,0.2,0.6,0.4,0.9,0.7
	C268.3,233.5,266.5,249.3,265,261.1z"/>
<path fill="#695B55" d="M332.7,229.4c-1.5-7.8-5.6-13.5-12.6-17.1c-1.4-0.7-1.5-1.3-1-2.7c3.3-8.8,5-18.2,4.2-27.6
	c-0.1-1.8-0.4-3.7-0.3-5.5c0.1-2.3,0.6-4.5,1-6.7c1.5-8.2,2.1-16.5,0.6-24.7c-1.5-8.3-4.1-16.7-2.6-25.1c1.2-6.9,4-13.2,4.8-20.2
	c2.1-17.4-2.9-35.4-14.6-48.6c-13.1-14.8-30.6-18.7-49.1-22.5c-14.9-3-30.5-3.8-45.4-0.3c-26.2,6.2-48.1,25.2-62.4,48
	c-11.4,18.2-18.7,39.7-17,61.3c3.4,42.6,31.2,82.6,67.3,104.5c22,13.4,47.4,19.2,72.6,23.1c13.9,2.1,34.9,6.8,46.8-3.1
	C334.5,254.5,334.8,240.5,332.7,229.4z M204.4,78c-0.2,0-0.5,0-0.7,0.1c0.3-0.4,0.7-0.9,1-1.3C204.6,77.2,204.5,77.6,204.4,78z"/>
<path fill="#9EA7D5" d="M302.7,315.7c-1.2-5-3.3-9.5-7.5-12.8c-2.2-1.8-2.5-2.4-1.7-5.2c5.4-18.2,7.7-38,4.4-57
	c-3.1-18.3-10.1-36.4-28.5-43.5c-3.5-1.4-7.2-2.4-10.9-3.1c-10.5-2.2-21.5-2.8-32-0.5c-24.6,5.3-41.2,26.5-35.5,51.8
	c7.7,34.4,37.8,55.7,63.2,77c2.1,1.8,4,3.7,6.5,4.9c2.5,1.2,3.7,3.9,2.9,6.7c-1.3,5-0.9,10.1-1.8,15.1c-0.9,5.3-2.8,10.4-3.5,15.7
	c-0.5,4,0.7,7.4,4,9.8c2.9,2.1,6,2.8,9.3,1.5c3.4-1.4,6.5-0.8,9.3,1.5c1.2,0.9,2.4,0.1,3.6,0.1c1.1-0.5,0.9-2.2,2-2.5
	c2.3-0.5,2.2-2.2,2.1-3.9c-0.4-8.3-1.2-16.7-0.9-25c0.1-2.1,0.5-4.2,0.8-6.4c0.2-1.3,0.8-1.8,2.2-1.9c7.6-0.7,11.5-6.2,12.5-11.6
	C303.9,322.8,303.6,319.2,302.7,315.7z"/>
<path fill="#8C95CA" d="M273.8,285.7c5,1.9,9.9,4,14.6,6.4c0.9,0.5,1.9,1,2.2,2c0.4,1-0.1,2.1-0.6,3c-0.2,0.4-0.5,0.7-0.9,1
	c-0.5,0.3-1.2,0.2-1.8,0c-1.3-0.6-2.5-1.8-3.7-2.7c-3.7-2.6-7.8-4.8-11.4-7.6c-0.3-0.2-0.6-0.5-0.8-0.8c-0.5-0.9,0.3-1.6,1.2-1.5
	C272.9,285.4,273.3,285.5,273.8,285.7C273.7,285.7,273.8,285.7,273.8,285.7z"/>
<path fill="#8C95CA" d="M268.7,332c5,1.9,9.9,4,14.6,6.4c0.9,0.5,1.9,1,2.2,2c0.4,1-0.1,2.1-0.6,3c-0.2,0.4-0.5,0.7-0.9,1
	c-0.5,0.3-1.2,0.2-1.8,0c-1.3-0.6-2.5-1.8-3.7-2.7c-3.7-2.6-7.8-4.8-11.4-7.6c-0.3-0.2-0.6-0.5-0.8-0.8c-0.5-0.9,0.3-1.6,1.2-1.5
	C267.9,331.7,268.3,331.9,268.7,332L268.7,332z"/>
<path fill="#695B55" d="M214.1,259.5c-0.3-2.5-1.1-5-2.4-7.2c-1.2-1.9-2.8-3.5-4.9-4.4c-2.1-0.9-4.6-1.1-5.7-3.3
	c-1.2-2.3-1.3-5-2.2-7.4c-1.3-3.5-3.8-6.5-4.4-10.2c-0.7-3.7,0.1-7.7,2.2-10.8c2.9-4.2,7.7-6.5,10.8-10.5c3.5-4.6,1.6-11.2-0.5-16
	c-2.4-5.3-6.1-10-10.1-14.3c-6.3-6.7-14.3-11.8-23.1-14.5c-4.9-1.5-10.1-2.3-15-1.3c-10.4,2.2-13.9,12.2-17.3,21.1
	c-4.5,11.8-5.8,24.7-3.9,37.1c0.8,4.9,2.1,9.8,1.8,14.8c-0.2,4.1-1.9,7.9-2.4,11.9c-1.4,9.9,0.6,20.9,6.2,29.3
	c5.4,8.1,13.7,11.4,23.2,10.3c4-0.4,7.8-1.6,11.6-2.9c1.8-0.6,3.9-1.2,5.6-2.1c1.4-0.7,2.5-1.7,4.2-1.6c1.2,0.1,2.3,0.7,3.4,1.1
	c3.9,1.4,8.9,0.2,12.7-1.1C211.1,275.1,215,266.9,214.1,259.5z"/>
<path fill="#FDE1D9" d="M494.3,249.2c0.1-0.1,0.2-0.1,0.3-0.2c-1.3-3.6-3.3-4.7-8.1-4.5c-1.2,0-2.1,0.5-2.5,1.5
	c-0.7,2-1.8,1.5-3.2,0.8c-2.4-1.2-4.9-2-7.6-1.1c-3.6,1.2-6.7,3.3-8.9,6.4c-4.5,6.1-8.9,12.2-13.3,18.3c-0.6,0.8-1.2,1.6-2.5,1.2
	s-2.4,0.2-3.4,1.1c-2.9,2.7-3.8,6.4-4.8,10.1c-0.6,2,0,4.1-1,6.1c-2.3,4.6-4.1,9.5-5.3,14.5c-0.6,2.2-0.8,4.7-2.8,6.3
	c0.4,2.4,0.1,4.8,0.7,7.2c0.2,0.8,0.4,1.9-0.3,2.7c0.1,1.2,0.2,2.3,0.4,3.4c0.5,2.9,0.2,6.1,2.1,8.6c1,1.3,1.7,2.6,2.2,4.1
	c0.4,1.1,1.1,2,2.3,2c0.8,0,1.5,0.1,2.3,0.3c2.6,0.9,6,0.3,8.5-0.3c3.6-0.9,6.9-2.6,9.8-4.8c6.2-4.6,10.2-11.2,13.9-17.8
	c3.8-6.8,7-13.7,9.3-21.2c2.3-7.8,4.6-15.5,7.4-23.1c1.3-3.6,2.8-7.2,4.2-10.9c0.7-1.9,1.9-3.9,1.9-5.9
	C496.1,252.1,495.4,250.4,494.3,249.2z"/>
<path fill="#FFFFFF" d="M385.1,440.2c-0.9-1-1.9-2-3.2-2.7c-2.5-1.5-5.2-2.2-8-2.2c0.2-3.4,0.6-6.4-1.9-9.2
	c-3.3-3.7-11-6.8-15.7-7.4c-10.7-1.2-22.9-0.9-32.9,3.5c-2,0.9-4.1,2-5.5,3.8c-2.7,3.3-2.5,7.9-2.3,12.1c0.5,10.8,0.1,21.5-0.2,32.3
	c0,2-0.1,4,0.5,5.9c1.6,5.7,9,7.7,14.1,8.6c7.1,1.3,14.4,1.3,21.5,0.1c6.5-1.1,13.8-2.9,18.1-8.3c1.7-2.2,2.7-4.8,3.3-7.5
	c0.3,0,0.7-0.1,1-0.1c8.4-0.3,16.2-6.5,16.5-15.9C390.6,448.3,388.7,443.5,385.1,440.2z M377.6,458.7c-0.9,0.7-2.3,1.7-3.8,2.2
	c0-0.2,0-0.3,0-0.5l0,0c0.2-5.5,0.5-11,0.4-16.5c1,0,1.9,0.2,2.9,0.7c2.7,1.4,3.3,4.6,3.4,7.3C380.7,454.9,379.9,457,377.6,458.7z"
	/>
<path fill="#6F6F6F" d="M347.9,424.1c5.1-0.7,10,0.3,14.9,1.4c0.2,0,0.4,0.1,0.6,0.2c1.1,0.5,2.5,1.1,2.5,2.2s-1.6,1-2.5,1.4
	c-7.4,2.7-14.9,3-22.6,1.9c-3.3-0.5-6.6-0.6-9.9-1c-1.4-0.2-2.9-0.5-4.2-0.9c-0.9-0.3-2.3-0.2-2.3-1.3c0-0.9,1.4-1.2,2.3-1.6
	c3.6-1.4,7.3-2,11.1-2.3C341.1,423.9,344.5,424.1,347.9,424.1z"/>
<path fill="#DD7676" d="M253.7,491.3c-0.3-0.5-0.6-0.9-1-1.3c-1.1-1-2.7-1.3-4.2-1.6c-8.3-1.5-16.6-2.6-25-3.4
	c-5.8-0.5-11.7-0.9-17.1-2.9c-5.8-2.1-11.1-5.9-16.7-8.5c-12.5-5.9-25.5-11-37.7-17.6c-1.6-0.9-3.4-1.9-3.9-3.7
	c-0.3-0.9-0.2-2-0.6-2.9c-0.9-2.3-4-2.5-6.4-3c-10.5-2.6-12-18.8-12.2-27.6c-0.2-12.3,0.2-24.6,0.5-36.9c0.3-13.8-0.3-27.6,1.5-41.3
	c1.5-11.8,4.3-23.5,8.2-34.7c3.8-10.9,11.3-19.5,16.8-29.6c0.6-1.1,1.2-2.5,0.6-3.6c-2.1-4.6-9.2,1.1-11.3,2.6
	c-1.9,1.4-3.6,3-5.2,4.7c-14.9,15.2-20.1,38.5-22,59c-1.3,14.1-1,28.2-1.2,42.3c-0.2,13.9-0.9,28,0.7,41.9
	c0.8,7.4,2.1,14.8,4.6,21.9c1.6,4.7,4.9,9.6,9.4,10.9c0.6,0.5,1.3,1,2.1,1.1c6.3,1.1,11.3,8.5,16.5,12.1c8.5,5.9,18,10.1,27.6,13.9
	c9.2,3.6,19.4,8.9,29.2,10.3c2.4,0.3,4.8,0.4,7.3,0.5c8.5,0.4,16.7,2.3,24.9,4.3c5.3,1.2,9.7,0.4,14.3,3.9c0.2-1,0.5-2.1,0.7-3.1
	C254.3,496.3,254.8,493.4,253.7,491.3z"/>
<path fill="#DD7676" d="M276.6,444.2c-0.1,0-0.2-0.1-0.3-0.1c-4.9-1.8-8.8-5.2-13.5-7.3c-5.9-2.7-11.7-5.5-17.5-8.4
	c-6.4-3.3-13.4-5.3-19.8-8.6c-5.4-2.8-10.9-5.4-14.2-11.1c-1.3-2.2-2.8-4.3-3.6-6.8c-0.5-1.4-0.8-2.8,0.1-4c1.1-1.6,5.4-0.3,7-0.2
	c12.1,1.3,24.7-0.8,36.2-4.3c3-0.9,11.1-3.2,11-7.4c0-3.5-4.4-2.7-6.8-2.7c-5,0-10.1,0.7-15,1.3c-7.8,0.9-15.7,1.5-23.3-1
	c-19.9-6.7-24.4-30.9-26.6-49c-0.2-1.3-1.2-10.5-3.7-9.2c-3.1,1.6-2.4,6.2-2.3,8.9c0.2,9.7,0.6,19.4,1.7,29c1.5,13.8,5.1,27.3,11,40
	c1.5,3.2,3.4,6.1,4.4,9.5c1.1,3.7-0.2,5.5-4.1,5.6c-3.5,0.1-7-0.5-10.5-0.5c-1.9,0-3.3,0.7-3.7,2.5s0.7,3.2,2.8,3.9
	c4.7,1.6,9.6,2.1,14.4,2.1c7.7,0.1,14.4-1,22.1,0.8c7.6,1.8,14.8,4.6,22,7.4c6.1,2.4,12.2,4.7,18.3,7.1c3.4,1.3,11.8,6.1,15.4,3.4
	C277.7,444.7,277.2,444.5,276.6,444.2z"/>
<path fill="#FFFFFF" d="M426.1,314.1c0.4,3,0.2,6.1,0.8,9.1c0.8,4.4,1.9,8.7,4,12.8c0.9,1.8,2.1,3.4,3.9,4.5
	c1.3,0.8,1.7,1.9,1.2,3.4c-1.2,3.5-2.3,7.1-3.6,10.6c-1,2.9-2.5,3.6-5.4,2.8c-5.4-6.6-8.4-14.4-10.5-22.5c-1-3.9-0.7-8.1,0.2-12.1
	c0.9-3.7,3.5-6.2,6.5-8.2C424.1,313.8,425.1,313.7,426.1,314.1z"/>
<path fill="#F6BFAB" d="M401.3,476.4c-2.2-1.4-4.7-2.5-7.2-3.5c-3.4-1.3-7.4-1.3-11-2.1c-13.7-2.9-27.6-5.3-41.5-6.3
	c-9.3-0.7-18.5-2.6-27.8-2.9c-4.8-0.2-9.8,0-14.4,1.3c-11.2,3.1-19.3,16.4-20.3,27.4c-0.2,2-0.2,4,0.8,5.8c2.3,4.1,8.6,5,12.7,5.9
	c4.5,0.9,9,1.4,13.5,1.6c10.3,0.5,20.3,2.9,30.3,5.2c10,2.2,20,4.3,30,6.8c4.3,1.1,8.6,2.2,12.9,2.7c1.1,0.1,2.2,0.2,3.2-0.3
	c0.9-0.4,1.5-1.3,2.2-1.9c4.1-3.4,11.2-0.1,15.2-3.7c2.4-2.1,2.5-5.9,1.2-8.7c-1.3-2.8-3.9-4.9-6.4-6.8c-5.5-4-11.4-7.2-17.4-10.5
	c0.7,0.2,1.4,0.3,2.1,0.5c1.3,0.3,2.6,0.6,3.8,0.9c3.6,0.8,7.2,1.6,10.8,1.4c3.6-0.2,7.4-1.7,9.6-4.6c0.6-0.8,1.1-1.8,1.2-2.9
	C405.1,479.4,403.2,477.6,401.3,476.4z"/>
<path fill="#C7C6C5" d="M399.3,468.6c-0.9,0.2-1.6-0.1-2.2-0.8C398.2,467.3,398.7,468.1,399.3,468.6z"/>
<path fill="#C7C6C5" d="M426.3,399.3c0,0-0.1,0-0.1,0.1c0-0.1,0-0.1,0-0.2c0.1,0,0.1,0,0.2,0C426.3,399.2,426.3,399.3,426.3,399.3z"
	/>
<path fill="#FFFFFF" d="M209.6,127.5c-4.3-1.3-8.6-1.2-12.9-0.4c-0.8-1.2-0.3-2.6-0.2-3.8c0.4-5.9,0.4-11.9,1.4-17.7
	c1.5-8.4,3.3-16.8,8.9-23.7c2.6-3.3,5.2-6.6,7.9-9.8c4.5-5.4,10.6-8.4,16.9-11.2c14-6.1,28.6-7.5,43.6-6.4c3.6,0.2,7.1,1.3,10.7,2.1
	c-2.8,0-5.7-0.2-8.5,0c-8.4,0.6-16.3,3-22.9,8.5c-4.8,4-10.5,6.3-15.7,9.6c-6.9,4.3-13.5,8.9-17.9,16c-5.3,8.5-8.8,17.8-10.2,27.7
	C210.2,121.4,209.4,124.4,209.6,127.5z"/>
<path fill="#6F6F6F" d="M292.4,217.5c0.1,1,0.2,1.9,0.4,2.9c0.2,0.4,0.3,0.9,0.5,1.3c-0.1-0.8-0.3-1.5-0.4-2.3
	C292.7,218.8,292.6,218.2,292.4,217.5z"/>
<path fill="#FDE1D9" d="M318.3,92.1c-1.3-4-2.9-8-5.6-11.3c-2.7-3.2-6.9-5.5-11.1-5c-3.3,0.4-6.3,2.4-9.7,2.4
	c-5.9,0-14.5-8.8-20-3.7c-3,2.8-5.3,6.4-8.1,9.4c-2.9,3.1-6,5.9-9.4,8.4c-4.7,3.3-10,5.6-15.7,6.1c-1.2,0.1-2.4,0.1-3.5,0.6
	c-1,0.4-1.8,1.1-2.5,1.8c-8.2,8.4-6.8,22-10.8,33c-0.6,1.5-1.5,3.2-3.1,3.6c-1.3-7.7-10.8-12.5-18.1-9.8
	c-7.4,2.6-11.7,11.2-10.5,18.9c1,6.6,5,11.2,10.3,14.7c3.5,2.3,8.2,2.1,12.3,2.4c0.5,0,0.9,0.1,1.4,0.3c1.3,0.6,1,3,1.2,4.1
	c0.9,4.7,2.5,9.3,4.7,13.5c2.1,4.2,4.6,8.1,5.7,12.7c0.7,2.6,0,4.5-1.1,6.8c-1.1,2.5-2.2,5.1-3.2,7.6c-0.9,2.2-1.8,4.3-2.3,6.6
	c-0.4,1.4-0.6,2.9-0.7,4.3c-0.9,7.9,0.3,15.9,4.2,22.9c2.8,5.1,5.2,10.5,8.8,15.1c1.8,2.3,3.7,4.4,5.5,6.7
	c7.9,7.2,17.1,13,26.4,18.3c1,0.6,2.2,1.2,3.4,0.9c1.1-0.3,1.8-1.2,2.3-2.2c6-9.4,7.7-21,7.9-32.2c0.2-11.2-1-22.4,0-33.6
	c8.6,1.4,17.4-2.5,23.6-8.5c6.3-6,10.3-13.9,13.5-22c6.6-16.3,10.1-33.9,10.3-51.5C324.7,119.6,322.6,105.5,318.3,92.1z"/>
<path fill="#F6BFAB" d="M195.5,130.8c2,0.2,1.9,0.2,0.9,2.5c-3.2,7.3-2.1,14.1,2.6,20.4c3.1,4.2,7.2,6.5,12.2,7.3
	c1.3,0.2,2.6,0.3,3.9,0c2-0.5,3.3,0.2,3.6,2.3c1.1,6.7,3.9,12.9,6.7,19c2.2,4.8,5.3,9.3,8.7,13.4c5.2,6.4,12.3,9.8,19.8,12.5
	c5.9,2.1,11.9,3.9,17.8,5.9c0.8,0.3,2.4,0.3,2.3,1.5c-0.1,1.3-1.5,1.8-2.7,1.9c-3.3,0.4-6.4,1.3-9.6,2.2c-0.7,0.2-1.4,0.3-2,0.6
	c-3.3,2-6.7,1.3-10.1,0.2c-3.3-1-6.5-2.3-9.6-3.7c-0.3-0.1-0.6-0.4-0.9-0.4c-3.4-0.6-8.9,3.8-9.3,7.2c-0.4,3.7-0.8,7.4-0.8,11.1
	c0,4.7,2.1,8.7,4.3,12.5c2.9,4.9,5.8,9.8,7.8,15.2c0.5,1.4,0.7,2.7-0.1,4.2c-0.7,1.3,1.4,1.5,1.3,2.7c-2.4-1.2-4.2-3.1-5.8-5.1
	c-4.5-5.5-9.3-11-12.6-17.3c-2.8-5.4-5.5-11-7.3-16.9c-1.9-6.5-0.8-12.8,1.6-19c1.7-4.3,3.3-8.6,4.9-12.9c1-1.3,0.5-2.6,0.1-3.9
	c-1.3-4.1-3.3-7.9-4.9-11.8c-2.1-5.1-4-10.2-5.2-15.6c-0.3-1.5-1-1.9-2.5-1.9c-2.2,0.1-4.4,0.3-6.6-0.3c-8.6-2.6-14-10.1-14.2-19.1
	C189.9,139.7,191.5,134.9,195.5,130.8z"/>
<path fill="#605D5B" d="M293.6,189.4c-4.9,0.2-8.8-3.9-11.8-9.3c-1.1-1.9,0.3-3.6,2.6-3.3c1.9,0.3,3.8,0.7,5.6,1.3
	c3.1,1.1,6.2,1.6,9.5,1.2c1.6-0.2,3.3-0.2,4.8,0.6c1.1,0.6,1.5,1.3,1,2.7C303.5,187.6,300.4,189.7,293.6,189.4z"/>
<path fill="#F6BFAB" d="M271.3,121.6c0.2-3.1,2.2-5,4.3-6.7c2.9-2.4,6.4-2.9,10-2.4c1.5,0.2,3.2-0.5,4.4,1c1.2,1.4,1.1,2.5-0.2,3.5
	c-1.2,1-2.6,1.4-4.2,1.7c-3.6,0.7-6.3,2.8-9.1,4.9c-1.1,0.8-2.2,2.1-3.6,1.5C271.5,124.6,271.5,122.9,271.3,121.6z"/>
<path fill="#F6BFAB" d="M298.8,166.9c-2.4,0.3-4.9-0.8-7.6-0.9c-1,0-1.7-0.8-1.9-1.7c-0.2-1-0.4-2.1,0.6-2.9c2.4-1.8,4.6-4,7.5-5.1
	c3.2-1.2,6.5,0.4,7.6,3.6c0.6,1.6,2,3,0.5,4.8c-1.4,1.7-3.3,2.3-5.5,2.1C299.7,166.9,299.4,166.9,298.8,166.9z"/>
<path fill="#F6BFAB" d="M309,115.5c4.8,0.7,11.6,4.2,12,10.6c0.1,1.1-0.4,1.9-1.2,2.4c-1,0.6-2.2,0.3-3.1-0.4s-1.8-1.5-2.6-2.3
	c-2.2-2.3-5.1-3.9-7.1-6.4c-0.7-0.9-0.9-1.8-0.5-2.9C306.8,115.5,307.8,115.5,309,115.5z"/>
<path fill="#605D5B" d="M282.2,141.1c0-3.4,1.9-5.9,4.2-5.8c2.1,0.1,3.5,1.8,3.5,4.3c0,3.1-1.9,5.4-4.5,5.4
	C283.4,144.9,282.2,143.5,282.2,141.1z"/>
<path fill="#605D5B" d="M316.5,145c-0.2,1.7-0.5,3.4-2.1,4.4c-2,1.3-3.9,0.8-4.8-1.5c-0.8-2.2-0.3-5.2,1.1-6.1
	c1.2-0.7,2.6-1.2,3.9-0.5C316,142.1,316.7,143.3,316.5,145z"/>
<path fill="#F6BFAB" d="M200,143.2c0.6-2.4,1.4-4.8,3.9-6.1c1.9-1,3.8-0.7,5.7,0.3c0.6,0.4,1.1,0.9,1.4,1.5c0.2,0.5,0.5,1.1,0,1.5
	c-0.4,0.5-0.9,0-1.3-0.1c-3.9-1.1-5.4-0.2-6.2,3.6c-0.2,0.9,0.4,2.5-1.2,2.4C200.8,146.3,200.2,144.8,200,143.2z"/>
<path fill="#FDE1D9" d="M401.7,476.3c-1.4-1.7-3.5-2.7-5.6-3.6c-4.9-2.2-10.1-3.9-15.3-5.4c-2.1-0.6-4.3-1.1-6.4-1.6
	c-9.3-2-18.7-3.3-28.2-3.8c-4.7-0.2-9.5-0.4-14.2-0.1c-4.2,0.2-8.8-0.1-12.8,1.1c-8.7,2.7-15.2,12-17.4,20.4
	c-0.5,2.1-0.8,4.4,0.2,6.3c1.6,3,5.8,4.3,8.7,5.6c3.7,1.7,7.6,3.3,11.5,4.4c8.6,2.4,17.7,2.1,26.5,3.8c9.9,2,19.3,6.6,29.4,7.6
	c2,0.2,4.7-0.3,5-2.3c0.2-1.2-0.7-2.3-1.5-3.1c-8.2-8-20.9-9.1-31.1-14.3c2.1-1.5,4.9-0.9,7.3-0.2c4.5,1.3,8.9,2.7,13.3,4.3
	c4.9,1.8,9.8,3.9,13.8,7.3c1.7,1.5,3.3,3.2,5.3,4.3c2,1.1,4.7,1.3,6.4-0.3c1.2-1.1,1.6-2.9,1.3-4.5c-0.3-1.6-1.1-3.1-2.1-4.4
	c-6.9-9.3-14.2-12.3-24.4-16.8c-0.7-0.3-7.9-2.1-8.6-2c6.4-1,12.9,0.8,19.3,2.1c6.4,1.3,13.2,2.2,19.1-0.5c0.6-0.3,1.3-0.6,1.5-1.3
	c0.3-0.8,0-1.7-0.5-2.4C402.1,476.8,401.9,476.6,401.7,476.3z"/>
<path fill="#F6BFAB" d="M494.7,252.5c-1.4,1-2.9,1.8-4.4,2.5c-0.3-0.2-0.6-0.2-1-0.1c-2.6,0.6-5,0.4-7.4-0.8c0-1.7-0.5-3.4-1.7-5.1
	c-0.7-1-2.4-0.1-1.7,1c2.5,3.9,0.9,8.4-1.8,12.6c-1.8,1.8-3.6,3.8-5.2,5.8l0,0l0,0c-0.1,0.1-0.2,0.2-0.2,0.3
	c-0.3,0.4-0.3,0.8-0.2,1.2c-0.8,1-1.6,1.9-2.3,2.7c-3.4,4.3-6.7,8.6-9.5,13.2c-0.9-4.8-2.7-9.4-6.1-13.3c-1.1-1.3-3.2,0.4-2.3,1.8
	c1.7,2.9,3.6,5.8,4.5,9.1c1,3.6,0.6,7.5,0.3,11.2c-0.5,7.5-1.3,14.9-3.6,22.1c-0.4,1.2,0.5,1.9,1.5,2c-4.3,3.7-10.3,3.7-14.6,0
	c-1.6-1.4-4,0.9-2.4,2.4c1.4,1.3,2.9,2.3,4.6,3.2c0.1,0.3,0.3,0.5,0.6,0.7c4.1,3.2,9.1,3.8,13.4,2.5c0.2,0.2,0.5,0.3,0.7,0.4
	c0,0.1-0.1,0.3-0.1,0.4c-0.6,2.2,2.8,3.1,3.4,0.9v-0.1c0.3-0.2,0.5-0.5,0.6-1c0.2-0.8,0.4-1.6,0.6-2.4c0.2-0.5,0.4-1,0.5-1.5
	c1.8-1.6,3.2-3.7,4.1-6.2c0.6-1.6-1.2-2.7-2.5-2.3c0.6-2.3,1.2-4.7,1.5-7.1c0.9-3.2,1.8-6.3,2.5-9.5c0-0.1,0-0.2,0-0.3
	c1.5-3.1,2.8-6.2,4-9.4c1.2-2.4,2.4-4.9,3.1-7.5c2.1-3.2,4.3-6.3,6.5-9.5c2.5-3.2,4.8-6.5,7.1-9.9c0.3-0.5,0.3-1,0.1-1.4
	c3.5-1.7,6.3-3.7,8.9-6.8C497,253.5,495.9,251.7,494.7,252.5z"/>
<path fill="#FFFFFF" d="M314.8,460.7c0.2,0,1.9,0,2.1,0c1.9,0.1,3.9,0,5.6,0.7c0.3-0.8,0-1.7-0.8-2.6c-2.9-3.2-8.1-5-12-6.3
	c-7.2-2.4-14.5-2.6-21.6-0.4c-18.3,5.6-32.1,21.4-34.6,39.7c-0.1,0.5-0.1,1-0.2,1.4c-0.1,1.1-0.2,2.1-0.3,3.2
	c-0.1,1.9,0,3.9,1.2,5.3c0.8,0.8,1.9,1.2,3,1.6c4.5,1.5,9.2,2.3,14,2.6c1.9,0.1,3.8,0.1,5.5-0.6c2.2-0.9,3.7-2.9,4.7-5.1
	s1.4-4.5,1.9-6.8c1.6-6.9,3.9-13.7,7.5-19.8c2.8-4.7,6.5-5.8,11-9C305.7,461.9,310,459.3,314.8,460.7z"/>
<ellipse transform="matrix(0.8234 -0.5674 0.5674 0.8234 -27.4317 391.1132)" fill="#564A48" cx="614.7" cy="239.6" rx="14.6" ry="18.4"/>
<path fill="#C7C6C5" d="M648.9,148.7c-0.2-0.3-0.2-0.6,0.2-0.9C649.6,148.3,649.4,148.5,648.9,148.7z"/>
<path fill="#EE915B" d="M692.2,359.1c0.1-3.9,0-7.8-0.2-11.5c-1-34-2.2-75.9-33.2-97.3c-22.6-15.5-53.5-16.2-79.8-14.7
	c-15.8,0.9-31.6,2.8-47.1,6.2c-8,1.8-15.8,3.9-23.5,6.5c-6.7,2.3-14.5,4.4-20.2,8.7c-3.8,2.9-6.7,7.2-9.2,11.1
	c-0.7,1-1.3,2.1-1.9,3.1s-1.2,2-1.7,3.1c-2.9,9.4-7.9,18-10.6,27.5c-2.6,9.6-3.3,19.7-6,29.3c-1.3,9.9-4.4,19.3-7.6,28.7
	c-2.9,8.6-4.8,17.2-6.9,26c-1,4-2,8.4-4.1,12c-1.6,2.7-3.9,4.8-5.5,7.5s-1.6,6.2-1.6,9.3c0,1.4,0.1,3,1.5,3.8c1.3,0.7,3,0.7,4.3,1.4
	c4.9,2.4,6.4,6.8,7.3,11.5c0.3,0.3,0.7,0.5,1,0.8c2.6,2.1,5.4,3.8,8.2,5.6c5.5,3.5,11.2,6.8,16.9,10c3.3,1.8,6.6,3.6,9.9,5.3
	c15.8,8.3,32.1,16.2,49.1,21.5c15.9,5,32.4,7.9,49,9.1c22.6,1.6,45.5,0.1,67.7-4.4c4.6-2.6,8.7-5.9,10.7-11.1c0.5,0.1,1,0.3,1.5,0.4
	c0.3,0.1,0.6,0.2,0.9,0.3c0.2,0.1,0.5,0.1,0.7,0.2c0.1,0,0.1,0,0.2,0c0.2,0,0.3,0.1,0.5,0.1c0.1,0,0.1,0,0.2,0c0.2,0,0.5,0,0.7,0
	s0.5,0,0.7-0.1c0.1,0,0.2,0,0.2,0c0.2,0,0.3,0,0.5-0.1c0.1,0,0.2,0,0.3-0.1c0.2,0,0.3-0.1,0.5-0.1c0.1,0,0.2,0,0.3-0.1
	c0.2-0.1,0.4-0.1,0.6-0.2h0.1c0.2-0.1,0.5-0.2,0.7-0.3c0.1,0,0.1-0.1,0.2-0.1c0.2-0.1,0.3-0.2,0.5-0.3c0.1,0,0.2-0.1,0.2-0.1
	c0.1-0.1,0.3-0.2,0.4-0.3c0.1-0.1,0.1-0.1,0.2-0.2c0.1-0.1,0.3-0.2,0.4-0.3c0.1,0,0.1-0.1,0.2-0.1c0.2-0.2,0.4-0.3,0.5-0.5l0.1-0.1
	c0.1-0.1,0.3-0.3,0.4-0.4c0.1-0.1,0.1-0.1,0.1-0.2c0.1-0.1,0.2-0.3,0.3-0.4c0-0.1,0.1-0.1,0.1-0.2c0.1-0.1,0.2-0.3,0.2-0.4
	s0.1-0.1,0.1-0.2c0.1-0.2,0.2-0.4,0.2-0.7c0.1-0.4,0.3-0.7,0.4-1c0.2-0.4,0.5-0.7,0.9-0.9c0.4-0.2,0.8-0.4,1.4-0.5
	c6-1.4,8.3-4.8,7.6-10.8c-0.2-1.3-0.6-2.7-1.2-3.8c-0.1-0.3-0.3-0.5-0.5-0.8c-0.8-1.3-0.6-2.2,0.5-3.2c2.3-2.1,3.4-4.5,3.3-7.3
	c0-0.9-0.2-1.9-0.4-2.9c0-0.2-0.1-0.3-0.1-0.5c-0.1-0.5-0.3-1-0.2-1.5c0.1-0.7,0-1.4,0-2.1c0-0.3-0.1-0.7-0.2-1
	c-0.4-1.6-1.1-3.1-2.3-4.5c-0.1-0.1-0.2-0.2-0.3-0.4c-0.1-0.3-0.2-0.6-0.3-0.9c0-0.2,0-0.3,0-0.5c0-0.7,0-1.3,0-2c0-1,0.1-2,0.2-2.9
	c0.5-3.5,1.7-6.8,4.2-9.8c1.2-1.4,2-2.8,2.6-4.4c0.3-1,0.5-2,0.6-3.1c0.1-0.7,0.1-1.3,0-2c-0.1-2.8-0.6-5.4-1.4-8.1
	c-0.1-0.3-0.2-0.6-0.2-0.9c-0.1-0.3-0.1-0.6-0.2-0.9c-0.3-1.9-0.1-3.7,1-5.5C691,374.6,692,366.9,692.2,359.1z"/>
<path fill="#C7C6C5" d="M589.8,453.4c0.1-0.3,0.2-0.6,0.3-0.8C590,452.9,589.9,453.2,589.8,453.4z"/>
<path fill="#C7C6C5" d="M479.5,462.9c0.3,0,0.5,0.1,0.8,0.1C480.1,462.9,479.8,462.9,479.5,462.9z"/>
<path fill="#C7C6C5" d="M507,461.7L507,461.7c0.2,0,0.3,0,0.5,0C507.3,461.7,507.1,461.7,507,461.7z"/>
<path fill="#C7C6C5" d="M590.3,451.8v0.1C590.3,451.9,590.3,451.9,590.3,451.8z"/>
<path fill="#C7C6C5" d="M573.8,449.7L573.8,449.7c0,0.1,0,0.2,0.1,0.2v0.1l0,0C573.8,449.9,573.8,449.8,573.8,449.7z"/>
<path fill="#C7C6C5" d="M573.7,452.9L573.7,452.9c0,0.1-0.1,0.2-0.1,0.3c0,0.1-0.1,0.2-0.2,0.3l0,0
	C573.5,453.3,573.6,453.1,573.7,452.9z"/>
<path fill="#C7C6C5" d="M555,459.5L555,459.5c0.1,0,0.3-0.1,0.4-0.1C555.2,459.5,555.1,459.5,555,459.5L555,459.5z"/>
<polygon fill="#C7C6C5" points="544.3,456.2 544.3,456.2 544.3,456.2 544.3,456.2 "/>
<path fill="#C7C6C5" d="M527,451.5c-0.5,0.5-1.1,1.1-1.6,1.6c0.6-0.6,1.2-1.2,1.8-1.8C527.1,451.4,527.1,451.5,527,451.5z"/>
<path fill="#C7C6C5" d="M536.1,459.1L536.1,459.1c-0.2,0.1-0.4,0.2-0.6,0.2l0,0C535.7,459.2,535.9,459.2,536.1,459.1z"/>
<path fill="#C7C6C5" d="M559.9,436L559.9,436L559.9,436c-0.7,0-1.3,0-1.9,0l0,0l0,0C558.6,435.9,559.3,436,559.9,436z"/>
<path fill="#C7C6C5" d="M565,431.3C565,431.3,564.9,431.3,565,431.3L565,431.3L565,431.3z"/>
<path fill="#C7C6C5" d="M565.4,431.6c0.1,0,0.1,0.1,0.1,0.1L565.4,431.6z"/>
<path fill="#C7C6C5" d="M570.5,441.9L570.5,441.9c-0.1,0-0.2-0.1-0.3-0.1C570.3,441.8,570.4,441.8,570.5,441.9L570.5,441.9z"/>
<path fill="#C7C6C5" d="M571.1,442.2c0.2,0.1,0.4,0.3,0.6,0.4C571.5,442.5,571.3,442.4,571.1,442.2L571.1,442.2L571.1,442.2z"/>
<polygon fill="#C7C6C5" points="544.1,438.6 544.1,438.6 544.1,438.6 "/>
<path fill="#C7C6C5" d="M557.3,444L557.3,444c-0.2-0.1-0.3-0.1-0.5-0.2l0,0C557,443.9,557.2,443.9,557.3,444z"/>
<path fill="#C7C6C5" d="M558.5,444.4L558.5,444.4L558.5,444.4z"/>
<path fill="#C7C6C5" d="M556.2,443.6c-0.5-0.1-1-0.3-1.5-0.4C555.3,443.4,555.7,443.5,556.2,443.6L556.2,443.6z"/>
<path fill="#C7C6C5" d="M545.2,439.9L545.2,439.9L545.2,439.9z"/>
<path fill="#C7C6C5" d="M548.9,439.3c0.5,0,1.1,0,1.6,0l0,0c-0.1,0-0.2,0-0.2,0C549.7,439.3,549.3,439.3,548.9,439.3z"/>
<path fill="#C7C6C5" d="M565.1,438.5L565.1,438.5C565.2,438.5,565.2,438.5,565.1,438.5L565.1,438.5z"/>
<polygon fill="#C7C6C5" points="565.4,438.4 565.4,438.4 565.4,438.4 "/>
<path fill="#C7C6C5" d="M571,445.2L571,445.2L571,445.2L571,445.2z"/>
<path fill="#C7C6C5" d="M569.8,441.6c-0.3-0.1-0.5-0.2-0.8-0.3C569.3,441.4,569.5,441.5,569.8,441.6L569.8,441.6L569.8,441.6z"/>
<path fill="#C7C6C5" d="M567.5,438.7C567.4,438.7,567.4,438.7,567.5,438.7c-0.2,0-0.4-0.1-0.5-0.1
	C567.1,438.6,567.3,438.6,567.5,438.7L567.5,438.7z"/>
<path fill="#C7C6C5" d="M563.7,430.6c0.1,0,0.1,0,0.2,0.1C563.8,430.6,563.7,430.6,563.7,430.6z"/>
<path fill="#C7C6C5" d="M545.4,455.9L545.4,455.9L545.4,455.9L545.4,455.9z"/>
<path fill="#C7C6C5" d="M559.3,444.7c0.2,0.1,0.4,0.2,0.6,0.3l0,0c0,0,0.1,0,0.1,0.1C559.8,445,559.5,444.8,559.3,444.7z"/>
<path fill="#C7C6C5" d="M560.4,445.3L560.4,445.3c0.1,0.1,0.2,0.1,0.2,0.2c-0.2-0.1-0.4-0.2-0.6-0.3
	C560.2,445.2,560.3,445.3,560.4,445.3z"/>
<path fill="#C7C6C5" d="M561,445.7L561,445.7c0.2,0.1,0.3,0.3,0.5,0.4l0,0c-0.2-0.2-0.4-0.3-0.6-0.5
	C560.9,445.6,560.9,445.7,561,445.7z"/>
<path fill="#C7C6C5" d="M575.1,447.4L575.1,447.4L575.1,447.4z"/>
<path fill="#C7C6C5" d="M586.1,457c-0.1,0-0.1,0-0.2,0C586,457,586.1,457,586.1,457z"/>
<path fill="#C7C6C5" d="M586.7,456.8L586.7,456.8C586.6,456.8,586.6,456.8,586.7,456.8z"/>
<path fill="#C7C6C5" d="M567.1,434.8c0-0.1,0-0.1,0-0.2l0,0C567.1,434.7,567.1,434.8,567.1,434.8z"/>
<path fill="#C7C6C5" d="M566.4,432.8c-0.1-0.1-0.1-0.2-0.2-0.3l0,0C566.3,432.6,566.4,432.7,566.4,432.8z"/>
<path fill="#C7C6C5" d="M565.9,432.1l-0.1-0.1C565.8,432,565.9,432.1,565.9,432.1z"/>
<path fill="#C7C6C5" d="M564.4,430.9L564.4,430.9L564.4,430.9z"/>
<path fill="#C7C6C5" d="M563,430.4c-0.1,0-0.2,0-0.3-0.1C562.8,430.3,562.9,430.3,563,430.4L563,430.4z"/>
<polygon fill="#C7C6C5" points="562,430.2 562,430.2 562,430.2 "/>
<path fill="#C7C6C5" d="M560.9,430.1c0.2,0,0.4,0,0.5,0C561.3,430.1,561.1,430.1,560.9,430.1c-0.1,0-0.1,0-0.2,0
	c-0.4,0-0.7,0.1-1.1,0.1C560.1,430.2,560.5,430.2,560.9,430.1z"/>
<path fill="#C7C6C5" d="M522.9,455.7c-0.5,0.5-1,1-1.6,1.6C521.9,456.8,522.4,456.2,522.9,455.7z"/>
<path fill="#C7C6C5" d="M518.8,463L518.8,463L518.8,463C518.8,463,518.8,463,518.8,463z"/>
<path fill="#C7C6C5" d="M528.9,460.9L528.9,460.9L528.9,460.9L528.9,460.9L528.9,460.9L528.9,460.9z"/>
<path fill="#C7C6C5" d="M534.4,459.8L534.4,459.8c0.1,0,0.1-0.1,0.2-0.1l0,0l0,0C534.5,459.8,534.5,459.8,534.4,459.8z"/>
<path fill="#C7C6C5" d="M539,464c0.5-0.1,0.9-0.3,1.4-0.4C539.9,463.7,539.5,463.9,539,464z"/>
<path fill="#C7C6C5" d="M544,462.4c0.4-0.1,0.9-0.3,1.3-0.4l0,0l0,0C544.9,462.2,544.4,462.3,544,462.4z"/>
<path fill="#C7C6C5" d="M560,462.2c-0.2,0.1-0.3,0.2-0.5,0.3C559.6,462.4,559.8,462.3,560,462.2z"/>
<path fill="#C7C6C5" d="M560.2,462c0.1-0.1,0.2-0.2,0.3-0.3C560.4,461.9,560.3,462,560.2,462z"/>
<path fill="#C7C6C5" d="M560.6,461.7c0.3-0.2,0.5-0.4,0.7-0.7C561.1,461.3,560.8,461.5,560.6,461.7z"/>
<path fill="#C7C6C5" d="M563.3,459.3L563.3,459.3L563.3,459.3z"/>
<path fill="#C7C6C5" d="M566.5,459.8c-0.3,0-0.6-0.1-0.9-0.1C565.9,459.7,566.2,459.7,566.5,459.8z"/>
<path fill="#C7C6C5" d="M573.7,452.8c0,0.1,0,0.1-0.1,0.2l0,0c0.1-0.2,0.1-0.4,0.2-0.6l0,0C573.8,452.4,573.8,452.6,573.7,452.8z"/>
<path fill="#C7C6C5" d="M575.7,449.4L575.7,449.4L575.7,449.4L575.7,449.4z"/>
<path fill="#C7C6C5" d="M576.2,450.7c-0.1-0.2-0.1-0.3-0.2-0.5c-0.1-0.2-0.1-0.4-0.2-0.6v0.1c0,0.1,0,0.1,0.1,0.2
	c0.1,0.4,0.2,0.7,0.4,1l0,0C576.2,450.9,576.2,450.8,576.2,450.7z"/>
<path fill="#C7C6C5" d="M585.6,457.1c-0.1,0-0.1,0-0.2,0C585.4,457.1,585.5,457.1,585.6,457.1z"/>
<path fill="#C7C6C5" d="M588.5,455.7c0.1-0.1,0.3-0.3,0.4-0.4C588.8,455.4,588.7,455.6,588.5,455.7z"/>
<path fill="#C7C6C5" d="M589.2,445.1L589.2,445.1L589.2,445.1z"/>
<path fill="#C7C6C5" d="M589.3,445.3L589.3,445.3L589.3,445.3z"/>
<path fill="#C7C6C5" d="M590.5,451.1L590.5,451.1L590.5,451.1z"/>
<path fill="#C7C6C5" d="M590.6,450.4C590.6,450.3,590.6,450.3,590.6,450.4C590.6,450.3,590.6,450.3,590.6,450.4z"/>
<path fill="#C7C6C5" d="M590.7,449.6C590.7,449.6,590.7,449.5,590.7,449.6C590.7,449.5,590.7,449.6,590.7,449.6z"/>
<path fill="#C7C6C5" d="M591.9,442.1c-0.2,0-0.5,0-0.7,0.1C591.4,442.1,591.6,442.1,591.9,442.1L591.9,442.1V442
	C591.9,442,591.9,442,591.9,442.1z"/>
<path fill="#C7C6C5" d="M591.9,441.9L591.9,441.9C592,441.9,592,441.8,591.9,441.9C592,441.8,592,441.8,591.9,441.9
	C592,441.8,592,441.9,591.9,441.9z"/>
<path fill="#C7C6C5" d="M592,441.7L592,441.7L592,441.7C592.1,441.6,592.1,441.6,592,441.7L592,441.7z"/>
<path fill="#C7C6C5" d="M592.1,441.5L592.1,441.5L592.1,441.5L592.1,441.5L592.1,441.5z"/>
<path fill="#C7C6C5" d="M592.4,441.4L592.4,441.4L592.4,441.4L592.4,441.4C592.3,441.4,592.3,441.4,592.4,441.4L592.4,441.4z"/>
<path fill="#C7C6C5" d="M592.4,441.5L592.4,441.5c0,0,0.1,0,0.1,0.1C592.5,441.5,592.5,441.5,592.4,441.5z"/>
<path fill="#C7C6C5" d="M607,438c0.7-0.2,1.3-0.4,2-0.7C608.3,437.6,607.7,437.8,607,438z"/>
<path fill="#C7C6C5" d="M614.1,435.8L614.1,435.8L614.1,435.8C614.2,435.8,614.1,435.8,614.1,435.8z"/>
<path fill="#C7C6C5" d="M614.6,435.9L614.6,435.9L614.6,435.9L614.6,435.9z"/>
<path fill="#C7C6C5" d="M615.8,429.7C615.8,429.7,615.8,429.6,615.8,429.7c0-0.1,0-0.2,0-0.2C615.9,429.6,615.9,429.6,615.8,429.7z"
	/>
<path fill="#C7C6C5" d="M592.8,441.7c-0.2,0.4-0.5,0.4-0.9,0.4C592,441.6,592.2,441.1,592.8,441.7z"/>
<path fill="#E3A488" d="M513,438.9c-0.3-0.3-0.7-0.7-1-1c-1.1-2.1-3-3.8-5.7-4.5c-0.8-0.3-1-0.3-0.4,0c-0.3-0.2-0.7-0.3-1-0.4
	c-0.9-1.4-2-2.8-3.3-4c-4.4-3.7-10.3-5.2-16-4.9c-0.4-0.1-0.9-0.2-1.3-0.2c-2.7-0.3-5.3-0.3-7.9,0c-4.4,0.3-8.7,1-12.9,2.1
	c-3.8,0.1-7.6,1.1-10.8,3.4c-0.3,0.2-0.6,0.5-0.9,0.7c-0.7,0.3-1.4,0.6-2.1,1c-2.7,1.3-3.7,4.3-3.6,7c-0.6,0.9-0.3,2.2,0.5,2.9
	c2.8,9.4,16,10.4,24,11.3c5.3,0.6,10.5,1.1,15.7,1.2c0.9,0.1,1.8,0.2,2.6,0.4c4.5,0.9,33.4,24.4,38.1,24.3
	c6-0.2,24.3-16.9,26.1-22.6C554.2,452.8,515.1,441.1,513,438.9z"/>
<path fill="#DA7D4F" d="M691.2,324.5c-1.5-21.7-5.3-43.2-17.1-61.2c-0.8-1.2-2.2-2.6-3.5-1.9s-1,2.6-0.6,4
	c11.4,34.4,18,71.9,8.1,106.8c-1.7,6.1-4,12.5-2.8,18.8c0.3,1.5,0.7,3.2-0.4,4.3c-0.6,0.7-1.6,0.9-2.5,1.1c-3.4,1.1-6.1,4.4-6.4,8
	c-0.1,1.2,0,2.5-0.6,3.5c-1.2,2.1-4.3,1.8-6.6,1.3c-15.2-3.8-30.9-10.4-46.1-6.5c-1.7,0.4-3.8,1-5.1-0.2c-2.2-1.9-0.2-5.4,1.6-7.6
	c8.1-10.2,9.8-24,11-37c1-11,1.8-22.1,2.6-33.1c0.1-0.8,0-1.8-0.7-2.2c-1.1-0.6-2.2,1-2.5,2.3c-1.3,5-2.1,10.2-3.4,15.2
	c-1.2,4.4-3.2,8.5-4.4,12.9c-1.3,4.6-2.6,9.3-5.4,13.3c-1.2,1.7-2.6,3.2-4.3,4.4c-9.4,7-24.7,6-35.7,4.8
	c-11.8-1.3-23.6-3.3-35.4-5.4c-8.6-1.5-17.3-3-25.7-5.6c-7.2-2.2-13.8-5-16.9-12.4c-2.4-5.7-1.8-12.2-0.7-18.3
	c0.6-3.4,1.3-6.8,1.8-10.2c0.4-3.2,0-6.5,0.5-9.7c0.1-0.8,1.7-9.6-0.1-7.7c-0.4,0.4-0.6,1-0.7,1.5c-4,14.7-11.7,31.5-8.6,47.1
	c0.7,3.4,1.9,6.7,4.6,9.1c0.7,0.7,1.6,1.3,2,2.1c1.4,3,1.7,6.7,1.2,9.8c-0.8,4.6-1.7,10.2-3.2,14.6c-2,5.9-10.1,2.9-14.8,2.8
	c-9.1-0.1-25.3-0.2-31.4,8.1c-0.4,0.6-0.8,1.3-0.5,1.9c0.6,1.2,2.3,0.4,3.3-0.4c5.5-4.1,12.5-4.8,19.2-4.8c7.1,0,14.3-0.2,21.2,1.9
	c1.9,0.6,3.8,1.4,5.1,2.9c1.9,2.2,2.7,5.5,3.9,8.1c0.3,0.6,0.6,1.3,0.6,2c0.2,2.5-1.1,5.2-3,6.8c-3.1,2.7-8.5,1.8-12.3,2.1
	c-8,0.7-24.8,1.5-28.6,10.4c-0.4,0.9-1.2,0.8-1.9,0.8c-0.2,0-0.4,0-0.5-0.1c0.6,1.9,1.3,3.8,1.6,5.9c0.3-0.1,0.6-0.3,0.9-0.4
	c1-3.2,3.7-5.1,6.3-6.5c8.6-4.7,17.9-6.7,27.9-5.7c7.4,0.7,15.3,3.9,21.6,7.8c5.6,3.6,10.7,8,16.7,10.8c6.4,3,13,5.3,20.1,6.3
	c1,0.1,2,0.2,2.8-0.2c1-0.6,1.5-1.8,1.9-2.9c0.3-0.8,0.5-1.7,0.4-2.5c-0.6-2.8-5.1-2.8-7.3-3.4c-6.9-1.7-13.7-3.8-19.8-7.6
	c-6-3.7-11.5-8.3-18.2-10.6c-1-0.3-2-0.6-2.6-1.4c-1-1.4,0.6-2.8,1.1-4.1c1.4-4-1.7-9-2.4-13c-1.5-9.5,0.5-19.4-2.3-28.7
	c-0.5-1.6-0.7-3.4-0.9-5.1c-0.1-1.1,0.3-1.3,1.3-0.8c14.7,6.6,30.4,8.6,46.2,10.4c21.1,2.4,42.2,3.7,63.5,5
	c-5.4,12.8-10.7,25.6-16.1,38.5c2.9-0.7,5.9-1.4,8.8-2c-2.8,5.3-7,9.8-12,12.9c-1.3,0.8-2.8,1.8-2.9,3.4c-0.1,2.8,4.1,3.1,6.8,2.3
	c7-2,14.1-4,21.1-6.1c-2.5-2.4-0.1-7.1,3.3-7.9c3.4-0.8,6.8,0.8,9.9,2.4c5.2,2.7,10.3,5.3,15.5,8c5.9,3.1,12,6.2,16.3,11.3
	c4.3,5.1,6.5,12.5,3.5,18.5c3.5,2.5,8.9,1.8,11.8-1.5c1-1.2,1.8-2.7,3-3.8c1.4-1.2,3.2-1.6,4.8-2.4c3.7-2.1,5.4-7.1,3.8-11.1
	c-0.7-1.5-1.8-3-1.5-4.7c0.2-1.5,1.5-2.5,2.4-3.7c2.6-3.5,1.8-8.3,0.4-12.4c-1.4-4.1-3.3-8.3-2.6-12.5c0.9-6,6.7-10.4,7.5-16.4
	c0.6-4.5-1.6-8.9-1.4-13.4c0.1-3.8,1.9-7.2,3.1-10.8c3-8.6,2.8-18,2.6-27.2C691.9,340.1,691.7,332.3,691.2,324.5z M671,441.4
	c1.1,1.9,2.7,3.4,3.2,5.7c0.6,2.5-0.4,5.4-2.4,6.5s-4.7,0.7-6.7-1c-4.2-3.6-8.5-6.9-13.3-9.7c-4.9-2.8-8.8-7-13.1-10.6
	c-3.9-3.2-8.3-5.2-13.4-5c-2.6,0.1-4.9-0.7-7.3-1.4c-1.8-0.5-3.5-0.8-5.3-0.7c-5.2,0.2-6-3.4-4.5-7.6c0.6-1.6,1.5-3,1.7-4.8
	c0.1-1.8,2.7-3.8,4.7-3.7c3.3,0.1,6.6-0.7,9.4-0.5c6.9-0.1,13,1.5,19,3.5c4,1.4,8.2,2.4,12.3,3.5c7.5,2.1,14,5.7,18.6,12.3
	c2.3,3.3,2.2,9.4-2.5,10.8C669.8,439.2,670.4,440.3,671,441.4z"/>
<ellipse fill="#F28A83" cx="601.9" cy="218.1" rx="18.4" ry="14.6"/>
<path fill="#564A48" d="M640.9,117.2c-1.5-10.8-4.6-21.2-10.6-29.2c-11.2-14.7-33.6-12.3-48.1-3.9c-12.6,7.3-22,21-28.2,34
	c-6.7,14.2-10.1,30-9.8,45.8c0.4,16.2,5.1,26,15.2,38.9c12.9,16.5,38.4,28.7,56.1,12.2c5.5-5.1,9.3-11.7,12.5-18.5
	c8.5-18,13.2-31.1,13.9-50.9C642.2,136.9,642.2,127,640.9,117.2z"/>
<path fill="#B6705C" d="M616.5,238.4c-2.7-3.2-6.8-4.7-11.2-5.5c-26.6-5.1-56.9-2-80.2,12.5c-14.4,8.9-23.2,26.7-19.6,43.6
	c3,14,10.3,23.3,23.7,28.1c38.5,13.7,90.2-28,90.7-65.7c0-3.2-0.2-6.5-1.4-9.6C618,240.5,617.3,239.4,616.5,238.4z"/>
<path fill="#E9A78C" d="M621.5,168c-2.5-7.3-13-14.5-20.3-9.7c2.2-4.6,3.9-9.5,4.9-14.6c1.8-9.5,1.2-18.6-3.2-27.2
	c-3.8-7.3-8.7-14.4-14.5-20.3c-12.6-12.9-30.9-17.6-48.5-17.5c-8.9,0-17.8,1.9-25.8,5.9c-7.8,3.9-14,10.2-18.4,17.7
	c-6.2,10.3-9.5,22.5-9.1,34.5c-0.3,2.5-0.5,5-0.5,7.6c0,8.9,1.5,17.5,3.8,26c3.9,22,14.8,43,30.5,58.4c2.6,2.6,5.2,5.1,8.6,6.5
	c4,1.7,8.1,2,12.3,2.1c0,0.1,0,0.1,0,0.2c0,0.2,0,0.3,0,0.5c-0.1,1-0.2,2.1-0.3,3.1c0.3,1.5-0.5,2.3-1.8,3
	c-3.9,1.9-8.1,3.3-11.4,6.1c-8.9,7.6-14.8,18.5-14.9,29.4c-0.2,3,0.2,6,1,8.9c1.9,6.8,6.5,12.8,12.1,17c2,1.5,4.3,2.1,6.7,2.4
	c9.4,4,20.8,3.8,30.1,0.3c10.2-3.8,19-10.8,27.2-18c7.4-6.5,14.7-13.5,18.9-22.4c3.1-6.5,4.4-14.4,2.5-21.4c-1-3.5-2.4-5.7-5-8.1
	c-2.5-2.3-5.5-4.2-6.2-7.8c-1.2-6-2.3-12-2.6-18.1c-0.3-6.7,1.5-13.1,0.7-19.8c6.7,1.1,14-1.1,18.8-5.9c3.1-3.2,5-7.5,5.4-11.9
	C622.6,172.6,622.3,170.2,621.5,168z"/>
<path fill="#6F6F6F" d="M569.9,41c2.3,0.5,4.7,1,7,1.7C574.6,42,572.3,41.5,569.9,41z"/>
<path fill="#564A48" d="M631.9,102.3c-1.4-9-4.5-17.6-10-24.7c-8.1-10.6-18.6-14.9-30.8-18.9c-11.1-3.7-22-6.7-33.7-6.8
	c-17.3-0.1-35,3.5-50.4,11.4c-15.3,7.8-28.3,20.2-34.4,36.5c-2.9,7.7-4.7,16-5,24.3c0.5,6.3,2.1,12.4,5.2,18.4
	c2.5,5,5.5,9.7,10.3,13c0.8,0.5,1.4,0.5,2.1,0.2c0.4,0.3,0.8,0.7,1.2,1c1.1-2.5,0.4-5.4,1.5-7.9c-0.2-0.3-0.2-0.6,0.2-0.9
	c0-0.3,0.1-0.5,0.1-0.8c-0.2-5,0.8-9.8,1.9-14.7c1.9-8.4,5.2-16.3,9.7-23.6c1.8-2.9,4.3-5.3,7.1-8c0.4,3,0.8,5.5,1.2,8.1
	c1.3,3.3,1.9,7,4,9.9c7.9,11,18.3,18.4,31.8,21c2.7,0.5,5.5,0.6,8.2,0.6c0.6,0,1.2-0.1,1.3-0.7c0.1-0.7-0.5-1-1-1.2
	c-0.9-0.3-1.8-0.6-2.8-0.9c-3.4-1.1-6.5-2.6-9.1-5c2.6,0.5,5.2,1.2,7.8,1.8c7.5,1.7,15,3.3,22.7,1.5c2.8-0.6,2.9-0.4,2.9,2.5
	c0,6,1.9,11.2,6.7,15.2c4.3,3.5,9.2,5.5,14.6,6.3c1.3,0.2,2.6,0.8,3.8-0.3c2.2-1.9,4.7-2.4,7.5-2.4c0.2-0.3,0.3-0.7,0.5-1
	c0.4,0,0.9-0.2,1.2,0c4,2.5,7.8,4.8,11.4,7.7c1.9-4.9,3.5-9.8,5.6-14.7C631.2,135.5,634.3,118.2,631.9,102.3z"/>
<path fill="#6F6F6F" d="M485.1,155L485.1,155L485.1,155z"/>
<path fill="#695B55" d="M485.1,155.7c0,0.1,0,0.1,0,0.2c-5.3-1.3-8.9-6.1-11.3-11c-9.7-19.2-8.3-42.5,3.8-60.1
	c11.1-16.1,26.9-28.8,44.8-36.6c18.1-7.9,38.5-11.1,57.5-4.5c5.7,2,9.7,5.6,12.7,10.7c0.5,0.8,0.8,1.6,1.9,1.6
	c12.2-0.2,23.3,8.9,30.6,17.8c7.5,9.3,8.4,22.5,8.2,34c-0.2,16.3-3.7,32.8-10.3,47.8c-0.6,1.5-4.5,7.4-3.3,9c-3-4-7.5-5.7-11.6-8.2
	c-0.3-0.2-0.8,0-1.2,0c0.5-5.1-3.6-3.8-7.9-4.9c-6.5-1.7-14.3-5.2-16.9-12c-0.5-1.3-0.7-3,0.3-4c0.5-0.5,1.2-0.8,1.9-1
	c4.3-1.4,8.3-2.7,12.1-5.2c0.8-0.5,10-8.4,8.7-9.2c-3-2.4-10.4,2.8-13.7,3.8c-5.3,1.7-10.8,3-16.5,3c-9.9-0.1-20.1-2-29.5-4.9
	c-5.7-1.6-11.4-3.4-16.4-6.4c-9.4-5.6-13.2-15.3-17.1-25c-0.4-1.1-1.1-1.9-2.2-2.3c-2.7-0.9-5.5-1.2-8.3-0.2
	c-16.7,6.1-28.3,26.8-23.1,45.1C480.7,141.1,483.9,147.6,485.1,155.7z"/>
<path fill="#C68A6E" d="M606.2,192.7c7-0.8,16.4-8.5,16-17.8c-0.2-3.6-0.4-7.1-1.8-10.5c-3-4-7.5-5.7-11.6-8.2c-0.3-0.2-0.8,0-1.2,0
	c-0.2,0.3-0.3,0.7-0.5,1c1.2,1.4,3.1,1.3,4.6,2c3.4,1.5,6.7,3.5,7.4,7.5c1.4,8.1,0.1,12.2-6.3,17.1c-3.9,3-8,4.4-12.8,3.4
	c-1.9-0.4-3.5-1.2-5-2.4c-0.4-0.3-0.9-0.5-1.3-0.6c-1.5,10.9-9.6,21.1-15.9,29.5c-4.7,6.1-10.8,11.2-17.4,15.2
	c-5.2,3.2-11.4,6.6-17.6,8c-0.5,0.2-1,0.4-1.5,0.5c-0.1,1.3-0.3,2.5-0.4,3.8c0.3,1.5-0.5,2.3-1.8,3c-3.9,1.9-8.1,3.3-11.4,6.1
	c-5.6,4.8-10.7,10-13.4,17c-0.5,1.3-0.8,2.8-1,4.2c-1,7.3-0.3,14.4,2.3,21.3c0.7,1.9,1.9,3.5,2.9,5.2c0.4,0.6,1,0.9,1.8,0.9
	c-1-4-1-8.1-1.7-12.2c-1.1-6.5,0.5-12.7,2.5-18.8c1-3.2,2.9-5.8,5.1-8.4c6.3-7.5,15-10.4,24-12.7c0.5-0.1,0.9-0.2,1.4,0.1
	c6.1,3.3,12.2,2.4,18.4,0.3c2.8-1,5.7-1.6,8.7-1.4c1.5,0.1,2.8,0.5,4.1,1.2c5.2,3.2,8.5,7.9,10.6,13.6c1.1,3,2.4,5.9,2.3,9.1
	c-0.1,3.4-0.7,6.8-1.9,10c-1.7,4.4-4.1,8.5-6.8,12.4c-0.4,0.5-0.7,1-0.7,1.7c3.2-1.9,6-4.3,8.7-6.8c4.4-4.2,7.5-9.3,11.2-14
	c3-3.8,4.6-8.4,5.7-13c1.1-4.7,0.5-9.5-0.5-14.3c-1-4.7-4.1-7.6-8-9.7c-0.2-0.1-0.3-0.2-0.5-0.3c-1.9-3.9-3-8.1-3.7-12.4
	c-0.8-5.5-0.4-11.2-0.9-16.7c0.2-2.8,0.3-5.6,0.3-8.4c0.3-1.5,0.3-3.3-0.1-4.5v-0.1c0-0.2-0.1-0.3-0.2-0.5
	C600.9,193.1,603.6,193,606.2,192.7z"/>
<path fill="#C4886A" d="M535.7,149.1c5.7,0.4,10.3,3,14.1,7.1c0.9,1,0.8,2.1,0,3.2c-1,1.2-2.1,1.7-3.6,0.8c-2.1-1.2-4.1-2.8-6.4-3.7
	c-1.7-0.6-3.5-1.3-5.4-1.3c-0.5,0-1-0.2-1.4-0.3c-1.2-0.5-2.5-1-2.5-2.6c0.1-1.7,1.2-2.5,2.7-2.9C534,149.3,534.8,149,535.7,149.1z"
	/>
<path fill="#C4886A" d="M495.2,157.7c0-2.5,2.9-6.3,5.6-7.3c2-0.7,4.1-1.3,6.2-1.6c1.4-0.2,3.1,0,3.5,1.8c0.5,1.9-0.8,3-2.3,3.3
	c-3.5,0.9-6.5,2.5-8.8,5.3c-0.7,0.9-1.6,1.4-2.7,0.8C495.7,159.6,495,158.7,495.2,157.7z"/>
<path fill="#605D5B" d="M531.7,216.1c-4.1,0-5.7-1.1-6.8-4.3c-0.4-1.2,0.5-2.4,1.9-2.2c3.8,0.7,7.7,0.2,11.5,0.4
	c0.9,0,1.6,0.5,1.9,1.4c0.3,1.1-0.2,1.9-1.1,2.4C536.7,215.4,534.1,216.2,531.7,216.1z"/>
<path fill="#605D5B" d="M531.5,172.5c0-2.8,2-4.7,4.6-4.8c2.4-0.1,3.5,3.1,3.7,5.9c0.1,1.7-1.7,2.9-4.5,2.9
	C532.8,176.5,531.5,175.1,531.5,172.5z"/>
<path fill="#C4886A" d="M526.4,198.9c-0.4-0.1-0.9-0.2-1.5-0.3c-1.4-0.4-3.4-0.3-3.7-1.7c-0.3-1.7,1.8-2.6,2.8-3.8
	c0.3-0.3,0.7-0.5,1.1-0.4c2.7,1.1,5.6,1.4,8,3.1c0.4,0.3,1,0.4,0.8,1c-0.1,0.6-0.6,1-1.1,1.1C530.8,198.3,528.7,198.5,526.4,198.9z"
	/>
<path fill="#605D5B" d="M511.9,173.3c0,2.7-1,4-3.1,4c-1.9,0-4.2-2.5-4.2-4.4s1.9-4,3.5-4C510.5,168.9,511.9,170.6,511.9,173.3z"/>
<path fill="#FFFFFF" d="M512.1,453c-0.9-1-1.9-2-3.2-2.7c-2.5-1.5-5.2-2.2-8-2.2c0.2-3.4,0.6-6.4-1.9-9.2c-3.3-3.7-11-6.8-15.7-7.4
	c-10.7-1.2-22.9-0.9-32.9,3.5c-2,0.9-4.1,2-5.5,3.8c-2.7,3.3-2.5,7.9-2.3,12.1c0.5,10.8,0.1,21.5-0.2,32.3c0,2-0.1,4,0.5,5.9
	c1.6,5.7,9,7.7,14.1,8.6c7.1,1.3,14.4,1.3,21.5,0.1c6.5-1.1,13.8-2.9,18.1-8.3c1.7-2.2,2.7-4.8,3.3-7.5c0.3,0,0.7-0.1,1-0.1
	c8.4-0.3,16.2-6.5,16.5-15.9C517.6,461.1,515.7,456.3,512.1,453z M504.6,471.5c-0.9,0.7-2.3,1.7-3.8,2.2c0-0.2,0-0.3,0-0.5l0,0
	c0.2-5.5,0.5-11,0.4-16.5c1,0,1.9,0.2,2.9,0.7c2.7,1.4,3.3,4.6,3.4,7.3C507.7,467.7,506.9,469.8,504.6,471.5z"/>
<path fill="#6F6F6F" d="M474.9,436.9c5.1-0.7,10,0.3,14.9,1.4c0.2,0,0.4,0.1,0.6,0.2c1.1,0.5,2.5,1.1,2.5,2.2s-1.6,1-2.5,1.4
	c-7.4,2.7-14.9,3-22.6,1.9c-3.3-0.5-6.6-0.6-9.9-1c-1.4-0.2-2.9-0.5-4.2-0.9c-0.9-0.3-2.3-0.2-2.3-1.3c0-0.9,1.4-1.2,2.3-1.6
	c3.6-1.4,7.3-2,11.1-2.3C468.1,436.7,471.5,436.9,474.9,436.9z"/>
<path fill="#C68A6E" d="M658.3,467.9c-0.3-1.8-0.7-3.6-1.3-5.2c-2.9-7.8-9.7-13.1-15.4-18.3c-6-5.5-12.9-10.2-20.5-12.2
	c-3.1-0.8-6.2-1.1-9.4-1c-2.9,0.1-2.4,6.4-2.8,8.6c-4.8,1.1-9.6,3.2-14.1,4.7c-13.5,4.5-26.9,8.9-40.1,14.5
	c-6.8,2.9-13.4,6.1-20,9.7c-6.3,3.5-12.5,2.8-19.2,0.9c-5.8-1.6-11.2-2.6-17.1-2.9c-1.1-1.3-2-2.8-2.9-4.4
	c-2.2-3.9-3.7-8.4-6.2-12.1c-3.1-4.6-8.1-8-13.3-7.3c-2.8-0.6-4.2,1.2-4.3,5.7c-0.1,3.6,0.9,7,2.2,10.3c0.8,2.1,1.9,4,2.3,6.2
	c0.1,0.6,0.2,1.1,0.1,1.5c-3.7,0.2-7.5,0.2-11.2,0.3c-4.2,0.1-8.2-1-12.3-1.8c-3.2-0.6-6.5-2.4-9.7-2c-1,0.1-3.2,1.6-3.6,2.9
	c-0.4,1.2,0.5,2.8,0.8,3.9c0.5,1.8,1.7,2.7,2.9,3.8c0.5,0.5,0.5,1.4,0,1.9c-0.8,0.8-1.6,1.6-2.3,2.4c-0.9,1.6-1.3,3.5-1.3,5.4
	c-0.5,2.4-0.2,4.7,1.3,7.1c2.1,2.1,4.2,2.7,6.3,3.2c-0.1,0.2-0.3,0.4-0.4,0.6c-1.4,2.1-1.6,5.4-0.7,8c0.3,2.2,1.8,2.9,3.6,4.7
	c3.1,3.1,7.4,3.9,11.5,4.6c4.8,0.7,9.6,1.2,14.4,1.3c10.5,0.3,21.5-0.6,31.6-3.5c4.8-1.4,9.4-3.3,14.5-3.7c3.3-0.2,6.5,0.1,9.8,0.1
	c3.4,0,6.3-0.9,9.6-1.3c2.6-0.4,5-0.7,7.5-0.7c2.7,0,5.3,0.2,8,0.2c15.2,0.1,30.4,0.2,45.6-1.5c7.8-0.9,15.4-2.3,23.1-4.2
	c7.9-2,16-3.9,23.1-8.5c3.3-2.2,6.3-5.1,8.1-8.9C658.5,476.7,659,472.2,658.3,467.9z"/>
<path fill="#E3A488" d="M644.5,468c-0.1-0.7-0.2-1.4-0.4-2c-1.8-7.1-6.8-12.9-11.8-17.8c-3.8-3.7-7.9-7.4-12.8-8.6
	c-5.2-1.3-10.5,0.4-15.6,2c-19.6,6.2-39.3,12.5-57.9,21.8c-7,3.5-14.2,7.5-21.9,7.6s-15-3.8-22.7-4c-1.5,0-3,0-4.4-0.6
	c-2-0.9-3.1-3.1-4.3-5.2c-3.3-5.9-7.5-11.2-12.2-15.7c-2.1-2-5.3-3.8-7.3-1.7c-0.7,0.7-1.1,1.8-1.3,2.8c-1.2,6.1,2.3,12,4,17.9
	c0.3,1.1,0.7,2.5,0.3,3.7c-0.4,1.2-1.5,1.6-2.6,1.7c-2.8,0.3-5.7,0-8.5-0.5c-3.3-0.6-6.4-1.7-9.5-2.9c-4.3-1.6-8.6-3.4-13-4.9
	c-2.4-0.8-4.1,4-3.9,7.1c0.3,3,2.1,5.8,4.4,7.4c3.6,2.5,7.9,3.8,12.1,4.8c5.2,1.3,10.5,2.1,15.6,3.5c-1-0.3-2.6,0.2-3.7,0.2
	c-1.3,0-2.6,0-3.9-0.1c-2.6-0.2-5.3-0.6-7.8-1.2c-5-1.2-9.9-3.3-14.5-5.7c-2.5,2-2.3,6.5-0.4,9.2s5,4,7.9,5
	c8.4,2.9,17.3,4.3,26.1,4.1c-3.7,1.7-7.6,2.5-11.6,2.5c-2.5,0-5-0.2-7.4-0.7c-0.4-0.1-0.7-0.2-1.1-0.2c-2-0.7-3.5-1.8-5.3-0.6
	c-2.7,1.7-1.1,4.2,0.5,6c2.8,3.4,8.4,3.5,12.4,3.9c5.2,0.6,10.4,0.9,15.6,0.8c8.6-0.1,17.1-1.2,25.5-3.2c7-1.7,15.5-2.4,21.7-6.2
	c1.2-0.7,3.1-1.3,3.6,0.2c0.2,0.5,0,1.1,0.2,1.6c0.4,1,1.6,1.1,2.5,1c27.3-1.9,54.9-3.9,80.9-13.5c4.9-1.8,10-3.9,15.1-3.1
	c2,0.3,4,1.1,6,1.2C640.7,485.8,645.8,476.1,644.5,468z"/>
<g>
	<path fill="#C68A6E" d="M606.3,453.1c-0.1-2.8-0.3-7.3-2.5-9.4c-0.2-0.2-0.4-0.4-0.5-0.6c-1.7-0.8-4-0.5-5.7-1
		c-2.4-0.7-4.5-1.9-6.5-3.3c-0.5-0.3-2.3,0.2-2.3,0.2c-0.4-4.1-4.7-6.4-8.3-7.2c-4.9-1.2-9.6,1.1-13.8,3.4s-8.5,4-12.2,7.1
		c-1.4,1.2-2.1,3.3-2.1,3.3c-2.2,1.5-7.1,2.6-9.2,4.3c-1.4,1.2-2.6,2.7-3.9,4.2c-0.9,1-1.7,2-2.7,2.8c-2.1,1.8-4.2,3.4-6.7,4.6
		c-2.1,1.1-4.3,1.9-6.5,2.6c2.2,1.3,4.9,2.2,6.8,2.9c2.1,0.8,4.2,1.4,6.4,1.9c4.6,0.4,9.3,0.5,13.9,0c2.6-0.3,5.4-0.7,7.9-1.5
		c0.7-0.2,1.4-0.5,2.1-0.7c0.8-0.3,1.6-0.4,2.4-0.5c2,0,3.7,1.5,5.7,1.8c1.9,0.3,8.2,0.1,9-2.2c0.8-2.3,3.6-3.2,5.5-1.4
		c0.8,0.7,3-0.3,3.7-0.6c1.4-0.6,2.9-1.5,3.9-2.6c1.3-1.3,3.3-1.2,4.6,0c0.2,0.2,0.5,0.4,0.9,0.5c2.6,0.7,7.6-2.1,9.1-3.4
		c0.2-0.2,0.5-0.4,0.8-0.5C606.4,456.2,606.3,454.6,606.3,453.1z"/>
	<path fill="#E3A488" d="M535.2,463.6c4-3.6,7.4-7.5,11-11.1c4.2-4.2,9.5-4.9,15.3-3.4c3.7,1,7.2,2.3,10.6,3.9
		c3.4,1.6,4.6,4.1,3.7,7.2c-0.7,2.4-4.4,4-7.5,3.3c-1.9-0.5-3.7-1-5-2.7c-0.7-1-1.6-1-2.8-0.6c-3.2,1.3-6.5,2.1-9.7,3.6
		c-3.2,1.6-6.9,1.3-10.4,0.9C538.8,464.5,537,464.5,535.2,463.6z"/>
	<path fill="#E3A488" d="M560.3,444.8c1.2-1.3,2.5-1.6,4-1.5c1.7,0.1,3.3,0.1,5,0c6.8-0.5,12.5,2.1,17.8,5.9c2.6,1.9,4,6.4,2.4,8.5
		c-2.1,2.9-5.2,4.3-7.8,1.7c-0.8-0.8-1-1.6-0.9-2.6c0.2-4.3-2.9-7.2-6-8.3c-3.8-1.4-7.6-2.1-11.6-2.7
		C562.2,445.7,561.3,445.4,560.3,444.8z"/>
	<path fill="#E3A488" d="M597,457c-4,0-4,0-5.2-4.1c-1.2-3.8-3.1-7-7.6-7.8c-1.2-0.2-3.6-0.3-3.1-2.1c0.3-1.3,2.3-0.2,3.5-0.1
		c4.6,0.1,9,1,13.3,2.5c2.8,1,4.7,2.9,5.6,5.9c0.9,3.1-0.7,5.6-4,5.8C598.6,457,597.8,457,597,457z"/>
	<path fill="#E3A488" d="M559.1,442.7c0.1-0.2,0.1-0.4,0.2-0.5c5.4-3.9,10.8-7.6,17.8-8c2.9-0.2,5.7,1.6,6.1,4.1
		c0.2,1.1,0,1.7-1.3,1.7c-2.6-0.1-5.1,0-7.7,0c-4.6-0.1-9,0.7-13.3,2.4C560.4,442.6,559.8,443.1,559.1,442.7z"/>
</g>
</svg>
